<svg width="24" height="33" viewBox="0 0 24 33" fill="none" xmlns="http://www.w3.org/2000/svg">
<path d="M12.3516 15.5067C11.2618 15.5067 10.2166 15.084 9.44594 14.3316C8.6753 13.5792 8.24236 12.5588 8.24236 11.4948C8.24236 10.4307 8.6753 9.4103 9.44594 8.65793C10.2166 7.90555 11.2618 7.48287 12.3516 7.48287C13.4415 7.48287 14.4867 7.90555 15.2573 8.65793C16.0279 9.4103 16.4609 10.4307 16.4609 11.4948C16.4609 12.0216 16.3546 12.5433 16.1481 13.03C15.9416 13.5168 15.6389 13.9591 15.2573 14.3316C14.8757 14.7041 14.4227 14.9996 13.9242 15.2013C13.4256 15.4029 12.8913 15.5067 12.3516 15.5067ZM12.3516 0.261475C9.30006 0.261475 6.37349 1.44498 4.21571 3.55163C2.05793 5.65828 0.845703 8.51551 0.845703 11.4948C0.845703 19.9197 12.3516 32.3566 12.3516 32.3566C12.3516 32.3566 23.8575 19.9197 23.8575 11.4948C23.8575 8.51551 22.6453 5.65828 20.4875 3.55163C18.3298 1.44498 15.4032 0.261475 12.3516 0.261475Z" fill="#AC714E"/>
</svg>
