<svg width="13" height="18" viewBox="0 0 13 18" fill="none" xmlns="http://www.w3.org/2000/svg">
<path d="M6.85308 8.51365C6.27879 8.51365 5.72802 8.28534 5.32193 7.87893C4.91584 7.47253 4.68771 6.92133 4.68771 6.34659C4.68771 5.77185 4.91584 5.22064 5.32193 4.81424C5.72802 4.40784 6.27879 4.17952 6.85308 4.17952C7.42737 4.17952 7.97814 4.40784 8.38423 4.81424C8.79031 5.22064 9.01845 5.77185 9.01845 6.34659C9.01845 6.63117 8.96244 6.91297 8.85362 7.17589C8.7448 7.43881 8.5853 7.6777 8.38423 7.87893C8.18316 8.08016 7.94445 8.23979 7.68173 8.34869C7.41902 8.4576 7.13744 8.51365 6.85308 8.51365ZM6.85308 0.278809C5.24506 0.278809 3.7029 0.91809 2.56586 2.05602C1.42882 3.19395 0.790039 4.73731 0.790039 6.34659C0.790039 10.8974 6.85308 17.6153 6.85308 17.6153C6.85308 17.6153 12.9161 10.8974 12.9161 6.34659C12.9161 4.73731 12.2773 3.19395 11.1403 2.05602C10.0033 0.91809 8.4611 0.278809 6.85308 0.278809Z" fill="white"/>
</svg>
