<svg width="18" height="16" viewBox="0 0 18 16" fill="none" xmlns="http://www.w3.org/2000/svg">
<path d="M17.2478 1.16219V12.3621C17.2478 12.5906 17.1517 12.8097 16.9806 12.9713C16.8095 13.1329 16.5775 13.2236 16.3356 13.2236C16.0936 13.2236 15.8616 13.1329 15.6905 12.9713C15.5195 12.8097 15.4234 12.5906 15.4234 12.3621V3.24171L2.38562 15.5562C2.21445 15.7179 1.9823 15.8087 1.74023 15.8087C1.49816 15.8087 1.26601 15.7179 1.09484 15.5562C0.923675 15.3946 0.827515 15.1753 0.827515 14.9467C0.827515 14.7181 0.923675 14.4988 1.09484 14.3372L14.1337 2.02372L4.47686 2.02372C4.23493 2.02372 4.0029 1.93295 3.83183 1.77138C3.66076 1.60982 3.56465 1.39068 3.56465 1.16219C3.56465 0.933698 3.66076 0.714564 3.83183 0.552996C4.0029 0.391428 4.23493 0.300659 4.47686 0.300659L16.3356 0.300659C16.5775 0.300659 16.8095 0.391428 16.9806 0.552996C17.1517 0.714564 17.2478 0.933698 17.2478 1.16219Z" fill="#162A2B"/>
</svg>
