<svg width="12" height="49" viewBox="0 0 12 49" fill="none" xmlns="http://www.w3.org/2000/svg">
<path d="M5.2353 47.9147C5.52819 48.2076 6.00306 48.2076 6.29596 47.9147L11.0689 43.1418C11.3618 42.8489 11.3618 42.374 11.0689 42.0811C10.776 41.7882 10.3012 41.7882 10.0083 42.0811L5.76563 46.3237L1.52299 42.0811C1.23009 41.7882 0.755219 41.7882 0.462326 42.0811C0.169433 42.374 0.169433 42.8489 0.462326 43.1418L5.2353 47.9147ZM5.01562 0.850586L5.01563 47.3844L6.51563 47.3844L6.51562 0.850586L5.01562 0.850586Z" fill="white"/>
<path d="M5.2353 47.9147C5.52819 48.2076 6.00306 48.2076 6.29596 47.9147L11.0689 43.1418C11.3618 42.8489 11.3618 42.374 11.0689 42.0811C10.776 41.7882 10.3012 41.7882 10.0083 42.0811L5.76563 46.3237L1.52299 42.0811C1.23009 41.7882 0.755219 41.7882 0.462326 42.0811C0.169433 42.374 0.169433 42.8489 0.462326 43.1418L5.2353 47.9147ZM5.01562 0.850586L5.01563 47.3844L6.51563 47.3844L6.51562 0.850586L5.01562 0.850586Z" fill="white"/>
</svg>
