<svg width="152" height="152" viewBox="0 0 152 152" fill="none" xmlns="http://www.w3.org/2000/svg">
<circle cx="76.2505" cy="76.1075" r="75.4087" fill="#AC714E"/>
<path d="M127.709 82.9335L128.842 83.1948L128.774 83.4929C128.676 83.9169 128.736 84.2778 128.953 84.5757C129.17 84.8735 129.57 85.1437 130.153 85.3861C130.735 85.6319 131.522 85.8884 132.514 86.1555L137.382 87.4664L135.952 93.6676L125.775 91.3211L126.06 90.0888L135.143 92.1833L136.018 88.387L132 87.293C130.943 87.0073 130.057 86.7003 129.345 86.372C128.632 86.0437 128.124 85.6386 127.82 85.1568C127.515 84.675 127.45 84.0598 127.622 83.3112L127.709 82.9335Z" fill="white"/>
<path d="M134.404 98.3082L133.877 99.4353L126.431 95.9533L126.387 96.0457L131.414 104.701L130.896 105.81L121.436 101.386L121.971 100.24L129.399 103.714L129.442 103.621L124.425 94.993L124.944 93.8844L134.404 98.3082Z" fill="white"/>
<path d="M120.844 114.562L121.603 113.551C121.939 113.709 122.273 113.796 122.606 113.812C122.936 113.83 123.256 113.789 123.564 113.689C123.874 113.594 124.162 113.447 124.43 113.249C124.698 113.05 124.936 112.812 125.144 112.535C125.524 112.029 125.739 111.475 125.792 110.872C125.842 110.273 125.709 109.665 125.393 109.05C125.075 108.437 124.554 107.86 123.831 107.317C123.107 106.775 122.407 106.436 121.73 106.302C121.05 106.171 120.43 106.214 119.868 106.43C119.305 106.649 118.833 107.011 118.454 107.517C118.246 107.795 118.084 108.09 117.968 108.402C117.853 108.715 117.791 109.032 117.784 109.354C117.777 109.68 117.829 109.999 117.939 110.312C118.05 110.628 118.227 110.925 118.47 111.201L117.711 112.213C117.342 111.816 117.063 111.391 116.877 110.937C116.691 110.483 116.592 110.017 116.579 109.541C116.57 109.066 116.644 108.597 116.801 108.132C116.956 107.67 117.191 107.229 117.507 106.807C118.042 106.095 118.691 105.592 119.455 105.298C120.22 105.004 121.042 104.939 121.922 105.102C122.803 105.265 123.684 105.677 124.565 106.338C125.446 106.999 126.088 107.729 126.491 108.529C126.895 109.328 127.062 110.136 126.994 110.952C126.926 111.768 126.625 112.532 126.091 113.245C125.774 113.666 125.417 114.016 125.017 114.294C124.615 114.575 124.184 114.776 123.723 114.898C123.264 115.022 122.791 115.058 122.303 115.006C121.817 114.956 121.331 114.808 120.844 114.562Z" fill="white"/>
<path d="M120.393 118.172L121.147 119.002L115.354 124.272L114.599 123.443L117.028 121.233L110.755 114.338L111.691 113.487L117.963 120.382L120.393 118.172Z" fill="white"/>
<path d="M106.113 118.089L107.237 117.385L109.528 128.272L108.422 128.964L99.63 122.147L100.754 121.444L108.064 127.239L108.133 127.196L106.113 118.089ZM107.863 121.806L103.333 124.642L102.738 123.691L107.268 120.855L107.863 121.806Z" fill="white"/>
<path d="M102.292 132.328L101.127 132.765L98.2397 125.069L98.1442 125.105L95.6848 134.807L94.5389 135.237L90.8701 125.46L92.0541 125.015L94.9347 132.692L95.0302 132.657L97.4777 122.98L98.6235 122.55L102.292 132.328ZM98.3971 136.578L97.3467 136.972C97.1533 136.457 97.1733 135.968 97.4067 135.507C97.6402 135.045 98.0625 134.7 98.6736 134.47C99.2752 134.245 99.8157 134.229 100.295 134.423C100.771 134.618 101.106 134.973 101.3 135.489L100.25 135.883C100.156 135.635 100.006 135.443 99.7988 135.306C99.5883 135.171 99.3159 135.166 98.9817 135.291C98.6475 135.417 98.444 135.6 98.3713 135.842C98.2953 136.085 98.3039 136.33 98.3971 136.578Z" fill="white"/>
<path d="M85.5719 124.191L85.8533 127.831L85.1822 127.883C84.968 128.111 84.774 128.424 84.6002 128.823C84.4233 129.225 84.2886 129.754 84.196 130.409C84.1003 131.068 84.0672 131.897 84.0968 132.897L84.2127 137.307L78.0304 137.785L77.312 128.491L76.1121 128.584L75.8323 124.964L77.0321 124.872L77.2255 127.373L84.567 126.805L84.3721 124.284L85.5719 124.191ZM83.6773 127.999L78.5118 128.399L79.1438 136.574L82.9874 136.277L82.897 132.99C82.8789 132.228 82.8969 131.534 82.9509 130.909C83.0052 130.288 83.0936 129.734 83.2163 129.247C83.3391 128.764 83.4928 128.348 83.6773 127.999Z" fill="white"/>
<path d="M73.0865 127.195L74.4022 127.358L69.3121 137.25L68.0166 137.09L65.4956 126.254L66.8113 126.417L68.8271 135.525L68.908 135.535L73.0865 127.195ZM72.0988 131.183L66.7954 130.526L66.9333 129.412L72.2368 130.07L72.0988 131.183Z" fill="white"/>
<path d="M64.4636 126.229L64.1047 127.335L63.8137 127.24C63.3998 127.106 63.035 127.134 62.7194 127.325C62.4038 127.515 62.0998 127.89 61.8076 128.449C61.512 129.008 61.188 129.769 60.8355 130.734L59.1057 135.469L53.0526 133.505L56.2764 123.572L57.4792 123.962L54.6018 132.828L58.3074 134.031L59.747 130.123C60.1238 129.095 60.5067 128.24 60.8958 127.558C61.285 126.877 61.7327 126.406 62.2392 126.145C62.7456 125.884 63.3642 125.872 64.095 126.109L64.4636 126.229Z" fill="white"/>
<path d="M50.2984 127.404L47.6908 125.966C47.0359 125.605 46.5429 125.193 46.2116 124.731C45.8774 124.267 45.7017 123.776 45.6847 123.258C45.6646 122.738 45.8007 122.213 46.093 121.683C46.3853 121.154 46.7607 120.751 47.2191 120.476C47.6746 120.199 48.1918 120.071 48.7707 120.091C49.3466 120.11 49.962 120.3 50.6169 120.661L54.046 122.553L49.0017 131.697L47.8944 131.086L52.4067 122.907L50.0849 121.626C49.6682 121.396 49.2694 121.285 48.8887 121.292C48.5034 121.301 48.1633 121.397 47.8683 121.579C47.5687 121.764 47.3368 122.005 47.1726 122.302C46.9313 122.74 46.8917 123.209 47.054 123.71C47.2147 124.214 47.6076 124.639 48.2327 124.984L50.8402 126.422L50.2984 127.404Z" fill="white"/>
<path d="M39.0194 125.861L38.0748 125.021L44.2448 118.088L41.5021 115.647L35.3321 122.58L34.3874 121.739L40.5575 114.806L37.8148 112.365L31.6448 119.298L30.7001 118.457L37.6431 110.656L45.9624 118.06L39.0194 125.861Z" fill="white"/>
<path d="M36.1653 108.637L27.7199 114.78L24.0123 109.683L24.9196 109.023L27.8832 113.098L30.7368 111.022L27.9651 107.211L28.8724 106.552L31.644 110.362L34.5141 108.274L31.5025 104.134L32.4097 103.474L36.1653 108.637Z" fill="white"/>
<path d="M26.0265 63.0539L24.9349 62.6537L25.0402 62.3664C25.19 61.9579 25.1756 61.5923 24.997 61.2697C24.8184 60.9472 24.4551 60.6293 23.9073 60.3162C23.3607 59.9999 22.6119 59.6475 21.6608 59.2589L16.9939 57.3521L19.1848 51.3772L28.9898 54.9725L28.5544 56.1598L19.8027 52.9507L18.4615 56.6084L22.312 58.1941C23.3257 58.6093 24.1657 59.0241 24.832 59.4386C25.4983 59.8531 25.9523 60.3184 26.1941 60.8342C26.4358 61.3501 26.4244 61.9688 26.1599 62.6901L26.0265 63.0539Z" fill="white"/>
<path d="M21.2357 47.0578L21.8959 46.0032L28.8634 50.3649L28.9175 50.2784L24.9805 41.0758L25.6298 40.0385L34.4818 45.5799L33.8108 46.6518L26.8606 42.3009L26.8065 42.3874L30.7371 51.5619L30.0877 52.5992L21.2357 47.0578Z" fill="white"/>
<path d="M36.5563 32.6605L35.6818 33.574C35.3674 33.3765 35.046 33.25 34.7178 33.1947C34.392 33.1368 34.0698 33.1391 33.7514 33.2013C33.4328 33.2587 33.1287 33.37 32.839 33.535C32.5492 33.7 32.2845 33.9077 32.0447 34.1582C31.6074 34.615 31.3267 35.1392 31.2026 35.731C31.0808 36.3203 31.1399 36.9394 31.3801 37.5882C31.6226 38.2345 32.0705 38.8703 32.7237 39.4956C33.3769 40.1209 34.0316 40.5407 34.6879 40.7548C35.3465 40.9664 35.9675 40.9986 36.551 40.8512C37.1368 40.7014 37.6483 40.3981 38.0856 39.9413C38.3254 39.6909 38.5214 39.4173 38.6736 39.1206C38.8258 38.824 38.9249 38.5165 38.9709 38.1981C39.0167 37.8749 39.0037 37.5518 38.9317 37.2287C38.8597 36.9009 38.7193 36.5854 38.5108 36.2822L39.3853 35.3687C39.705 35.8065 39.9301 36.262 40.0607 36.7353C40.1912 37.2085 40.234 37.6824 40.189 38.1571C40.1416 38.6294 40.0121 39.0866 39.8006 39.5289C39.5914 39.9686 39.3046 40.3788 38.9402 40.7594C38.3243 41.4028 37.6193 41.8245 36.8254 42.0246C36.0315 42.2246 35.2073 42.1909 34.3527 41.9234C33.4981 41.6559 32.673 41.1413 31.8774 40.3796C31.0817 39.618 30.5317 38.8161 30.2272 37.974C29.9227 37.1318 29.8531 36.3098 30.0183 35.508C30.1836 34.7061 30.5742 33.9835 31.1901 33.3401C31.5545 32.9595 31.9518 32.6551 32.382 32.4269C32.8146 32.1962 33.267 32.0481 33.7392 31.9825C34.209 31.9146 34.6831 31.9355 35.1616 32.0453C35.6376 32.1527 36.1025 32.3578 36.5563 32.6605Z" fill="white"/>
<path d="M37.4261 29.1144L36.7761 28.2L43.1603 23.6622L43.8102 24.5766L41.1335 26.4792L46.534 34.0769L45.5032 34.8096L40.1028 27.2118L37.4261 29.1144Z" fill="white"/>
<path d="M51.4406 30.9554L50.2396 31.517L49.2895 20.4325L50.472 19.8795L58.3694 27.7153L57.1684 28.2769L50.6176 21.6353L50.5437 21.6699L51.4406 30.9554ZM50.156 27.0526L54.997 24.7889L55.4722 25.8051L50.6312 28.0688L50.156 27.0526Z" fill="white"/>
<path d="M56.8757 17.2537L58.0848 16.9603L60.0232 24.9486L60.1223 24.9246L63.7341 15.5895L64.9234 15.301L67.386 25.4498L66.1571 25.748L64.2235 17.7796L64.1244 17.8036L60.5276 27.114L59.3383 27.4026L56.8757 17.2537ZM61.2552 13.5044L62.3454 13.2399C62.4753 13.7751 62.3965 14.2577 62.109 14.6878C61.8216 15.1178 61.3607 15.4098 60.7264 15.5637C60.102 15.7153 59.5635 15.6658 59.1109 15.4153C58.6617 15.164 58.3721 14.7707 58.2422 14.2355L59.3325 13.971C59.395 14.2287 59.5209 14.4377 59.7103 14.5982C59.9029 14.7578 60.1727 14.7956 60.5196 14.7114C60.8665 14.6272 61.0906 14.4697 61.192 14.2387C61.2966 14.0069 61.3177 13.7621 61.2552 13.5044Z" fill="white"/>
<path d="M73.8028 27.2537L73.9718 23.6065L74.6442 23.6376C74.8849 23.4378 75.116 23.1507 75.3376 22.7764C75.5626 22.3989 75.7615 21.8908 75.934 21.2522C76.1101 20.6104 76.245 19.7913 76.3388 18.7951L76.7669 14.4045L82.961 14.6915L82.5295 24.003L83.7316 24.0587L83.5636 27.6856L82.3614 27.6299L82.4776 25.1237L75.1221 24.7828L75.005 27.3094L73.8028 27.2537ZM76.152 23.7075L81.3273 23.9473L81.7069 15.7564L77.856 15.578L77.541 18.8509C77.465 19.6097 77.3617 20.2957 77.2312 20.909C77.1008 21.519 76.9448 22.058 76.7632 22.526C76.5817 22.9906 76.378 23.3845 76.152 23.7075Z" fill="white"/>
<path d="M86.4781 25.7532L85.1921 25.4307L91.4513 16.2334L92.7176 16.5509L93.8974 27.6133L92.6114 27.2909L91.7222 18.0047L91.6431 17.9848L86.4781 25.7532ZM87.945 21.9152L93.1286 23.2149L92.8558 24.303L87.6722 23.0034L87.945 21.9152Z" fill="white"/>
<path d="M93.9775 27.6315L94.4699 26.5783L94.7471 26.7079C95.1413 26.8922 95.5067 26.9093 95.8434 26.759C96.1802 26.6087 96.528 26.2741 96.887 25.7552C97.2491 25.2378 97.6645 24.5219 98.1333 23.6078L100.434 19.1218L106.198 21.8175L101.775 31.2776L100.629 30.7419L104.578 22.298L101.049 20.6478L99.1382 24.3479C98.6375 25.3222 98.1521 26.1235 97.682 26.7518C97.2118 27.3801 96.7093 27.7925 96.1746 27.989C95.6398 28.1856 95.0245 28.1211 94.3285 27.7957L93.9775 27.6315Z" fill="white"/>
<path d="M108.015 28.0574L110.43 29.8003C111.036 30.2381 111.476 30.7064 111.749 31.2053C112.024 31.7062 112.139 32.2148 112.094 32.7311C112.051 33.2494 111.852 33.7538 111.498 34.2445C111.144 34.7351 110.723 35.0893 110.234 35.307C109.749 35.5267 109.22 35.5914 108.648 35.5012C108.078 35.413 107.49 35.15 106.884 34.7123L103.709 32.4201L109.821 23.9524L110.846 24.6926L105.379 32.2672L107.529 33.8192C107.915 34.0978 108.297 34.2564 108.676 34.295C109.059 34.3329 109.408 34.2789 109.723 34.1331C110.043 33.9865 110.302 33.7754 110.501 33.4997C110.794 33.0945 110.89 32.6334 110.789 32.1164C110.691 31.5966 110.352 31.1278 109.773 30.71L107.358 28.967L108.015 28.0574Z" fill="white"/>
<path d="M119.093 30.936L119.93 31.8837L112.975 38.0285L115.406 40.78L122.361 34.6352L123.198 35.5829L116.243 41.7277L118.674 44.4792L125.629 38.3344L126.466 39.2821L118.64 46.1967L111.266 37.8505L119.093 30.936Z" fill="white"/>
<path d="M119.978 48.4853L129.104 43.4072L132.168 48.9147L131.188 49.4602L128.738 45.0578L125.655 46.7736L127.946 50.8908L126.965 51.4363L124.674 47.3191L121.573 49.0448L124.063 53.5185L123.082 54.064L119.978 48.4853Z" fill="white"/>
</svg>
