<svg width="13" height="14" viewBox="0 0 13 14" fill="none" xmlns="http://www.w3.org/2000/svg">
<path d="M6.33191 10.0417L3.24772 6.95837L3.86474 6.3309L5.89617 8.36234V0.823975H6.76766V8.36234L8.79822 6.33177L9.41611 6.95837L6.33191 10.0417ZM1.63983 13.0248C1.23836 13.0248 0.903423 12.8906 0.635005 12.6222C0.366587 12.3537 0.232087 12.0185 0.231506 11.6165V9.50486H1.10299V11.6165C1.10299 11.7507 1.15877 11.8738 1.27032 11.986C1.38187 12.0981 1.50475 12.1539 1.63896 12.1533H11.0249C11.1585 12.1533 11.2814 12.0975 11.3935 11.986C11.5056 11.8744 11.5614 11.7513 11.5608 11.6165V9.50486H12.4323V11.6165C12.4323 12.0179 12.2981 12.3529 12.0297 12.6213C11.7613 12.8897 11.426 13.0242 11.024 13.0248H1.63983Z" fill="white"/>
</svg>
