<svg width="24" height="16" viewBox="0 0 24 16" fill="none" xmlns="http://www.w3.org/2000/svg">
<path fill-rule="evenodd" clip-rule="evenodd" d="M7.42357 9.96027C7.29458 9.96027 7.17047 9.88898 7.10894 9.76572C7.02233 9.59215 7.09283 9.3812 7.26647 9.29459L21.1833 2.35098C21.3116 2.28695 21.364 2.13039 21.2999 2.00214L20.8669 1.13422C20.8359 1.07202 20.7826 1.02567 20.7166 1.00365C20.6507 0.981633 20.5802 0.986573 20.5179 1.01755L6.7857 7.86925C6.61207 7.95586 6.40118 7.88542 6.31451 7.71179C6.22791 7.53821 6.29835 7.32726 6.47198 7.2406L20.2043 0.388835C20.4345 0.274056 20.6955 0.25576 20.9394 0.337239C21.1833 0.41878 21.3809 0.590399 21.4956 0.820565L21.9286 1.68836C22.1656 2.16314 21.972 2.74246 21.497 2.97958L7.58018 9.92319C7.52981 9.94832 7.47626 9.96027 7.42357 9.96027Z" fill="#162a2b"/>
<path fill-rule="evenodd" clip-rule="evenodd" d="M19.429 3.97642C19.3617 3.97642 19.2937 3.95715 19.2337 3.9169L17.1352 2.51047C16.9741 2.40246 16.931 2.18425 17.039 2.02312C17.147 1.86193 17.3652 1.81887 17.5264 1.92688L19.6248 3.33331C19.786 3.44132 19.8291 3.65953 19.7211 3.82072C19.6533 3.92178 19.5422 3.97642 19.429 3.97642Z" fill="#162a2b"/>
<path fill-rule="evenodd" clip-rule="evenodd" d="M16.3882 5.49355C16.321 5.49355 16.253 5.47428 16.193 5.43402L14.0945 4.02759C13.9334 3.91958 13.8903 3.70137 13.9983 3.54024C14.1063 3.37911 14.3244 3.33599 14.4857 3.444L16.5841 4.85044C16.7453 4.95844 16.7884 5.17666 16.6804 5.33785C16.6126 5.4389 16.5014 5.49355 16.3882 5.49355Z" fill="#162a2b"/>
<path fill-rule="evenodd" clip-rule="evenodd" d="M13.3475 7.01073C13.2802 7.01073 13.2123 6.99146 13.1522 6.95121L11.0537 5.54478C10.8925 5.43677 10.8495 5.21856 10.9575 5.05743C11.0655 4.89624 11.2837 4.85318 11.4448 4.96119L13.5433 6.36762C13.7044 6.47563 13.7475 6.69384 13.6395 6.85503C13.5718 6.95609 13.4607 7.01073 13.3475 7.01073Z" fill="#162a2b"/>
<path fill-rule="evenodd" clip-rule="evenodd" d="M10.2348 8.56372C10.1675 8.56372 10.0996 8.54445 10.0395 8.5042L7.94105 7.09776C7.77986 6.98975 7.7368 6.77154 7.84481 6.61041C7.95282 6.44922 8.17103 6.40616 8.33216 6.51417L10.4306 7.92061C10.5918 8.02861 10.6349 8.24683 10.5269 8.40796C10.4592 8.50907 10.348 8.56372 10.2348 8.56372Z" fill="#162a2b"/>
<path fill-rule="evenodd" clip-rule="evenodd" d="M7.42326 14.3504C7.22926 14.3504 7.07198 14.1931 7.07198 13.9991V9.21043C7.07198 8.23432 6.27786 7.44021 5.30175 7.44021C4.82886 7.44021 4.38438 7.62433 4.05017 7.95866C3.72242 8.28629 3.53836 8.72149 3.53171 9.18439L3.53159 13.9991C3.53159 14.1931 3.37431 14.3504 3.1803 14.3504C2.9863 14.3504 2.82902 14.1931 2.82902 13.9991L2.82914 9.18207C2.82914 9.18055 2.82914 9.17902 2.8292 9.1775C2.83768 8.52957 3.09486 7.9203 3.55337 7.46198C4.02022 6.99494 4.6412 6.73769 5.30175 6.73769C6.66525 6.73769 7.77455 7.84699 7.77455 9.21049V13.9992C7.77455 14.1931 7.61727 14.3504 7.42326 14.3504Z" fill="#162a2b"/>
<path fill-rule="evenodd" clip-rule="evenodd" d="M7.94959 15.8683C7.75559 15.8683 7.5983 15.711 7.5983 15.517V14.3504H3.00527V15.517C3.00527 15.711 2.84798 15.8683 2.65398 15.8683C2.45998 15.8683 2.3027 15.711 2.3027 15.517V13.9991C2.3027 13.8051 2.45998 13.6478 2.65398 13.6478H7.94959C8.14359 13.6478 8.30087 13.8051 8.30087 13.9991V15.517C8.30087 15.711 8.14359 15.8683 7.94959 15.8683Z" fill="#162a2b"/>
<path fill-rule="evenodd" clip-rule="evenodd" d="M5.30181 10.418C4.73097 10.418 4.26661 9.95356 4.26661 9.38278C4.26661 8.81194 4.73103 8.34758 5.30181 8.34758C5.8726 8.34758 6.33702 8.812 6.33702 9.38278C6.33696 9.95356 5.8726 10.418 5.30181 10.418ZM5.30181 9.05009C5.11836 9.05009 4.96919 9.19933 4.96919 9.38272C4.96919 9.56617 5.11843 9.71535 5.30181 9.71535C5.48526 9.71535 5.63444 9.56611 5.63444 9.38272C5.63444 9.19933 5.4852 9.05009 5.30181 9.05009Z" fill="#162a2b"/>
<path fill-rule="evenodd" clip-rule="evenodd" d="M21.3541 15.8683C21.1601 15.8683 21.0029 15.711 21.0029 15.517V9.26696H19.8034V15.517C19.8034 15.711 19.6461 15.8683 19.4521 15.8683C19.2581 15.8683 19.1008 15.711 19.1008 15.517V8.91568C19.1008 8.72168 19.2581 8.56439 19.4521 8.56439H21.3541C21.5481 8.56439 21.7054 8.72168 21.7054 8.91568V15.517C21.7054 15.711 21.5482 15.8683 21.3541 15.8683Z" fill="#162a2b"/>
<path fill-rule="evenodd" clip-rule="evenodd" d="M23.0562 15.8683H1.2764C1.0824 15.8683 0.92511 15.711 0.92511 15.517C0.92511 15.323 1.0824 15.1657 1.2764 15.1657H23.0562C23.2502 15.1657 23.4075 15.323 23.4075 15.517C23.4075 15.711 23.2502 15.8683 23.0562 15.8683Z" fill="#705041"/>
</svg>
