<svg width="23" height="20" viewBox="0 0 23 20" fill="none" xmlns="http://www.w3.org/2000/svg">
<path d="M11.6559 19.4155C11.5199 19.4155 11.4096 19.3053 11.4096 19.1692V11.2853C11.4096 11.2233 11.3572 11.1709 11.2952 11.1709H2.999C2.93703 11.1709 2.88462 11.2233 2.88462 11.2853V19.1692C2.88462 19.3053 2.77432 19.4155 2.6383 19.4155C2.50229 19.4155 2.39199 19.3053 2.39199 19.1692V11.2853C2.39199 10.9506 2.66426 10.6783 2.999 10.6783H11.2952C11.6299 10.6783 11.9022 10.9506 11.9022 11.2853V19.1692C11.9023 19.3053 11.7919 19.4155 11.6559 19.4155Z" fill="#162a2b"/>
<path d="M10.5996 11.1709C10.4635 11.1709 10.3532 11.0607 10.3532 10.9246V5.81188H3.94096V10.9246C3.94096 11.0607 3.83066 11.1709 3.69464 11.1709C3.55863 11.1709 3.44833 11.0607 3.44833 10.9246V5.56557C3.44833 5.42955 3.55863 5.31925 3.69464 5.31925H10.5996C10.7356 5.31925 10.8459 5.42955 10.8459 5.56557V10.9246C10.8459 11.0606 10.7356 11.1709 10.5996 11.1709Z" fill="#162a2b"/>
<path d="M3.69445 5.81193C3.64636 5.81193 3.59779 5.79789 3.55513 5.76858C3.44306 5.69153 3.41458 5.53818 3.49163 5.4261L6.42232 1.16138C6.60622 0.893737 6.87041 0.740234 7.14707 0.740234C7.42373 0.740234 7.68793 0.893737 7.87182 1.16138L10.8025 5.4261C10.8796 5.53822 10.8511 5.69153 10.739 5.76858C10.6269 5.84562 10.4735 5.81725 10.3965 5.70508L7.46585 1.44036C7.37388 1.30656 7.26067 1.23286 7.14707 1.23286C7.03347 1.23286 6.92027 1.30656 6.82829 1.44036L3.8976 5.70508C3.84992 5.77454 3.77282 5.81193 3.69445 5.81193Z" fill="#162a2b"/>
<path d="M9.18251 11.1709C9.04649 11.1709 8.93619 11.0607 8.93619 10.9246V8.55389C8.93619 7.56741 8.13361 6.76482 7.14712 6.76482C6.16063 6.76482 5.35805 7.56741 5.35805 8.55389V10.9246C5.35805 11.0607 5.24775 11.1709 5.11173 11.1709C4.97572 11.1709 4.86542 11.0607 4.86542 10.9246V8.55389C4.86542 7.29577 5.889 6.27219 7.14712 6.27219C8.40529 6.27219 9.42882 7.29577 9.42882 8.55389V10.9246C9.42882 11.0606 9.31852 11.1709 9.18251 11.1709Z" fill="#162a2b"/>
<path d="M9.18251 19.4155C9.04649 19.4155 8.93619 19.3053 8.93619 19.1692V11.1709H5.35805V19.1692C5.35805 19.3053 5.24775 19.4155 5.11173 19.4155C4.97572 19.4155 4.86542 19.3053 4.86542 19.1692V10.9246C4.86542 10.7885 4.97572 10.6783 5.11173 10.6783H9.18251C9.31852 10.6783 9.42882 10.7885 9.42882 10.9246V19.1692C9.42882 19.3053 9.31852 19.4155 9.18251 19.4155Z" fill="#162a2b"/>
<path d="M16.0295 19.3938C15.9305 19.3938 15.8372 19.3338 15.7995 19.2359L12.702 11.1815H10.5995C10.4635 11.1815 10.3532 11.0712 10.3532 10.9352V9.28623C10.3532 9.15022 10.4635 9.03992 10.5995 9.03992H13.8807C13.9826 9.03992 14.074 9.10268 14.1106 9.1978L17.2081 17.2522H20.1313C20.2674 17.2522 20.3776 17.3625 20.3776 17.4985V19.1475C20.3776 19.2836 20.2674 19.3938 20.1313 19.3938C19.9952 19.3938 19.885 19.2836 19.885 19.1475V17.7448H17.039C16.9371 17.7448 16.8457 17.6821 16.8091 17.5869L13.7116 9.53254H10.8459V10.6888H12.8713C12.9732 10.6888 13.0646 10.7516 13.1012 10.8467L16.2593 19.059C16.3082 19.186 16.2448 19.3285 16.1179 19.3774C16.0888 19.3885 16.0589 19.3938 16.0295 19.3938Z" fill="#162a2b"/>
<path d="M22.3067 19.4155H1.02524C0.88923 19.4155 0.778931 19.3053 0.778931 19.1692C0.778931 19.0332 0.88923 18.9229 1.02524 18.9229H22.3067C22.4428 18.9229 22.553 19.0332 22.553 19.1692C22.553 19.3053 22.4427 19.4155 22.3067 19.4155Z" fill="#162a2b"/>
<path d="M9.18251 12.9744H5.11173C4.97572 12.9744 4.86542 12.8641 4.86542 12.7281C4.86542 12.592 4.97572 12.4818 5.11173 12.4818H9.18251C9.31852 12.4818 9.42882 12.592 9.42882 12.7281C9.42882 12.8641 9.31852 12.9744 9.18251 12.9744Z" fill="#162a2b"/>
<path d="M9.18251 15.2932H5.11173C4.97572 15.2932 4.86542 15.1829 4.86542 15.0469C4.86542 14.9108 4.97572 14.8005 5.11173 14.8005H9.18251C9.31852 14.8005 9.42882 14.9108 9.42882 15.0469C9.42882 15.1829 9.31852 15.2932 9.18251 15.2932Z" fill="#162a2b"/>
<path d="M9.18251 17.612H5.11173C4.97572 17.612 4.86542 17.5018 4.86542 17.3657C4.86542 17.2296 4.97572 17.1194 5.11173 17.1194H9.18251C9.31852 17.1194 9.42882 17.2296 9.42882 17.3657C9.42882 17.5018 9.31852 17.612 9.18251 17.612Z" fill="#162a2b"/>
<path d="M7.14712 4.98698C6.49986 4.98698 5.97324 4.46041 5.97324 3.81314C5.97324 3.16588 6.49981 2.63931 7.14712 2.63931C7.79438 2.63931 8.32095 3.16588 8.32095 3.81314C8.32095 4.46041 7.79438 4.98698 7.14712 4.98698ZM7.14712 3.13194C6.77149 3.13194 6.46587 3.43752 6.46587 3.81314C6.46587 4.18877 6.77149 4.49435 7.14712 4.49435C7.52275 4.49435 7.82833 4.18877 7.82833 3.81314C7.82833 3.43752 7.52275 3.13194 7.14712 3.13194Z" fill="#162a2b"/>
<path d="M18.541 7.52484H13.6015C12.8104 7.52484 12.1668 6.88127 12.1668 6.09021C12.1668 5.32797 12.7644 4.70268 13.5157 4.65815C13.6318 3.98285 14.2216 3.46732 14.9295 3.46732C15.0156 3.46732 15.1004 3.47476 15.1835 3.48964C15.29 2.47039 16.1543 1.67322 17.2013 1.67322C18.32 1.67322 19.2301 2.5833 19.2301 3.70196C19.2301 4.06202 19.1352 4.41119 18.958 4.71741C19.5463 4.89643 19.9757 5.44413 19.9757 6.09026C19.9756 6.88127 19.3321 7.52484 18.541 7.52484ZM13.6015 5.14821C13.082 5.14821 12.6595 5.57079 12.6595 6.09021C12.6595 6.60964 13.082 7.03222 13.6015 7.03222H18.5411C19.0605 7.03222 19.483 6.60964 19.483 6.09021C19.483 5.57079 19.0605 5.14821 18.5411 5.14821L18.5239 5.14841C18.4247 5.15004 18.3354 5.09353 18.2948 5.00387C18.2541 4.91421 18.2708 4.80899 18.337 4.73623C18.5952 4.45297 18.7375 4.08562 18.7375 3.70191C18.7375 2.85488 18.0484 2.1658 17.2013 2.1658C16.3542 2.1658 15.6651 2.85488 15.6651 3.70191C15.6651 3.73477 15.6663 3.7692 15.6686 3.80428C15.6743 3.89083 15.6341 3.97399 15.5628 4.0233C15.4914 4.07256 15.3994 4.08069 15.3205 4.04458C15.1975 3.98837 15.066 3.9599 14.9295 3.9599C14.4101 3.9599 13.9875 4.38247 13.9875 4.9019C13.9888 4.97294 13.9593 5.04309 13.9066 5.09077C13.8539 5.13846 13.7831 5.16289 13.7126 5.15476C13.6757 5.15043 13.6382 5.14821 13.6015 5.14821Z" fill="#162a2b"/>
</svg>
