<svg width="17" height="18" viewBox="0 0 17 18" fill="none" xmlns="http://www.w3.org/2000/svg">
<path d="M5.00664 0.958984H4.83034C3.34926 0.958984 2.60873 0.958984 2.04303 1.24722C1.54543 1.50076 1.14087 1.90532 0.887327 2.40292C0.599091 2.96862 0.599091 3.70916 0.599091 5.19023V5.36654M5.00664 16.8262H4.83034C3.34926 16.8262 2.60873 16.8262 2.04303 16.5379C1.54543 16.2844 1.14087 15.8798 0.887327 15.3822C0.599091 14.8165 0.599091 14.076 0.599091 12.5949V12.4186M16.4663 5.36654V5.19023C16.4663 3.70916 16.4663 2.96862 16.178 2.40292C15.9245 1.90532 15.5199 1.50076 15.0223 1.24722C14.4566 0.958984 13.7161 0.958984 12.235 0.958984H12.0587M16.4663 12.4186V12.5949C16.4663 14.076 16.4663 14.8165 16.178 15.3822C15.9245 15.8798 15.5199 16.2844 15.0223 16.5379C14.4566 16.8262 13.7161 16.8262 12.235 16.8262H12.0587M4.56589 5.36654V6.6888M12.4995 5.36654V6.6888M7.65117 9.42157C8.35638 9.42157 8.97344 8.80451 8.97344 8.0993V5.36654M11.3537 11.7134C9.76697 13.3001 7.21059 13.3001 5.62387 11.7134" stroke="#162a2b" stroke-linecap="round" stroke-linejoin="round"/>
</svg>
