<svg width="21" height="19" viewBox="0 0 21 19" fill="none" xmlns="http://www.w3.org/2000/svg">
<path d="M20.2787 0.839844H6.67397C4.83122 0.839844 3.3318 2.97382 3.3318 5.59705C3.3318 5.59887 3.33283 5.60043 3.33287 5.6023C3.33438 8.12808 4.7282 10.1934 6.4784 10.3389V12.8581H3.77353V10.9261C3.77353 10.3527 3.30713 9.88633 2.7338 9.88633H1.0184L1.0184 9.38029C1.0184 9.25113 0.913602 9.14633 0.784437 9.14633C0.655272 9.14633 0.550476 9.25113 0.550476 9.38029L0.550476 18.7116C0.550476 18.8408 0.655272 18.9456 0.784437 18.9456C0.913602 18.9456 1.0184 18.8408 1.0184 18.7116L1.0184 18.45H2.7338C3.30713 18.45 3.77353 17.9836 3.77353 17.4102V15.4578H6.4784V15.859C6.4784 16.4324 6.94479 16.8988 7.51812 16.8988H8.8902C9.46322 16.8988 9.92962 16.4324 9.92962 15.859V10.353H15.57C17.4124 10.353 18.9115 8.21996 18.9115 5.59826C18.9115 4.89086 18.8027 4.20432 18.5992 3.58126C20.64 2.67764 20.5182 1.11904 20.5115 1.05095C20.5002 0.936647 20.3829 0.839844 20.2787 0.839844ZM17.3972 1.91429L17.3958 1.91536C17.3944 1.91654 17.3925 1.91673 17.3911 1.91795C17.3898 1.91902 17.3893 1.92061 17.3881 1.92168C16.7421 2.4187 16.3179 2.98882 16.076 3.38051C15.8615 3.72718 15.4938 3.93403 15.0926 3.93403H13.7418C13.3708 3.93403 13.008 4.0632 12.7204 4.29716C12.685 4.32595 11.6791 5.14351 11.7261 5.10536C11.5213 5.27169 11.2639 5.36308 11.0007 5.36308H3.80862C3.87519 3.53556 4.86362 1.30806 6.67428 1.30806C7.09828 1.30805 15.8841 1.30782 18.4116 1.30776C18.0521 1.47013 17.7134 1.67241 17.3972 1.91429ZM14.6913 4.40196H15.0926C15.5221 4.40196 15.9231 4.23342 16.2229 3.93933C16.4543 4.30409 16.6581 4.87384 16.6581 5.59522C16.6581 6.89754 16.0032 7.76179 15.57 7.76179C15.1368 7.76179 14.4818 6.89754 14.4818 5.59522C14.4818 5.16835 14.5564 4.76105 14.6913 4.40196ZM3.30561 17.4102C3.30561 17.7255 3.0491 17.982 2.7338 17.982H1.0184V10.3542H2.7338C3.0491 10.3542 3.30561 10.6108 3.30561 10.9261V17.4102ZM3.77353 14.9899V13.326H6.4784V14.9899H3.77353ZM9.4617 15.859C9.4617 16.1743 9.20519 16.4308 8.8902 16.4308H7.51812C7.20282 16.4308 6.94631 16.1743 6.94631 15.859C6.94631 13.908 6.94631 12.2645 6.94631 10.3542H9.4617V15.859ZM14.1251 9.88511H6.67428C5.14253 9.88511 3.89032 8.08623 3.80855 5.83101H11.0007C11.3709 5.83101 11.7334 5.70214 12.021 5.46849L12.2383 5.29188C12.2337 5.39408 12.2287 5.4964 12.2287 5.59827C12.2287 7.18254 12.8258 8.99385 14.1251 9.88511ZM15.57 9.88511C13.9856 9.88511 12.6966 7.96194 12.6966 5.59826C12.6966 5.35535 12.7128 5.11625 12.7405 4.88377L13.0159 4.65998C13.2203 4.49365 13.478 4.40195 13.7418 4.40195H14.1928C14.0759 4.77102 14.0139 5.1768 14.0139 5.59521C14.0139 6.99867 14.741 8.22971 15.57 8.22971C16.3989 8.22971 17.126 6.99867 17.126 5.59521C17.126 4.80567 16.9019 4.05859 16.5231 3.54992C16.7259 3.2347 17.044 2.81994 17.5 2.43358C18.0998 3.24978 18.4436 4.38543 18.4436 5.59826C18.4436 7.96194 17.1544 9.88511 15.57 9.88511ZM18.4355 3.14324C18.2825 2.77969 18.0916 2.44832 17.8724 2.15085C18.5043 1.71514 19.2292 1.44222 20.0339 1.33739C19.9783 1.74461 19.6998 2.57345 18.4355 3.14324Z" fill="#162a2b"/>
<path d="M12.4615 2.03006H10.1435C10.0143 2.03006 9.90952 2.13485 9.90952 2.26402C9.90952 2.39318 10.0143 2.49798 10.1435 2.49798H12.4615C12.5906 2.49798 12.6954 2.39318 12.6954 2.26402C12.6954 2.13485 12.5906 2.03006 12.4615 2.03006Z" fill="#705041"/>
<path d="M9.09735 2.03006H8.9889C8.85974 2.03006 8.75494 2.13485 8.75494 2.26402C8.75494 2.39318 8.85974 2.49798 8.9889 2.49798H9.09735C9.22652 2.49798 9.33131 2.39318 9.33131 2.26402C9.33131 2.13485 9.22652 2.03006 9.09735 2.03006Z" fill="#705041"/>
</svg>
