<svg width="21" height="18" viewBox="0 0 21 18" fill="none" xmlns="http://www.w3.org/2000/svg">
<path fill-rule="evenodd" clip-rule="evenodd" d="M0.861968 0.569727C0.747488 0.626458 0.665552 0.708851 0.610464 0.822645L0.566772 0.912878L0.56723 9.07386L0.567687 17.2348L0.610111 17.3284C0.660728 17.4401 0.714859 17.5017 0.826719 17.5752L0.909902 17.6298L1.07627 17.6299L1.24263 17.6299L1.30502 17.5898C1.40923 17.5227 1.4833 17.447 1.53049 17.3596L1.57537 17.2764L1.58131 16.2521L1.58726 15.2278L3.33856 15.2331L5.08985 15.2384L5.10025 16.2574L5.11065 17.2764L5.14583 17.3492C5.19187 17.4444 5.25778 17.5145 5.36019 17.5772L5.44338 17.6281L5.60088 17.629L5.75839 17.6299L5.85821 17.5676L5.95803 17.5052L6.01755 17.422L6.07707 17.3388L6.09815 17.2268L6.11924 17.1148V9.32961V1.54442H7.8246H9.52993L9.52465 3.67952L9.51935 5.81463L9.37378 5.86002C8.71551 6.06526 8.1801 6.59526 7.96235 7.25716C7.89021 7.4765 7.86629 7.64482 7.86696 7.92872L7.86754 8.16787L7.89555 8.32494C7.994 8.87674 8.3306 9.3848 8.81845 9.71797C9.04678 9.87392 9.21789 9.94558 9.62333 10.0551L9.70651 10.0776L10.0184 10.0783L10.3304 10.079L10.5386 10.0237C10.794 9.95606 11.0244 9.85169 11.2512 9.70098L11.4233 9.5866L11.5801 9.41988C11.9019 9.07777 12.0798 8.72695 12.1607 8.27491L12.1973 8.06999L12.1858 7.8486C12.1589 7.33299 11.9891 6.89709 11.6652 6.51203L11.5443 6.36833L11.361 6.22832C11.1046 6.03242 10.9135 5.93052 10.6527 5.85056L10.5383 5.81548L10.533 3.67996L10.5278 1.54442H12.4514H14.3752V3.68281V5.82122L14.2705 5.84536C14.2129 5.85865 14.1241 5.88855 14.073 5.91182C14.0219 5.93507 13.9574 5.96275 13.9296 5.97334C13.9017 5.98392 13.7964 6.04631 13.6955 6.11196L13.5121 6.23135L13.3446 6.39899C12.8492 6.89474 12.643 7.51653 12.7335 8.2412L12.7555 8.41742L12.8197 8.60302C13.07 9.32676 13.5917 9.81188 14.344 10.0205L14.5519 10.0782L14.8639 10.079L15.1758 10.0798L15.3941 10.0217C15.8437 9.90218 16.2342 9.66232 16.4993 9.34283C16.721 9.07555 16.7928 8.95597 16.9039 8.66897L16.9755 8.4838L17.0062 8.29464C17.0449 8.05606 17.0451 7.8278 17.0068 7.57399C16.9697 7.3277 16.9364 7.22551 16.8077 6.96172L16.7062 6.75376L16.573 6.58602C16.3837 6.34754 16.012 6.04675 15.8131 5.97111C15.7832 5.95974 15.7288 5.93622 15.6921 5.91885C15.6555 5.90147 15.5712 5.87111 15.5047 5.85137L15.3838 5.81548L15.3784 3.67996L15.3732 1.54442H17.0785H18.7839V2.39501V3.2456L18.5083 3.25284L18.2328 3.26007L18.1101 3.32221L17.9875 3.38437L17.9188 3.48858L17.8501 3.59281L17.8366 3.69731L17.8231 3.80182L17.8465 3.88879C17.8594 3.93664 17.9002 4.01594 17.9371 4.06504L18.0043 4.15429L18.1171 4.21148L18.2298 4.26867H18.5068H18.7839V5.13169V5.99472H18.5315H18.2792L18.2039 6.01728C18.1625 6.02967 18.092 6.06478 18.0472 6.09526L17.9658 6.15069L17.9017 6.25466L17.8377 6.35864L17.8385 6.50868L17.8393 6.65875L17.9217 6.77695L18.004 6.89515L18.108 6.94924L18.212 7.00331L18.4979 7.01051L18.7839 7.0177V7.87678V8.73585L18.4875 8.743L18.1912 8.75016L18.0986 8.80214L18.006 8.85413L17.938 8.94339C17.9006 8.99249 17.8594 9.07193 17.8465 9.11994L17.823 9.20722L17.8353 9.29754C17.8596 9.4743 17.9842 9.64768 18.1311 9.70909L18.2002 9.73795H18.4921H18.7839V10.601V11.464L18.5499 11.4642L18.316 11.4645L18.2128 11.4957C18.0711 11.5387 17.9827 11.6028 17.9099 11.7152L17.8482 11.8105L17.8352 11.9056L17.8221 12.0007L17.8477 12.1071L17.8732 12.2135L17.9802 12.3255L18.0872 12.4377L18.1704 12.4602L18.2536 12.4828L18.5187 12.4829L18.7839 12.483V13.346V14.209H18.5376H18.2914L18.1935 14.2385C18.0638 14.2775 17.9699 14.3521 17.8975 14.4734L17.8381 14.573L17.8379 14.7185L17.8377 14.8641L17.8953 14.9622C17.9656 15.0817 18.0637 15.1595 18.1935 15.1986L18.2914 15.228H18.5369H18.7824L18.7883 16.2522L18.7943 17.2764L18.8391 17.3596C18.8863 17.447 18.9604 17.5227 19.0646 17.5898L19.127 17.6299L19.2934 17.6299L19.4597 17.6298L19.5429 17.5752C19.6548 17.5017 19.7089 17.4401 19.7595 17.3284L19.8019 17.2348L19.8024 16.2314L19.8028 15.228H20.0486H20.2944L20.4025 15.1959L20.5105 15.1639L20.5863 15.0973L20.6621 15.0308L20.7106 14.9266L20.759 14.8225L20.7592 14.7188L20.7595 14.6152L20.7033 14.5042C20.6724 14.4431 20.6164 14.3662 20.5788 14.3332L20.5105 14.2732L20.4025 14.2411L20.2944 14.209H20.0486H19.8028V13.346V12.483L20.0784 12.4821L20.3539 12.4812L20.4301 12.454C20.5333 12.4171 20.6174 12.3455 20.6891 12.2334L20.7491 12.1399L20.7477 11.9839L20.7463 11.8279L20.6902 11.7317L20.634 11.6356L20.5532 11.5796C20.5087 11.5487 20.4278 11.5101 20.3734 11.4938L20.2745 11.464H20.0387H19.8028V10.6024V9.74089L20.1232 9.73421L20.4436 9.72756L20.5339 9.66213L20.6243 9.59669L20.6852 9.4977L20.7462 9.39871L20.7554 9.28706L20.7647 9.17539L20.7283 9.08016C20.7083 9.02778 20.6628 8.95169 20.6271 8.91103L20.5622 8.83714L20.4581 8.78865L20.3539 8.74017L20.0784 8.73997L19.8028 8.73976V7.87673V7.01371H20.0432H20.2835L20.3707 6.99152C20.4187 6.97933 20.4951 6.94392 20.5406 6.91285L20.6233 6.85637L20.6862 6.75461L20.7491 6.65286L20.7486 6.50575L20.7482 6.35864L20.689 6.25905C20.6199 6.14282 20.5322 6.07048 20.4071 6.02633L20.3175 5.99472H20.0602H19.8028V5.13169V4.26867L20.0784 4.26846L20.3539 4.26825L20.4581 4.21978L20.5622 4.17128L20.6271 4.0974C20.6628 4.05674 20.7084 3.98031 20.7286 3.92756L20.7652 3.8316L20.7536 3.71902L20.742 3.60643L20.6711 3.49563L20.6002 3.38485L20.4771 3.32246L20.3539 3.26007L20.0784 3.25284L19.8028 3.2456V2.0864V0.927185L19.7397 0.800747L19.6765 0.674309L19.5686 0.60508L19.4607 0.53583L10.2061 0.53061L0.951494 0.525391L0.861968 0.569727ZM5.10025 2.39705V3.24968H3.34301H1.58576V2.39705V1.54442H3.34301H5.10025V2.39705ZM5.09528 5.13689L5.10071 5.99472H3.34324H1.58576V5.13157V4.26844L3.33781 4.27374L5.08985 4.27907L5.09528 5.13689ZM10.1919 6.78527L10.3445 6.80507L10.4726 6.86155C10.8126 7.01138 11.0512 7.29468 11.1432 7.65744L11.1772 7.79168L11.1683 7.97978L11.1594 8.16787L11.1102 8.30305C11.0454 8.481 10.9313 8.64819 10.7866 8.77711L10.6692 8.88177L10.5115 8.95768L10.3538 9.0336L10.1913 9.05729L10.0288 9.08095L9.85728 9.05631L9.68571 9.03167L9.51163 8.94584L9.33757 8.86004L9.21009 8.73071L9.08264 8.60138L9.00523 8.44701L8.92783 8.29265L8.89171 8.09864L8.85559 7.90464L8.89177 7.72432L8.92796 7.544L8.99428 7.40883L9.06057 7.27366L9.21991 7.11243L9.37927 6.9512L9.53948 6.87818L9.69969 6.80517L9.83827 6.78731C10.0273 6.76291 10.02 6.76295 10.1919 6.78527ZM15.0368 6.7857L15.2085 6.80725L15.3588 6.87854L15.509 6.94984L15.6292 7.05703C15.6954 7.11598 15.7851 7.2169 15.8286 7.28131L15.9078 7.39843L15.9665 7.57519L16.0253 7.75196L16.0239 7.93912L16.0225 8.12628L15.9702 8.27505C15.8119 8.72526 15.4318 9.0262 14.9724 9.06502L14.8211 9.07781L14.673 9.05282L14.5248 9.02782L14.3977 8.96774C14.0776 8.81635 13.8639 8.56707 13.773 8.23895L13.7305 8.08552V7.91832V7.75113L13.773 7.5977C13.8292 7.39494 13.8973 7.28328 14.0733 7.10552L14.2192 6.95816L14.3816 6.88172L14.5441 6.80527L14.6832 6.78735C14.7597 6.77749 14.8319 6.76824 14.8436 6.76678C14.8554 6.76535 14.9423 6.77385 15.0368 6.7857ZM5.09528 7.87153L5.08985 8.72936L3.33781 8.73468L1.58576 8.73999V7.87686V7.01371H3.34324H5.10071L5.09528 7.87153ZM5.09528 10.6062L5.10071 11.464H3.34324H1.58576V10.6009V9.73773L3.33781 9.74303L5.08985 9.74835L5.09528 10.6062ZM5.09528 13.3408L5.08985 14.1986L3.33781 14.204L1.58576 14.2093V13.3461V12.483H3.34324H5.10071L5.09528 13.3408Z" fill="#F6F4F2"/>
</svg>
