<svg width="19" height="18" viewBox="0 0 19 18" fill="none" xmlns="http://www.w3.org/2000/svg">
<mask id="path-1-inside-1_52_598" fill="white">
<path d="M18.4178 6.42332H18.4131L11.1544 3.22652V2.22988H11.4414C11.5776 2.23059 11.71 2.18511 11.817 2.10087C11.924 2.01664 11.9993 1.89861 12.0306 1.76606C12.0619 1.63352 12.0473 1.49427 11.9893 1.37107C11.9313 1.24786 11.8332 1.14796 11.7111 1.08767L9.9357 0.209214C9.85178 0.167945 9.75951 0.146484 9.666 0.146484C9.57248 0.146484 9.48022 0.167945 9.3963 0.209214L7.62093 1.08767C7.4988 1.14796 7.40072 1.24786 7.34269 1.37107C7.28465 1.49427 7.2701 1.63352 7.30139 1.76606C7.33269 1.89861 7.40799 2.01664 7.51501 2.10087C7.62203 2.18511 7.75444 2.23059 7.89063 2.22988H8.17759V3.22652L0.918325 6.42064H0.913562C0.860331 6.44401 0.815108 6.48245 0.783474 6.53123C0.75184 6.58 0.735179 6.63697 0.735548 6.6951V7.58815C0.735548 7.74605 0.798274 7.89748 0.909926 8.00913C1.02158 8.12079 1.17301 8.18351 1.33091 8.18351H1.62859V15.9232H1.33091C1.17301 15.9232 1.02158 15.986 0.909926 16.0976C0.798274 16.2093 0.735548 16.3607 0.735548 16.5186V17.4116C0.735548 17.5695 0.798274 17.721 0.909926 17.8326C1.02158 17.9443 1.17301 18.007 1.33091 18.007H18.0011C18.159 18.007 18.3104 17.9443 18.4221 17.8326C18.5337 17.721 18.5965 17.5695 18.5965 17.4116V16.5186C18.5965 16.3607 18.5337 16.2093 18.4221 16.0976C18.3104 15.986 18.159 15.9232 18.0011 15.9232H17.7034V8.18351H18.0011C18.159 8.18351 18.3104 8.12079 18.4221 8.00913C18.5337 7.89748 18.5965 7.74605 18.5965 7.58815V6.6951C18.5962 6.63736 18.5793 6.58092 18.5475 6.53266C18.5158 6.48441 18.4708 6.44642 18.4178 6.42332ZM10.7942 3.71829L16.8833 6.39742H2.44871L8.53779 3.71829H10.7942ZM7.88497 1.62142L9.67106 0.742957L11.4461 1.62142L11.4414 1.63451L7.88497 1.62142ZM10.559 2.22988V3.12292H8.77295V2.22988H10.559ZM2.22396 8.18351H2.81932V15.9232H2.22396V8.18351ZM15.0243 15.9232V12.3511H15.9173V15.9232H15.0243ZM13.5359 12.3511H14.4289V15.9232H13.5359V12.3511ZM15.9173 11.7557H13.5359V8.18351H15.9173V11.7557ZM12.9405 15.9232H12.3451V8.18351H12.9405V15.9232ZM11.7498 15.9232H7.58223V8.18351H11.7498V15.9232ZM6.98687 15.9232H6.3915V8.18351H6.98687V15.9232ZM3.41468 12.3511H4.30773V15.9232H3.41468V12.3511ZM4.90309 12.3511H5.79614V15.9232H4.90309V12.3511ZM5.79614 11.7557H3.41468V8.18351H5.79614V11.7557ZM18.0011 17.4116H1.33091V16.5186H18.0011V17.4116ZM17.108 15.9232H16.5127V8.18351H17.108V15.9232ZM1.33091 7.58815V6.99278H18.0011V7.58815H1.33091Z"/>
</mask>
<path d="M18.4178 6.42332H18.4131L11.1544 3.22652V2.22988H11.4414C11.5776 2.23059 11.71 2.18511 11.817 2.10087C11.924 2.01664 11.9993 1.89861 12.0306 1.76606C12.0619 1.63352 12.0473 1.49427 11.9893 1.37107C11.9313 1.24786 11.8332 1.14796 11.7111 1.08767L9.9357 0.209214C9.85178 0.167945 9.75951 0.146484 9.666 0.146484C9.57248 0.146484 9.48022 0.167945 9.3963 0.209214L7.62093 1.08767C7.4988 1.14796 7.40072 1.24786 7.34269 1.37107C7.28465 1.49427 7.2701 1.63352 7.30139 1.76606C7.33269 1.89861 7.40799 2.01664 7.51501 2.10087C7.62203 2.18511 7.75444 2.23059 7.89063 2.22988H8.17759V3.22652L0.918325 6.42064H0.913562C0.860331 6.44401 0.815108 6.48245 0.783474 6.53123C0.75184 6.58 0.735179 6.63697 0.735548 6.6951V7.58815C0.735548 7.74605 0.798274 7.89748 0.909926 8.00913C1.02158 8.12079 1.17301 8.18351 1.33091 8.18351H1.62859V15.9232H1.33091C1.17301 15.9232 1.02158 15.986 0.909926 16.0976C0.798274 16.2093 0.735548 16.3607 0.735548 16.5186V17.4116C0.735548 17.5695 0.798274 17.721 0.909926 17.8326C1.02158 17.9443 1.17301 18.007 1.33091 18.007H18.0011C18.159 18.007 18.3104 17.9443 18.4221 17.8326C18.5337 17.721 18.5965 17.5695 18.5965 17.4116V16.5186C18.5965 16.3607 18.5337 16.2093 18.4221 16.0976C18.3104 15.986 18.159 15.9232 18.0011 15.9232H17.7034V8.18351H18.0011C18.159 8.18351 18.3104 8.12079 18.4221 8.00913C18.5337 7.89748 18.5965 7.74605 18.5965 7.58815V6.6951C18.5962 6.63736 18.5793 6.58092 18.5475 6.53266C18.5158 6.48441 18.4708 6.44642 18.4178 6.42332ZM10.7942 3.71829L16.8833 6.39742H2.44871L8.53779 3.71829H10.7942ZM7.88497 1.62142L9.67106 0.742957L11.4461 1.62142L11.4414 1.63451L7.88497 1.62142ZM10.559 2.22988V3.12292H8.77295V2.22988H10.559ZM2.22396 8.18351H2.81932V15.9232H2.22396V8.18351ZM15.0243 15.9232V12.3511H15.9173V15.9232H15.0243ZM13.5359 12.3511H14.4289V15.9232H13.5359V12.3511ZM15.9173 11.7557H13.5359V8.18351H15.9173V11.7557ZM12.9405 15.9232H12.3451V8.18351H12.9405V15.9232ZM11.7498 15.9232H7.58223V8.18351H11.7498V15.9232ZM6.98687 15.9232H6.3915V8.18351H6.98687V15.9232ZM3.41468 12.3511H4.30773V15.9232H3.41468V12.3511ZM4.90309 12.3511H5.79614V15.9232H4.90309V12.3511ZM5.79614 11.7557H3.41468V8.18351H5.79614V11.7557ZM18.0011 17.4116H1.33091V16.5186H18.0011V17.4116ZM17.108 15.9232H16.5127V8.18351H17.108V15.9232ZM1.33091 7.58815V6.99278H18.0011V7.58815H1.33091Z" fill="#705041" stroke="#F1F1F1" stroke-width="0.893882" mask="url(#path-1-inside-1_52_598)"/>
</svg>
