<svg width="19" height="19" viewBox="0 0 19 19" fill="none" xmlns="http://www.w3.org/2000/svg">
<path d="M8.77777 9.68987H8.94829V9.51935V6.90629C8.94829 6.79516 9.03993 6.70352 9.15107 6.70352C9.2622 6.70352 9.35384 6.79516 9.35384 6.90629V11.7591C9.35384 11.8702 9.2622 11.9619 9.15107 11.9619C9.03993 11.9619 8.94829 11.8702 8.94829 11.7591V10.2659V10.0954H8.77777H5.79142C5.68029 10.0954 5.58865 10.0038 5.58865 9.89264C5.58865 9.78151 5.68029 9.68987 5.79142 9.68987H8.77777ZM15.1238 1.50966H14.9532V1.68018V3.17336C14.9532 3.28449 14.8616 3.37613 14.7505 3.37613C14.6393 3.37613 14.5477 3.28449 14.5477 3.17336V1.30689C14.5477 1.19575 14.6393 1.10411 14.7505 1.10411H16.994C17.515 1.10411 17.9396 1.53097 17.9396 2.05347V17.7318C17.9396 18.2536 17.512 18.6812 16.9902 18.6812H1.3119C0.790139 18.6812 0.362537 18.2536 0.362537 17.7318V2.05347C0.362537 1.53172 0.790139 1.10411 1.3119 1.10411H12.1374C12.2486 1.10411 12.3402 1.19575 12.3402 1.30689V3.17336C12.3402 3.28449 12.2486 3.37613 12.1374 3.37613C12.0263 3.37613 11.9346 3.28449 11.9346 3.17336V1.68018V1.50966H11.7641H9.52436H9.35384V1.68018V5.03982C9.35384 5.15096 9.2622 5.2426 9.15107 5.2426C9.03993 5.2426 8.94829 5.15096 8.94829 5.03982V1.68018V1.50966H8.77777H1.3119C1.01241 1.50966 0.768084 1.75399 0.768084 2.05347V9.51935V9.68987H0.938604H4.28705C4.39818 9.68987 4.48982 9.78151 4.48982 9.89264C4.48982 10.0038 4.39818 10.0954 4.28705 10.0954H0.938604H0.768084V10.2659V17.7318C0.768084 18.0313 1.01241 18.2756 1.3119 18.2756H8.77777H8.94829V18.1051V13.9989C8.94829 13.8877 9.03993 13.7961 9.15107 13.7961C9.2622 13.7961 9.35384 13.8877 9.35384 13.9989V18.1051V18.2756H9.52436H16.9902C17.2897 18.2756 17.534 18.0313 17.534 17.7318V12.1324V11.9619H17.3635H11.7641C11.653 11.9619 11.5613 11.8702 11.5613 11.7591C11.5613 11.648 11.653 11.5563 11.7641 11.5563H17.3635H17.534V11.3858V9.51935V9.34883H17.3635H13.6306C13.5195 9.34883 13.4278 9.25719 13.4278 9.14606C13.4278 9.03492 13.5195 8.94328 13.6306 8.94328H17.3635H17.534V8.77276V2.05347C17.534 1.7551 17.2908 1.50966 16.994 1.50966H15.1238Z" fill="white" stroke="white" stroke-width="0.341041"/>
</svg>
