<svg width="18" height="20" viewBox="0 0 18 20" fill="none" xmlns="http://www.w3.org/2000/svg">
<path fill-rule="evenodd" clip-rule="evenodd" d="M17.7367 19.2598H0.328792C0.227422 19.2598 0.145813 19.1778 0.145813 19.0768V0.706417C0.145813 0.605412 0.227422 0.523438 0.328792 0.523438H17.7367C17.8381 0.523438 17.9197 0.605412 17.9197 0.706417V19.0768C17.9197 19.1778 17.8377 19.2598 17.7367 19.2598ZM0.511771 18.8938H17.5537V0.889396H0.511771V18.8938Z" fill="white"/>
<path fill-rule="evenodd" clip-rule="evenodd" d="M17.7367 1.88883H0.328792C0.227422 1.88883 0.145813 1.80685 0.145813 1.70585C0.145813 1.60484 0.227422 1.52287 0.328792 1.52287H17.7367C17.8381 1.52287 17.9197 1.60484 17.9197 1.70585C17.9197 1.80685 17.8381 1.88883 17.7367 1.88883Z" fill="white"/>
<path fill-rule="evenodd" clip-rule="evenodd" d="M17.7367 3.13674H0.328792C0.227422 3.13674 0.145813 3.05477 0.145813 2.95377C0.145813 2.85276 0.227422 2.77079 0.328792 2.77079H17.7367C17.8381 2.77079 17.9197 2.85276 17.9197 2.95377C17.9197 3.05477 17.8381 3.13674 17.7367 3.13674Z" fill="white"/>
<path fill-rule="evenodd" clip-rule="evenodd" d="M13.6409 19.2598H1.54451C1.4435 19.2598 1.36153 19.1778 1.36153 19.0768V4.61046C1.36153 4.50945 1.4435 4.42748 1.54451 4.42748H13.6409C13.7419 4.42748 13.8235 4.50945 13.8235 4.61046V19.0768C13.8239 19.1778 13.7419 19.2598 13.6409 19.2598ZM1.72748 18.8938H13.4579V4.79344H1.72748V18.8938Z" fill="white"/>
<path fill-rule="evenodd" clip-rule="evenodd" d="M12.412 18.0309H2.77339C2.67239 18.0309 2.59041 17.9489 2.59041 17.8479V5.83935C2.59041 5.73834 2.67239 5.65637 2.77339 5.65637H12.412C12.513 5.65637 12.595 5.73834 12.595 5.83935V17.8479C12.595 17.9489 12.513 18.0309 12.412 18.0309ZM2.95637 17.6649H12.229V6.02233H2.95637V17.6649Z" fill="white"/>
<path fill-rule="evenodd" clip-rule="evenodd" d="M8.20055 18.0309H6.98484C6.88384 18.0309 6.80186 17.9489 6.80186 17.8479V5.83935C6.80186 5.73834 6.88384 5.65637 6.98484 5.65637H8.20055C8.30192 5.65637 8.38353 5.73834 8.38353 5.83935V17.8479C8.38353 17.9489 8.30192 18.0309 8.20055 18.0309ZM7.16782 17.6649H8.01757V6.02233H7.16782V17.6649Z" fill="white"/>
<path fill-rule="evenodd" clip-rule="evenodd" d="M4.86558 13.1146C4.76457 13.1146 4.6826 13.0326 4.6826 12.9316V10.7556C4.6826 10.6546 4.76457 10.5726 4.86558 10.5726C4.96695 10.5726 5.04856 10.6546 5.04856 10.7556V12.9316C5.04856 13.0326 4.96695 13.1146 4.86558 13.1146Z" fill="white"/>
<path fill-rule="evenodd" clip-rule="evenodd" d="M5.79365 11.7068C5.75266 11.7068 5.71131 11.6928 5.67727 11.6647L4.86558 10.9931L4.05425 11.6647C3.97666 11.7291 3.86102 11.7181 3.79661 11.6405C3.7322 11.5626 3.74318 11.4473 3.82113 11.3825L4.7492 10.6147C4.8169 10.5587 4.91461 10.5587 4.98232 10.6147L5.91039 11.3825C5.98834 11.4473 5.99931 11.5626 5.93491 11.6405C5.89868 11.6841 5.84634 11.7068 5.79365 11.7068Z" fill="white"/>
<path fill-rule="evenodd" clip-rule="evenodd" d="M10.3198 13.1146C10.2188 13.1146 10.1368 13.0326 10.1368 12.9316V10.7556C10.1368 10.6543 10.2188 10.5726 10.3198 10.5726C10.4208 10.5726 10.5028 10.6543 10.5028 10.7556V12.9316C10.5028 13.0326 10.4208 13.1146 10.3198 13.1146Z" fill="white"/>
<path fill-rule="evenodd" clip-rule="evenodd" d="M10.3198 13.1146C10.2785 13.1146 10.2371 13.1007 10.2031 13.0725L9.27501 12.3044C9.19706 12.24 9.18644 12.1247 9.25085 12.0467C9.31526 11.9691 9.43054 11.9582 9.50849 12.0226L10.3198 12.6941L11.1311 12.0226C11.2091 11.9582 11.3244 11.9691 11.3888 12.0467C11.4532 12.1247 11.4426 12.24 11.3646 12.3044L10.4366 13.0725C10.4025 13.1007 10.3612 13.1146 10.3198 13.1146Z" fill="white"/>
<path fill-rule="evenodd" clip-rule="evenodd" d="M16.4976 11.2826C16.4976 11.2826 16.4972 11.2826 16.4968 11.2826H14.6169C14.5503 11.2826 14.4888 11.2464 14.4566 11.1878C14.4244 11.1296 14.4266 11.0583 14.4621 11.0019L15.422 9.48173C15.4557 9.42866 15.5142 9.39646 15.5768 9.39646H15.5786C15.6419 9.39719 15.7005 9.43049 15.7334 9.48466L16.6458 10.992C16.6677 11.0224 16.6805 11.0594 16.6805 11.0996C16.6805 11.2006 16.5986 11.2826 16.4976 11.2826ZM14.9488 10.9167H16.1722L15.5735 9.92747L14.9488 10.9167Z" fill="white"/>
<path fill-rule="evenodd" clip-rule="evenodd" d="M15.5768 14.2908C15.5142 14.2908 15.4557 14.2586 15.422 14.2055L14.4621 12.6853C14.4266 12.629 14.4244 12.5576 14.4566 12.4994C14.4888 12.4409 14.5503 12.4046 14.6169 12.4046H16.4968C16.5631 12.4046 16.6238 12.4401 16.6564 12.498C16.6886 12.5554 16.6875 12.626 16.6535 12.6824L15.7334 14.2026C15.7005 14.2568 15.6419 14.2901 15.5786 14.2908C15.5779 14.2908 15.5775 14.2908 15.5768 14.2908ZM14.9488 12.7706L15.5735 13.7598L16.1722 12.7706H14.9488Z" fill="white"/>
</svg>
