<svg width="25" height="26" viewBox="0 0 25 26" fill="none" xmlns="http://www.w3.org/2000/svg">
<mask id="path-1-inside-1_26_1311" fill="white">
<path fill-rule="evenodd" clip-rule="evenodd" d="M24.6124 25.9072H0.748883C0.60992 25.9072 0.498047 25.7949 0.498047 25.6564V0.473492C0.498047 0.335031 0.60992 0.222656 0.748883 0.222656H24.6124C24.7514 0.222656 24.8632 0.335031 24.8632 0.473492V25.6564C24.8632 25.7949 24.7508 25.9072 24.6124 25.9072ZM0.999718 25.4056H24.3616V0.724328H0.999718V25.4056Z"/>
<path fill-rule="evenodd" clip-rule="evenodd" d="M24.6124 2.09439H0.748883C0.60992 2.09439 0.498047 1.98202 0.498047 1.84356C0.498047 1.7051 0.60992 1.59272 0.748883 1.59272H24.6124C24.7514 1.59272 24.8632 1.7051 24.8632 1.84356C24.8632 1.98202 24.7514 2.09439 24.6124 2.09439Z"/>
<path fill-rule="evenodd" clip-rule="evenodd" d="M24.6124 3.80509H0.748883C0.60992 3.80509 0.498047 3.69272 0.498047 3.55426C0.498047 3.41579 0.60992 3.30342 0.748883 3.30342H24.6124C24.7514 3.30342 24.8632 3.41579 24.8632 3.55426C24.8632 3.69272 24.7514 3.80509 24.6124 3.80509Z"/>
<path fill-rule="evenodd" clip-rule="evenodd" d="M18.9977 25.9072H2.41543C2.27697 25.9072 2.1646 25.7949 2.1646 25.6564V5.82532C2.1646 5.68686 2.27697 5.57449 2.41543 5.57449H18.9977C19.1361 5.57449 19.248 5.68686 19.248 5.82532V25.6564C19.2485 25.7949 19.1361 25.9072 18.9977 25.9072ZM2.66627 25.4056H18.7468V6.07616H2.66627V25.4056Z"/>
<path fill-rule="evenodd" clip-rule="evenodd" d="M17.3131 24.2226H4.10005C3.96159 24.2226 3.84921 24.1102 3.84921 23.9718V7.50994C3.84921 7.37147 3.96159 7.2591 4.10005 7.2591H17.3131C17.4515 7.2591 17.5639 7.37147 17.5639 7.50994V23.9718C17.5639 24.1102 17.4515 24.2226 17.3131 24.2226ZM4.35088 23.7209H17.0622V7.76077H4.35088V23.7209Z"/>
<path fill-rule="evenodd" clip-rule="evenodd" d="M11.5398 24.2226H9.87328C9.73482 24.2226 9.62245 24.1102 9.62245 23.9718V7.50994C9.62245 7.37147 9.73482 7.2591 9.87328 7.2591H11.5398C11.6788 7.2591 11.7907 7.37147 11.7907 7.50994V23.9718C11.7907 24.1102 11.6788 24.2226 11.5398 24.2226ZM10.1241 23.7209H11.289V7.76077H10.1241V23.7209Z"/>
<path fill-rule="evenodd" clip-rule="evenodd" d="M6.9681 17.4832C6.82964 17.4832 6.71727 17.3708 6.71727 17.2323V14.2494C6.71727 14.1109 6.82964 13.9986 6.9681 13.9986C7.10707 13.9986 7.21894 14.1109 7.21894 14.2494V17.2323C7.21894 17.3708 7.10707 17.4832 6.9681 17.4832Z"/>
<path fill-rule="evenodd" clip-rule="evenodd" d="M8.24034 15.5532C8.18415 15.5532 8.12747 15.5342 8.08081 15.4955L6.9681 14.575L5.8559 15.4955C5.74954 15.5838 5.59101 15.5688 5.50272 15.4624C5.41443 15.3556 5.42948 15.1975 5.53633 15.1088L6.80857 14.0562C6.90138 13.9795 7.03533 13.9795 7.12814 14.0562L8.40037 15.1088C8.50723 15.1975 8.52228 15.3556 8.43399 15.4624C8.38432 15.5221 8.31258 15.5532 8.24034 15.5532Z"/>
<path fill-rule="evenodd" clip-rule="evenodd" d="M14.445 17.4832C14.3066 17.4832 14.1942 17.3708 14.1942 17.2323V14.2494C14.1942 14.1104 14.3066 13.9986 14.445 13.9986C14.5835 13.9986 14.6958 14.1104 14.6958 14.2494V17.2323C14.6958 17.3708 14.5835 17.4832 14.445 17.4832Z"/>
<path fill-rule="evenodd" clip-rule="evenodd" d="M14.445 17.4832C14.3883 17.4832 14.3316 17.4641 14.285 17.4255L13.0127 16.3725C12.9059 16.2842 12.8913 16.1261 12.9796 16.0193C13.0679 15.9129 13.226 15.8979 13.3328 15.9862L14.445 16.9067L15.5572 15.9862C15.6641 15.8979 15.8221 15.9129 15.9104 16.0193C15.9987 16.1261 15.9841 16.2842 15.8773 16.3725L14.605 17.4255C14.5584 17.4641 14.5017 17.4832 14.445 17.4832Z"/>
<path fill-rule="evenodd" clip-rule="evenodd" d="M22.9137 14.9718C22.9137 14.9718 22.9132 14.9718 22.9127 14.9718H20.3356C20.2443 14.9718 20.1601 14.9221 20.1159 14.8419C20.0718 14.7621 20.0748 14.6643 20.1234 14.587L21.4393 12.5031C21.4855 12.4303 21.5657 12.3862 21.6515 12.3862H21.654C21.7408 12.3872 21.8211 12.4328 21.8662 12.5071L23.1169 14.5735C23.147 14.6151 23.1646 14.6658 23.1646 14.721C23.1646 14.8594 23.0522 14.9718 22.9137 14.9718ZM20.7907 14.4701H22.4677L21.647 13.1141L20.7907 14.4701Z"/>
<path fill-rule="evenodd" clip-rule="evenodd" d="M21.6515 19.0955C21.5657 19.0955 21.4855 19.0514 21.4393 18.9786L20.1234 16.8947C20.0748 16.8174 20.0718 16.7196 20.1159 16.6399C20.1601 16.5596 20.2443 16.5099 20.3356 16.5099H22.9127C23.0035 16.5099 23.0868 16.5586 23.1315 16.6378C23.1756 16.7166 23.1741 16.8134 23.1274 16.8907L21.8662 18.9746C21.8211 19.0489 21.7408 19.0945 21.654 19.0955C21.653 19.0955 21.6525 19.0955 21.6515 19.0955ZM20.7907 17.0116L21.647 18.3676L22.4677 17.0116H20.7907Z"/>
</mask>
<path fill-rule="evenodd" clip-rule="evenodd" d="M24.6124 25.9072H0.748883C0.60992 25.9072 0.498047 25.7949 0.498047 25.6564V0.473492C0.498047 0.335031 0.60992 0.222656 0.748883 0.222656H24.6124C24.7514 0.222656 24.8632 0.335031 24.8632 0.473492V25.6564C24.8632 25.7949 24.7508 25.9072 24.6124 25.9072ZM0.999718 25.4056H24.3616V0.724328H0.999718V25.4056Z" fill="white"/>
<path fill-rule="evenodd" clip-rule="evenodd" d="M24.6124 2.09439H0.748883C0.60992 2.09439 0.498047 1.98202 0.498047 1.84356C0.498047 1.7051 0.60992 1.59272 0.748883 1.59272H24.6124C24.7514 1.59272 24.8632 1.7051 24.8632 1.84356C24.8632 1.98202 24.7514 2.09439 24.6124 2.09439Z" fill="white"/>
<path fill-rule="evenodd" clip-rule="evenodd" d="M24.6124 3.80509H0.748883C0.60992 3.80509 0.498047 3.69272 0.498047 3.55426C0.498047 3.41579 0.60992 3.30342 0.748883 3.30342H24.6124C24.7514 3.30342 24.8632 3.41579 24.8632 3.55426C24.8632 3.69272 24.7514 3.80509 24.6124 3.80509Z" fill="white"/>
<path fill-rule="evenodd" clip-rule="evenodd" d="M18.9977 25.9072H2.41543C2.27697 25.9072 2.1646 25.7949 2.1646 25.6564V5.82532C2.1646 5.68686 2.27697 5.57449 2.41543 5.57449H18.9977C19.1361 5.57449 19.248 5.68686 19.248 5.82532V25.6564C19.2485 25.7949 19.1361 25.9072 18.9977 25.9072ZM2.66627 25.4056H18.7468V6.07616H2.66627V25.4056Z" fill="white"/>
<path fill-rule="evenodd" clip-rule="evenodd" d="M17.3131 24.2226H4.10005C3.96159 24.2226 3.84921 24.1102 3.84921 23.9718V7.50994C3.84921 7.37147 3.96159 7.2591 4.10005 7.2591H17.3131C17.4515 7.2591 17.5639 7.37147 17.5639 7.50994V23.9718C17.5639 24.1102 17.4515 24.2226 17.3131 24.2226ZM4.35088 23.7209H17.0622V7.76077H4.35088V23.7209Z" fill="white"/>
<path fill-rule="evenodd" clip-rule="evenodd" d="M11.5398 24.2226H9.87328C9.73482 24.2226 9.62245 24.1102 9.62245 23.9718V7.50994C9.62245 7.37147 9.73482 7.2591 9.87328 7.2591H11.5398C11.6788 7.2591 11.7907 7.37147 11.7907 7.50994V23.9718C11.7907 24.1102 11.6788 24.2226 11.5398 24.2226ZM10.1241 23.7209H11.289V7.76077H10.1241V23.7209Z" fill="white"/>
<path fill-rule="evenodd" clip-rule="evenodd" d="M6.9681 17.4832C6.82964 17.4832 6.71727 17.3708 6.71727 17.2323V14.2494C6.71727 14.1109 6.82964 13.9986 6.9681 13.9986C7.10707 13.9986 7.21894 14.1109 7.21894 14.2494V17.2323C7.21894 17.3708 7.10707 17.4832 6.9681 17.4832Z" fill="white"/>
<path fill-rule="evenodd" clip-rule="evenodd" d="M8.24034 15.5532C8.18415 15.5532 8.12747 15.5342 8.08081 15.4955L6.9681 14.575L5.8559 15.4955C5.74954 15.5838 5.59101 15.5688 5.50272 15.4624C5.41443 15.3556 5.42948 15.1975 5.53633 15.1088L6.80857 14.0562C6.90138 13.9795 7.03533 13.9795 7.12814 14.0562L8.40037 15.1088C8.50723 15.1975 8.52228 15.3556 8.43399 15.4624C8.38432 15.5221 8.31258 15.5532 8.24034 15.5532Z" fill="white"/>
<path fill-rule="evenodd" clip-rule="evenodd" d="M14.445 17.4832C14.3066 17.4832 14.1942 17.3708 14.1942 17.2323V14.2494C14.1942 14.1104 14.3066 13.9986 14.445 13.9986C14.5835 13.9986 14.6958 14.1104 14.6958 14.2494V17.2323C14.6958 17.3708 14.5835 17.4832 14.445 17.4832Z" fill="white"/>
<path fill-rule="evenodd" clip-rule="evenodd" d="M14.445 17.4832C14.3883 17.4832 14.3316 17.4641 14.285 17.4255L13.0127 16.3725C12.9059 16.2842 12.8913 16.1261 12.9796 16.0193C13.0679 15.9129 13.226 15.8979 13.3328 15.9862L14.445 16.9067L15.5572 15.9862C15.6641 15.8979 15.8221 15.9129 15.9104 16.0193C15.9987 16.1261 15.9841 16.2842 15.8773 16.3725L14.605 17.4255C14.5584 17.4641 14.5017 17.4832 14.445 17.4832Z" fill="white"/>
<path fill-rule="evenodd" clip-rule="evenodd" d="M22.9137 14.9718C22.9137 14.9718 22.9132 14.9718 22.9127 14.9718H20.3356C20.2443 14.9718 20.1601 14.9221 20.1159 14.8419C20.0718 14.7621 20.0748 14.6643 20.1234 14.587L21.4393 12.5031C21.4855 12.4303 21.5657 12.3862 21.6515 12.3862H21.654C21.7408 12.3872 21.8211 12.4328 21.8662 12.5071L23.1169 14.5735C23.147 14.6151 23.1646 14.6658 23.1646 14.721C23.1646 14.8594 23.0522 14.9718 22.9137 14.9718ZM20.7907 14.4701H22.4677L21.647 13.1141L20.7907 14.4701Z" fill="white"/>
<path fill-rule="evenodd" clip-rule="evenodd" d="M21.6515 19.0955C21.5657 19.0955 21.4855 19.0514 21.4393 18.9786L20.1234 16.8947C20.0748 16.8174 20.0718 16.7196 20.1159 16.6399C20.1601 16.5596 20.2443 16.5099 20.3356 16.5099H22.9127C23.0035 16.5099 23.0868 16.5586 23.1315 16.6378C23.1756 16.7166 23.1741 16.8134 23.1274 16.8907L21.8662 18.9746C21.8211 19.0489 21.7408 19.0945 21.654 19.0955C21.653 19.0955 21.6525 19.0955 21.6515 19.0955ZM20.7907 17.0116L21.647 18.3676L22.4677 17.0116H20.7907Z" fill="white"/>
<path d="M0.999718 25.4056H0.419142V25.9861H0.999718V25.4056ZM24.3616 25.4056V25.9861H24.9421V25.4056H24.3616ZM24.3616 0.724328H24.9421V0.143752H24.3616V0.724328ZM0.999718 0.724328V0.143752H0.419142V0.724328H0.999718ZM19.248 25.6564H18.6674L18.6674 25.6585L19.248 25.6564ZM2.66627 25.4056H2.08569V25.9861H2.66627V25.4056ZM18.7468 25.4056V25.9861H19.3274V25.4056H18.7468ZM18.7468 6.07616H19.3274V5.49558H18.7468V6.07616ZM2.66627 6.07616V5.49558H2.08569V6.07616H2.66627ZM4.35088 23.7209H3.77031V24.3015H4.35088V23.7209ZM17.0622 23.7209V24.3015H17.6428V23.7209H17.0622ZM17.0622 7.76077H17.6428V7.18019H17.0622V7.76077ZM4.35088 7.76077V7.18019H3.77031V7.76077H4.35088ZM10.1241 23.7209H9.54354V24.3015H10.1241V23.7209ZM11.289 23.7209V24.3015H11.8696V23.7209H11.289ZM11.289 7.76077H11.8696V7.18019H11.289V7.76077ZM10.1241 7.76077V7.18019H9.54354V7.76077H10.1241ZM8.08081 15.4955L8.45106 15.0483L8.4509 15.0482L8.08081 15.4955ZM6.9681 14.575L7.33819 14.1276L6.96802 13.8214L6.59792 14.1277L6.9681 14.575ZM5.8559 15.4955L5.48571 15.0483L5.48505 15.0488L5.8559 15.4955ZM5.50272 15.4624L5.05516 15.8322L5.05602 15.8333L5.50272 15.4624ZM5.53633 15.1088L5.16625 14.6614L5.16528 14.6622L5.53633 15.1088ZM6.80857 14.0562L6.43856 13.6088L6.43849 13.6089L6.80857 14.0562ZM7.12814 14.0562L7.49821 13.6089L7.49814 13.6088L7.12814 14.0562ZM8.40037 15.1088L8.77143 14.6622L8.77045 14.6614L8.40037 15.1088ZM8.43399 15.4624L8.88031 15.8337L8.88154 15.8322L8.43399 15.4624ZM14.285 17.4255L14.6552 16.9783L14.6552 16.9782L14.285 17.4255ZM13.0127 16.3725L13.3829 15.9252L13.3826 15.9249L13.0127 16.3725ZM12.9796 16.0193L12.5329 15.6484L12.5321 15.6495L12.9796 16.0193ZM13.3328 15.9862L13.703 15.5389L13.7026 15.5386L13.3328 15.9862ZM14.445 16.9067L14.0748 17.354L14.445 17.6604L14.8152 17.354L14.445 16.9067ZM15.5572 15.9862L15.1874 15.5386L15.187 15.5389L15.5572 15.9862ZM15.9104 16.0193L16.358 15.6495L16.3571 15.6484L15.9104 16.0193ZM15.8773 16.3725L15.5075 15.9249L15.5071 15.9252L15.8773 16.3725ZM14.605 17.4255L14.2349 16.9782L14.2348 16.9783L14.605 17.4255ZM20.1159 14.8419L20.6246 14.5621L20.6239 14.5607L20.1159 14.8419ZM20.1234 14.587L19.6325 14.277L19.6322 14.2776L20.1234 14.587ZM21.4393 12.5031L20.9491 12.192L20.9484 12.1931L21.4393 12.5031ZM21.654 12.3862L21.6607 11.8056H21.654V12.3862ZM21.8662 12.5071L22.3629 12.2065L22.3623 12.2054L21.8662 12.5071ZM23.1169 14.5735L22.6202 14.8741L22.6325 14.8944L22.6464 14.9136L23.1169 14.5735ZM20.7907 14.4701L20.2998 14.1601L19.7374 15.0507H20.7907V14.4701ZM22.4677 14.4701V15.0507H23.4978L22.9644 14.1695L22.4677 14.4701ZM21.647 13.1141L22.1437 12.8135L21.6575 12.0102L21.1561 12.8041L21.647 13.1141ZM21.4393 18.9786L20.9484 19.2886L20.9491 19.2897L21.4393 18.9786ZM20.1234 16.8947L19.6322 17.2041L19.6325 17.2047L20.1234 16.8947ZM20.1159 16.6399L20.6239 16.921L20.6246 16.9196L20.1159 16.6399ZM23.1315 16.6378L23.6379 16.354L23.6373 16.3529L23.1315 16.6378ZM23.1274 16.8907L23.6241 17.1913L23.6244 17.1908L23.1274 16.8907ZM21.8662 18.9746L22.3623 19.2763L22.3629 19.2752L21.8662 18.9746ZM21.654 19.0955V19.6761L21.6607 19.6761L21.654 19.0955ZM20.7907 17.0116V16.431H19.7374L20.2998 17.3216L20.7907 17.0116ZM21.647 18.3676L21.1561 18.6776L21.6575 19.4715L22.1437 18.6682L21.647 18.3676ZM22.4677 17.0116L22.9644 17.3122L23.4978 16.431H22.4677V17.0116ZM24.6124 25.3267H0.748883V26.4878H24.6124V25.3267ZM0.748883 25.3267C0.931319 25.3267 1.07862 25.475 1.07862 25.6564H-0.0825292C-0.0825292 26.1147 0.28852 26.4878 0.748883 26.4878V25.3267ZM1.07862 25.6564V0.473492H-0.0825292V25.6564H1.07862ZM1.07862 0.473492C1.07862 0.654917 0.931319 0.803232 0.748883 0.803232V-0.35792C0.28852 -0.35792 -0.0825292 0.0151441 -0.0825292 0.473492H1.07862ZM0.748883 0.803232H24.6124V-0.35792H0.748883V0.803232ZM24.6124 0.803232C24.43 0.803232 24.2826 0.654917 24.2826 0.473492H25.4438C25.4438 0.0151441 25.0728 -0.35792 24.6124 -0.35792V0.803232ZM24.2826 0.473492V25.6564H25.4438V0.473492H24.2826ZM24.2826 25.6564C24.2826 25.4742 24.4302 25.3267 24.6124 25.3267V26.4878C25.0715 26.4878 25.4438 26.1155 25.4438 25.6564H24.2826ZM0.999718 25.9861H24.3616V24.825H0.999718V25.9861ZM24.9421 25.4056V0.724328H23.781V25.4056H24.9421ZM24.3616 0.143752H0.999718V1.3049H24.3616V0.143752ZM0.419142 0.724328V25.4056H1.58029V0.724328H0.419142ZM24.6124 1.51382H0.748883V2.67497H24.6124V1.51382ZM0.748883 1.51382C0.931319 1.51382 1.07862 1.66213 1.07862 1.84356H-0.0825292C-0.0825292 2.3019 0.28852 2.67497 0.748883 2.67497V1.51382ZM1.07862 1.84356C1.07862 2.02498 0.931319 2.1733 0.748883 2.1733V1.01214C0.28852 1.01214 -0.0825292 1.38521 -0.0825292 1.84356H1.07862ZM0.748883 2.1733H24.6124V1.01214H0.748883V2.1733ZM24.6124 2.1733C24.43 2.1733 24.2826 2.02498 24.2826 1.84356H25.4438C25.4438 1.38521 25.0728 1.01214 24.6124 1.01214V2.1733ZM24.2826 1.84356C24.2826 1.66213 24.43 1.51382 24.6124 1.51382V2.67497C25.0728 2.67497 25.4438 2.3019 25.4438 1.84356H24.2826ZM24.6124 3.22452H0.748883V4.38567H24.6124V3.22452ZM0.748883 3.22452C0.931319 3.22452 1.07862 3.37283 1.07862 3.55426H-0.0825292C-0.0825292 4.0126 0.28852 4.38567 0.748883 4.38567V3.22452ZM1.07862 3.55426C1.07862 3.73568 0.931319 3.884 0.748883 3.884V2.72284C0.28852 2.72284 -0.0825292 3.09591 -0.0825292 3.55426H1.07862ZM0.748883 3.884H24.6124V2.72284H0.748883V3.884ZM24.6124 3.884C24.43 3.884 24.2826 3.73568 24.2826 3.55426H25.4438C25.4438 3.09591 25.0728 2.72284 24.6124 2.72284V3.884ZM24.2826 3.55426C24.2826 3.37283 24.43 3.22452 24.6124 3.22452V4.38567C25.0728 4.38567 25.4438 4.0126 25.4438 3.55426H24.2826ZM18.9977 25.3267H2.41543V26.4878H18.9977V25.3267ZM2.41543 25.3267C2.59762 25.3267 2.74518 25.4742 2.74518 25.6564H1.58402C1.58402 26.1155 1.95633 26.4878 2.41543 26.4878V25.3267ZM2.74518 25.6564V5.82532H1.58402V25.6564H2.74518ZM2.74518 5.82532C2.74518 6.0075 2.59762 6.15506 2.41543 6.15506V4.99391C1.95633 4.99391 1.58402 5.36622 1.58402 5.82532H2.74518ZM2.41543 6.15506H18.9977V4.99391H2.41543V6.15506ZM18.9977 6.15506C18.814 6.15506 18.6674 6.00599 18.6674 5.82532H19.8286C19.8286 5.36773 19.4583 4.99391 18.9977 4.99391V6.15506ZM18.6674 5.82532V25.6564H19.8286V5.82532H18.6674ZM18.6674 25.6585C18.6668 25.4743 18.8159 25.3267 18.9977 25.3267V26.4878C19.4564 26.4878 19.8303 26.1154 19.8286 25.6543L18.6674 25.6585ZM2.66627 25.9861H18.7468V24.825H2.66627V25.9861ZM19.3274 25.4056V6.07616H18.1663V25.4056H19.3274ZM18.7468 5.49558H2.66627V6.65673H18.7468V5.49558ZM2.08569 6.07616V25.4056H3.24685V6.07616H2.08569ZM17.3131 23.642H4.10005V24.8032H17.3131V23.642ZM4.10005 23.642C4.28223 23.642 4.42979 23.7896 4.42979 23.9718H3.26864C3.26864 24.4309 3.64094 24.8032 4.10005 24.8032V23.642ZM4.42979 23.9718V7.50994H3.26864V23.9718H4.42979ZM4.42979 7.50994C4.42979 7.69212 4.28223 7.83968 4.10005 7.83968V6.67852C3.64094 6.67852 3.26864 7.05083 3.26864 7.50994H4.42979ZM4.10005 7.83968H17.3131V6.67852H4.10005V7.83968ZM17.3131 7.83968C17.1309 7.83968 16.9833 7.69212 16.9833 7.50994H18.1445C18.1445 7.05083 17.7722 6.67852 17.3131 6.67852V7.83968ZM16.9833 7.50994V23.9718H18.1445V7.50994H16.9833ZM16.9833 23.9718C16.9833 23.7896 17.1309 23.642 17.3131 23.642V24.8032C17.7722 24.8032 18.1445 24.4309 18.1445 23.9718H16.9833ZM4.35088 24.3015H17.0622V23.1404H4.35088V24.3015ZM17.6428 23.7209V7.76077H16.4817V23.7209H17.6428ZM17.0622 7.18019H4.35088V8.34135H17.0622V7.18019ZM3.77031 7.76077V23.7209H4.93146V7.76077H3.77031ZM11.5398 23.642H9.87328V24.8032H11.5398V23.642ZM9.87328 23.642C10.0555 23.642 10.203 23.7896 10.203 23.9718H9.04187C9.04187 24.4309 9.41418 24.8032 9.87328 24.8032V23.642ZM10.203 23.9718V7.50994H9.04187V23.9718H10.203ZM10.203 7.50994C10.203 7.69212 10.0555 7.83968 9.87328 7.83968V6.67852C9.41418 6.67852 9.04187 7.05083 9.04187 7.50994H10.203ZM9.87328 7.83968H11.5398V6.67852H9.87328V7.83968ZM11.5398 7.83968C11.3574 7.83968 11.2101 7.69136 11.2101 7.50994H12.3712C12.3712 7.05159 12.0002 6.67852 11.5398 6.67852V7.83968ZM11.2101 7.50994V23.9718H12.3712V7.50994H11.2101ZM11.2101 23.9718C11.2101 23.7904 11.3574 23.642 11.5398 23.642V24.8032C12.0002 24.8032 12.3712 24.4301 12.3712 23.9718H11.2101ZM10.1241 24.3015H11.289V23.1404H10.1241V24.3015ZM11.8696 23.7209V7.76077H10.7084V23.7209H11.8696ZM11.289 7.18019H10.1241V8.34135H11.289V7.18019ZM9.54354 7.76077V23.7209H10.7047V7.76077H9.54354ZM6.9681 16.9026C7.15029 16.9026 7.29784 17.0501 7.29784 17.2323H6.13669C6.13669 17.6914 6.509 18.0637 6.9681 18.0637V16.9026ZM7.29784 17.2323V14.2494H6.13669V17.2323H7.29784ZM7.29784 14.2494C7.29784 14.4316 7.15029 14.5791 6.9681 14.5791V13.418C6.509 13.418 6.13669 13.7903 6.13669 14.2494H7.29784ZM6.9681 14.5791C6.78567 14.5791 6.63836 14.4308 6.63836 14.2494H7.79951C7.79951 13.791 7.42847 13.418 6.9681 13.418V14.5791ZM6.63836 14.2494V17.2323H7.79951V14.2494H6.63836ZM6.63836 17.2323C6.63836 17.0509 6.78567 16.9026 6.9681 16.9026V18.0637C7.42847 18.0637 7.79951 17.6907 7.79951 17.2323H6.63836ZM8.24034 14.9727C8.31547 14.9727 8.39065 14.9983 8.45106 15.0483L7.71055 15.9427C7.86428 16.07 8.05284 16.1338 8.24034 16.1338V14.9727ZM8.4509 15.0482L7.33819 14.1276L6.59802 15.0223L7.71072 15.9429L8.4509 15.0482ZM6.59792 14.1277L5.48571 15.0483L6.22608 15.9428L7.33829 15.0222L6.59792 14.1277ZM5.48505 15.0488C5.62652 14.9314 5.83383 14.9523 5.94942 15.0916L5.05602 15.8333C5.3482 16.1852 5.87257 16.2363 6.22674 15.9422L5.48505 15.0488ZM5.95028 15.0926C6.06678 15.2336 6.0455 15.4405 5.90739 15.5553L5.16528 14.6622C4.81345 14.9546 4.76207 15.4775 5.05516 15.8322L5.95028 15.0926ZM5.90641 15.5561L7.17865 14.5036L6.43849 13.6089L5.16626 14.6614L5.90641 15.5561ZM7.17858 14.5036C7.05667 14.6045 6.88003 14.6045 6.75813 14.5036L7.49814 13.6088C7.19062 13.3545 6.74609 13.3545 6.43856 13.6088L7.17858 14.5036ZM6.75806 14.5036L8.0303 15.5561L8.77045 14.6614L7.49821 13.6089L6.75806 14.5036ZM8.02932 15.5553C7.89121 15.4405 7.86993 15.2336 7.98643 15.0926L8.88154 15.8322C9.17464 15.4775 9.12325 14.9546 8.77143 14.6622L8.02932 15.5553ZM7.98767 15.0911C8.05255 15.0131 8.14686 14.9727 8.24034 14.9727V16.1338C8.4783 16.1338 8.71609 16.0311 8.88031 15.8337L7.98767 15.0911ZM14.445 16.9026C14.6272 16.9026 14.7748 17.0501 14.7748 17.2323H13.6136C13.6136 17.6914 13.9859 18.0637 14.445 18.0637V16.9026ZM14.7748 17.2323V14.2494H13.6136V17.2323H14.7748ZM14.7748 14.2494C14.7748 14.4318 14.6264 14.5791 14.445 14.5791V13.418C13.9867 13.418 13.6136 13.789 13.6136 14.2494H14.7748ZM14.445 14.5791C14.2636 14.5791 14.1153 14.4318 14.1153 14.2494H15.2764C15.2764 13.789 14.9034 13.418 14.445 13.418V14.5791ZM14.1153 14.2494V17.2323H15.2764V14.2494H14.1153ZM14.1153 17.2323C14.1153 17.0501 14.2628 16.9026 14.445 16.9026V18.0637C14.9041 18.0637 15.2764 17.6914 15.2764 17.2323H14.1153ZM14.445 16.9026C14.519 16.9026 14.5944 16.9279 14.6552 16.9783L13.9147 17.8727C14.0689 18.0003 14.2576 18.0637 14.445 18.0637V16.9026ZM14.6552 16.9782L13.3829 15.9252L12.6426 16.8197L13.9148 17.8727L14.6552 16.9782ZM13.3826 15.9249C13.5245 16.0422 13.5418 16.2504 13.4272 16.3891L12.5321 15.6495C12.2408 16.0019 12.2873 16.5262 12.6429 16.82L13.3826 15.9249ZM13.4263 16.3901C13.3103 16.5299 13.1031 16.5495 12.963 16.4337L13.7026 15.5386C13.3488 15.2462 12.8255 15.296 12.5329 15.6484L13.4263 16.3901ZM12.9626 16.4334L14.0748 17.354L14.8152 16.4595L13.703 15.5389L12.9626 16.4334ZM14.8152 17.354L15.9274 16.4334L15.187 15.5389L14.0748 16.4595L14.8152 17.354ZM15.927 16.4337C15.7869 16.5495 15.5797 16.5299 15.4637 16.3901L16.3571 15.6484C16.0645 15.296 15.5413 15.2462 15.1874 15.5386L15.927 16.4337ZM15.4628 16.3891C15.3482 16.2503 15.3656 16.0421 15.5075 15.9249L16.2471 16.82C16.6027 16.5262 16.6492 16.0019 16.358 15.6495L15.4628 16.3891ZM15.5071 15.9252L14.2349 16.9782L14.9752 17.8727L16.2475 16.8197L15.5071 15.9252ZM14.2348 16.9783C14.2957 16.9279 14.371 16.9026 14.445 16.9026V18.0637C14.6324 18.0637 14.8211 18.0003 14.9753 17.8727L14.2348 16.9783ZM22.9137 14.9718C22.9137 14.3912 22.9137 14.3912 22.9137 14.3912C22.9137 14.3912 22.9137 14.3912 22.9137 14.3912C22.9137 14.3912 22.9137 14.3912 22.9137 14.3912H22.9137C22.9137 14.3912 22.9137 14.3912 22.9137 14.3912C22.9137 14.3912 22.9137 14.3912 22.9137 14.3912C22.9137 14.3912 22.9137 14.3912 22.9137 14.3912C22.9137 14.3912 22.9137 14.3912 22.9137 14.3912H22.9137C22.9137 14.3912 22.9137 14.3912 22.9137 14.3912C22.9137 14.3912 22.9137 14.3912 22.9137 14.3912C22.9137 14.3912 22.9137 14.3912 22.9137 14.3912C22.9137 14.3912 22.9137 14.3912 22.9137 14.3912H22.9137C22.9137 14.3912 22.9137 14.3912 22.9137 14.3912C22.9137 14.3912 22.9137 14.3912 22.9137 14.3912C22.9137 14.3912 22.9137 14.3912 22.9137 14.3912C22.9137 14.3912 22.9137 14.3912 22.9137 14.3912C22.9137 14.3912 22.9137 14.3912 22.9137 14.3912C22.9137 14.3912 22.9137 14.3912 22.9137 14.3912H22.9137H22.9137C22.9137 14.3912 22.9137 14.3912 22.9137 14.3912C22.9137 14.3912 22.9137 14.3912 22.9137 14.3912C22.9137 14.3912 22.9137 14.3912 22.9137 14.3912C22.9137 14.3912 22.9137 14.3912 22.9137 14.3912C22.9137 14.3912 22.9137 14.3912 22.9137 14.3912C22.9137 14.3912 22.9137 14.3912 22.9137 14.3912H22.9137H22.9137C22.9137 14.3912 22.9137 14.3912 22.9137 14.3912C22.9137 14.3912 22.9137 14.3912 22.9137 14.3912C22.9137 14.3912 22.9137 14.3912 22.9137 14.3912H22.9137C22.9137 14.3912 22.9137 14.3912 22.9137 14.3912C22.9137 14.3912 22.9137 14.3912 22.9137 14.3912H22.9137C22.9137 14.3912 22.9137 14.3912 22.9137 14.3912C22.9137 14.3912 22.9137 14.3912 22.9137 14.3912H22.9137C22.9137 14.3912 22.9137 14.3912 22.9137 14.3912H22.9137C22.9136 14.3912 22.9136 14.3912 22.9136 14.3912C22.9136 14.3912 22.9136 14.3912 22.9136 14.3912C22.9136 14.3912 22.9136 14.3912 22.9136 14.3912C22.9136 14.3912 22.9136 14.3912 22.9136 14.3912C22.9136 14.3912 22.9136 14.3912 22.9136 14.3912C22.9136 14.3912 22.9136 14.3912 22.9136 14.3912C22.9136 14.3912 22.9136 14.3912 22.9136 14.3912H22.9136C22.9136 14.3912 22.9136 14.3912 22.9136 14.3912H22.9136C22.9136 14.3912 22.9136 14.3912 22.9136 14.3912C22.9136 14.3912 22.9136 14.3912 22.9136 14.3912H22.9136C22.9136 14.3912 22.9136 14.3912 22.9136 14.3912C22.9136 14.3912 22.9136 14.3912 22.9136 14.3912C22.9136 14.3912 22.9136 14.3912 22.9136 14.3912C22.9136 14.3912 22.9136 14.3912 22.9136 14.3912H22.9136H22.9136C22.9136 14.3912 22.9136 14.3912 22.9136 14.3912C22.9136 14.3912 22.9136 14.3912 22.9136 14.3912H22.9136C22.9136 14.3912 22.9136 14.3912 22.9136 14.3912C22.9136 14.3912 22.9136 14.3912 22.9136 14.3912H22.9136H22.9136C22.9136 14.3912 22.9136 14.3912 22.9136 14.3912C22.9136 14.3912 22.9136 14.3912 22.9136 14.3912H22.9136H22.9136C22.9136 14.3912 22.9136 14.3912 22.9136 14.3912C22.9136 14.3912 22.9136 14.3912 22.9136 14.3912C22.9136 14.3912 22.9136 14.3912 22.9136 14.3912H22.9136H22.9136C22.9136 14.3912 22.9136 14.3912 22.9136 14.3912C22.9136 14.3912 22.9136 14.3912 22.9136 14.3912C22.9136 14.3912 22.9136 14.3912 22.9136 14.3912C22.9136 14.3912 22.9136 14.3912 22.9136 14.3912H22.9136H22.9136C22.9136 14.3912 22.9136 14.3912 22.9136 14.3912C22.9136 14.3912 22.9136 14.3912 22.9136 14.3912C22.9136 14.3912 22.9136 14.3912 22.9136 14.3912C22.9136 14.3912 22.9136 14.3912 22.9136 14.3912C22.9136 14.3912 22.9136 14.3912 22.9136 14.3912C22.9136 14.3912 22.9136 14.3912 22.9136 14.3912H22.9136H22.9136H22.9136C22.9136 14.3912 22.9136 14.3912 22.9136 14.3912C22.9136 14.3912 22.9136 14.3912 22.9136 14.3912C22.9136 14.3912 22.9136 14.3912 22.9135 14.3912C22.9135 14.3912 22.9135 14.3912 22.9135 14.3912C22.9135 14.3912 22.9135 14.3912 22.9135 14.3912C22.9135 14.3912 22.9135 14.3912 22.9135 14.3912C22.9135 14.3912 22.9135 14.3912 22.9135 14.3912C22.9135 14.3912 22.9135 14.3912 22.9135 14.3912C22.9135 14.3912 22.9135 14.3912 22.9135 14.3912H22.9135H22.9135H22.9135H22.9135H22.9135H22.9135H22.9135H22.9135H22.9135H22.9135H22.9135H22.9135H22.9135H22.9135H22.9135H22.9135H22.9135H22.9135H22.9135H22.9135H22.9135H22.9135H22.9135H22.9135H22.9135H22.9135H22.9135C22.9135 14.3912 22.9135 14.3912 22.9135 14.3912C22.9135 14.3912 22.9135 14.3912 22.9135 14.3912C22.9135 14.3912 22.9135 14.3912 22.9135 14.3912C22.9135 14.3912 22.9135 14.3912 22.9135 14.3912C22.9135 14.3912 22.9135 14.3912 22.9135 14.3912C22.9135 14.3912 22.9135 14.3912 22.9135 14.3912C22.9135 14.3912 22.9135 14.3912 22.9135 14.3912C22.9135 14.3912 22.9135 14.3912 22.9135 14.3912C22.9135 14.3912 22.9135 14.3912 22.9135 14.3912C22.9135 14.3912 22.9135 14.3912 22.9135 14.3912H22.9135H22.9135H22.9135H22.9135C22.9135 14.3912 22.9135 14.3912 22.9135 14.3912C22.9135 14.3912 22.9135 14.3912 22.9135 14.3912C22.9135 14.3912 22.9135 14.3912 22.9135 14.3912C22.9135 14.3912 22.9135 14.3912 22.9134 14.3912C22.9134 14.3912 22.9134 14.3912 22.9134 14.3912C22.9134 14.3912 22.9134 14.3912 22.9134 14.3912H22.9134H22.9134H22.9134C22.9134 14.3912 22.9134 14.3912 22.9134 14.3912C22.9134 14.3912 22.9134 14.3912 22.9134 14.3912C22.9134 14.3912 22.9134 14.3912 22.9134 14.3912C22.9134 14.3912 22.9134 14.3912 22.9134 14.3912C22.9134 14.3912 22.9134 14.3912 22.9134 14.3912H22.9134H22.9134H22.9134C22.9134 14.3912 22.9134 14.3912 22.9134 14.3912C22.9134 14.3912 22.9134 14.3912 22.9134 14.3912C22.9134 14.3912 22.9134 14.3912 22.9134 14.3912C22.9134 14.3912 22.9134 14.3912 22.9134 14.3912H22.9134H22.9134C22.9134 14.3912 22.9134 14.3912 22.9134 14.3912C22.9134 14.3912 22.9134 14.3912 22.9134 14.3912C22.9134 14.3912 22.9134 14.3912 22.9134 14.3912H22.9134H22.9134H22.9134C22.9134 14.3912 22.9134 14.3912 22.9134 14.3912C22.9134 14.3912 22.9134 14.3912 22.9134 14.3912C22.9134 14.3912 22.9134 14.3912 22.9134 14.3912H22.9134H22.9134C22.9134 14.3912 22.9134 14.3912 22.9134 14.3912C22.9134 14.3912 22.9134 14.3912 22.9134 14.3912C22.9134 14.3912 22.9134 14.3912 22.9134 14.3912H22.9134H22.9134C22.9134 14.3912 22.9134 14.3912 22.9134 14.3912C22.9134 14.3912 22.9134 14.3912 22.9134 14.3912C22.9134 14.3912 22.9134 14.3912 22.9134 14.3912H22.9134C22.9134 14.3912 22.9134 14.3912 22.9134 14.3912C22.9134 14.3912 22.9134 14.3912 22.9134 14.3912C22.9134 14.3912 22.9134 14.3912 22.9134 14.3912H22.9134H22.9134C22.9133 14.3912 22.9133 14.3912 22.9133 14.3912C22.9133 14.3912 22.9133 14.3912 22.9133 14.3912H22.9133H22.9133C22.9133 14.3912 22.9133 14.3912 22.9133 14.3912C22.9133 14.3912 22.9133 14.3912 22.9133 14.3912H22.9133H22.9133C22.9133 14.3912 22.9133 14.3912 22.9133 14.3912C22.9133 14.3912 22.9133 14.3912 22.9133 14.3912H22.9133H22.9133C22.9133 14.3912 22.9133 14.3912 22.9133 14.3912C22.9133 14.3912 22.9133 14.3912 22.9133 14.3912H22.9133C22.9133 14.3912 22.9133 14.3912 22.9133 14.3912C22.9133 14.3912 22.9133 14.3912 22.9133 14.3912H22.9133H22.9133C22.9133 14.3912 22.9133 14.3912 22.9133 14.3912C22.9133 14.3912 22.9133 14.3912 22.9133 14.3912H22.9133C22.9133 14.3912 22.9133 14.3912 22.9133 14.3912C22.9133 14.3912 22.9133 14.3912 22.9133 14.3912H22.9133H22.9133C22.9133 14.3912 22.9133 14.3912 22.9133 14.3912C22.9133 14.3912 22.9133 14.3912 22.9133 14.3912H22.9133C22.9133 14.3912 22.9133 14.3912 22.9133 14.3912C22.9133 14.3912 22.9133 14.3912 22.9133 14.3912H22.9133C22.9133 14.3912 22.9133 14.3912 22.9133 14.3912C22.9133 14.3912 22.9133 14.3912 22.9133 14.3912H22.9133C22.9133 14.3912 22.9133 14.3912 22.9133 14.3912C22.9133 14.3912 22.9133 14.3912 22.9133 14.3912H22.9133C22.9133 14.3912 22.9133 14.3912 22.9133 14.3912C22.9133 14.3912 22.9133 14.3912 22.9133 14.3912H22.9132C22.9132 14.3912 22.9132 14.3912 22.9132 14.3912C22.9132 14.3912 22.9132 14.3912 22.9132 14.3912H22.9132C22.9132 14.3912 22.9132 14.3912 22.9132 14.3912C22.9132 14.3912 22.9132 14.3912 22.9132 14.3912H22.9132C22.9132 14.3912 22.9132 14.3912 22.9132 14.3912C22.9132 14.3912 22.9132 14.3912 22.9132 14.3912H22.9132C22.9132 14.3912 22.9132 14.3912 22.9132 14.3912C22.9132 14.3912 22.9132 14.3912 22.9132 14.3912H22.9132C22.9132 14.3912 22.9132 14.3912 22.9132 14.3912H22.9132H22.9132C22.9132 14.3912 22.9132 14.3912 22.9132 14.3912H22.9132C22.9132 14.3912 22.9132 14.3912 22.9132 14.3912C22.9132 14.3912 22.9132 14.3912 22.9132 14.3912H22.9132C22.9132 14.3912 22.9132 14.3912 22.9132 14.3912H22.9132H22.9132C22.9132 14.3912 22.9132 14.3912 22.9132 14.3912H22.9132C22.9132 14.3912 22.9132 14.3912 22.9132 14.3912C22.9132 14.3912 22.9132 14.3912 22.9132 14.3912H22.9132C22.9132 14.3912 22.9132 14.3912 22.9132 14.3912H22.9132C22.9132 14.3912 22.9132 14.3912 22.9132 14.3912C22.9132 14.3912 22.9132 14.3912 22.9132 14.3912H22.9132C22.9132 14.3912 22.9132 14.3912 22.9132 14.3912H22.9132C22.9132 14.3912 22.9132 14.3912 22.9132 14.3912C22.9132 14.3912 22.9132 14.3912 22.9132 14.3912H22.9132C22.9131 14.3912 22.9131 14.3912 22.9131 14.3912H22.9131C22.9131 14.3912 22.9131 14.3912 22.9131 14.3912H22.9131C22.9131 14.3912 22.9131 14.3912 22.9131 14.3912C22.9131 14.3912 22.9131 14.3912 22.9131 14.3912H22.9131C22.9131 14.3912 22.9131 14.3912 22.9131 14.3912H22.9131C22.9131 14.3912 22.9131 14.3912 22.9131 14.3912H22.9131H22.9131C22.9131 14.3912 22.9131 14.3912 22.9131 14.3912H22.9131C22.9131 14.3912 22.9131 14.3912 22.9131 14.3912H22.9131C22.9131 14.3912 22.9131 14.3912 22.9131 14.3912H22.9131C22.9131 14.3912 22.9131 14.3912 22.9131 14.3912C22.9131 14.3912 22.9131 14.3912 22.9131 14.3912H22.9131C22.9131 14.3912 22.9131 14.3912 22.9131 14.3912H22.9131C22.9131 14.3912 22.9131 14.3912 22.9131 14.3912H22.9131C22.9131 14.3912 22.9131 14.3912 22.9131 14.3912H22.9131C22.9131 14.3912 22.9131 14.3912 22.9131 14.3912H22.9131H22.9131C22.9131 14.3912 22.9131 14.3912 22.9131 14.3912H22.9131C22.9131 14.3912 22.9131 14.3912 22.9131 14.3912H22.9131C22.9131 14.3912 22.9131 14.3912 22.9131 14.3912H22.9131C22.913 14.3912 22.913 14.3912 22.913 14.3912H22.913C22.913 14.3912 22.913 14.3912 22.913 14.3912H22.913C22.913 14.3912 22.913 14.3912 22.913 14.3912H22.913C22.913 14.3912 22.913 14.3912 22.913 14.3912H22.913C22.913 14.3912 22.913 14.3912 22.913 14.3912C22.913 14.3912 22.913 14.3912 22.913 14.3912H22.913C22.913 14.3912 22.913 14.3912 22.913 14.3912H22.913C22.913 14.3912 22.913 14.3912 22.913 14.3912H22.913C22.913 14.3912 22.913 14.3912 22.913 14.3912H22.913C22.913 14.3912 22.913 14.3912 22.913 14.3912H22.913C22.913 14.3912 22.913 14.3912 22.913 14.3912H22.913C22.913 14.3912 22.913 14.3912 22.913 14.3912H22.913C22.913 14.3912 22.913 14.3912 22.913 14.3912H22.913C22.913 14.3912 22.913 14.3912 22.913 14.3912H22.913C22.913 14.3912 22.913 14.3912 22.913 14.3912H22.913C22.913 14.3912 22.913 14.3912 22.913 14.3912H22.913C22.913 14.3912 22.913 14.3912 22.913 14.3912H22.913C22.913 14.3912 22.913 14.3912 22.913 14.3912H22.913C22.913 14.3912 22.913 14.3912 22.9129 14.3912H22.9129C22.9129 14.3912 22.9129 14.3912 22.9129 14.3912H22.9129C22.9129 14.3912 22.9129 14.3912 22.9129 14.3912H22.9129C22.9129 14.3912 22.9129 14.3912 22.9129 14.3912H22.9129C22.9129 14.3912 22.9129 14.3912 22.9129 14.3912H22.9129C22.9129 14.3912 22.9129 14.3912 22.9129 14.3912H22.9129C22.9129 14.3912 22.9129 14.3912 22.9129 14.3912H22.9129C22.9129 14.3912 22.9129 14.3912 22.9129 14.3912C22.9129 14.3912 22.9129 14.3912 22.9129 14.3912H22.9129C22.9129 14.3912 22.9129 14.3912 22.9129 14.3912H22.9129C22.9129 14.3912 22.9129 14.3912 22.9129 14.3912H22.9129C22.9129 14.3912 22.9129 14.3912 22.9129 14.3912H22.9129C22.9129 14.3912 22.9129 14.3912 22.9129 14.3912H22.9129C22.9129 14.3912 22.9129 14.3912 22.9129 14.3912H22.9129C22.9129 14.3912 22.9129 14.3912 22.9129 14.3912H22.9129C22.9129 14.3912 22.9129 14.3912 22.9129 14.3912H22.9129C22.9129 14.3912 22.9129 14.3912 22.9129 14.3912H22.9129C22.9129 14.3912 22.9129 14.3912 22.9129 14.3912C22.9129 14.3912 22.9129 14.3912 22.9128 14.3912H22.9128C22.9128 14.3912 22.9128 14.3912 22.9128 14.3912H22.9128C22.9128 14.3912 22.9128 14.3912 22.9128 14.3912H22.9128C22.9128 14.3912 22.9128 14.3912 22.9128 14.3912H22.9128C22.9128 14.3912 22.9128 14.3912 22.9128 14.3912H22.9128C22.9128 14.3912 22.9128 14.3912 22.9128 14.3912H22.9128C22.9128 14.3912 22.9128 14.3912 22.9128 14.3912H22.9128C22.9128 14.3912 22.9128 14.3912 22.9128 14.3912C22.9128 14.3912 22.9128 14.3912 22.9128 14.3912H22.9128C22.9128 14.3912 22.9128 14.3912 22.9128 14.3912H22.9128C22.9128 14.3912 22.9128 14.3912 22.9128 14.3912H22.9128C22.9128 14.3912 22.9128 14.3912 22.9128 14.3912H22.9128C22.9128 14.3912 22.9128 14.3912 22.9128 14.3912H22.9128C22.9128 14.3912 22.9128 14.3912 22.9128 14.3912H22.9128C22.9128 14.3912 22.9128 14.3912 22.9128 14.3912C22.9128 14.3912 22.9128 14.3912 22.9128 14.3912H22.9128C22.9128 14.3912 22.9128 14.3912 22.9128 14.3912H22.9128C22.9128 14.3912 22.9128 14.3912 22.9128 14.3912H22.9128C22.9128 14.3912 22.9128 14.3912 22.9128 14.3912H22.9127C22.9127 14.3912 22.9127 14.3912 22.9127 14.3912H22.9127C22.9127 14.3912 22.9127 14.3912 22.9127 14.3912H22.9127C22.9127 14.3912 22.9127 14.3912 22.9127 14.3912C22.9127 14.3912 22.9127 14.3912 22.9127 14.3912H22.9127C22.9127 14.3912 22.9127 14.3912 22.9127 14.3912V15.5524C22.9127 15.5524 22.9127 15.5524 22.9127 15.5524H22.9127C22.9127 15.5524 22.9127 15.5524 22.9127 15.5524C22.9127 15.5524 22.9127 15.5524 22.9127 15.5524H22.9127C22.9127 15.5524 22.9127 15.5524 22.9127 15.5524H22.9127C22.9127 15.5524 22.9127 15.5524 22.9127 15.5524H22.9128C22.9128 15.5524 22.9128 15.5524 22.9128 15.5524H22.9128C22.9128 15.5524 22.9128 15.5524 22.9128 15.5524H22.9128C22.9128 15.5524 22.9128 15.5524 22.9128 15.5524H22.9128C22.9128 15.5524 22.9128 15.5524 22.9128 15.5524C22.9128 15.5524 22.9128 15.5524 22.9128 15.5524H22.9128C22.9128 15.5524 22.9128 15.5524 22.9128 15.5524H22.9128C22.9128 15.5524 22.9128 15.5524 22.9128 15.5524H22.9128C22.9128 15.5524 22.9128 15.5524 22.9128 15.5524H22.9128C22.9128 15.5524 22.9128 15.5524 22.9128 15.5524H22.9128C22.9128 15.5524 22.9128 15.5524 22.9128 15.5524H22.9128C22.9128 15.5524 22.9128 15.5524 22.9128 15.5524C22.9128 15.5524 22.9128 15.5524 22.9128 15.5524H22.9128C22.9128 15.5524 22.9128 15.5524 22.9128 15.5524H22.9128C22.9128 15.5524 22.9128 15.5524 22.9128 15.5524H22.9128C22.9128 15.5524 22.9128 15.5524 22.9128 15.5524H22.9128C22.9128 15.5524 22.9128 15.5524 22.9128 15.5524H22.9128C22.9128 15.5524 22.9128 15.5524 22.9128 15.5524H22.9128C22.9128 15.5524 22.9128 15.5524 22.9128 15.5524H22.9128C22.9129 15.5524 22.9129 15.5524 22.9129 15.5524C22.9129 15.5524 22.9129 15.5524 22.9129 15.5524H22.9129C22.9129 15.5524 22.9129 15.5524 22.9129 15.5524H22.9129C22.9129 15.5524 22.9129 15.5524 22.9129 15.5524H22.9129C22.9129 15.5524 22.9129 15.5524 22.9129 15.5524H22.9129C22.9129 15.5524 22.9129 15.5524 22.9129 15.5524H22.9129C22.9129 15.5524 22.9129 15.5524 22.9129 15.5524H22.9129C22.9129 15.5524 22.9129 15.5524 22.9129 15.5524H22.9129C22.9129 15.5524 22.9129 15.5524 22.9129 15.5524H22.9129C22.9129 15.5524 22.9129 15.5524 22.9129 15.5524H22.9129C22.9129 15.5524 22.9129 15.5524 22.9129 15.5524C22.9129 15.5524 22.9129 15.5524 22.9129 15.5524H22.9129C22.9129 15.5524 22.9129 15.5524 22.9129 15.5524H22.9129C22.9129 15.5524 22.9129 15.5524 22.9129 15.5524H22.9129C22.9129 15.5524 22.9129 15.5524 22.9129 15.5524H22.9129C22.9129 15.5524 22.9129 15.5524 22.9129 15.5524H22.9129C22.9129 15.5524 22.9129 15.5524 22.9129 15.5524H22.9129C22.9129 15.5524 22.9129 15.5524 22.9129 15.5524H22.9129C22.913 15.5524 22.913 15.5524 22.913 15.5524H22.913C22.913 15.5524 22.913 15.5524 22.913 15.5524H22.913C22.913 15.5524 22.913 15.5524 22.913 15.5524H22.913C22.913 15.5524 22.913 15.5524 22.913 15.5524H22.913C22.913 15.5524 22.913 15.5524 22.913 15.5524H22.913C22.913 15.5524 22.913 15.5524 22.913 15.5524H22.913C22.913 15.5524 22.913 15.5524 22.913 15.5524H22.913C22.913 15.5524 22.913 15.5524 22.913 15.5524H22.913C22.913 15.5524 22.913 15.5524 22.913 15.5524H22.913C22.913 15.5524 22.913 15.5524 22.913 15.5524H22.913C22.913 15.5524 22.913 15.5524 22.913 15.5524H22.913C22.913 15.5524 22.913 15.5524 22.913 15.5524H22.913C22.913 15.5524 22.913 15.5524 22.913 15.5524H22.913C22.913 15.5524 22.913 15.5524 22.913 15.5524C22.913 15.5524 22.913 15.5524 22.913 15.5524H22.913C22.913 15.5524 22.913 15.5524 22.913 15.5524H22.913C22.913 15.5524 22.913 15.5524 22.913 15.5524H22.913C22.913 15.5524 22.913 15.5524 22.913 15.5524H22.913C22.913 15.5524 22.913 15.5524 22.9131 15.5524H22.9131C22.9131 15.5524 22.9131 15.5524 22.9131 15.5524H22.9131C22.9131 15.5524 22.9131 15.5524 22.9131 15.5524H22.9131C22.9131 15.5524 22.9131 15.5524 22.9131 15.5524H22.9131H22.9131C22.9131 15.5524 22.9131 15.5524 22.9131 15.5524H22.9131C22.9131 15.5524 22.9131 15.5524 22.9131 15.5524H22.9131C22.9131 15.5524 22.9131 15.5524 22.9131 15.5524H22.9131C22.9131 15.5524 22.9131 15.5524 22.9131 15.5524H22.9131C22.9131 15.5524 22.9131 15.5524 22.9131 15.5524C22.9131 15.5524 22.9131 15.5524 22.9131 15.5524H22.9131C22.9131 15.5524 22.9131 15.5524 22.9131 15.5524H22.9131C22.9131 15.5524 22.9131 15.5524 22.9131 15.5524H22.9131C22.9131 15.5524 22.9131 15.5524 22.9131 15.5524H22.9131H22.9131C22.9131 15.5524 22.9131 15.5524 22.9131 15.5524H22.9131C22.9131 15.5524 22.9131 15.5524 22.9131 15.5524H22.9131C22.9131 15.5524 22.9131 15.5524 22.9131 15.5524C22.9131 15.5524 22.9131 15.5524 22.9131 15.5524H22.9131C22.9131 15.5524 22.9131 15.5524 22.9131 15.5524H22.9131C22.9131 15.5524 22.9131 15.5524 22.9132 15.5524H22.9132C22.9132 15.5524 22.9132 15.5524 22.9132 15.5524C22.9132 15.5524 22.9132 15.5524 22.9132 15.5524H22.9132C22.9132 15.5524 22.9132 15.5524 22.9132 15.5524H22.9132C22.9132 15.5524 22.9132 15.5524 22.9132 15.5524C22.9132 15.5524 22.9132 15.5524 22.9132 15.5524H22.9132C22.9132 15.5524 22.9132 15.5524 22.9132 15.5524H22.9132C22.9132 15.5524 22.9132 15.5524 22.9132 15.5524C22.9132 15.5524 22.9132 15.5524 22.9132 15.5524H22.9132C22.9132 15.5524 22.9132 15.5524 22.9132 15.5524H22.9132H22.9132C22.9132 15.5524 22.9132 15.5524 22.9132 15.5524H22.9132C22.9132 15.5524 22.9132 15.5524 22.9132 15.5524C22.9132 15.5524 22.9132 15.5524 22.9132 15.5524H22.9132C22.9132 15.5524 22.9132 15.5524 22.9132 15.5524H22.9132H22.9132C22.9132 15.5524 22.9132 15.5524 22.9132 15.5524H22.9132C22.9132 15.5524 22.9132 15.5524 22.9132 15.5524C22.9132 15.5524 22.9132 15.5524 22.9132 15.5524H22.9132C22.9132 15.5524 22.9132 15.5524 22.9132 15.5524C22.9132 15.5524 22.9132 15.5524 22.9132 15.5524H22.9132C22.9132 15.5524 22.9132 15.5524 22.9132 15.5524C22.9132 15.5524 22.9132 15.5524 22.9132 15.5524H22.9132C22.9132 15.5524 22.9132 15.5524 22.9132 15.5524C22.9132 15.5524 22.9132 15.5524 22.9132 15.5524H22.9133C22.9133 15.5524 22.9133 15.5524 22.9133 15.5524C22.9133 15.5524 22.9133 15.5524 22.9133 15.5524H22.9133C22.9133 15.5524 22.9133 15.5524 22.9133 15.5524C22.9133 15.5524 22.9133 15.5524 22.9133 15.5524H22.9133C22.9133 15.5524 22.9133 15.5524 22.9133 15.5524C22.9133 15.5524 22.9133 15.5524 22.9133 15.5524H22.9133C22.9133 15.5524 22.9133 15.5524 22.9133 15.5524C22.9133 15.5524 22.9133 15.5524 22.9133 15.5524H22.9133C22.9133 15.5524 22.9133 15.5524 22.9133 15.5524C22.9133 15.5524 22.9133 15.5524 22.9133 15.5524H22.9133H22.9133C22.9133 15.5524 22.9133 15.5524 22.9133 15.5524C22.9133 15.5524 22.9133 15.5524 22.9133 15.5524H22.9133C22.9133 15.5524 22.9133 15.5524 22.9133 15.5524C22.9133 15.5524 22.9133 15.5524 22.9133 15.5524H22.9133H22.9133C22.9133 15.5524 22.9133 15.5524 22.9133 15.5524C22.9133 15.5524 22.9133 15.5524 22.9133 15.5524H22.9133C22.9133 15.5524 22.9133 15.5524 22.9133 15.5524C22.9133 15.5524 22.9133 15.5524 22.9133 15.5524H22.9133H22.9133C22.9133 15.5524 22.9133 15.5524 22.9133 15.5524C22.9133 15.5524 22.9133 15.5524 22.9133 15.5524H22.9133H22.9133C22.9133 15.5524 22.9133 15.5524 22.9133 15.5524C22.9133 15.5524 22.9133 15.5524 22.9133 15.5524H22.9133H22.9133C22.9133 15.5524 22.9133 15.5524 22.9133 15.5524C22.9133 15.5524 22.9133 15.5524 22.9134 15.5524H22.9134H22.9134C22.9134 15.5524 22.9134 15.5524 22.9134 15.5524C22.9134 15.5524 22.9134 15.5524 22.9134 15.5524C22.9134 15.5524 22.9134 15.5524 22.9134 15.5524H22.9134C22.9134 15.5524 22.9134 15.5524 22.9134 15.5524C22.9134 15.5524 22.9134 15.5524 22.9134 15.5524C22.9134 15.5524 22.9134 15.5524 22.9134 15.5524H22.9134H22.9134C22.9134 15.5524 22.9134 15.5524 22.9134 15.5524C22.9134 15.5524 22.9134 15.5524 22.9134 15.5524C22.9134 15.5524 22.9134 15.5524 22.9134 15.5524H22.9134H22.9134C22.9134 15.5524 22.9134 15.5524 22.9134 15.5524C22.9134 15.5524 22.9134 15.5524 22.9134 15.5524C22.9134 15.5524 22.9134 15.5524 22.9134 15.5524H22.9134H22.9134H22.9134C22.9134 15.5524 22.9134 15.5524 22.9134 15.5524C22.9134 15.5524 22.9134 15.5524 22.9134 15.5524C22.9134 15.5524 22.9134 15.5524 22.9134 15.5524H22.9134H22.9134C22.9134 15.5524 22.9134 15.5524 22.9134 15.5524C22.9134 15.5524 22.9134 15.5524 22.9134 15.5524C22.9134 15.5524 22.9134 15.5524 22.9134 15.5524C22.9134 15.5524 22.9134 15.5524 22.9134 15.5524H22.9134H22.9134H22.9134C22.9134 15.5524 22.9134 15.5524 22.9134 15.5524C22.9134 15.5524 22.9134 15.5524 22.9134 15.5524C22.9134 15.5524 22.9134 15.5524 22.9134 15.5524C22.9134 15.5524 22.9134 15.5524 22.9134 15.5524C22.9134 15.5524 22.9134 15.5524 22.9134 15.5524H22.9134H22.9134H22.9134C22.9134 15.5524 22.9134 15.5524 22.9134 15.5524C22.9134 15.5524 22.9134 15.5524 22.9134 15.5524C22.9135 15.5524 22.9135 15.5524 22.9135 15.5524C22.9135 15.5524 22.9135 15.5524 22.9135 15.5524C22.9135 15.5524 22.9135 15.5524 22.9135 15.5524C22.9135 15.5524 22.9135 15.5524 22.9135 15.5524H22.9135H22.9135H22.9135H22.9135C22.9135 15.5524 22.9135 15.5524 22.9135 15.5524C22.9135 15.5524 22.9135 15.5524 22.9135 15.5524C22.9135 15.5524 22.9135 15.5524 22.9135 15.5524C22.9135 15.5524 22.9135 15.5524 22.9135 15.5524C22.9135 15.5524 22.9135 15.5524 22.9135 15.5524C22.9135 15.5524 22.9135 15.5524 22.9135 15.5524C22.9135 15.5524 22.9135 15.5524 22.9135 15.5524C22.9135 15.5524 22.9135 15.5524 22.9135 15.5524C22.9135 15.5524 22.9135 15.5524 22.9135 15.5524C22.9135 15.5524 22.9135 15.5524 22.9135 15.5524H22.9135H22.9135H22.9135H22.9135H22.9135H22.9135H22.9135H22.9135H22.9135H22.9135H22.9135H22.9135H22.9135H22.9135H22.9135H22.9135H22.9135H22.9135H22.9135H22.9135H22.9135H22.9135H22.9135H22.9135H22.9135H22.9135H22.9135C22.9135 15.5524 22.9135 15.5524 22.9135 15.5524C22.9135 15.5524 22.9135 15.5524 22.9135 15.5524C22.9135 15.5524 22.9135 15.5524 22.9135 15.5524C22.9135 15.5524 22.9135 15.5524 22.9135 15.5524C22.9135 15.5524 22.9135 15.5524 22.9135 15.5524C22.9135 15.5524 22.9135 15.5524 22.9135 15.5524C22.9136 15.5524 22.9136 15.5524 22.9136 15.5524C22.9136 15.5524 22.9136 15.5524 22.9136 15.5524C22.9136 15.5524 22.9136 15.5524 22.9136 15.5524H22.9136H22.9136H22.9136C22.9136 15.5524 22.9136 15.5524 22.9136 15.5524C22.9136 15.5524 22.9136 15.5524 22.9136 15.5524C22.9136 15.5524 22.9136 15.5524 22.9136 15.5524C22.9136 15.5524 22.9136 15.5524 22.9136 15.5524C22.9136 15.5524 22.9136 15.5524 22.9136 15.5524C22.9136 15.5524 22.9136 15.5524 22.9136 15.5524H22.9136H22.9136C22.9136 15.5524 22.9136 15.5524 22.9136 15.5524C22.9136 15.5524 22.9136 15.5524 22.9136 15.5524C22.9136 15.5524 22.9136 15.5524 22.9136 15.5524C22.9136 15.5524 22.9136 15.5524 22.9136 15.5524H22.9136H22.9136C22.9136 15.5524 22.9136 15.5524 22.9136 15.5524C22.9136 15.5524 22.9136 15.5524 22.9136 15.5524C22.9136 15.5524 22.9136 15.5524 22.9136 15.5524H22.9136H22.9136C22.9136 15.5524 22.9136 15.5524 22.9136 15.5524C22.9136 15.5524 22.9136 15.5524 22.9136 15.5524H22.9136H22.9136C22.9136 15.5524 22.9136 15.5524 22.9136 15.5524C22.9136 15.5524 22.9136 15.5524 22.9136 15.5524H22.9136C22.9136 15.5524 22.9136 15.5524 22.9136 15.5524C22.9136 15.5524 22.9136 15.5524 22.9136 15.5524H22.9136H22.9136C22.9136 15.5524 22.9136 15.5524 22.9136 15.5524C22.9136 15.5524 22.9136 15.5524 22.9136 15.5524C22.9136 15.5524 22.9136 15.5524 22.9136 15.5524C22.9136 15.5524 22.9136 15.5524 22.9136 15.5524H22.9136C22.9136 15.5524 22.9136 15.5524 22.9136 15.5524C22.9136 15.5524 22.9136 15.5524 22.9136 15.5524H22.9136C22.9136 15.5524 22.9136 15.5524 22.9136 15.5524H22.9136C22.9136 15.5524 22.9136 15.5524 22.9136 15.5524C22.9136 15.5524 22.9136 15.5524 22.9136 15.5524C22.9136 15.5524 22.9136 15.5524 22.9136 15.5524C22.9136 15.5524 22.9136 15.5524 22.9136 15.5524C22.9136 15.5524 22.9136 15.5524 22.9136 15.5524C22.9136 15.5524 22.9136 15.5524 22.9136 15.5524C22.9136 15.5524 22.9136 15.5524 22.9137 15.5524H22.9137C22.9137 15.5524 22.9137 15.5524 22.9137 15.5524H22.9137C22.9137 15.5524 22.9137 15.5524 22.9137 15.5524C22.9137 15.5524 22.9137 15.5524 22.9137 15.5524H22.9137C22.9137 15.5524 22.9137 15.5524 22.9137 15.5524C22.9137 15.5524 22.9137 15.5524 22.9137 15.5524H22.9137C22.9137 15.5524 22.9137 15.5524 22.9137 15.5524C22.9137 15.5524 22.9137 15.5524 22.9137 15.5524C22.9137 15.5524 22.9137 15.5524 22.9137 15.5524H22.9137H22.9137C22.9137 15.5524 22.9137 15.5524 22.9137 15.5524C22.9137 15.5524 22.9137 15.5524 22.9137 15.5524C22.9137 15.5524 22.9137 15.5524 22.9137 15.5524C22.9137 15.5524 22.9137 15.5524 22.9137 15.5524C22.9137 15.5524 22.9137 15.5524 22.9137 15.5524C22.9137 15.5524 22.9137 15.5524 22.9137 15.5524H22.9137H22.9137C22.9137 15.5524 22.9137 15.5524 22.9137 15.5524C22.9137 15.5524 22.9137 15.5524 22.9137 15.5524C22.9137 15.5524 22.9137 15.5524 22.9137 15.5524C22.9137 15.5524 22.9137 15.5524 22.9137 15.5524C22.9137 15.5524 22.9137 15.5524 22.9137 15.5524C22.9137 15.5524 22.9137 15.5524 22.9137 15.5524H22.9137C22.9137 15.5524 22.9137 15.5524 22.9137 15.5524C22.9137 15.5524 22.9137 15.5524 22.9137 15.5524C22.9137 15.5524 22.9137 15.5524 22.9137 15.5524C22.9137 15.5524 22.9137 15.5524 22.9137 15.5524H22.9137C22.9137 15.5524 22.9137 15.5524 22.9137 15.5524C22.9137 15.5524 22.9137 15.5524 22.9137 15.5524C22.9137 15.5524 22.9137 15.5524 22.9137 15.5524C22.9137 15.5524 22.9137 15.5524 22.9137 15.5524H22.9137C22.9137 15.5524 22.9137 15.5524 22.9137 15.5524C22.9137 15.5524 22.9137 15.5524 22.9137 15.5524C22.9137 15.5524 22.9137 15.5524 22.9137 14.9718ZM22.9127 14.3912H20.3356V15.5524H22.9127V14.3912ZM20.3356 14.3912C20.4557 14.3912 20.5666 14.4565 20.6246 14.5621L19.6072 15.1217C19.7535 15.3878 20.033 15.5524 20.3356 15.5524V14.3912ZM20.6239 14.5607C20.6829 14.6674 20.6781 14.7958 20.6147 14.8964L19.6322 14.2776C19.4715 14.5327 19.4606 14.8568 19.6079 15.123L20.6239 14.5607ZM20.6143 14.897L21.9302 12.813L20.9484 12.1931L19.6325 14.277L20.6143 14.897ZM21.9295 12.8141C21.8695 12.9088 21.765 12.9668 21.6515 12.9668V11.8056C21.3664 11.8056 21.1015 11.9519 20.9491 12.192L21.9295 12.8141ZM21.6515 12.9668H21.654V11.8056H21.6515V12.9668ZM21.6473 12.9667C21.5341 12.9654 21.4293 12.9059 21.3702 12.8087L22.3623 12.2054C22.2129 11.9598 21.9475 11.809 21.6607 11.8056L21.6473 12.9667ZM21.3696 12.8077L22.6202 14.8741L23.6136 14.2729L22.3629 12.2065L21.3696 12.8077ZM22.6464 14.9136C22.6073 14.8596 22.584 14.7919 22.584 14.721H23.7451C23.7451 14.5396 23.6867 14.3706 23.5874 14.2333L22.6464 14.9136ZM22.584 14.721C22.584 14.5388 22.7315 14.3912 22.9137 14.3912V15.5524C23.3728 15.5524 23.7451 15.1801 23.7451 14.721H22.584ZM20.7907 15.0507H22.4677V13.8895H20.7907V15.0507ZM22.9644 14.1695L22.1437 12.8135L21.1503 13.4147L21.9711 14.7707L22.9644 14.1695ZM21.1561 12.8041L20.2998 14.1601L21.2815 14.7801L22.1379 13.4241L21.1561 12.8041ZM21.6515 18.515C21.765 18.515 21.8695 18.573 21.9295 18.6676L20.9491 19.2897C21.1015 19.5298 21.3664 19.6761 21.6515 19.6761V18.515ZM21.9302 18.6687L20.6143 16.5847L19.6325 17.2047L20.9484 19.2886L21.9302 18.6687ZM20.6147 16.5853C20.6781 16.6859 20.6829 16.8143 20.6239 16.921L19.6079 16.3587C19.4606 16.6249 19.4715 16.949 19.6322 17.2041L20.6147 16.5853ZM20.6246 16.9196C20.5666 17.0252 20.4557 17.0905 20.3356 17.0905V15.9293C20.033 15.9293 19.7535 16.094 19.6072 16.3601L20.6246 16.9196ZM20.3356 17.0905H22.9127V15.9293H20.3356V17.0905ZM22.9127 17.0905C22.7937 17.0905 22.6838 17.026 22.6256 16.9228L23.6373 16.3529C23.4899 16.0912 23.2133 15.9293 22.9127 15.9293V17.0905ZM22.625 16.9217C22.5672 16.8186 22.5689 16.6924 22.6305 16.5906L23.6244 17.1908C23.7792 16.9344 23.784 16.6146 23.6379 16.354L22.625 16.9217ZM22.6307 16.5901L21.3695 18.674L22.3629 19.2752L23.6241 17.1913L22.6307 16.5901ZM21.3702 18.673C21.4293 18.5758 21.5341 18.5163 21.6473 18.515L21.6607 19.6761C21.9476 19.6728 22.2129 19.5219 22.3623 19.2763L21.3702 18.673ZM21.654 18.515C21.654 18.515 21.654 18.515 21.654 18.515C21.654 18.515 21.654 18.515 21.654 18.515C21.654 18.515 21.654 18.515 21.654 18.515C21.654 18.515 21.654 18.515 21.654 18.515C21.654 18.515 21.654 18.515 21.654 18.515C21.654 18.515 21.654 18.515 21.654 18.515C21.654 18.515 21.654 18.515 21.654 18.515C21.654 18.515 21.654 18.515 21.654 18.515C21.654 18.515 21.654 18.515 21.654 18.515C21.654 18.515 21.654 18.515 21.654 18.515C21.654 18.515 21.654 18.515 21.654 18.515C21.654 18.515 21.654 18.515 21.654 18.515C21.654 18.515 21.654 18.515 21.654 18.515C21.654 18.515 21.654 18.515 21.654 18.515C21.6539 18.515 21.6539 18.515 21.6539 18.515C21.6539 18.515 21.6539 18.515 21.6539 18.515C21.6539 18.515 21.6539 18.515 21.6539 18.515C21.6539 18.515 21.6539 18.515 21.6539 18.515C21.6539 18.515 21.6539 18.515 21.6539 18.515C21.6539 18.515 21.6539 18.515 21.6539 18.515C21.6539 18.515 21.6539 18.515 21.6539 18.515C21.6539 18.515 21.6539 18.515 21.6539 18.515C21.6539 18.515 21.6539 18.515 21.6539 18.515C21.6539 18.515 21.6539 18.515 21.6539 18.515C21.6539 18.515 21.6539 18.515 21.6539 18.515C21.6539 18.515 21.6539 18.515 21.6539 18.515C21.6539 18.515 21.6539 18.515 21.6539 18.515C21.6539 18.515 21.6539 18.515 21.6539 18.515C21.6539 18.515 21.6539 18.515 21.6539 18.515C21.6539 18.515 21.6539 18.515 21.6539 18.515C21.6539 18.515 21.6539 18.515 21.6539 18.515C21.6539 18.515 21.6539 18.515 21.6539 18.515C21.6538 18.515 21.6538 18.515 21.6538 18.515C21.6538 18.515 21.6538 18.515 21.6538 18.515C21.6538 18.515 21.6538 18.515 21.6538 18.515C21.6538 18.515 21.6538 18.515 21.6538 18.515C21.6538 18.515 21.6538 18.515 21.6538 18.515C21.6538 18.515 21.6538 18.515 21.6538 18.515C21.6538 18.515 21.6538 18.515 21.6538 18.515C21.6538 18.515 21.6538 18.515 21.6538 18.515C21.6538 18.515 21.6538 18.515 21.6538 18.515C21.6538 18.515 21.6538 18.515 21.6538 18.515C21.6538 18.515 21.6538 18.515 21.6538 18.515C21.6538 18.515 21.6538 18.515 21.6538 18.515C21.6538 18.515 21.6538 18.515 21.6538 18.515C21.6538 18.515 21.6538 18.515 21.6538 18.515C21.6538 18.515 21.6538 18.515 21.6538 18.515C21.6538 18.515 21.6538 18.515 21.6538 18.515C21.6538 18.515 21.6538 18.515 21.6538 18.515C21.6538 18.515 21.6538 18.515 21.6538 18.515C21.6537 18.515 21.6537 18.515 21.6537 18.515C21.6537 18.515 21.6537 18.515 21.6537 18.515C21.6537 18.515 21.6537 18.515 21.6537 18.515C21.6537 18.515 21.6537 18.515 21.6537 18.515C21.6537 18.515 21.6537 18.515 21.6537 18.515C21.6537 18.515 21.6537 18.515 21.6537 18.515C21.6537 18.515 21.6537 18.515 21.6537 18.515C21.6537 18.515 21.6537 18.515 21.6537 18.515C21.6537 18.515 21.6537 18.515 21.6537 18.515C21.6537 18.515 21.6537 18.515 21.6537 18.515C21.6537 18.515 21.6537 18.515 21.6537 18.515C21.6537 18.515 21.6537 18.515 21.6537 18.515C21.6537 18.515 21.6537 18.515 21.6537 18.515C21.6537 18.515 21.6537 18.515 21.6537 18.515C21.6537 18.515 21.6537 18.515 21.6537 18.515C21.6537 18.515 21.6537 18.515 21.6537 18.515C21.6537 18.515 21.6537 18.515 21.6537 18.515C21.6537 18.515 21.6537 18.515 21.6537 18.515C21.6537 18.515 21.6537 18.515 21.6537 18.515C21.6537 18.515 21.6536 18.515 21.6536 18.515C21.6536 18.515 21.6536 18.515 21.6536 18.515C21.6536 18.515 21.6536 18.515 21.6536 18.515C21.6536 18.515 21.6536 18.515 21.6536 18.515C21.6536 18.515 21.6536 18.515 21.6536 18.515C21.6536 18.515 21.6536 18.515 21.6536 18.515C21.6536 18.515 21.6536 18.515 21.6536 18.515C21.6536 18.515 21.6536 18.515 21.6536 18.515C21.6536 18.515 21.6536 18.515 21.6536 18.515C21.6536 18.515 21.6536 18.515 21.6536 18.515C21.6536 18.515 21.6536 18.515 21.6536 18.515C21.6536 18.515 21.6536 18.515 21.6536 18.515C21.6536 18.515 21.6536 18.515 21.6536 18.515C21.6536 18.515 21.6536 18.515 21.6536 18.515C21.6536 18.515 21.6536 18.515 21.6536 18.515C21.6536 18.515 21.6536 18.515 21.6536 18.515C21.6536 18.515 21.6536 18.515 21.6536 18.515C21.6536 18.515 21.6536 18.515 21.6536 18.515C21.6536 18.515 21.6536 18.515 21.6536 18.515C21.6536 18.515 21.6536 18.515 21.6535 18.515C21.6535 18.515 21.6535 18.515 21.6535 18.515C21.6535 18.515 21.6535 18.515 21.6535 18.515C21.6535 18.515 21.6535 18.515 21.6535 18.515C21.6535 18.515 21.6535 18.515 21.6535 18.515C21.6535 18.515 21.6535 18.515 21.6535 18.515C21.6535 18.515 21.6535 18.515 21.6535 18.515C21.6535 18.515 21.6535 18.515 21.6535 18.515C21.6535 18.515 21.6535 18.515 21.6535 18.515C21.6535 18.515 21.6535 18.515 21.6535 18.515C21.6535 18.515 21.6535 18.515 21.6535 18.515C21.6535 18.515 21.6535 18.515 21.6535 18.515C21.6535 18.515 21.6535 18.515 21.6535 18.515C21.6535 18.515 21.6535 18.515 21.6535 18.515C21.6535 18.515 21.6535 18.515 21.6535 18.515C21.6535 18.515 21.6535 18.515 21.6535 18.515C21.6535 18.515 21.6535 18.515 21.6535 18.515C21.6535 18.515 21.6535 18.515 21.6535 18.515C21.6535 18.515 21.6535 18.515 21.6535 18.515C21.6535 18.515 21.6535 18.515 21.6535 18.515C21.6535 18.515 21.6535 18.515 21.6535 18.515C21.6534 18.515 21.6534 18.515 21.6534 18.515C21.6534 18.515 21.6534 18.515 21.6534 18.515C21.6534 18.515 21.6534 18.515 21.6534 18.515C21.6534 18.515 21.6534 18.515 21.6534 18.515C21.6534 18.515 21.6534 18.515 21.6534 18.515C21.6534 18.515 21.6534 18.515 21.6534 18.515C21.6534 18.515 21.6534 18.515 21.6534 18.515C21.6534 18.515 21.6534 18.515 21.6534 18.515C21.6534 18.515 21.6534 18.515 21.6534 18.515C21.6534 18.515 21.6534 18.515 21.6534 18.515C21.6534 18.515 21.6534 18.515 21.6534 18.515C21.6534 18.515 21.6534 18.515 21.6534 18.515C21.6534 18.515 21.6534 18.515 21.6534 18.515C21.6534 18.515 21.6534 18.515 21.6534 18.515C21.6534 18.515 21.6534 18.515 21.6534 18.515C21.6534 18.515 21.6534 18.515 21.6534 18.515C21.6534 18.515 21.6534 18.515 21.6534 18.515C21.6534 18.515 21.6534 18.515 21.6534 18.515C21.6534 18.515 21.6534 18.515 21.6534 18.515C21.6534 18.515 21.6534 18.515 21.6534 18.515C21.6534 18.515 21.6534 18.515 21.6533 18.515C21.6533 18.515 21.6533 18.515 21.6533 18.515C21.6533 18.515 21.6533 18.515 21.6533 18.515C21.6533 18.515 21.6533 18.515 21.6533 18.515C21.6533 18.515 21.6533 18.515 21.6533 18.515C21.6533 18.515 21.6533 18.515 21.6533 18.515C21.6533 18.515 21.6533 18.515 21.6533 18.515C21.6533 18.515 21.6533 18.515 21.6533 18.515C21.6533 18.515 21.6533 18.515 21.6533 18.515C21.6533 18.515 21.6533 18.515 21.6533 18.515C21.6533 18.515 21.6533 18.515 21.6533 18.515C21.6533 18.515 21.6533 18.515 21.6533 18.515C21.6533 18.515 21.6533 18.515 21.6533 18.515C21.6533 18.515 21.6533 18.515 21.6533 18.515C21.6533 18.515 21.6533 18.515 21.6533 18.515C21.6533 18.515 21.6533 18.515 21.6533 18.515C21.6533 18.515 21.6533 18.515 21.6533 18.515C21.6533 18.515 21.6533 18.515 21.6533 18.515C21.6533 18.515 21.6533 18.515 21.6533 18.515C21.6533 18.515 21.6533 18.515 21.6533 18.515C21.6533 18.515 21.6533 18.515 21.6533 18.515C21.6533 18.515 21.6533 18.515 21.6532 18.515C21.6532 18.515 21.6532 18.515 21.6532 18.515C21.6532 18.515 21.6532 18.515 21.6532 18.515C21.6532 18.515 21.6532 18.515 21.6532 18.515C21.6532 18.515 21.6532 18.515 21.6532 18.515C21.6532 18.515 21.6532 18.515 21.6532 18.515C21.6532 18.515 21.6532 18.515 21.6532 18.515C21.6532 18.515 21.6532 18.515 21.6532 18.515C21.6532 18.515 21.6532 18.515 21.6532 18.515C21.6532 18.515 21.6532 18.515 21.6532 18.515C21.6532 18.515 21.6532 18.515 21.6532 18.515C21.6532 18.515 21.6532 18.515 21.6532 18.515C21.6532 18.515 21.6532 18.515 21.6532 18.515C21.6532 18.515 21.6532 18.515 21.6532 18.515C21.6532 18.515 21.6532 18.515 21.6532 18.515C21.6532 18.515 21.6532 18.515 21.6532 18.515C21.6532 18.515 21.6532 18.515 21.6532 18.515C21.6532 18.515 21.6532 18.515 21.6532 18.515C21.6532 18.515 21.6532 18.515 21.6532 18.515C21.6532 18.515 21.6532 18.515 21.6532 18.515C21.6532 18.515 21.6532 18.515 21.6532 18.515C21.6532 18.515 21.6532 18.515 21.6532 18.515C21.6532 18.515 21.6532 18.515 21.6531 18.515C21.6531 18.515 21.6531 18.515 21.6531 18.515C21.6531 18.515 21.6531 18.515 21.6531 18.515C21.6531 18.515 21.6531 18.515 21.6531 18.515C21.6531 18.515 21.6531 18.515 21.6531 18.515C21.6531 18.515 21.6531 18.515 21.6531 18.515C21.6531 18.515 21.6531 18.515 21.6531 18.515C21.6531 18.515 21.6531 18.515 21.6531 18.515C21.6531 18.515 21.6531 18.515 21.6531 18.515C21.6531 18.515 21.6531 18.515 21.6531 18.515C21.6531 18.515 21.6531 18.515 21.6531 18.515C21.6531 18.515 21.6531 18.515 21.6531 18.515C21.6531 18.515 21.6531 18.515 21.6531 18.515C21.6531 18.515 21.6531 18.515 21.6531 18.515C21.6531 18.515 21.6531 18.515 21.6531 18.515C21.6531 18.515 21.6531 18.515 21.6531 18.515C21.6531 18.515 21.6531 18.515 21.6531 18.515C21.6531 18.515 21.6531 18.515 21.6531 18.515C21.6531 18.515 21.6531 18.515 21.6531 18.515C21.6531 18.515 21.6531 18.515 21.6531 18.515C21.6531 18.515 21.6531 18.515 21.6531 18.515C21.6531 18.515 21.6531 18.515 21.6531 18.515C21.6531 18.515 21.6531 18.515 21.653 18.515C21.653 18.515 21.653 18.515 21.653 18.515C21.653 18.515 21.653 18.515 21.653 18.515C21.653 18.515 21.653 18.515 21.653 18.515C21.653 18.515 21.653 18.515 21.653 18.515C21.653 18.515 21.653 18.515 21.653 18.515C21.653 18.515 21.653 18.515 21.653 18.515C21.653 18.515 21.653 18.515 21.653 18.515C21.653 18.515 21.653 18.515 21.653 18.515C21.653 18.515 21.653 18.515 21.653 18.515C21.653 18.515 21.653 18.515 21.653 18.515C21.653 18.515 21.653 18.515 21.653 18.515C21.653 18.515 21.653 18.515 21.653 18.515C21.653 18.515 21.653 18.515 21.653 18.515C21.653 18.515 21.653 18.515 21.653 18.515C21.653 18.515 21.653 18.515 21.653 18.515C21.653 18.515 21.653 18.515 21.653 18.515C21.653 18.515 21.653 18.515 21.653 18.515C21.653 18.515 21.653 18.515 21.653 18.515C21.653 18.515 21.653 18.515 21.653 18.515C21.653 18.515 21.653 18.515 21.653 18.515C21.653 18.515 21.653 18.515 21.653 18.515C21.653 18.515 21.653 18.515 21.653 18.515C21.653 18.515 21.6529 18.515 21.6529 18.515C21.6529 18.515 21.6529 18.515 21.6529 18.515C21.6529 18.515 21.6529 18.515 21.6529 18.515C21.6529 18.515 21.6529 18.515 21.6529 18.515C21.6529 18.515 21.6529 18.515 21.6529 18.515C21.6529 18.515 21.6529 18.515 21.6529 18.515C21.6529 18.515 21.6529 18.515 21.6529 18.515C21.6529 18.515 21.6529 18.515 21.6529 18.515C21.6529 18.515 21.6529 18.515 21.6529 18.515C21.6529 18.515 21.6529 18.515 21.6529 18.515C21.6529 18.515 21.6529 18.515 21.6529 18.515C21.6529 18.515 21.6529 18.515 21.6529 18.515C21.6529 18.515 21.6529 18.515 21.6529 18.515C21.6529 18.515 21.6529 18.515 21.6529 18.515C21.6529 18.515 21.6529 18.515 21.6529 18.515C21.6529 18.515 21.6529 18.515 21.6529 18.515C21.6529 18.515 21.6529 18.515 21.6529 18.515C21.6529 18.515 21.6529 18.515 21.6529 18.515C21.6529 18.515 21.6529 18.515 21.6529 18.515C21.6529 18.515 21.6529 18.515 21.6529 18.515C21.6529 18.515 21.6529 18.515 21.6529 18.515C21.6529 18.515 21.6529 18.515 21.6529 18.515C21.6529 18.515 21.6529 18.515 21.6528 18.515C21.6528 18.515 21.6528 18.515 21.6528 18.515C21.6528 18.515 21.6528 18.515 21.6528 18.515C21.6528 18.515 21.6528 18.515 21.6528 18.515C21.6528 18.515 21.6528 18.515 21.6528 18.515C21.6528 18.515 21.6528 18.515 21.6528 18.515C21.6528 18.515 21.6528 18.515 21.6528 18.515C21.6528 18.515 21.6528 18.515 21.6528 18.515C21.6528 18.515 21.6528 18.515 21.6528 18.515C21.6528 18.515 21.6528 18.515 21.6528 18.515C21.6528 18.515 21.6528 18.515 21.6528 18.515C21.6528 18.515 21.6528 18.515 21.6528 18.515C21.6528 18.515 21.6528 18.515 21.6528 18.515C21.6528 18.515 21.6528 18.515 21.6528 18.515C21.6528 18.515 21.6528 18.515 21.6528 18.515C21.6528 18.515 21.6528 18.515 21.6528 18.515C21.6528 18.515 21.6528 18.515 21.6528 18.515C21.6528 18.515 21.6528 18.515 21.6528 18.515C21.6528 18.515 21.6528 18.515 21.6528 18.515C21.6528 18.515 21.6528 18.515 21.6528 18.515C21.6528 18.515 21.6528 18.515 21.6528 18.515C21.6528 18.515 21.6528 18.515 21.6528 18.515C21.6528 18.515 21.6528 18.515 21.6528 18.515C21.6528 18.515 21.6528 18.515 21.6527 18.515C21.6527 18.515 21.6527 18.515 21.6527 18.515C21.6527 18.515 21.6527 18.515 21.6527 18.515C21.6527 18.515 21.6527 18.515 21.6527 18.515C21.6527 18.515 21.6527 18.515 21.6527 18.515C21.6527 18.515 21.6527 18.515 21.6527 18.515C21.6527 18.515 21.6527 18.515 21.6527 18.515C21.6527 18.515 21.6527 18.515 21.6527 18.515C21.6527 18.515 21.6527 18.515 21.6527 18.515C21.6527 18.515 21.6527 18.515 21.6527 18.515C21.6527 18.515 21.6527 18.515 21.6527 18.515C21.6527 18.515 21.6527 18.515 21.6527 18.515C21.6527 18.515 21.6527 18.515 21.6527 18.515C21.6527 18.515 21.6527 18.515 21.6527 18.515C21.6527 18.515 21.6527 18.515 21.6527 18.515C21.6527 18.515 21.6527 18.515 21.6527 18.515C21.6527 18.515 21.6527 18.515 21.6527 18.515C21.6527 18.515 21.6527 18.515 21.6527 18.515C21.6527 18.515 21.6527 18.515 21.6527 18.515C21.6527 18.515 21.6527 18.515 21.6527 18.515C21.6527 18.515 21.6527 18.515 21.6527 18.515C21.6527 18.515 21.6527 18.515 21.6527 18.515C21.6527 18.515 21.6527 18.515 21.6527 18.515C21.6526 18.515 21.6526 18.515 21.6526 18.515C21.6526 18.515 21.6526 18.515 21.6526 18.515C21.6526 18.515 21.6526 18.515 21.6526 18.515C21.6526 18.515 21.6526 18.515 21.6526 18.515C21.6526 18.515 21.6526 18.515 21.6526 18.515C21.6526 18.515 21.6526 18.515 21.6526 18.515C21.6526 18.515 21.6526 18.515 21.6526 18.515C21.6526 18.515 21.6526 18.515 21.6526 18.515C21.6526 18.515 21.6526 18.515 21.6526 18.515C21.6526 18.515 21.6526 18.515 21.6526 18.515C21.6526 18.515 21.6526 18.515 21.6526 18.515C21.6526 18.515 21.6526 18.515 21.6526 18.515C21.6526 18.515 21.6526 18.515 21.6526 18.515C21.6526 18.515 21.6526 18.515 21.6526 18.515C21.6526 18.515 21.6526 18.515 21.6526 18.515C21.6526 18.515 21.6526 18.515 21.6526 18.515C21.6526 18.515 21.6526 18.515 21.6526 18.515C21.6526 18.515 21.6526 18.515 21.6526 18.515C21.6526 18.515 21.6526 18.515 21.6526 18.515C21.6526 18.515 21.6526 18.515 21.6526 18.515C21.6526 18.515 21.6526 18.515 21.6526 18.515C21.6526 18.515 21.6526 18.515 21.6526 18.515C21.6526 18.515 21.6525 18.515 21.6525 18.515C21.6525 18.515 21.6525 18.515 21.6525 18.515C21.6525 18.515 21.6525 18.515 21.6525 18.515C21.6525 18.515 21.6525 18.515 21.6525 18.515C21.6525 18.515 21.6525 18.515 21.6525 18.515C21.6525 18.515 21.6525 18.515 21.6525 18.515C21.6525 18.515 21.6525 18.515 21.6525 18.515C21.6525 18.515 21.6525 18.515 21.6525 18.515C21.6525 18.515 21.6525 18.515 21.6525 18.515C21.6525 18.515 21.6525 18.515 21.6525 18.515C21.6525 18.515 21.6525 18.515 21.6525 18.515C21.6525 18.515 21.6525 18.515 21.6525 18.515C21.6525 18.515 21.6525 18.515 21.6525 18.515C21.6525 18.515 21.6525 18.515 21.6525 18.515C21.6525 18.515 21.6525 18.515 21.6525 18.515C21.6525 18.515 21.6525 18.515 21.6525 18.515C21.6525 18.515 21.6525 18.515 21.6525 18.515C21.6525 18.515 21.6525 18.515 21.6525 18.515C21.6525 18.515 21.6525 18.515 21.6525 18.515C21.6525 18.515 21.6525 18.515 21.6525 18.515C21.6525 18.515 21.6525 18.515 21.6525 18.515C21.6525 18.515 21.6525 18.515 21.6525 18.515C21.6525 18.515 21.6525 18.515 21.6524 18.515C21.6524 18.515 21.6524 18.515 21.6524 18.515C21.6524 18.515 21.6524 18.515 21.6524 18.515C21.6524 18.515 21.6524 18.515 21.6524 18.515C21.6524 18.515 21.6524 18.515 21.6524 18.515C21.6524 18.515 21.6524 18.515 21.6524 18.515C21.6524 18.515 21.6524 18.515 21.6524 18.515C21.6524 18.515 21.6524 18.515 21.6524 18.515C21.6524 18.515 21.6524 18.515 21.6524 18.515C21.6524 18.515 21.6524 18.515 21.6524 18.515C21.6524 18.515 21.6524 18.515 21.6524 18.515C21.6524 18.515 21.6524 18.515 21.6524 18.515C21.6524 18.515 21.6524 18.515 21.6524 18.515C21.6524 18.515 21.6524 18.515 21.6524 18.515C21.6524 18.515 21.6524 18.515 21.6524 18.515C21.6524 18.515 21.6524 18.515 21.6524 18.515C21.6524 18.515 21.6524 18.515 21.6524 18.515C21.6524 18.515 21.6524 18.515 21.6524 18.515C21.6524 18.515 21.6524 18.515 21.6524 18.515C21.6524 18.515 21.6524 18.515 21.6524 18.515C21.6524 18.515 21.6524 18.515 21.6524 18.515C21.6524 18.515 21.6524 18.515 21.6524 18.515C21.6524 18.515 21.6523 18.515 21.6523 18.515C21.6523 18.515 21.6523 18.515 21.6523 18.515C21.6523 18.515 21.6523 18.515 21.6523 18.515C21.6523 18.515 21.6523 18.515 21.6523 18.515C21.6523 18.515 21.6523 18.515 21.6523 18.515C21.6523 18.515 21.6523 18.515 21.6523 18.515C21.6523 18.515 21.6523 18.515 21.6523 18.515C21.6523 18.515 21.6523 18.515 21.6523 18.515C21.6523 18.515 21.6523 18.515 21.6523 18.515C21.6523 18.515 21.6523 18.515 21.6523 18.515C21.6523 18.515 21.6523 18.515 21.6523 18.515C21.6523 18.515 21.6523 18.515 21.6523 18.515C21.6523 18.515 21.6523 18.515 21.6523 18.515C21.6523 18.515 21.6523 18.515 21.6523 18.515C21.6523 18.515 21.6523 18.515 21.6523 18.515C21.6523 18.515 21.6523 18.515 21.6523 18.515C21.6523 18.515 21.6523 18.515 21.6523 18.515C21.6523 18.515 21.6523 18.515 21.6523 18.515C21.6523 18.515 21.6523 18.515 21.6523 18.515C21.6523 18.515 21.6523 18.515 21.6523 18.515C21.6523 18.515 21.6523 18.515 21.6523 18.515C21.6523 18.515 21.6523 18.515 21.6523 18.515C21.6522 18.515 21.6522 18.515 21.6522 18.515C21.6522 18.515 21.6522 18.515 21.6522 18.515C21.6522 18.515 21.6522 18.515 21.6522 18.515C21.6522 18.515 21.6522 18.515 21.6522 18.515C21.6522 18.515 21.6522 18.515 21.6522 18.515C21.6522 18.515 21.6522 18.515 21.6522 18.515C21.6522 18.515 21.6522 18.515 21.6522 18.515C21.6522 18.515 21.6522 18.515 21.6522 18.515C21.6522 18.515 21.6522 18.515 21.6522 18.515C21.6522 18.515 21.6522 18.515 21.6522 18.515C21.6522 18.515 21.6522 18.515 21.6522 18.515C21.6522 18.515 21.6522 18.515 21.6522 18.515C21.6522 18.515 21.6522 18.515 21.6522 18.515C21.6522 18.515 21.6522 18.515 21.6522 18.515C21.6522 18.515 21.6522 18.515 21.6522 18.515C21.6522 18.515 21.6522 18.515 21.6522 18.515C21.6522 18.515 21.6522 18.515 21.6522 18.515C21.6522 18.515 21.6522 18.515 21.6522 18.515C21.6522 18.515 21.6522 18.515 21.6522 18.515C21.6522 18.515 21.6522 18.515 21.6522 18.515C21.6522 18.515 21.6522 18.515 21.6522 18.515C21.6521 18.515 21.6521 18.515 21.6521 18.515C21.6521 18.515 21.6521 18.515 21.6521 18.515C21.6521 18.515 21.6521 18.515 21.6521 18.515C21.6521 18.515 21.6521 18.515 21.6521 18.515C21.6521 18.515 21.6521 18.515 21.6521 18.515C21.6521 18.515 21.6521 18.515 21.6521 18.515C21.6521 18.515 21.6521 18.515 21.6521 18.515C21.6521 18.515 21.6521 18.515 21.6521 18.515C21.6521 18.515 21.6521 18.515 21.6521 18.515C21.6521 18.515 21.6521 18.515 21.6521 18.515C21.6521 18.515 21.6521 18.515 21.6521 18.515C21.6521 18.515 21.6521 18.515 21.6521 18.515C21.6521 18.515 21.6521 18.515 21.6521 18.515C21.6521 18.515 21.6521 18.515 21.6521 18.515C21.6521 18.515 21.6521 18.515 21.6521 18.515C21.6521 18.515 21.6521 18.515 21.6521 18.515C21.6521 18.515 21.6521 18.515 21.6521 18.515C21.6521 18.515 21.6521 18.515 21.6521 18.515C21.6521 18.515 21.6521 18.515 21.6521 18.515C21.6521 18.515 21.6521 18.515 21.6521 18.515C21.6521 18.515 21.6521 18.515 21.652 18.515C21.652 18.515 21.652 18.515 21.652 18.515C21.652 18.515 21.652 18.515 21.652 18.515C21.652 18.515 21.652 18.515 21.652 18.515C21.652 18.515 21.652 18.515 21.652 18.515C21.652 18.515 21.652 18.515 21.652 18.515C21.652 18.515 21.652 18.515 21.652 18.515C21.652 18.515 21.652 18.515 21.652 18.515C21.652 18.515 21.652 18.515 21.652 18.515C21.652 18.515 21.652 18.515 21.652 18.515C21.652 18.515 21.652 18.515 21.652 18.515C21.652 18.515 21.652 18.515 21.652 18.515C21.652 18.515 21.652 18.515 21.652 18.515C21.652 18.515 21.652 18.515 21.652 18.515C21.652 18.515 21.652 18.515 21.652 18.515C21.652 18.515 21.652 18.515 21.652 18.515C21.652 18.515 21.652 18.515 21.652 18.515C21.652 18.515 21.652 18.515 21.652 18.515C21.652 18.515 21.652 18.515 21.652 18.515C21.652 18.515 21.652 18.515 21.652 18.515C21.652 18.515 21.6519 18.515 21.6519 18.515C21.6519 18.515 21.6519 18.515 21.6519 18.515C21.6519 18.515 21.6519 18.515 21.6519 18.515C21.6519 18.515 21.6519 18.515 21.6519 18.515C21.6519 18.515 21.6519 18.515 21.6519 18.515C21.6519 18.515 21.6519 18.515 21.6519 18.515C21.6519 18.515 21.6519 18.515 21.6519 18.515C21.6519 18.515 21.6519 18.515 21.6519 18.515C21.6519 18.515 21.6519 18.515 21.6519 18.515C21.6519 18.515 21.6519 18.515 21.6519 18.515C21.6519 18.515 21.6519 18.515 21.6519 18.515C21.6519 18.515 21.6519 18.515 21.6519 18.515C21.6519 18.515 21.6519 18.515 21.6519 18.515C21.6519 18.515 21.6519 18.515 21.6519 18.515C21.6519 18.515 21.6519 18.515 21.6519 18.515C21.6519 18.515 21.6519 18.515 21.6519 18.515C21.6519 18.515 21.6519 18.515 21.6519 18.515C21.6519 18.515 21.6519 18.515 21.6519 18.515C21.6519 18.515 21.6519 18.515 21.6519 18.515C21.6519 18.515 21.6518 18.515 21.6518 18.515C21.6518 18.515 21.6518 18.515 21.6518 18.515C21.6518 18.515 21.6518 18.515 21.6518 18.515C21.6518 18.515 21.6518 18.515 21.6518 18.515C21.6518 18.515 21.6518 18.515 21.6518 18.515C21.6518 18.515 21.6518 18.515 21.6518 18.515C21.6518 18.515 21.6518 18.515 21.6518 18.515C21.6518 18.515 21.6518 18.515 21.6518 18.515C21.6518 18.515 21.6518 18.515 21.6518 18.515C21.6518 18.515 21.6518 18.515 21.6518 18.515C21.6518 18.515 21.6518 18.515 21.6518 18.515C21.6518 18.515 21.6518 18.515 21.6518 18.515C21.6518 18.515 21.6518 18.515 21.6518 18.515C21.6518 18.515 21.6518 18.515 21.6518 18.515C21.6518 18.515 21.6518 18.515 21.6518 18.515C21.6518 18.515 21.6518 18.515 21.6518 18.515C21.6518 18.515 21.6518 18.515 21.6518 18.515C21.6518 18.515 21.6518 18.515 21.6518 18.515C21.6518 18.515 21.6518 18.515 21.6518 18.515C21.6517 18.515 21.6517 18.515 21.6517 18.515C21.6517 18.515 21.6517 18.515 21.6517 18.515C21.6517 18.515 21.6517 18.515 21.6517 18.515C21.6517 18.515 21.6517 18.515 21.6517 18.515C21.6517 18.515 21.6517 18.515 21.6517 18.515C21.6517 18.515 21.6517 18.515 21.6517 18.515C21.6517 18.515 21.6517 18.515 21.6517 18.515C21.6517 18.515 21.6517 18.515 21.6517 18.515C21.6517 18.515 21.6517 18.515 21.6517 18.515C21.6517 18.515 21.6517 18.515 21.6517 18.515C21.6517 18.515 21.6517 18.515 21.6517 18.515C21.6517 18.515 21.6517 18.515 21.6517 18.515C21.6517 18.515 21.6517 18.515 21.6517 18.515C21.6517 18.515 21.6517 18.515 21.6517 18.515C21.6517 18.515 21.6517 18.515 21.6517 18.515C21.6517 18.515 21.6517 18.515 21.6517 18.515C21.6517 18.515 21.6517 18.515 21.6517 18.515C21.6517 18.515 21.6517 18.515 21.6517 18.515C21.6516 18.515 21.6516 18.515 21.6516 18.515C21.6516 18.515 21.6516 18.515 21.6516 18.515C21.6516 18.515 21.6516 18.515 21.6516 18.515C21.6516 18.515 21.6516 18.515 21.6516 18.515C21.6516 18.515 21.6516 18.515 21.6516 18.515C21.6516 18.515 21.6516 18.515 21.6516 18.515C21.6516 18.515 21.6516 18.515 21.6516 18.515C21.6516 18.515 21.6516 18.515 21.6516 18.515C21.6516 18.515 21.6516 18.515 21.6516 18.515C21.6516 18.515 21.6516 18.515 21.6516 18.515C21.6516 18.515 21.6516 18.515 21.6516 18.515C21.6516 18.515 21.6516 18.515 21.6516 18.515C21.6516 18.515 21.6516 18.515 21.6516 18.515C21.6516 18.515 21.6516 18.515 21.6516 18.515C21.6516 18.515 21.6516 18.515 21.6516 18.515C21.6516 18.515 21.6516 18.515 21.6516 18.515C21.6516 18.515 21.6516 18.515 21.6516 18.515C21.6516 18.515 21.6516 18.515 21.6515 18.515C21.6515 18.515 21.6515 18.515 21.6515 18.515C21.6515 18.515 21.6515 18.515 21.6515 18.515C21.6515 18.515 21.6515 18.515 21.6515 18.515C21.6515 18.515 21.6515 18.515 21.6515 18.515V19.6761C21.6515 19.6761 21.6515 19.6761 21.6515 19.6761C21.6515 19.6761 21.6515 19.6761 21.6515 19.6761C21.6515 19.6761 21.6515 19.6761 21.6515 19.6761C21.6515 19.6761 21.6515 19.6761 21.6515 19.6761C21.6516 19.6761 21.6516 19.6761 21.6516 19.6761C21.6516 19.6761 21.6516 19.6761 21.6516 19.6761C21.6516 19.6761 21.6516 19.6761 21.6516 19.6761C21.6516 19.6761 21.6516 19.6761 21.6516 19.6761C21.6516 19.6761 21.6516 19.6761 21.6516 19.6761C21.6516 19.6761 21.6516 19.6761 21.6516 19.6761C21.6516 19.6761 21.6516 19.6761 21.6516 19.6761C21.6516 19.6761 21.6516 19.6761 21.6516 19.6761C21.6516 19.6761 21.6516 19.6761 21.6516 19.6761C21.6516 19.6761 21.6516 19.6761 21.6516 19.6761C21.6516 19.6761 21.6516 19.6761 21.6516 19.6761C21.6516 19.6761 21.6516 19.6761 21.6516 19.6761C21.6516 19.6761 21.6516 19.6761 21.6516 19.6761C21.6516 19.6761 21.6516 19.6761 21.6516 19.6761C21.6516 19.6761 21.6516 19.6761 21.6516 19.6761C21.6516 19.6761 21.6516 19.6761 21.6516 19.6761C21.6516 19.6761 21.6516 19.6761 21.6516 19.6761C21.6516 19.6761 21.6516 19.6761 21.6517 19.6761C21.6517 19.6761 21.6517 19.6761 21.6517 19.6761C21.6517 19.6761 21.6517 19.6761 21.6517 19.6761C21.6517 19.6761 21.6517 19.6761 21.6517 19.6761C21.6517 19.6761 21.6517 19.6761 21.6517 19.6761C21.6517 19.6761 21.6517 19.6761 21.6517 19.6761C21.6517 19.6761 21.6517 19.6761 21.6517 19.6761C21.6517 19.6761 21.6517 19.6761 21.6517 19.6761C21.6517 19.6761 21.6517 19.6761 21.6517 19.6761C21.6517 19.6761 21.6517 19.6761 21.6517 19.6761C21.6517 19.6761 21.6517 19.6761 21.6517 19.6761C21.6517 19.6761 21.6517 19.6761 21.6517 19.6761C21.6517 19.6761 21.6517 19.6761 21.6517 19.6761C21.6517 19.6761 21.6517 19.6761 21.6517 19.6761C21.6517 19.6761 21.6517 19.6761 21.6517 19.6761C21.6517 19.6761 21.6517 19.6761 21.6517 19.6761C21.6517 19.6761 21.6517 19.6761 21.6517 19.6761C21.6517 19.6761 21.6517 19.6761 21.6517 19.6761C21.6517 19.6761 21.6517 19.6761 21.6518 19.6761C21.6518 19.6761 21.6518 19.6761 21.6518 19.6761C21.6518 19.6761 21.6518 19.6761 21.6518 19.6761C21.6518 19.6761 21.6518 19.6761 21.6518 19.6761C21.6518 19.6761 21.6518 19.6761 21.6518 19.6761C21.6518 19.6761 21.6518 19.6761 21.6518 19.6761C21.6518 19.6761 21.6518 19.6761 21.6518 19.6761C21.6518 19.6761 21.6518 19.6761 21.6518 19.6761C21.6518 19.6761 21.6518 19.6761 21.6518 19.6761C21.6518 19.6761 21.6518 19.6761 21.6518 19.6761C21.6518 19.6761 21.6518 19.6761 21.6518 19.6761C21.6518 19.6761 21.6518 19.6761 21.6518 19.6761C21.6518 19.6761 21.6518 19.6761 21.6518 19.6761C21.6518 19.6761 21.6518 19.6761 21.6518 19.6761C21.6518 19.6761 21.6518 19.6761 21.6518 19.6761C21.6518 19.6761 21.6518 19.6761 21.6518 19.6761C21.6518 19.6761 21.6518 19.6761 21.6518 19.6761C21.6518 19.6761 21.6518 19.6761 21.6518 19.6761C21.6518 19.6761 21.6518 19.6761 21.6518 19.6761C21.6518 19.6761 21.6519 19.6761 21.6519 19.6761C21.6519 19.6761 21.6519 19.6761 21.6519 19.6761C21.6519 19.6761 21.6519 19.6761 21.6519 19.6761C21.6519 19.6761 21.6519 19.6761 21.6519 19.6761C21.6519 19.6761 21.6519 19.6761 21.6519 19.6761C21.6519 19.6761 21.6519 19.6761 21.6519 19.6761C21.6519 19.6761 21.6519 19.6761 21.6519 19.6761C21.6519 19.6761 21.6519 19.6761 21.6519 19.6761C21.6519 19.6761 21.6519 19.6761 21.6519 19.6761C21.6519 19.6761 21.6519 19.6761 21.6519 19.6761C21.6519 19.6761 21.6519 19.6761 21.6519 19.6761C21.6519 19.6761 21.6519 19.6761 21.6519 19.6761C21.6519 19.6761 21.6519 19.6761 21.6519 19.6761C21.6519 19.6761 21.6519 19.6761 21.6519 19.6761C21.6519 19.6761 21.6519 19.6761 21.6519 19.6761C21.6519 19.6761 21.6519 19.6761 21.6519 19.6761C21.6519 19.6761 21.6519 19.6761 21.6519 19.6761C21.6519 19.6761 21.6519 19.6761 21.6519 19.6761C21.6519 19.6761 21.6519 19.6761 21.6519 19.6761C21.6519 19.6761 21.652 19.6761 21.652 19.6761C21.652 19.6761 21.652 19.6761 21.652 19.6761C21.652 19.6761 21.652 19.6761 21.652 19.6761C21.652 19.6761 21.652 19.6761 21.652 19.6761C21.652 19.6761 21.652 19.6761 21.652 19.6761C21.652 19.6761 21.652 19.6761 21.652 19.6761C21.652 19.6761 21.652 19.6761 21.652 19.6761C21.652 19.6761 21.652 19.6761 21.652 19.6761C21.652 19.6761 21.652 19.6761 21.652 19.6761C21.652 19.6761 21.652 19.6761 21.652 19.6761C21.652 19.6761 21.652 19.6761 21.652 19.6761C21.652 19.6761 21.652 19.6761 21.652 19.6761C21.652 19.6761 21.652 19.6761 21.652 19.6761C21.652 19.6761 21.652 19.6761 21.652 19.6761C21.652 19.6761 21.652 19.6761 21.652 19.6761C21.652 19.6761 21.652 19.6761 21.652 19.6761C21.652 19.6761 21.652 19.6761 21.652 19.6761C21.652 19.6761 21.652 19.6761 21.652 19.6761C21.652 19.6761 21.652 19.6761 21.652 19.6761C21.652 19.6761 21.652 19.6761 21.652 19.6761C21.6521 19.6761 21.6521 19.6761 21.6521 19.6761C21.6521 19.6761 21.6521 19.6761 21.6521 19.6761C21.6521 19.6761 21.6521 19.6761 21.6521 19.6761C21.6521 19.6761 21.6521 19.6761 21.6521 19.6761C21.6521 19.6761 21.6521 19.6761 21.6521 19.6761C21.6521 19.6761 21.6521 19.6761 21.6521 19.6761C21.6521 19.6761 21.6521 19.6761 21.6521 19.6761C21.6521 19.6761 21.6521 19.6761 21.6521 19.6761C21.6521 19.6761 21.6521 19.6761 21.6521 19.6761C21.6521 19.6761 21.6521 19.6761 21.6521 19.6761C21.6521 19.6761 21.6521 19.6761 21.6521 19.6761C21.6521 19.6761 21.6521 19.6761 21.6521 19.6761C21.6521 19.6761 21.6521 19.6761 21.6521 19.6761C21.6521 19.6761 21.6521 19.6761 21.6521 19.6761C21.6521 19.6761 21.6521 19.6761 21.6521 19.6761C21.6521 19.6761 21.6521 19.6761 21.6521 19.6761C21.6521 19.6761 21.6521 19.6761 21.6521 19.6761C21.6521 19.6761 21.6521 19.6761 21.6521 19.6761C21.6521 19.6761 21.6521 19.6761 21.6521 19.6761C21.6521 19.6761 21.6521 19.6761 21.6521 19.6761C21.6521 19.6761 21.6521 19.6761 21.6522 19.6761C21.6522 19.6761 21.6522 19.6761 21.6522 19.6761C21.6522 19.6761 21.6522 19.6761 21.6522 19.6761C21.6522 19.6761 21.6522 19.6761 21.6522 19.6761C21.6522 19.6761 21.6522 19.6761 21.6522 19.6761C21.6522 19.6761 21.6522 19.6761 21.6522 19.6761C21.6522 19.6761 21.6522 19.6761 21.6522 19.6761C21.6522 19.6761 21.6522 19.6761 21.6522 19.6761C21.6522 19.6761 21.6522 19.6761 21.6522 19.6761C21.6522 19.6761 21.6522 19.6761 21.6522 19.6761C21.6522 19.6761 21.6522 19.6761 21.6522 19.6761C21.6522 19.6761 21.6522 19.6761 21.6522 19.6761C21.6522 19.6761 21.6522 19.6761 21.6522 19.6761C21.6522 19.6761 21.6522 19.6761 21.6522 19.6761C21.6522 19.6761 21.6522 19.6761 21.6522 19.6761C21.6522 19.6761 21.6522 19.6761 21.6522 19.6761C21.6522 19.6761 21.6522 19.6761 21.6522 19.6761C21.6522 19.6761 21.6522 19.6761 21.6522 19.6761C21.6522 19.6761 21.6522 19.6761 21.6522 19.6761C21.6522 19.6761 21.6522 19.6761 21.6522 19.6761C21.6522 19.6761 21.6522 19.6761 21.6522 19.6761C21.6522 19.6761 21.6522 19.6761 21.6523 19.6761C21.6523 19.6761 21.6523 19.6761 21.6523 19.6761C21.6523 19.6761 21.6523 19.6761 21.6523 19.6761C21.6523 19.6761 21.6523 19.6761 21.6523 19.6761C21.6523 19.6761 21.6523 19.6761 21.6523 19.6761C21.6523 19.6761 21.6523 19.6761 21.6523 19.6761C21.6523 19.6761 21.6523 19.6761 21.6523 19.6761C21.6523 19.6761 21.6523 19.6761 21.6523 19.6761C21.6523 19.6761 21.6523 19.6761 21.6523 19.6761C21.6523 19.6761 21.6523 19.6761 21.6523 19.6761C21.6523 19.6761 21.6523 19.6761 21.6523 19.6761C21.6523 19.6761 21.6523 19.6761 21.6523 19.6761C21.6523 19.6761 21.6523 19.6761 21.6523 19.6761C21.6523 19.6761 21.6523 19.6761 21.6523 19.6761C21.6523 19.6761 21.6523 19.6761 21.6523 19.6761C21.6523 19.6761 21.6523 19.6761 21.6523 19.6761C21.6523 19.6761 21.6523 19.6761 21.6523 19.6761C21.6523 19.6761 21.6523 19.6761 21.6523 19.6761C21.6523 19.6761 21.6523 19.6761 21.6523 19.6761C21.6523 19.6761 21.6523 19.6761 21.6523 19.6761C21.6523 19.6761 21.6523 19.6761 21.6523 19.6761C21.6523 19.6761 21.6523 19.6761 21.6523 19.6761C21.6523 19.6761 21.6524 19.6761 21.6524 19.6761C21.6524 19.6761 21.6524 19.6761 21.6524 19.6761C21.6524 19.6761 21.6524 19.6761 21.6524 19.6761C21.6524 19.6761 21.6524 19.6761 21.6524 19.6761C21.6524 19.6761 21.6524 19.6761 21.6524 19.6761C21.6524 19.6761 21.6524 19.6761 21.6524 19.6761C21.6524 19.6761 21.6524 19.6761 21.6524 19.6761C21.6524 19.6761 21.6524 19.6761 21.6524 19.6761C21.6524 19.6761 21.6524 19.6761 21.6524 19.6761C21.6524 19.6761 21.6524 19.6761 21.6524 19.6761C21.6524 19.6761 21.6524 19.6761 21.6524 19.6761C21.6524 19.6761 21.6524 19.6761 21.6524 19.6761C21.6524 19.6761 21.6524 19.6761 21.6524 19.6761C21.6524 19.6761 21.6524 19.6761 21.6524 19.6761C21.6524 19.6761 21.6524 19.6761 21.6524 19.6761C21.6524 19.6761 21.6524 19.6761 21.6524 19.6761C21.6524 19.6761 21.6524 19.6761 21.6524 19.6761C21.6524 19.6761 21.6524 19.6761 21.6524 19.6761C21.6524 19.6761 21.6524 19.6761 21.6524 19.6761C21.6524 19.6761 21.6524 19.6761 21.6524 19.6761C21.6524 19.6761 21.6524 19.6761 21.6524 19.6761C21.6524 19.6761 21.6524 19.6761 21.6524 19.6761C21.6525 19.6761 21.6525 19.6761 21.6525 19.6761C21.6525 19.6761 21.6525 19.6761 21.6525 19.6761C21.6525 19.6761 21.6525 19.6761 21.6525 19.6761C21.6525 19.6761 21.6525 19.6761 21.6525 19.6761C21.6525 19.6761 21.6525 19.6761 21.6525 19.6761C21.6525 19.6761 21.6525 19.6761 21.6525 19.6761C21.6525 19.6761 21.6525 19.6761 21.6525 19.6761C21.6525 19.6761 21.6525 19.6761 21.6525 19.6761C21.6525 19.6761 21.6525 19.6761 21.6525 19.6761C21.6525 19.6761 21.6525 19.6761 21.6525 19.6761C21.6525 19.6761 21.6525 19.6761 21.6525 19.6761C21.6525 19.6761 21.6525 19.6761 21.6525 19.6761C21.6525 19.6761 21.6525 19.6761 21.6525 19.6761C21.6525 19.6761 21.6525 19.6761 21.6525 19.6761C21.6525 19.6761 21.6525 19.6761 21.6525 19.6761C21.6525 19.6761 21.6525 19.6761 21.6525 19.6761C21.6525 19.6761 21.6525 19.6761 21.6525 19.6761C21.6525 19.6761 21.6525 19.6761 21.6525 19.6761C21.6525 19.6761 21.6525 19.6761 21.6525 19.6761C21.6525 19.6761 21.6525 19.6761 21.6525 19.6761C21.6525 19.6761 21.6525 19.6761 21.6525 19.6761C21.6525 19.6761 21.6525 19.6761 21.6525 19.6761C21.6525 19.6761 21.6526 19.6761 21.6526 19.6761C21.6526 19.6761 21.6526 19.6761 21.6526 19.6761C21.6526 19.6761 21.6526 19.6761 21.6526 19.6761C21.6526 19.6761 21.6526 19.6761 21.6526 19.6761C21.6526 19.6761 21.6526 19.6761 21.6526 19.6761C21.6526 19.6761 21.6526 19.6761 21.6526 19.6761C21.6526 19.6761 21.6526 19.6761 21.6526 19.6761C21.6526 19.6761 21.6526 19.6761 21.6526 19.6761C21.6526 19.6761 21.6526 19.6761 21.6526 19.6761C21.6526 19.6761 21.6526 19.6761 21.6526 19.6761C21.6526 19.6761 21.6526 19.6761 21.6526 19.6761C21.6526 19.6761 21.6526 19.6761 21.6526 19.6761C21.6526 19.6761 21.6526 19.6761 21.6526 19.6761C21.6526 19.6761 21.6526 19.6761 21.6526 19.6761C21.6526 19.6761 21.6526 19.6761 21.6526 19.6761C21.6526 19.6761 21.6526 19.6761 21.6526 19.6761C21.6526 19.6761 21.6526 19.6761 21.6526 19.6761C21.6526 19.6761 21.6526 19.6761 21.6526 19.6761C21.6526 19.6761 21.6526 19.6761 21.6526 19.6761C21.6526 19.6761 21.6526 19.6761 21.6526 19.6761C21.6526 19.6761 21.6526 19.6761 21.6526 19.6761C21.6526 19.6761 21.6526 19.6761 21.6526 19.6761C21.6526 19.6761 21.6526 19.6761 21.6527 19.6761C21.6527 19.6761 21.6527 19.6761 21.6527 19.6761C21.6527 19.6761 21.6527 19.6761 21.6527 19.6761C21.6527 19.6761 21.6527 19.6761 21.6527 19.6761C21.6527 19.6761 21.6527 19.6761 21.6527 19.6761C21.6527 19.6761 21.6527 19.6761 21.6527 19.6761C21.6527 19.6761 21.6527 19.6761 21.6527 19.6761C21.6527 19.6761 21.6527 19.6761 21.6527 19.6761C21.6527 19.6761 21.6527 19.6761 21.6527 19.6761C21.6527 19.6761 21.6527 19.6761 21.6527 19.6761C21.6527 19.6761 21.6527 19.6761 21.6527 19.6761C21.6527 19.6761 21.6527 19.6761 21.6527 19.6761C21.6527 19.6761 21.6527 19.6761 21.6527 19.6761C21.6527 19.6761 21.6527 19.6761 21.6527 19.6761C21.6527 19.6761 21.6527 19.6761 21.6527 19.6761C21.6527 19.6761 21.6527 19.6761 21.6527 19.6761C21.6527 19.6761 21.6527 19.6761 21.6527 19.6761C21.6527 19.6761 21.6527 19.6761 21.6527 19.6761C21.6527 19.6761 21.6527 19.6761 21.6527 19.6761C21.6527 19.6761 21.6527 19.6761 21.6527 19.6761C21.6527 19.6761 21.6527 19.6761 21.6527 19.6761C21.6527 19.6761 21.6527 19.6761 21.6527 19.6761C21.6527 19.6761 21.6527 19.6761 21.6527 19.6761C21.6528 19.6761 21.6528 19.6761 21.6528 19.6761C21.6528 19.6761 21.6528 19.6761 21.6528 19.6761C21.6528 19.6761 21.6528 19.6761 21.6528 19.6761C21.6528 19.6761 21.6528 19.6761 21.6528 19.6761C21.6528 19.6761 21.6528 19.6761 21.6528 19.6761C21.6528 19.6761 21.6528 19.6761 21.6528 19.6761C21.6528 19.6761 21.6528 19.6761 21.6528 19.6761C21.6528 19.6761 21.6528 19.6761 21.6528 19.6761C21.6528 19.6761 21.6528 19.6761 21.6528 19.6761C21.6528 19.6761 21.6528 19.6761 21.6528 19.6761C21.6528 19.6761 21.6528 19.6761 21.6528 19.6761C21.6528 19.6761 21.6528 19.6761 21.6528 19.6761C21.6528 19.6761 21.6528 19.6761 21.6528 19.6761C21.6528 19.6761 21.6528 19.6761 21.6528 19.6761C21.6528 19.6761 21.6528 19.6761 21.6528 19.6761C21.6528 19.6761 21.6528 19.6761 21.6528 19.6761C21.6528 19.6761 21.6528 19.6761 21.6528 19.6761C21.6528 19.6761 21.6528 19.6761 21.6528 19.6761C21.6528 19.6761 21.6528 19.6761 21.6528 19.6761C21.6528 19.6761 21.6528 19.6761 21.6528 19.6761C21.6528 19.6761 21.6528 19.6761 21.6528 19.6761C21.6528 19.6761 21.6528 19.6761 21.6528 19.6761C21.6528 19.6761 21.6528 19.6761 21.6528 19.6761C21.6529 19.6761 21.6529 19.6761 21.6529 19.6761C21.6529 19.6761 21.6529 19.6761 21.6529 19.6761C21.6529 19.6761 21.6529 19.6761 21.6529 19.6761C21.6529 19.6761 21.6529 19.6761 21.6529 19.6761C21.6529 19.6761 21.6529 19.6761 21.6529 19.6761C21.6529 19.6761 21.6529 19.6761 21.6529 19.6761C21.6529 19.6761 21.6529 19.6761 21.6529 19.6761C21.6529 19.6761 21.6529 19.6761 21.6529 19.6761C21.6529 19.6761 21.6529 19.6761 21.6529 19.6761C21.6529 19.6761 21.6529 19.6761 21.6529 19.6761C21.6529 19.6761 21.6529 19.6761 21.6529 19.6761C21.6529 19.6761 21.6529 19.6761 21.6529 19.6761C21.6529 19.6761 21.6529 19.6761 21.6529 19.6761C21.6529 19.6761 21.6529 19.6761 21.6529 19.6761C21.6529 19.6761 21.6529 19.6761 21.6529 19.6761C21.6529 19.6761 21.6529 19.6761 21.6529 19.6761C21.6529 19.6761 21.6529 19.6761 21.6529 19.6761C21.6529 19.6761 21.6529 19.6761 21.6529 19.6761C21.6529 19.6761 21.6529 19.6761 21.6529 19.6761C21.6529 19.6761 21.6529 19.6761 21.6529 19.6761C21.6529 19.6761 21.6529 19.6761 21.6529 19.6761C21.6529 19.6761 21.6529 19.6761 21.6529 19.6761C21.6529 19.6761 21.653 19.6761 21.653 19.6761C21.653 19.6761 21.653 19.6761 21.653 19.6761C21.653 19.6761 21.653 19.6761 21.653 19.6761C21.653 19.6761 21.653 19.6761 21.653 19.6761C21.653 19.6761 21.653 19.6761 21.653 19.6761C21.653 19.6761 21.653 19.6761 21.653 19.6761C21.653 19.6761 21.653 19.6761 21.653 19.6761C21.653 19.6761 21.653 19.6761 21.653 19.6761C21.653 19.6761 21.653 19.6761 21.653 19.6761C21.653 19.6761 21.653 19.6761 21.653 19.6761C21.653 19.6761 21.653 19.6761 21.653 19.6761C21.653 19.6761 21.653 19.6761 21.653 19.6761C21.653 19.6761 21.653 19.6761 21.653 19.6761C21.653 19.6761 21.653 19.6761 21.653 19.6761C21.653 19.6761 21.653 19.6761 21.653 19.6761C21.653 19.6761 21.653 19.6761 21.653 19.6761C21.653 19.6761 21.653 19.6761 21.653 19.6761C21.653 19.6761 21.653 19.6761 21.653 19.6761C21.653 19.6761 21.653 19.6761 21.653 19.6761C21.653 19.6761 21.653 19.6761 21.653 19.6761C21.653 19.6761 21.653 19.6761 21.653 19.6761C21.653 19.6761 21.653 19.6761 21.653 19.6761C21.653 19.6761 21.653 19.6761 21.653 19.6761C21.6531 19.6761 21.6531 19.6761 21.6531 19.6761C21.6531 19.6761 21.6531 19.6761 21.6531 19.6761C21.6531 19.6761 21.6531 19.6761 21.6531 19.6761C21.6531 19.6761 21.6531 19.6761 21.6531 19.6761C21.6531 19.6761 21.6531 19.6761 21.6531 19.6761C21.6531 19.6761 21.6531 19.6761 21.6531 19.6761C21.6531 19.6761 21.6531 19.6761 21.6531 19.6761C21.6531 19.6761 21.6531 19.6761 21.6531 19.6761C21.6531 19.6761 21.6531 19.6761 21.6531 19.6761C21.6531 19.6761 21.6531 19.6761 21.6531 19.6761C21.6531 19.6761 21.6531 19.6761 21.6531 19.6761C21.6531 19.6761 21.6531 19.6761 21.6531 19.6761C21.6531 19.6761 21.6531 19.6761 21.6531 19.6761C21.6531 19.6761 21.6531 19.6761 21.6531 19.6761C21.6531 19.6761 21.6531 19.6761 21.6531 19.6761C21.6531 19.6761 21.6531 19.6761 21.6531 19.6761C21.6531 19.6761 21.6531 19.6761 21.6531 19.6761C21.6531 19.6761 21.6531 19.6761 21.6531 19.6761C21.6531 19.6761 21.6531 19.6761 21.6531 19.6761C21.6531 19.6761 21.6531 19.6761 21.6531 19.6761C21.6531 19.6761 21.6531 19.6761 21.6531 19.6761C21.6531 19.6761 21.6531 19.6761 21.6531 19.6761C21.6532 19.6761 21.6532 19.6761 21.6532 19.6761C21.6532 19.6761 21.6532 19.6761 21.6532 19.6761C21.6532 19.6761 21.6532 19.6761 21.6532 19.6761C21.6532 19.6761 21.6532 19.6761 21.6532 19.6761C21.6532 19.6761 21.6532 19.6761 21.6532 19.6761C21.6532 19.6761 21.6532 19.6761 21.6532 19.6761C21.6532 19.6761 21.6532 19.6761 21.6532 19.6761C21.6532 19.6761 21.6532 19.6761 21.6532 19.6761C21.6532 19.6761 21.6532 19.6761 21.6532 19.6761C21.6532 19.6761 21.6532 19.6761 21.6532 19.6761C21.6532 19.6761 21.6532 19.6761 21.6532 19.6761C21.6532 19.6761 21.6532 19.6761 21.6532 19.6761C21.6532 19.6761 21.6532 19.6761 21.6532 19.6761C21.6532 19.6761 21.6532 19.6761 21.6532 19.6761C21.6532 19.6761 21.6532 19.6761 21.6532 19.6761C21.6532 19.6761 21.6532 19.6761 21.6532 19.6761C21.6532 19.6761 21.6532 19.6761 21.6532 19.6761C21.6532 19.6761 21.6532 19.6761 21.6532 19.6761C21.6532 19.6761 21.6532 19.6761 21.6532 19.6761C21.6532 19.6761 21.6532 19.6761 21.6532 19.6761C21.6532 19.6761 21.6532 19.6761 21.6532 19.6761C21.6532 19.6761 21.6532 19.6761 21.6532 19.6761C21.6533 19.6761 21.6533 19.6761 21.6533 19.6761C21.6533 19.6761 21.6533 19.6761 21.6533 19.6761C21.6533 19.6761 21.6533 19.6761 21.6533 19.6761C21.6533 19.6761 21.6533 19.6761 21.6533 19.6761C21.6533 19.6761 21.6533 19.6761 21.6533 19.6761C21.6533 19.6761 21.6533 19.6761 21.6533 19.6761C21.6533 19.6761 21.6533 19.6761 21.6533 19.6761C21.6533 19.6761 21.6533 19.6761 21.6533 19.6761C21.6533 19.6761 21.6533 19.6761 21.6533 19.6761C21.6533 19.6761 21.6533 19.6761 21.6533 19.6761C21.6533 19.6761 21.6533 19.6761 21.6533 19.6761C21.6533 19.6761 21.6533 19.6761 21.6533 19.6761C21.6533 19.6761 21.6533 19.6761 21.6533 19.6761C21.6533 19.6761 21.6533 19.6761 21.6533 19.6761C21.6533 19.6761 21.6533 19.6761 21.6533 19.6761C21.6533 19.6761 21.6533 19.6761 21.6533 19.6761C21.6533 19.6761 21.6533 19.6761 21.6533 19.6761C21.6533 19.6761 21.6533 19.6761 21.6533 19.6761C21.6533 19.6761 21.6533 19.6761 21.6533 19.6761C21.6533 19.6761 21.6533 19.6761 21.6533 19.6761C21.6533 19.6761 21.6533 19.6761 21.6533 19.6761C21.6534 19.6761 21.6534 19.6761 21.6534 19.6761C21.6534 19.6761 21.6534 19.6761 21.6534 19.6761C21.6534 19.6761 21.6534 19.6761 21.6534 19.6761C21.6534 19.6761 21.6534 19.6761 21.6534 19.6761C21.6534 19.6761 21.6534 19.6761 21.6534 19.6761C21.6534 19.6761 21.6534 19.6761 21.6534 19.6761C21.6534 19.6761 21.6534 19.6761 21.6534 19.6761C21.6534 19.6761 21.6534 19.6761 21.6534 19.6761C21.6534 19.6761 21.6534 19.6761 21.6534 19.6761C21.6534 19.6761 21.6534 19.6761 21.6534 19.6761C21.6534 19.6761 21.6534 19.6761 21.6534 19.6761C21.6534 19.6761 21.6534 19.6761 21.6534 19.6761C21.6534 19.6761 21.6534 19.6761 21.6534 19.6761C21.6534 19.6761 21.6534 19.6761 21.6534 19.6761C21.6534 19.6761 21.6534 19.6761 21.6534 19.6761C21.6534 19.6761 21.6534 19.6761 21.6534 19.6761C21.6534 19.6761 21.6534 19.6761 21.6534 19.6761C21.6534 19.6761 21.6534 19.6761 21.6534 19.6761C21.6534 19.6761 21.6534 19.6761 21.6534 19.6761C21.6534 19.6761 21.6534 19.6761 21.6534 19.6761C21.6534 19.6761 21.6534 19.6761 21.6535 19.6761C21.6535 19.6761 21.6535 19.6761 21.6535 19.6761C21.6535 19.6761 21.6535 19.6761 21.6535 19.6761C21.6535 19.6761 21.6535 19.6761 21.6535 19.6761C21.6535 19.6761 21.6535 19.6761 21.6535 19.6761C21.6535 19.6761 21.6535 19.6761 21.6535 19.6761C21.6535 19.6761 21.6535 19.6761 21.6535 19.6761C21.6535 19.6761 21.6535 19.6761 21.6535 19.6761C21.6535 19.6761 21.6535 19.6761 21.6535 19.6761C21.6535 19.6761 21.6535 19.6761 21.6535 19.6761C21.6535 19.6761 21.6535 19.6761 21.6535 19.6761C21.6535 19.6761 21.6535 19.6761 21.6535 19.6761C21.6535 19.6761 21.6535 19.6761 21.6535 19.6761C21.6535 19.6761 21.6535 19.6761 21.6535 19.6761C21.6535 19.6761 21.6535 19.6761 21.6535 19.6761C21.6535 19.6761 21.6535 19.6761 21.6535 19.6761C21.6535 19.6761 21.6535 19.6761 21.6535 19.6761C21.6535 19.6761 21.6535 19.6761 21.6535 19.6761C21.6535 19.6761 21.6535 19.6761 21.6535 19.6761C21.6535 19.6761 21.6535 19.6761 21.6535 19.6761C21.6535 19.6761 21.6535 19.6761 21.6535 19.6761C21.6536 19.6761 21.6536 19.6761 21.6536 19.6761C21.6536 19.6761 21.6536 19.6761 21.6536 19.6761C21.6536 19.6761 21.6536 19.6761 21.6536 19.6761C21.6536 19.6761 21.6536 19.6761 21.6536 19.6761C21.6536 19.6761 21.6536 19.6761 21.6536 19.6761C21.6536 19.6761 21.6536 19.6761 21.6536 19.6761C21.6536 19.6761 21.6536 19.6761 21.6536 19.6761C21.6536 19.6761 21.6536 19.6761 21.6536 19.6761C21.6536 19.6761 21.6536 19.6761 21.6536 19.6761C21.6536 19.6761 21.6536 19.6761 21.6536 19.6761C21.6536 19.6761 21.6536 19.6761 21.6536 19.6761C21.6536 19.6761 21.6536 19.6761 21.6536 19.6761C21.6536 19.6761 21.6536 19.6761 21.6536 19.6761C21.6536 19.6761 21.6536 19.6761 21.6536 19.6761C21.6536 19.6761 21.6536 19.6761 21.6536 19.6761C21.6536 19.6761 21.6536 19.6761 21.6536 19.6761C21.6536 19.6761 21.6536 19.6761 21.6536 19.6761C21.6536 19.6761 21.6536 19.6761 21.6536 19.6761C21.6536 19.6761 21.6536 19.6761 21.6536 19.6761C21.6536 19.6761 21.6537 19.6761 21.6537 19.6761C21.6537 19.6761 21.6537 19.6761 21.6537 19.6761C21.6537 19.6761 21.6537 19.6761 21.6537 19.6761C21.6537 19.6761 21.6537 19.6761 21.6537 19.6761C21.6537 19.6761 21.6537 19.6761 21.6537 19.6761C21.6537 19.6761 21.6537 19.6761 21.6537 19.6761C21.6537 19.6761 21.6537 19.6761 21.6537 19.6761C21.6537 19.6761 21.6537 19.6761 21.6537 19.6761C21.6537 19.6761 21.6537 19.6761 21.6537 19.6761C21.6537 19.6761 21.6537 19.6761 21.6537 19.6761C21.6537 19.6761 21.6537 19.6761 21.6537 19.6761C21.6537 19.6761 21.6537 19.6761 21.6537 19.6761C21.6537 19.6761 21.6537 19.6761 21.6537 19.6761C21.6537 19.6761 21.6537 19.6761 21.6537 19.6761C21.6537 19.6761 21.6537 19.6761 21.6537 19.6761C21.6537 19.6761 21.6537 19.6761 21.6537 19.6761C21.6537 19.6761 21.6537 19.6761 21.6537 19.6761C21.6537 19.6761 21.6537 19.6761 21.6537 19.6761C21.6537 19.6761 21.6537 19.6761 21.6537 19.6761C21.6537 19.6761 21.6537 19.6761 21.6538 19.6761C21.6538 19.6761 21.6538 19.6761 21.6538 19.6761C21.6538 19.6761 21.6538 19.6761 21.6538 19.6761C21.6538 19.6761 21.6538 19.6761 21.6538 19.6761C21.6538 19.6761 21.6538 19.6761 21.6538 19.6761C21.6538 19.6761 21.6538 19.6761 21.6538 19.6761C21.6538 19.6761 21.6538 19.6761 21.6538 19.6761C21.6538 19.6761 21.6538 19.6761 21.6538 19.6761C21.6538 19.6761 21.6538 19.6761 21.6538 19.6761C21.6538 19.6761 21.6538 19.6761 21.6538 19.6761C21.6538 19.6761 21.6538 19.6761 21.6538 19.6761C21.6538 19.6761 21.6538 19.6761 21.6538 19.6761C21.6538 19.6761 21.6538 19.6761 21.6538 19.6761C21.6538 19.6761 21.6538 19.6761 21.6538 19.6761C21.6538 19.6761 21.6538 19.6761 21.6538 19.6761C21.6538 19.6761 21.6538 19.6761 21.6538 19.6761C21.6538 19.6761 21.6538 19.6761 21.6538 19.6761C21.6538 19.6761 21.6538 19.6761 21.6538 19.6761C21.6538 19.6761 21.6538 19.6761 21.6539 19.6761C21.6539 19.6761 21.6539 19.6761 21.6539 19.6761C21.6539 19.6761 21.6539 19.6761 21.6539 19.6761C21.6539 19.6761 21.6539 19.6761 21.6539 19.6761C21.6539 19.6761 21.6539 19.6761 21.6539 19.6761C21.6539 19.6761 21.6539 19.6761 21.6539 19.6761C21.6539 19.6761 21.6539 19.6761 21.6539 19.6761C21.6539 19.6761 21.6539 19.6761 21.6539 19.6761C21.6539 19.6761 21.6539 19.6761 21.6539 19.6761C21.6539 19.6761 21.6539 19.6761 21.6539 19.6761C21.6539 19.6761 21.6539 19.6761 21.6539 19.6761C21.6539 19.6761 21.6539 19.6761 21.6539 19.6761C21.6539 19.6761 21.6539 19.6761 21.6539 19.6761C21.6539 19.6761 21.6539 19.6761 21.6539 19.6761C21.6539 19.6761 21.6539 19.6761 21.6539 19.6761C21.6539 19.6761 21.6539 19.6761 21.6539 19.6761C21.6539 19.6761 21.6539 19.6761 21.6539 19.6761C21.6539 19.6761 21.6539 19.6761 21.6539 19.6761C21.6539 19.6761 21.6539 19.6761 21.654 19.6761C21.654 19.6761 21.654 19.6761 21.654 19.6761C21.654 19.6761 21.654 19.6761 21.654 19.6761C21.654 19.6761 21.654 19.6761 21.654 19.6761C21.654 19.6761 21.654 19.6761 21.654 19.6761C21.654 19.6761 21.654 19.6761 21.654 19.6761C21.654 19.6761 21.654 19.6761 21.654 19.6761C21.654 19.6761 21.654 19.6761 21.654 19.6761C21.654 19.6761 21.654 19.6761 21.654 19.6761C21.654 19.6761 21.654 19.6761 21.654 19.6761C21.654 19.6761 21.654 19.6761 21.654 19.6761C21.654 19.6761 21.654 19.6761 21.654 19.6761C21.654 19.6761 21.654 19.6761 21.654 19.6761C21.654 19.6761 21.654 19.6761 21.654 19.6761C21.654 19.6761 21.654 19.6761 21.654 19.6761V18.515ZM20.2998 17.3216L21.1561 18.6776L22.1379 18.0576L21.2815 16.7016L20.2998 17.3216ZM22.1437 18.6682L22.9644 17.3122L21.9711 16.711L21.1503 18.067L22.1437 18.6682ZM22.4677 16.431H20.7907V17.5922H22.4677V16.431Z" fill="white" mask="url(#path-1-inside-1_26_1311)"/>
</svg>
