<svg width="29" height="20" viewBox="0 0 29 20" fill="none" xmlns="http://www.w3.org/2000/svg">
<path d="M7.77268 9.0175L7.58518 9.11105C7.58517 9.11106 7.58517 9.11106 7.58517 9.11106C7.41491 9.19605 7.34583 9.40291 7.43075 9.57312L7.77268 9.0175ZM7.77268 9.0175C7.97779 9.15818 8.16441 9.32397 8.32806 9.51038L7.89283 9.72753C7.89283 9.72754 7.89283 9.72754 7.89282 9.72754C7.72253 9.81247 7.51574 9.74339 7.43075 9.57313L7.77268 9.0175ZM9.06384 11.3993L8.56629 11.6476L8.56628 11.6476C8.44746 11.7069 8.37789 11.8255 8.37556 11.9497V11.9625C8.37649 12.0121 8.38819 12.0622 8.4118 12.1096L9.06384 11.3993ZM9.06384 11.3993C9.0643 11.4208 9.06453 11.4423 9.06453 11.4638V12.1689M9.06384 11.3993L9.06453 12.1689M9.06453 12.1689L8.87396 12.264L9.06453 12.1689ZM3.82494 11.4316L3.82481 16.8542H3.13584L3.13598 11.4287C3.13598 11.4274 3.13598 11.4268 3.13598 11.4266L3.13601 11.4266L3.13604 11.4242C3.14621 10.6474 3.45441 9.91723 4.00416 9.3677L4.00419 9.36767C4.56397 8.80768 5.30809 8.49941 6.10014 8.49941C6.64561 8.49941 7.15716 8.64753 7.59668 8.90565L7.5054 8.95119L7.50539 8.9512C7.30167 9.05288 7.19334 9.26946 7.21962 9.48318C6.8889 9.29552 6.50682 9.1883 6.10014 9.1883C5.49247 9.1883 4.92086 9.42508 4.49137 9.85471C4.0702 10.2757 3.8335 10.8354 3.82495 11.4303H3.82494V11.4316ZM3.13583 17.0329H3.8248L3.82479 17.3774C3.82479 17.5676 3.67055 17.7219 3.48031 17.7219C3.29007 17.7219 3.13583 17.5676 3.13583 17.3774L3.13583 17.0329ZM2.95716 17.3774C2.95716 17.5523 3.04299 17.7071 3.17482 17.8021V17.8112V18.7287H2.48586V17.3774C2.48586 17.1871 2.6401 17.0329 2.83034 17.0329H2.95717L2.95716 17.3774ZM2.48586 18.9073H3.17482V19.2518C3.17482 19.4421 3.02058 19.5963 2.83034 19.5963C2.6401 19.5963 2.48586 19.4421 2.48586 19.2518V18.9073ZM3.22406 19.5963C3.30464 19.5043 3.35349 19.3837 3.35349 19.2518V18.9073H8.84687V19.2518C8.84687 19.3837 8.89571 19.5043 8.9763 19.5963H3.22406ZM2.3072 19.2518C2.3072 19.3837 2.35604 19.5043 2.43663 19.5963H1.12913C0.938886 19.5963 0.784643 19.4421 0.784643 19.2518C0.784643 19.0616 0.938886 18.9073 1.12913 18.9073H2.3072V19.2518ZM8.49306 9.42805C8.3336 9.24089 8.15261 9.0726 7.95397 8.92704L9.096 8.35723C9.03873 8.56793 9.11827 8.80064 9.30974 8.92894C9.30974 8.92895 9.30974 8.92895 9.30974 8.92895L9.38811 8.98147L8.49306 9.42805ZM7.97259 9.88741L8.44474 9.65182C8.78345 10.0891 9.00276 10.6232 9.05333 11.2049L8.48654 11.4877C8.44559 11.5081 8.40849 11.5332 8.37556 11.562V11.4637C8.37556 10.8783 8.15338 10.3438 7.78889 9.9402C7.85111 9.93425 7.9133 9.91698 7.97258 9.88741L7.97259 9.88741ZM8.37556 16.8542V12.3497C8.47117 12.4332 8.5943 12.4791 8.72042 12.4791C8.79907 12.4791 8.87888 12.4612 8.9537 12.4239L8.95371 12.4239L9.06453 12.3686V16.8542H8.37556ZM9.24319 12.0798V11.4638C9.24319 11.4128 9.24197 11.3621 9.23956 11.3117L11.3178 10.2748L11.9012 10.6658L11.9012 10.6658C11.9282 10.6839 11.9564 10.6992 11.9852 10.7117L9.24319 12.0798ZM8.37556 17.0329H9.06453V17.3775C9.06453 17.5676 8.9103 17.7219 8.72005 17.7219C8.52981 17.7219 8.37556 17.5676 8.37556 17.3774V17.0329ZM9.02553 17.8021C9.15736 17.7071 9.24319 17.5523 9.24319 17.3775V17.0329H9.37001C9.56026 17.0329 9.7145 17.1871 9.7145 17.3774V18.7287H9.02553V17.8112V17.8021ZM8.32633 17.7219H3.87402C3.95461 17.6298 4.00345 17.5093 4.00345 17.3774L4.00346 17.0329H8.1969V17.3774C8.1969 17.5093 8.24574 17.6298 8.32633 17.7219ZM9.02553 19.2518V18.9073H9.7145V19.2518C9.7145 19.4421 9.56026 19.5963 9.37001 19.5963C9.17977 19.5963 9.02553 19.4421 9.02553 19.2518ZM9.89316 19.2518V18.9073H23.0516V19.2518C23.0516 19.3837 23.1005 19.5043 23.1811 19.5963H9.76373C9.84432 19.5043 9.89316 19.3837 9.89316 19.2518ZM23.2303 19.2518V18.9073H23.9193V19.2518C23.9193 19.4421 23.765 19.5963 23.5748 19.5963C23.3846 19.5963 23.2303 19.4421 23.2303 19.2518ZM23.9193 18.7287H23.2303V11.0997C23.2303 10.9095 23.3846 10.7552 23.5748 10.7552H25.9236C26.1139 10.7552 26.2681 10.9095 26.2681 11.0997V18.7287H25.5792V11.5335V11.4442H25.4898H24.0086H23.9193V11.5335V18.7287ZM24.0979 19.2518V18.9073H25.4005V19.2518C25.4005 19.3837 25.4493 19.5043 25.5299 19.5963H23.9685C24.0491 19.5043 24.0979 19.3837 24.0979 19.2518ZM25.5792 19.2518V18.9073H26.2681V19.2518C26.2681 19.4421 26.1139 19.5963 25.9236 19.5963C25.7334 19.5963 25.5792 19.4421 25.5792 19.2518ZM26.4468 19.2518V18.9073H28.0256C28.2158 18.9073 28.3701 19.0616 28.3701 19.2518C28.3701 19.4421 28.2158 19.5963 28.0256 19.5963H26.3174C26.398 19.5043 26.4468 19.3837 26.4468 19.2518ZM23.7601 4.83674L23.6347 4.89929C23.6059 4.9069 23.5761 4.91079 23.5462 4.91079C23.4803 4.91079 23.4138 4.89195 23.3547 4.8524L22.8558 4.51801L23.5652 4.16408L23.7383 4.28013C23.8964 4.38604 23.9386 4.60004 23.8327 4.75811C23.8122 4.78874 23.7876 4.81504 23.7601 4.83674ZM26.0601 3.68917L24.0551 4.68954C24.1052 4.48254 24.025 4.2572 23.8378 4.13172L23.7881 4.20592L23.8378 4.13172L23.7492 4.07229L25.7525 3.07276L25.7126 2.99282L25.7525 3.07275C25.955 2.97167 26.0378 2.72473 25.9366 2.52214C25.9366 2.52213 25.9366 2.52213 25.9366 2.52212L25.4019 1.45034L25.3219 1.49022L25.4019 1.45033C25.353 1.35234 25.2686 1.27894 25.1647 1.24424C25.0608 1.20955 24.9492 1.21737 24.8512 1.26617L24.8511 1.2662L21.8194 2.7789L21.2464 2.39488L21.1966 2.46908L21.2464 2.39487C21.2152 2.37395 21.1825 2.35684 21.1489 2.34342L24.5436 0.649657C24.8066 0.518482 25.1045 0.497609 25.3831 0.590724C25.6619 0.683907 25.8873 0.879711 26.0184 1.14273L26.0184 1.14275L26.5531 2.21441L26.5531 2.21442C26.8237 2.75658 26.6026 3.41836 26.0601 3.68916C26.0601 3.68916 26.0601 3.68917 26.0601 3.68917ZM21.1469 2.54329L21.6354 2.87068L20.926 3.22462L20.7633 3.11557C20.6053 3.00965 20.563 2.79565 20.6689 2.63767L20.6689 2.63766C20.7748 2.4796 20.9888 2.43736 21.1469 2.54329ZM21.0968 3.33908L21.8062 2.98514L23.3944 4.04962L22.685 4.40356L21.0968 3.33908ZM20.6638 3.26398L20.7421 3.31641L18.0643 4.65246L17.4913 4.26841L17.4913 4.2684C17.4601 4.24749 17.4275 4.23039 17.3939 4.21698L20.4502 2.69207C20.3928 2.90284 20.4724 3.13564 20.6638 3.26397L20.7136 3.18977L20.6638 3.26398ZM17.3919 4.41684L17.8804 4.74425L17.171 5.09819L17.0083 4.9891C16.8502 4.88318 16.808 4.66919 16.9139 4.5112C17.0198 4.35321 17.2337 4.3109 17.3919 4.41682C17.3919 4.41683 17.3919 4.41683 17.3919 4.41684ZM17.3418 5.21264L18.0512 4.8587L19.6394 5.92316L18.93 6.27709L17.3418 5.21264ZM16.9088 5.13751L16.9871 5.18997L14.3092 6.5261L13.7361 6.14203C13.7049 6.12112 13.6723 6.10401 13.6388 6.0906L16.6951 4.56566C16.6378 4.77641 16.7174 5.00919 16.9088 5.13751L16.9585 5.06331L16.9088 5.13751ZM13.6367 6.29044L14.1252 6.61788L13.4159 6.9718L13.2531 6.86271L13.2531 6.86271C13.0951 6.75679 13.0528 6.54282 13.1587 6.38482L13.1588 6.3848C13.2647 6.22674 13.4786 6.18452 13.6367 6.29043L13.6864 6.21623L13.6367 6.29044ZM13.5867 7.08626L14.296 6.73234L15.8842 7.79677L15.1748 8.15068L13.5867 7.08626ZM13.1537 7.01113L13.2319 7.06359L10.4653 8.44398L9.8922 8.05985C9.86105 8.03897 9.82847 8.02187 9.79499 8.00847L12.94 6.43929C12.8826 6.65003 12.9622 6.8828 13.1537 7.01113ZM9.79273 8.20825L10.2814 8.53576L9.57206 8.88968L9.4092 8.78053L9.4092 8.78053C9.25113 8.67461 9.20891 8.46064 9.31483 8.30264L9.31483 8.30262C9.42075 8.14456 9.63472 8.10234 9.79272 8.20825L9.84246 8.13405L9.79273 8.20825ZM9.74284 9.00414L10.4522 8.65022L12.0403 9.71462L11.331 10.0685L9.74284 9.00414ZM12.0006 10.5174L11.5017 10.183L12.2111 9.82908L12.3842 9.94509L12.3842 9.9451C12.5422 10.051 12.5845 10.265 12.4785 10.423L12.4785 10.423C12.458 10.4538 12.4333 10.4801 12.4058 10.5018L12.2807 10.5642C12.2519 10.5719 12.2221 10.5758 12.1921 10.5758C12.1262 10.5758 12.0597 10.5569 12.0006 10.5174C12.0006 10.5174 12.0006 10.5174 12.0006 10.5174ZM12.4836 9.79668L12.395 9.73729L15.1616 8.35692L15.7451 8.74796L15.7451 8.74797C15.7721 8.76607 15.8002 8.78133 15.8291 8.79382L12.7009 10.3546C12.7511 10.1476 12.6709 9.92218 12.4836 9.79668C12.4836 9.79668 12.4836 9.79668 12.4836 9.79668ZM15.8446 8.59955L15.3456 8.26514L16.0549 7.91122L16.2281 8.02727C16.3861 8.13319 16.4284 8.34719 16.3225 8.50526L16.3225 8.50527C16.302 8.53587 16.2774 8.56214 16.25 8.58383L16.1244 8.64648C16.0956 8.65406 16.0659 8.65793 16.036 8.65793C15.9701 8.65793 15.9036 8.6391 15.8446 8.59955C15.8446 8.59955 15.8446 8.59955 15.8446 8.59955ZM16.3276 7.87886L16.2389 7.81944L18.9168 6.48333L19.5002 6.87435L19.55 6.80015L19.5002 6.87436C19.5273 6.89247 19.5554 6.90774 19.5843 6.92022L16.5449 8.43669C16.595 8.22969 16.5148 8.00434 16.3276 7.87887L16.2778 7.95307L16.3276 7.87886ZM19.5997 6.72593L19.1008 6.39155L19.8101 6.03761L19.9833 6.15366C20.1413 6.25958 20.1836 6.47358 20.0777 6.63165C20.0571 6.66229 20.0325 6.68859 20.005 6.7103L19.8797 6.77281C19.8509 6.78043 19.8211 6.78432 19.7911 6.78432C19.7252 6.78432 19.6587 6.76549 19.5997 6.72593ZM20.0828 6.00525L19.9941 5.94583L22.6719 4.6098L23.2553 5.00082L23.305 4.92661L23.2553 5.00082C23.2823 5.01894 23.3104 5.0342 23.3393 5.04669L20.3001 6.56308C20.3502 6.35608 20.27 6.13073 20.0828 6.00526L20.033 6.07946L20.0828 6.00525ZM8.72042 12.3004C8.59371 12.3004 8.47211 12.2304 8.41181 12.1096L8.87395 12.264C8.82436 12.2887 8.77191 12.3004 8.72042 12.3004ZM6.10021 12.8656C5.44461 12.8656 4.91115 12.3321 4.91115 11.6766C4.91115 11.021 5.44467 10.4875 6.10021 10.4875C6.75575 10.4875 7.28928 11.021 7.28928 11.6766C7.28921 12.3321 6.75574 12.8656 6.10021 12.8656ZM6.10021 11.1764C5.82432 11.1764 5.60012 11.4007 5.60012 11.6765C5.60012 11.9524 5.82442 12.1766 6.10021 12.1766C6.37611 12.1766 6.60031 11.9523 6.60031 11.6765C6.60031 11.4007 6.37602 11.1764 6.10021 11.1764Z" fill="white" stroke="white" stroke-width="0.178661"/>
</svg>
