<svg width="24" height="24" viewBox="0 0 24 24" fill="none" xmlns="http://www.w3.org/2000/svg">
<path d="M11.5057 11.7643H11.6762V11.5938V8.29537C11.6762 8.13039 11.8119 7.99469 11.9769 7.99469C12.1419 7.99469 12.2776 8.13039 12.2776 8.29537V14.421C12.2776 14.586 12.1419 14.7217 11.9769 14.7217C11.8119 14.7217 11.6762 14.586 11.6762 14.421V12.5362V12.3657H11.5057H7.73603C7.57105 12.3657 7.43535 12.23 7.43535 12.065C7.43535 11.9 7.57105 11.7643 7.73603 11.7643H11.5057ZM19.5161 1.52799H19.3456V1.69851V3.58333C19.3456 3.74832 19.2099 3.88401 19.0449 3.88401C18.8799 3.88401 18.7443 3.74832 18.7443 3.58333V1.22731C18.7443 1.06232 18.8799 0.926624 19.0449 0.926624H21.8769C22.5594 0.926624 23.1153 1.48566 23.1153 2.16972V21.9603C23.1153 22.6436 22.5555 23.2034 21.8722 23.2034H2.08158C1.39827 23.2034 0.838489 22.6436 0.838489 21.9603V2.16972C0.838489 1.48641 1.39827 0.926624 2.08158 0.926624H15.7465C15.9115 0.926624 16.0472 1.06232 16.0472 1.22731V3.58333C16.0472 3.74832 15.9115 3.88401 15.7465 3.88401C15.5815 3.88401 15.4458 3.74832 15.4458 3.58333V1.69851V1.52799H15.2753H12.4481H12.2776V1.69851V5.93935C12.2776 6.10434 12.1419 6.24003 11.9769 6.24003C11.8119 6.24003 11.6762 6.10434 11.6762 5.93935V1.69851V1.52799H11.5057H2.08158C1.72824 1.52799 1.43986 1.81638 1.43986 2.16972V11.5938V11.7643H1.61038H5.83708C6.00207 11.7643 6.13776 11.9 6.13776 12.065C6.13776 12.23 6.00207 12.3657 5.83708 12.3657H1.61038H1.43986V12.5362V21.9603C1.43986 22.3136 1.72824 22.602 2.08158 22.602H11.5057H11.6762V22.4315V17.2483C11.6762 17.0833 11.8119 16.9476 11.9769 16.9476C12.1419 16.9476 12.2776 17.0833 12.2776 17.2483V22.4315V22.602H12.4481H21.8722C22.2255 22.602 22.5139 22.3136 22.5139 21.9603V14.8922V14.7217H22.3434H15.2753C15.1103 14.7217 14.9746 14.586 14.9746 14.421C14.9746 14.256 15.1103 14.1203 15.2753 14.1203H22.3434H22.5139V13.9498V11.5938V11.4233H22.3434H17.6313C17.4663 11.4233 17.3306 11.2876 17.3306 11.1226C17.3306 10.9576 17.4663 10.8219 17.6313 10.8219H22.3434H22.5139V10.6514V2.16972C22.5139 1.81749 22.2266 1.52799 21.8769 1.52799H19.5161Z" fill="white" stroke="white" stroke-width="0.341041"/>
</svg>
