<svg width="26" height="24" viewBox="0 0 26 24" fill="none" xmlns="http://www.w3.org/2000/svg">
<path d="M4.58703 6.65305H4.58709L4.58697 6.64741C4.58682 6.63961 4.58636 6.63225 4.58571 6.62539C4.58947 5.13575 4.98956 3.78695 5.63169 2.7779C4.99377 3.81781 4.65024 5.14693 4.60674 6.34091L4.59578 6.64176H4.89684H13.9688C14.3666 6.64176 14.7552 6.50408 15.0648 6.25329C15.0648 6.25328 15.0648 6.25328 15.0648 6.25327L15.0648 6.25326L15.0648 6.25322L15.065 6.25313L15.065 6.25307L15.0667 6.25169L15.0668 6.25166L15.0706 6.24854L15.1018 6.22316L15.2315 6.11778L15.6549 5.7736L16.321 5.23222L16.3211 5.23213C16.6321 4.97908 17.0251 4.8392 17.4263 4.8392H19.1301C19.7386 4.8392 20.2949 4.52465 20.6174 4.00344L20.6175 4.00326C20.91 3.52962 21.4232 2.84033 22.2026 2.24067L22.2091 2.23566L22.214 2.23144C22.2146 2.23096 22.2152 2.23047 22.2159 2.22997C22.5965 1.93914 23.0039 1.69602 23.4361 1.50076L23.3166 0.945923L8.5115 0.946309C8.51149 0.946309 8.51149 0.946309 8.51149 0.946309C8.24287 0.946309 7.98821 0.981198 7.74758 1.04596C7.99604 0.973734 8.25149 0.936284 8.51111 0.936284H25.6613C25.6633 0.937362 25.6657 0.938932 25.6684 0.941045L25.3254 0.985733C24.2674 1.12358 23.3088 1.48344 22.4718 2.06068L22.2252 2.2307L22.4028 2.47182C22.6659 2.82896 22.8953 3.22699 23.0792 3.66404L23.1947 3.93838L23.466 3.81608C25.1609 3.05226 25.5683 1.91555 25.6505 1.31282L25.677 1.11869C25.675 1.15821 25.6714 1.20349 25.6657 1.25378C25.6438 1.44411 25.5897 1.70473 25.4619 1.99645C25.2094 2.57309 24.6581 3.29727 23.4358 3.83852L23.1959 3.94472L23.2774 4.19407C23.5241 4.94965 23.6569 5.78512 23.6569 6.64813C23.6569 8.11642 23.2715 9.44904 22.6482 10.4557C23.273 9.4413 23.6473 8.10304 23.6473 6.64813C23.6473 5.06745 23.1998 3.57195 22.4007 2.48441L22.2165 2.23371L21.9792 2.43481C21.3771 2.94492 20.9577 3.49176 20.6904 3.90736L20.5815 4.0765L20.6019 4.10384L20.3526 4.34836C20.0277 4.66699 19.5946 4.84886 19.1301 4.84886H18.6239H18.4229L18.3522 5.03707C18.1693 5.5241 18.0694 6.07257 18.0694 6.64429C18.0694 7.51301 18.2876 8.24668 18.5894 8.77146C18.74 9.03328 18.9154 9.24999 19.102 9.40465C19.2844 9.55576 19.5023 9.66743 19.7323 9.66743C19.9622 9.66743 20.1801 9.55576 20.3625 9.40465C20.5491 9.24999 20.7245 9.03328 20.8751 8.77146C21.1769 8.24668 21.3951 7.51301 21.3951 6.64429C21.3951 5.68053 21.123 4.90773 20.801 4.4001L20.6772 4.20498L20.7017 4.2378C21.1348 4.81933 21.4048 5.69713 21.4048 6.64429C21.4048 7.48283 21.1868 8.26166 20.8558 8.82205C20.5179 9.39419 20.1044 9.67708 19.7323 9.67708C19.3601 9.67708 18.9467 9.39419 18.6087 8.82205C18.2777 8.26166 18.0597 7.48283 18.0597 6.64429C18.0597 6.14473 18.1339 5.66256 18.2719 5.22678L18.3916 4.84885H17.9951H17.4263C17.0268 4.84885 16.637 4.98753 16.3274 5.23944L15.9802 5.52161L15.8889 5.5958L15.875 5.71262C15.8389 6.01576 15.8176 6.32888 15.8176 6.64813C15.8176 8.18869 16.2371 9.59846 16.9295 10.6315C17.6205 11.6624 18.6062 12.3457 19.7323 12.3457C20.5376 12.3457 21.2712 11.9962 21.8766 11.42C21.2495 12.0197 20.5096 12.3554 19.7323 12.3554H12.6177H12.3274V12.6457V19.5908C12.3274 20.1537 11.869 20.612 11.3066 20.612H9.5759C9.01304 20.612 8.55471 20.1536 8.55471 19.5908V19.0847V18.7944H8.26442H4.85258H4.56229V19.0847V21.5474C4.56229 22.1103 4.10395 22.5686 3.5411 22.5686H1.37733H1.08705L1.08704 22.8589L1.08704 23.1889C1.08704 23.1915 1.08482 23.1937 1.08222 23.1937C1.07962 23.1937 1.0774 23.1915 1.0774 23.1889L1.0774 11.4187C1.0774 11.4161 1.07962 11.4138 1.08222 11.4138C1.08482 11.4138 1.08704 11.4161 1.08704 11.4187L1.08704 12.057L1.08704 12.3473H1.37733H3.5411C4.10395 12.3473 4.56229 12.8056 4.56229 13.3685V15.8054V16.0957H4.85258H8.26442H8.55471V15.8054V12.6278V12.3607L8.28846 12.3385C8.11406 12.3241 7.94187 12.2926 7.77279 12.2452C8.01067 12.3109 8.25749 12.3457 8.5115 12.3457H17.9097H18.8461L18.0739 11.8161C16.5456 10.7677 15.808 8.59687 15.808 6.64814C15.808 6.53792 15.813 6.42684 15.8183 6.30815C15.8188 6.29701 15.8193 6.2858 15.8198 6.27452L15.8484 5.62865L15.3467 6.03639L15.0726 6.25914C15.0726 6.25915 15.0726 6.25915 15.0726 6.25916C14.7615 6.51191 14.3688 6.65142 13.9688 6.65142H4.89674H4.59574L4.60665 6.95223C4.65596 8.31207 5.03162 9.55602 5.63063 10.5067C4.98751 9.49668 4.58792 8.14581 4.58703 6.65305ZM15.0651 6.24966L14.8837 6.02638L14.9817 5.94675C15.0392 6.01323 15.0787 6.1098 15.0651 6.24966ZM1.08704 22.2687V22.559H1.37733H3.5411C4.09913 22.559 4.55264 22.1054 4.55264 21.5474V13.3685C4.55264 12.8104 4.09913 12.3569 3.5411 12.3569H1.37733H1.08704V12.6472V22.2687ZM4.56229 18.4945V18.7848H4.85258H8.26442H8.55471V18.4945V16.3957V16.1054H8.26442H4.85258H4.56229V16.3957V18.4945ZM8.85464 12.3569H8.56435V12.6472V12.6613V12.6754V12.6895V12.7036V12.7177V12.7318V12.7458V12.7599V12.774V12.788V12.802V12.8161V12.8301V12.8441V12.8581V12.8721V12.8861V12.9001V12.9141V12.9281V12.942V12.956V12.9699V12.9839V12.9978V13.0118V13.0257V13.0396V13.0535V13.0674V13.0813V13.0952V13.1091V13.123V13.1369V13.1507V13.1646V13.1784V13.1923V13.2061V13.22V13.2338V13.2476V13.2614V13.2752V13.289V13.3028V13.3166V13.3304V13.3442V13.3579V13.3717V13.3855V13.3992V13.413V13.4267V13.4404V13.4542V13.4679V13.4816V13.4953V13.509V13.5227V13.5364V13.5501V13.5638V13.5775V13.5911V13.6048V13.6185V13.6321V13.6458V13.6594V13.6731V13.6867V13.7003V13.714V13.7276V13.7412V13.7548V13.7684V13.782V13.7956V13.8092V13.8228V13.8363V13.8499V13.8635V13.877V13.8906V13.9042V13.9177V13.9312V13.9448V13.9583V13.9719V13.9854V13.9989V14.0124V14.0259V14.0394V14.0529V14.0664V14.0799V14.0934V14.1069V14.1204V14.1339V14.1473V14.1608V14.1743V14.1877V14.2012V14.2147V14.2281V14.2415V14.255V14.2684V14.2819V14.2953V14.3087V14.3221V14.3356V14.349V14.3624V14.3758V14.3892V14.4026V14.416V14.4294V14.4428V14.4562V14.4695V14.4829V14.4963V14.5097V14.523V14.5364V14.5498V14.5631V14.5765V14.5898V14.6032V14.6165V14.6299V14.6432V14.6565V14.6699V14.6832V14.6965V14.7099V14.7232V14.7365V14.7498V14.7631V14.7765V14.7898V14.8031V14.8164V14.8297V14.843V14.8563V14.8696V14.8829V14.8961V14.9094V14.9227V14.936V14.9493V14.9626V14.9758V14.9891V15.0024V15.0157V15.0289V15.0422V15.0554V15.0687V15.082V15.0952V15.1085V15.1217V15.135V15.1482V15.1615V15.1747V15.188V15.2012V15.2145V15.2277V15.2409V15.2542V15.2674V15.2807V15.2939V15.3071V15.3203V15.3336V15.3468V15.36V15.3733V15.3865V15.3997V15.4129V15.4261V15.4394V15.4526V15.4658V15.479V15.4922V15.5054V15.5187V15.5319V15.5451V15.5583V15.5715V15.5847V15.5979V15.6111V15.6243V15.6375V15.6508V15.664V15.6772V15.6904V15.7036V15.7168V15.73V15.7432V15.7564V15.7696V15.7828V15.796V15.8092V15.8224V15.8356V15.8488V15.862V15.8752V15.8884V15.9016V15.9148V15.928V15.9412V15.9544V15.9676V15.9808V15.994V16.0073V16.0205V16.0337V16.0469V16.0601V16.0733V16.0865V16.0997V16.1129V16.1261V16.1393V16.1525V16.1657V16.179V16.1922V16.2054V16.2186V16.2318V16.245V16.2582V16.2715V16.2847V16.2979V16.3111V16.3243V16.3376V16.3508V16.364V16.3772V16.3905V16.4037V16.4169V16.4302V16.4434V16.4566V16.4699V16.4831V16.4963V16.5096V16.5228V16.5361V16.5493V16.5626V16.5758V16.5891V16.6023V16.6156V16.6288V16.6421V16.6553V16.6686V16.6819V16.6951V16.7084V16.7217V16.7349V16.7482V16.7615V16.7748V16.7881V16.8013V16.8146V16.8279V16.8412V16.8545V16.8678V16.8811V16.8944V16.9077V16.921V16.9343V16.9476V16.9609V16.9743V16.9876V17.0009V17.0142V17.0275V17.0409V17.0542V17.0675V17.0809V17.0942V17.1076V17.1209V17.1343V17.1476V17.161V17.1743V17.1877V17.2011V17.2144V17.2278V17.2412V17.2546V17.2679V17.2813V17.2947V17.3081V17.3215V17.3349V17.3483V17.3617V17.3751V17.3886V17.402V17.4154V17.4288V17.4423V17.4557V17.4691V17.4826V17.496V17.5095V17.5229V17.5364V17.5498V17.5633V17.5768V17.5903V17.6037V17.6172V17.6307V17.6442V17.6577V17.6712V17.6847V17.6982V17.7117V17.7252V17.7388V17.7523V17.7658V17.7794V17.7929V17.8064V17.82V17.8336V17.8471V17.8607V17.8743V17.8878V17.9014V17.915V17.9286V17.9422V17.9558V17.9694V17.983V17.9966V18.0102V18.0239V18.0375V18.0511V18.0648V18.0784V18.0921V18.1057V18.1194V18.1331V18.1467V18.1604V18.1741V18.1878V18.2015V18.2152V18.2289V18.2426V18.2563V18.27V18.2838V18.2975V18.3113V18.325V18.3388V18.3525V18.3663V18.3801V18.3938V18.4076V18.4214V18.4352V18.449V18.4628V18.4766V18.4905V18.5043V18.5181V18.532V18.5458V18.5597V18.5735V18.5874V18.6013V18.6152V18.629V18.6429V18.6568V18.6708V18.6847V18.6986V18.7125V18.7265V18.7404V18.7543V18.7683V18.7823V18.7962V18.8102V18.8242V18.8382V18.8522V18.8662V18.8802V18.8942V18.9082V18.9223V18.9363V18.9504V18.9644V18.9785V18.9926V19.0066V19.0207V19.0348V19.0489V19.063V19.0772V19.0913V19.1054V19.1196V19.1337V19.1479V19.162V19.1762V19.1904V19.2046V19.2188V19.233V19.2472V19.2614V19.2756V19.2899V19.3041V19.3184V19.3326V19.3469V19.3612V19.3755V19.3897V19.404V19.4184V19.4327V19.447V19.4613V19.4757V19.49V19.5044V19.5188V19.5332V19.5475V19.5619V19.5764V19.5908C8.56435 20.1488 9.01786 20.6023 9.57589 20.6023H11.3066C11.8643 20.6023 12.3178 20.1487 12.3178 19.5908V12.6472V12.3569H12.0275H8.85464ZM12.8874 2.43758H15.8113C15.8139 2.43758 15.8161 2.4398 15.8161 2.44241C15.8161 2.44501 15.8139 2.44723 15.8113 2.44723H12.8874C12.8848 2.44723 12.8826 2.44501 12.8826 2.44241C12.8826 2.4398 12.8848 2.43758 12.8874 2.43758ZM11.4311 2.43758H11.5679C11.5705 2.43758 11.5727 2.4398 11.5727 2.44241C11.5727 2.44501 11.5705 2.44723 11.5679 2.44723H11.4311C11.4285 2.44723 11.4263 2.44501 11.4263 2.44241C11.4263 2.4398 11.4285 2.43758 11.4311 2.43758Z" fill="white" stroke="white" stroke-width="0.580576"/>
</svg>
