<svg width="19" height="26" viewBox="0 0 19 26" fill="none" xmlns="http://www.w3.org/2000/svg">
<path d="M5.837 18.601V18.351H5.587H3.74159C2.82903 18.351 1.95385 17.9885 1.30857 17.3432C0.663294 16.698 0.300781 15.8228 0.300781 14.9102V1.06968C0.300781 0.891264 0.371655 0.720159 0.497812 0.594003C0.623968 0.467846 0.795073 0.396973 0.973485 0.396973H17.5821C17.7606 0.396973 17.9317 0.467847 18.0578 0.594003C18.184 0.720159 18.2548 0.891263 18.2548 1.06968V14.9102C18.2548 15.8228 17.8923 16.698 17.2471 17.3432C16.6018 17.9885 15.7266 18.351 14.814 18.351H12.9686H12.7186V18.601V22.2919C12.7186 23.2044 12.3561 24.0796 11.7108 24.7249C11.0656 25.3702 10.1904 25.7327 9.27781 25.7327C8.36525 25.7327 7.49007 25.3702 6.84479 24.7249C6.19951 24.0796 5.837 23.2044 5.837 22.2919V18.601ZM1.64619 11.2194V11.4694H1.89619H16.6594H16.9094V11.2194V1.99238V1.74238H16.6594H14.814H14.564V1.99238V6.6059C14.564 6.78431 14.4932 6.95541 14.367 7.08157C14.2408 7.20773 14.0697 7.2786 13.8913 7.2786C13.7129 7.2786 13.5418 7.20773 13.4157 7.08157C13.2895 6.95541 13.2186 6.78431 13.2186 6.6059V1.99238V1.74238H12.9686H11.1232H10.8732V1.99238V4.76049C10.8732 4.9389 10.8023 5.11001 10.6762 5.23616C10.55 5.36232 10.3789 5.43319 10.2005 5.43319C10.0221 5.43319 9.851 5.36232 9.72484 5.23616C9.59869 5.11001 9.52781 4.9389 9.52781 4.76049V1.99238V1.74238H9.27781H1.89619H1.64619V1.99238V11.2194ZM1.89619 12.8148H1.64619V13.0648V14.9102C1.64619 15.466 1.86695 15.9989 2.25992 16.3919C2.65288 16.7849 3.18586 17.0056 3.74159 17.0056H6.5097C6.68812 17.0056 6.85922 17.0765 6.98538 17.2027C7.11153 17.3288 7.18241 17.4999 7.18241 17.6783V22.2919C7.18241 22.8476 7.40317 23.3806 7.79614 23.7735C8.1891 24.1665 8.72208 24.3873 9.27781 24.3873C9.83355 24.3873 10.3665 24.1665 10.7595 23.7735C11.1525 23.3806 11.3732 22.8476 11.3732 22.2919V17.6783C11.3732 17.4999 11.4441 17.3288 11.5703 17.2027C11.6964 17.0765 11.8675 17.0056 12.0459 17.0056H14.814C15.3698 17.0056 15.9027 16.7849 16.2957 16.3919C16.6887 15.9989 16.9094 15.466 16.9094 14.9102V13.0648V12.8148H16.6594H1.89619Z" fill="white" stroke="white" stroke-width="0.5"/>
</svg>
