<svg width="343" height="114" viewBox="0 0 343 114" fill="none" xmlns="http://www.w3.org/2000/svg">
<path d="M14.0604 43.4929C14.0604 46.6211 14.5677 49.3683 15.582 51.7354C16.5968 54.0181 17.8647 56.089 19.3864 57.9488C20.9925 59.8085 22.6834 61.5839 24.4587 63.2748C26.234 64.9652 27.8825 66.783 29.4042 68.7271C31.0102 70.5869 32.3206 72.7427 33.3349 75.1943C34.3492 77.5614 34.8565 80.4359 34.8565 83.8172V95.3562C34.8565 98.1462 34.3916 100.513 33.4618 102.458C32.5319 104.402 31.2639 105.966 29.6574 107.149C28.0513 108.333 26.1492 109.178 23.9513 109.685C21.8379 110.277 19.5132 110.531 16.9768 110.446C11.905 110.362 7.93138 109.22 5.05736 107.022C2.18289 104.825 0.746094 100.936 0.746094 95.3562V82.1687H12.7924V91.045C12.7924 92.1441 12.8349 93.2008 12.9193 94.2151C13.0037 95.145 13.173 95.9904 13.4266 96.751C13.7647 97.512 14.2297 98.1038 14.8215 98.5263C15.4132 98.9493 16.1738 99.1605 17.1037 99.1605C18.0336 99.1605 18.7946 98.9493 19.3864 98.5263C19.9782 98.0194 20.4007 97.3852 20.6544 96.6246C20.9925 95.8636 21.2037 95.0181 21.2886 94.0882C21.373 93.074 21.4154 92.0592 21.4154 91.045V87.241C21.4154 84.0285 20.908 81.3657 19.8938 79.2523C18.9634 77.054 17.7803 75.1099 16.3431 73.4189C14.9059 71.6436 13.3418 69.9951 11.6513 68.4735C10.0448 66.8674 8.52316 65.0501 7.08637 63.0211C5.64914 60.9077 4.42316 58.4561 3.40888 55.6665C2.47901 52.8765 2.01407 49.4107 2.01407 45.2683V34.4899C2.01407 28.9107 3.49328 24.9795 6.45217 22.6972C9.41105 20.3301 13.4266 19.231 18.4985 19.4002C23.5708 19.4847 27.544 20.6258 30.4184 22.8236C33.3773 25.0219 34.8565 28.9107 34.8565 34.4899V49.4531H22.6834V38.8011C22.6834 36.6033 22.4297 34.7436 21.9223 33.2219C21.4998 31.6158 20.3163 30.8124 18.3721 30.8124C16.4275 30.8124 15.202 31.6158 14.6946 33.2219C14.2716 34.828 14.0604 36.6877 14.0604 38.8011V43.4929Z" fill="#26211F"/>
<path d="M72.3676 109.178H59.6871L56.517 34.7436H55.5027L51.952 109.178H39.2715L45.4849 20.4146H66.788L72.3676 109.178ZM65.9005 97.5121H47.2602V84.5779H65.9005V97.5121Z" fill="#26211F"/>
<path d="M78.6855 109.178V20.4146H91.4929L99.3549 83.5636H100.242L99.1012 20.4146H111.782V109.178H99.1012V109.052L90.9856 45.7756H90.0981L91.3661 109.178H78.6855Z" fill="#26211F"/>
<path d="M141.611 20.4146C142.625 20.4146 143.767 20.5414 145.035 20.7951C146.303 21.0488 147.486 21.5557 148.585 22.3167C149.684 23.0773 150.614 24.1765 151.375 25.6137C152.136 26.9661 152.516 28.7414 152.516 30.9393L152.389 96.8779C152.389 100.682 151.164 103.683 148.712 105.881C146.26 108.079 142.498 109.178 137.426 109.178H119.42V20.4146H141.611ZM132.1 97.3852C135.144 98.3995 137.215 98.3575 138.314 97.2584C139.497 96.1597 140.089 94.1727 140.089 91.2987V36.3921C140.089 35.8003 140.005 35.1661 139.836 34.4899C139.667 33.7293 139.286 33.0951 138.694 32.5877C138.187 31.996 137.384 31.6579 136.285 31.5735C135.271 31.4042 133.876 31.6159 132.1 32.2072V97.3852Z" fill="#26211F"/>
<path d="M160.162 20.4146H172.843V109.305H160.162V20.4146ZM160.162 20.4146H171.575V109.305H160.162V20.4146Z" fill="#26211F"/>
<path d="M230.653 88.3821C230.653 91.1717 230.441 93.4964 230.016 95.3561C229.68 97.1315 229.128 98.5687 228.368 99.6679C227.608 100.767 226.679 101.612 225.579 102.204C224.563 102.711 223.382 103.134 222.03 103.472L218.605 100.682L217.845 100.936C217.845 104.148 217.085 106.346 215.56 107.53C214.04 108.628 211.631 109.178 208.334 109.178C207.317 109.178 206.177 109.009 204.909 108.671C203.724 108.333 202.584 107.572 201.488 106.388C200.388 105.205 199.455 103.514 198.695 101.316C197.935 99.0337 197.555 95.9904 197.555 92.186V34.363C197.555 28.7837 199.035 24.8526 201.992 22.5703C204.953 20.2876 208.966 19.1465 214.04 19.1465C219.113 19.1465 223.126 20.2876 226.087 22.5703C229.128 24.8526 230.653 28.7837 230.653 34.363V88.3821ZM214.04 30.5591C212.179 30.5591 210.995 31.4041 210.491 33.095C210.066 34.7011 209.854 36.5608 209.854 38.6742V90.0306C209.854 92.7358 210.066 94.8492 210.491 96.3709C210.911 97.8081 212.095 98.5687 214.04 98.6531C215.984 98.5687 217.169 97.8081 217.588 96.3709C218.097 94.8492 218.353 92.7358 218.353 90.0306V38.6742C218.353 37.5755 218.309 36.5608 218.225 35.6309C218.141 34.6166 217.929 33.7292 217.588 32.9681C217.337 32.2071 216.912 31.6158 216.324 31.1928C215.732 30.7703 214.968 30.5591 214.04 30.5591ZM218.605 100.682L227.608 100.555L232.933 108.29L222.03 113.236L218.605 100.682Z" fill="#26211F"/>
<path d="M271.117 109.178H258.437L255.268 34.7436H254.252L250.703 109.178H238.023L244.237 20.4146H265.539L271.117 109.178ZM264.651 97.5121H246.01V84.5779H264.651V97.5121Z" fill="#26211F"/>
<path d="M290.115 20.4146V109.178H277.436V20.4146H290.115ZM277.436 109.178V100.809L302.543 96.2441L306.6 109.178H277.436Z" fill="#26211F"/>
<path d="M342.203 109.178H329.519L326.351 34.7436H325.334L321.785 109.178H309.105L315.319 20.4146H336.622L342.203 109.178ZM335.733 97.5121H317.096V84.5779H335.733V97.5121Z" fill="#26211F"/>
<path d="M41.8359 0.318359H54.4997V13.3114H41.8359V0.318359Z" fill="#26211F"/>
<path d="M58.3047 0.318359H70.9684V13.3114H58.3047V0.318359Z" fill="#26211F"/>
</svg>
