<svg width="223" height="96" viewBox="0 0 223 96" fill="none" xmlns="http://www.w3.org/2000/svg">
<path d="M24.2944 34.5146C24.2944 41.3524 38.0442 39.42 38.0442 32.3592V60.156C38.0442 69.7435 28.6051 71.3788 26.8214 71.3788C25.0377 71.3788 14.8555 70.3382 14.8555 60.156V52.7981L21.8015 46.254V57.4768C21.8015 60.156 23.2712 62.014 25.3523 62.014C27.8991 62.014 28.6051 59.3384 28.6051 57.852V45.8117C28.6051 38.974 14.8555 40.9064 14.8555 47.9671V20.1704C14.8555 10.5828 24.2944 8.94775 26.0781 8.94775C27.862 8.94775 38.0442 9.98817 38.0442 20.1704V27.5284L31.0979 34.0723V22.8495C31.0979 20.1704 29.6282 18.3123 27.5472 18.3123C25.0006 18.3123 24.2944 20.988 24.2944 22.4744V34.5146Z" fill="#AC714E"/>
<path fill-rule="evenodd" clip-rule="evenodd" d="M24.0448 0.673828C11.078 0.673828 0.566406 11.1854 0.566406 24.152V56.3695C0.566406 69.3362 11.078 79.8481 24.0448 79.8481H26.2109C26.0157 79.9613 25.8347 80.0272 25.6558 80.0272C38.2783 80.0272 42.1906 90.3943 42.5691 95.5789H52.331C51.8031 90.7567 48.1794 80.2784 38.9884 77.5029C46.8238 73.698 52.2254 65.6646 52.2254 56.3695V24.152C52.2254 11.1854 41.7137 0.673828 28.747 0.673828H24.0448ZM26.3958 5.9039C17.3465 5.9039 10.0106 13.2399 10.0106 22.2892V58.2324C10.0106 67.2818 17.3465 74.6178 26.3958 74.6178C35.4453 74.6178 42.7811 67.2818 42.7811 58.2324V22.2892C42.7811 13.2399 35.4453 5.9039 26.3958 5.9039Z" fill="#AC714E"/>
<path d="M69.8924 32.1757C69.8924 33.6328 70.1288 34.9127 70.6013 36.0155C71.0741 37.079 71.6648 38.0438 72.3737 38.9103C73.122 39.7769 73.9097 40.6038 74.7368 41.3916C75.5639 42.1793 76.3317 43.026 77.0409 43.932C77.7891 44.7984 78.3996 45.8026 78.8721 46.9447C79.3447 48.0475 79.581 49.3867 79.581 50.962V56.3381C79.581 57.6377 79.3644 58.7405 78.9312 59.6463C78.498 60.5522 77.9073 61.2807 77.1588 61.8321C76.4106 62.3835 75.5244 62.7774 74.5005 63.0138C73.5158 63.2893 72.4328 63.4075 71.2511 63.3681C68.8882 63.3288 67.037 62.797 65.698 61.773C64.3588 60.7491 63.6895 58.9374 63.6895 56.3381V50.194H69.3017V54.3293C69.3017 54.8414 69.3214 55.3337 69.3608 55.8062C69.4001 56.2394 69.4789 56.6333 69.5971 56.9879C69.7547 57.3422 69.9713 57.618 70.247 57.815C70.5227 58.0118 70.877 58.1103 71.3102 58.1103C71.7434 58.1103 72.098 58.0118 72.3737 57.815C72.6494 57.5786 72.8462 57.2832 72.9644 56.9288C73.1219 56.5742 73.2204 56.1806 73.2599 55.7471C73.2992 55.2746 73.319 54.8021 73.319 54.3293V52.5571C73.319 51.0604 73.0826 49.8199 72.6101 48.8353C72.1767 47.8113 71.6255 46.9054 70.9559 46.1178C70.2863 45.2907 69.5576 44.5227 68.77 43.8138C68.0216 43.0653 67.3127 42.2187 66.6433 41.2734C65.9737 40.2888 65.4025 39.1466 64.93 37.847C64.4968 36.5473 64.2802 34.9325 64.2802 33.0026V27.9811C64.2802 25.3818 64.9693 23.5503 66.3478 22.487C67.7263 21.3842 69.5971 20.8721 71.9601 20.951C74.3232 20.9903 76.1742 21.522 77.5134 22.5461C78.8919 23.5701 79.581 25.3818 79.581 27.9811V34.9522H73.9097V29.9898C73.9097 28.9657 73.7915 28.0992 73.5552 27.3903C73.3583 26.6421 72.8069 26.268 71.9012 26.268C70.9952 26.268 70.4242 26.6421 70.1879 27.3903C69.9908 28.1386 69.8924 29.0052 69.8924 29.9898V32.1757Z" fill="white"/>
<path d="M97.0577 62.7769H91.15L89.6731 28.0988H89.2006L87.5464 62.7769H81.6387L84.5334 21.4231H94.4582L97.0577 62.7769ZM94.0448 57.3418H85.3605V51.3159H94.0448V57.3418Z" fill="white"/>
<path d="M99.998 62.7769V21.4231H105.965L109.628 50.8434H110.041L109.509 21.4231H115.417V62.7769H109.509V62.7179L105.728 33.2385H105.315L105.906 62.7769H99.998Z" fill="white"/>
<path d="M129.317 21.4231C129.79 21.4231 130.321 21.4822 130.912 21.6004C131.503 21.7186 132.054 21.9547 132.566 22.3093C133.078 22.6639 133.511 23.1757 133.866 23.8453C134.22 24.4754 134.398 25.3025 134.398 26.3266L134.338 57.0465C134.338 58.8187 133.768 60.217 132.625 61.2409C131.483 62.2649 129.731 62.7769 127.368 62.7769H118.979V21.4231H129.317ZM124.886 57.2827C126.304 57.7555 127.269 57.7357 127.781 57.2236C128.332 56.7117 128.608 55.7862 128.608 54.447V28.8668C128.608 28.5911 128.569 28.2958 128.49 27.9806C128.411 27.6263 128.234 27.3308 127.958 27.0944C127.722 26.8189 127.348 26.6612 126.836 26.6219C126.363 26.5432 125.713 26.6416 124.886 26.9173V57.2827Z" fill="white"/>
<path d="M137.959 21.4231H143.867V62.836H137.959V21.4231ZM137.959 21.4231H143.276V62.836H137.959V21.4231Z" fill="white"/>
<path d="M170.803 53.0887C170.803 54.3883 170.704 55.4714 170.506 56.338C170.35 57.1649 170.092 57.8345 169.738 58.3466C169.384 58.8586 168.95 59.2523 168.439 59.528C167.965 59.7644 167.416 59.9612 166.784 60.1188L165.19 58.8191L164.836 58.9373C164.836 60.434 164.479 61.4579 163.771 62.0093C163.063 62.5214 161.941 62.7773 160.405 62.7773C159.931 62.7773 159.4 62.6985 158.809 62.541C158.257 62.3835 157.726 62.0291 157.213 61.4777C156.703 60.9263 156.268 60.1385 155.914 59.1146C155.56 58.0511 155.383 56.6333 155.383 54.8611V27.9219C155.383 25.3226 156.073 23.4911 157.45 22.4279C158.83 21.3644 160.699 20.8328 163.063 20.8328C165.427 20.8328 167.296 21.3644 168.676 22.4279C170.092 23.4911 170.803 25.3226 170.803 27.9219V53.0887ZM163.063 26.1497C162.196 26.1497 161.644 26.5436 161.407 27.3312C161.212 28.0794 161.113 28.9461 161.113 29.9307V53.8567C161.113 55.117 161.212 56.1016 161.407 56.8105C161.605 57.4801 162.157 57.8345 163.063 57.874C163.969 57.8345 164.521 57.4801 164.716 56.8105C164.953 56.1016 165.07 55.117 165.07 53.8567V29.9307C165.07 29.4186 165.052 28.9461 165.013 28.5128C164.974 28.0401 164.875 27.6266 164.716 27.2721C164.599 26.9177 164.401 26.642 164.125 26.445C163.849 26.2481 163.495 26.1497 163.063 26.1497ZM165.19 58.8191L169.384 58.76L171.865 62.3637L166.784 64.6677L165.19 58.8191Z" fill="white"/>
<path d="M189.654 62.7769H183.747L182.271 28.0988H181.797L180.144 62.7769H174.236L177.129 21.4231H187.056L189.654 62.7769ZM186.642 57.3418H177.957V51.3159H186.642V57.3418Z" fill="white"/>
<path d="M198.503 21.4231V62.7769H192.594V21.4231H198.503ZM192.594 62.7769V58.8778L204.291 56.7511L206.183 62.7769H192.594Z" fill="white"/>
<path d="M222.767 62.7769H216.86L215.384 28.0988H214.91L213.257 62.7769H207.35L210.245 21.4231H220.169L222.767 62.7769ZM219.755 57.3418H211.07V51.3159H219.755V57.3418Z" fill="white"/>
<path d="M153.702 74.2965H152.827L150.638 71.5209V74.2965H149.87V71.5209L147.681 74.2965H146.814L149.127 71.3394L146.897 68.5156H147.764L149.87 71.1654V68.5156H150.638V71.1654L152.744 68.5156H153.619L151.379 71.3394L153.7 74.2965H153.702Z" fill="white"/>
<path d="M158.05 74.2965V69.9856L155.079 74.2965H154.459V68.5156H155.227V72.8344L158.2 68.5156H158.82V74.2965H158.05Z" fill="white"/>
<path d="M159.549 73.6056C159.734 73.6332 159.901 73.6233 160.045 73.5729C160.189 73.5224 160.307 73.4292 160.405 73.2879C160.502 73.1467 160.574 72.9552 160.619 72.7106C160.669 72.466 160.692 72.161 160.692 71.798V68.5205H164.505V74.3014H163.737V69.2467H161.458V71.798C161.458 72.3274 161.406 72.7585 161.309 73.0989C161.21 73.4366 161.075 73.6989 160.906 73.883C160.733 74.0668 160.535 74.1904 160.302 74.2509C160.07 74.3115 159.821 74.3292 159.551 74.3014V73.6081L159.549 73.6056Z" fill="white"/>
<path d="M165.441 71.4055C165.441 70.5685 165.73 69.8626 166.308 69.2828C166.885 68.7003 167.593 68.408 168.431 68.408C169.267 68.408 169.973 68.7003 170.554 69.2828C171.137 69.8602 171.429 70.5685 171.429 71.4055C171.429 72.2424 171.137 72.9433 170.554 73.5283C169.975 74.1106 169.267 74.4032 168.431 74.4032C167.593 74.4032 166.885 74.1106 166.308 73.5283C165.73 72.946 165.441 72.2375 165.441 71.4055ZM170.659 71.4106C170.659 70.7703 170.445 70.2357 170.017 69.8046C169.599 69.3685 169.071 69.1517 168.433 69.1517C167.795 69.1517 167.27 69.3685 166.842 69.8046C166.419 70.2409 166.207 70.7752 166.207 71.4106C166.207 72.0458 166.419 72.5754 166.842 73.0164C167.27 73.4476 167.801 73.6619 168.433 73.6619C169.065 73.6619 169.592 73.4476 170.017 73.0164C170.445 72.5803 170.659 72.0458 170.659 71.4106Z" fill="white"/>
<path d="M175.943 74.2976V69.9867L172.969 74.2976H172.35V68.5168H173.12V72.8355L176.091 68.5168H176.711V74.2976H175.943ZM173.416 67.8993V67.2715H175.644V67.8993H173.416Z" fill="white"/>
<path d="M184.214 74.2965H183.273L180.78 71.5209V74.2965H180.012V68.5156H180.78V71.125L183.191 68.5156H184.13L181.579 71.3243L184.214 74.2965Z" fill="white"/>
<path d="M184.1 71.4055C184.1 70.5685 184.39 69.8626 184.966 69.2828C185.543 68.7003 186.253 68.408 187.089 68.408C187.927 68.408 188.631 68.7003 189.212 69.2828C189.795 69.8602 190.087 70.5685 190.087 71.4055C190.087 72.2424 189.795 72.9433 189.212 73.5283C188.636 74.1106 187.927 74.4032 187.089 74.4032C186.253 74.4032 185.543 74.1106 184.966 73.5283C184.39 72.946 184.1 72.2375 184.1 71.4055ZM189.317 71.4106C189.317 70.7703 189.103 70.2357 188.675 69.8046C188.257 69.3685 187.73 69.1517 187.091 69.1517C186.453 69.1517 185.93 69.3685 185.502 69.8046C185.078 70.2409 184.866 70.7752 184.866 71.4106C184.866 72.0458 185.078 72.5754 185.502 73.0164C185.93 73.4476 186.459 73.6619 187.091 73.6619C187.726 73.6619 188.251 73.4476 188.675 73.0164C189.103 72.5803 189.317 72.0458 189.317 71.4106Z" fill="white"/>
<path d="M196.427 68.5174V74.2982H195.657V69.7804L193.767 72.9267H193.668L191.778 69.788V74.2957H191.008V68.5149H191.877L193.722 71.5702L195.556 68.5149H196.425L196.427 68.5174Z" fill="white"/>
<path d="M201.857 68.5156V74.2965H201.086V69.2418H198.428V74.2965H197.658V68.5156H201.857Z" fill="white"/>
<path d="M202.584 73.6056C202.77 73.6332 202.936 73.6233 203.078 73.5729C203.218 73.5224 203.34 73.4292 203.437 73.2879C203.531 73.1467 203.606 72.9552 203.651 72.7106C203.696 72.466 203.721 72.161 203.721 71.798V68.5205H207.536V74.3014H206.766V69.2467H204.487V71.798C204.487 72.3274 204.437 72.7585 204.339 73.0989C204.24 73.4366 204.104 73.6989 203.933 73.883C203.762 74.0668 203.562 74.1904 203.33 74.2509C203.099 74.3115 202.848 74.3292 202.578 74.3014V73.6081L202.584 73.6056Z" fill="white"/>
<path d="M209.545 73.5705H212.23V74.2965H208.779V68.5156H212.189V69.2418H209.547V71.0167H211.983V71.7351H209.547V73.568L209.545 73.5705Z" fill="white"/>
<path d="M217.363 74.2965H216.422L213.928 71.5209V74.2965H213.158V68.5156H213.928V71.125L216.337 68.5156H217.278L214.727 71.3243L217.363 74.2965Z" fill="white"/>
<path d="M220.273 74.4032C219.394 74.4032 218.667 74.1133 218.103 73.5359C217.53 72.9635 217.242 72.2525 217.242 71.4055C217.242 70.5584 217.528 69.8476 218.103 69.2752C218.669 68.6979 219.394 68.408 220.273 68.408C220.539 68.408 220.792 68.4407 221.037 68.5064C221.282 68.5719 221.511 68.6651 221.729 68.7862C221.943 68.9071 222.139 69.0535 222.316 69.2272C222.493 69.4012 222.643 69.5954 222.769 69.8097L222.101 70.1981C221.935 69.8779 221.69 69.6232 221.362 69.4342C221.035 69.2449 220.675 69.1492 220.275 69.1492C219.606 69.1492 219.058 69.3635 218.64 69.7945C218.22 70.2207 218.012 70.7577 218.012 71.4081C218.012 72.0586 218.22 72.5879 218.64 73.0139C219.058 73.4451 219.602 73.6594 220.275 73.6594C220.673 73.6594 221.035 73.5635 221.362 73.3745C221.69 73.1855 221.937 72.9332 222.101 72.6182L222.769 72.9989C222.528 73.4274 222.182 73.7702 221.739 74.0274C221.296 74.2771 220.81 74.4032 220.275 74.4032H220.273Z" fill="white"/>
<path d="M67.8694 68.5156V69.2418H66.16V74.2965H65.3912V69.2418H63.6895V68.5156H67.8694Z" fill="white"/>
<path d="M72.9259 68.5156L70.8788 71.9595V72.1586H72.0008V72.8519H70.8788V74.2965H70.11V72.8519H68.988V72.1586H70.11V71.9519L68.0703 68.5156H68.93L70.4981 71.2234L72.0662 68.5156H72.9259Z" fill="white"/>
<path d="M75.714 68.5156C76.2433 68.5156 76.6871 68.6948 77.0476 69.0528C77.4054 69.4107 77.5846 69.8519 77.5846 70.3737C77.5846 70.8956 77.4054 71.3369 77.0476 71.6947C76.6895 72.0528 76.2433 72.2317 75.714 72.2317H74.3802V74.2965H73.6113V68.5156H75.714ZM75.7088 71.5133C76.029 71.5133 76.2911 71.4048 76.5005 71.1907C76.7097 70.9663 76.8156 70.6914 76.8156 70.3737C76.8156 70.21 76.788 70.0562 76.7324 69.9149C76.677 69.7737 76.6012 69.6553 76.5005 69.5569C76.4021 69.4587 76.2837 69.3804 76.1501 69.3225C76.014 69.2645 75.8676 69.2367 75.7088 69.2367H74.3802V71.5158H75.7088V71.5133Z" fill="white"/>
<path d="M78.6169 71.0746V68.5156H81.8614V69.2418H79.3832V71.0746H81.0269V71.768H79.3832V74.294H78.6144V71.768H78.0117V71.0746H78.6169Z" fill="white"/>
<path d="M82.627 74.2965V68.5156H83.3958V70.5804H84.7294C85.2588 70.5804 85.7025 70.7595 86.063 71.1174C86.4211 71.4755 86.6 71.9167 86.6 72.4384C86.6 72.9604 86.4211 73.4091 86.063 73.7671C85.7101 74.12 85.2664 74.2965 84.7294 74.2965H82.627ZM83.3958 73.5781H84.7245C84.8832 73.5781 85.0321 73.5503 85.1655 73.4922C85.2991 73.4344 85.4177 73.3561 85.5159 73.2579C85.6144 73.1595 85.6926 73.0386 85.748 72.8999C85.8034 72.7586 85.8312 72.6075 85.8312 72.4411C85.8312 72.2747 85.8034 72.1234 85.748 71.9822C85.6926 71.8411 85.6168 71.7225 85.5159 71.6243C85.4177 71.5259 85.2991 71.4479 85.1655 71.3898C85.0294 71.3317 84.8832 71.3039 84.7245 71.3039H83.3958V73.583V73.5781ZM87.1773 74.2965V68.5156H87.9464V74.2965H87.1773Z" fill="white"/>
<path d="M92.7629 68.5156H93.5319V74.2965H92.7629V71.6947H89.9544V74.2965H89.1855V68.5156H89.9544V70.9687H92.7629V68.5156Z" fill="white"/>
<path d="M101.121 68.5156L99.0741 71.9595V74.2965H98.3053V71.9519L96.2656 68.5156H97.1255L98.6936 71.2234L100.262 68.5156H101.121Z" fill="white"/>
<path d="M105.403 74.2976V69.9867L102.431 74.2976H101.811V68.5168H102.579V72.8355L105.552 68.5168H106.172V74.2976H105.403ZM102.877 67.8993V67.2715H105.106V67.8993H102.877Z" fill="white"/>
<path d="M113.675 74.2965H112.735L110.242 71.5209V74.2965H109.473V68.5156H110.242V71.125L112.652 68.5156H113.592L111.041 71.3243L113.675 74.2965Z" fill="white"/>
<path d="M115.124 73.5705H117.809V74.2965H114.357V68.5156H117.768V69.2418H115.126V71.0167H117.562V71.7351H115.126V73.568L115.124 73.5705Z" fill="white"/>
<path d="M124.554 68.5156H125.323V74.2965H118.732V68.5156H119.501V73.5705H121.649V68.5156H122.418V73.5705H124.556V68.5156H124.554Z" fill="white"/>
<path d="M127.333 73.5705H130.018V74.2965H126.566V68.5156H129.977V69.2418H127.335V71.0167H129.771V71.7351H127.335V73.568L127.333 73.5705Z" fill="white"/>
<path d="M134.511 68.5156H135.28V74.2965H134.511V71.6947H131.703V74.2965H130.934V68.5156H131.703V70.9687H134.511V68.5156Z" fill="white"/>
<path d="M136.508 68.5156H137.277V74.2965H136.508V68.5156Z" fill="white"/>
<path d="M142.445 67.3921H141.676V75.4193H142.445V67.3921Z" fill="white"/>
</svg>
