<svg width="230" height="92" viewBox="0 0 230 92" fill="none" xmlns="http://www.w3.org/2000/svg">
<path d="M9.89409 29.2358C9.89409 31.33 10.2338 33.1692 10.9128 34.754C11.5921 36.2822 12.441 37.6686 13.4597 38.9137C14.5349 40.1588 15.667 41.3473 16.8555 42.4793C18.0441 43.6111 19.1477 44.828 20.1664 46.1296C21.2416 47.3746 22.1189 48.8179 22.7979 50.4592C23.477 52.0439 23.8166 53.9683 23.8166 56.232V63.9571C23.8166 65.825 23.5054 67.4094 22.8829 68.7113C22.2603 70.0129 21.4114 71.06 20.3359 71.8523C19.2607 72.6447 17.9872 73.2107 16.5158 73.5501C15.101 73.9463 13.5446 74.1161 11.8466 74.0596C8.45109 74.0031 5.79086 73.2388 3.86676 71.7674C1.94237 70.296 0.980469 67.6926 0.980469 63.9571V55.1284H9.04523V61.0708C9.04523 61.8067 9.07363 62.5141 9.13014 63.1932C9.18665 63.8157 9.29998 64.3817 9.46981 64.8909C9.69616 65.4004 10.0074 65.7966 10.4036 66.0795C10.7998 66.3626 11.309 66.504 11.9315 66.504C12.554 66.504 13.0635 66.3626 13.4597 66.0795C13.8559 65.7401 14.1388 65.3155 14.3086 64.8063C14.5349 64.2968 14.6764 63.7308 14.7332 63.1083C14.7897 62.4292 14.8181 61.7499 14.8181 61.0708V58.5242C14.8181 56.3735 14.4784 54.5908 13.7994 53.1759C13.1766 51.7042 12.3845 50.4027 11.4223 49.2706C10.4601 48.0821 9.41299 46.9785 8.28126 45.9597C7.20574 44.8845 6.18704 43.6679 5.22514 42.3095C4.26294 40.8946 3.44218 39.2534 2.76314 37.3858C2.14061 35.5179 1.82935 33.1976 1.82935 30.4244V23.2085C1.82935 19.4733 2.81965 16.8415 4.80055 15.3136C6.78146 13.7288 9.4698 12.993 12.8653 13.1063C16.2611 13.1628 18.921 13.9268 20.8454 15.3982C22.8263 16.8699 23.8166 19.4733 23.8166 23.2085V33.226H15.667V26.0948C15.667 24.6234 15.4971 23.3783 15.1575 22.3596C14.8746 21.2844 14.0823 20.7465 12.7807 20.7465C11.4788 20.7465 10.6583 21.2844 10.3187 22.3596C10.0355 23.4348 9.89409 24.6799 9.89409 26.0948V29.2358Z" fill="white"/>
<path d="M48.9306 73.2106H40.4412L38.3189 23.3783H37.6399L35.2628 73.2106H26.7734L30.9332 13.7853H45.1951L48.9306 73.2106ZM44.601 65.4003H32.1217V56.7412H44.601V65.4003Z" fill="white"/>
<path d="M53.1582 73.2106V13.7853H61.7325L66.9958 56.0621H67.59L66.826 13.7853H75.3153V73.2106H66.826V73.1257L61.3928 30.764H60.7987L61.6475 73.2106H53.1582Z" fill="white"/>
<path d="M95.288 13.7853C95.967 13.7853 96.7313 13.8702 97.5801 14.0401C98.429 14.2099 99.2214 14.5493 99.9572 15.0588C100.693 15.568 101.315 16.3038 101.825 17.266C102.334 18.1714 102.589 19.3599 102.589 20.8313L102.504 64.9758C102.504 67.5227 101.683 69.5317 100.042 71.0034C98.4006 72.4748 95.8821 73.2106 92.4866 73.2106H80.4316V13.7853H95.288ZM88.921 65.3154C90.9584 65.9945 92.3452 65.9664 93.0807 65.2305C93.8731 64.495 94.2693 63.1647 94.2693 61.2406V24.4819C94.2693 24.0857 94.2128 23.6611 94.0994 23.2084C93.9864 22.6992 93.7317 22.2746 93.3355 21.935C92.9958 21.5388 92.4582 21.3124 91.7224 21.2559C91.0433 21.1426 90.1095 21.2843 88.921 21.6802V65.3154Z" fill="white"/>
<path d="M107.707 13.7853H116.196V73.2955H107.707V13.7853ZM107.707 13.7853H115.347V73.2955H107.707V13.7853Z" fill="white"/>
<path d="M154.901 59.2881C154.901 61.1557 154.759 62.712 154.474 63.957C154.25 65.1456 153.88 66.1078 153.371 66.8436C152.862 67.5792 152.241 68.1452 151.504 68.5414C150.823 68.8811 150.033 69.1639 149.128 69.3903L146.835 67.5227L146.326 67.6925C146.326 69.843 145.817 71.3147 144.796 72.107C143.778 72.8426 142.166 73.2106 139.959 73.2106C139.278 73.2106 138.515 73.0973 137.666 72.871C136.873 72.6446 136.109 72.1351 135.376 71.3428C134.639 70.5504 134.014 69.4187 133.506 67.9473C132.997 66.4191 132.742 64.3816 132.742 61.8347V23.1235C132.742 19.3883 133.733 16.7565 135.713 15.2286C137.695 13.7004 140.382 12.9364 143.778 12.9364C147.175 12.9364 149.862 13.7004 151.844 15.2286C153.88 16.7565 154.901 19.3883 154.901 23.1235V59.2881ZM143.778 20.5769C142.533 20.5769 141.74 21.1426 141.403 22.2746C141.119 23.3499 140.976 24.5949 140.976 26.0098V60.3917C140.976 62.2028 141.119 63.6177 141.403 64.6364C141.684 65.5986 142.477 66.1078 143.778 66.1643C145.08 66.1078 145.873 65.5986 146.154 64.6364C146.495 63.6177 146.666 62.2028 146.666 60.3917V26.0098C146.666 25.2742 146.637 24.5949 146.58 23.9724C146.524 23.2933 146.382 22.6992 146.154 22.1897C145.986 21.6802 145.702 21.2843 145.308 21.0012C144.912 20.7183 144.4 20.5769 143.778 20.5769ZM146.835 67.5227L152.862 67.4378L156.427 72.6162L149.128 75.9271L146.835 67.5227Z" fill="white"/>
<path d="M181.987 73.2106H173.499L171.377 23.3783H170.697L168.321 73.2106H159.832L163.992 13.7853H178.253L181.987 73.2106ZM177.659 65.4003H165.179V56.7412H177.659V65.4003Z" fill="white"/>
<path d="M194.706 13.7853V73.2106H186.217V13.7853H194.706ZM186.217 73.2106V67.6076L203.026 64.5515L205.742 73.2106H186.217Z" fill="white"/>
<path d="M229.578 73.2106H221.087L218.965 23.3783H218.285L215.909 73.2106H207.42L211.58 13.7853H225.841L229.578 73.2106ZM225.247 65.4003H212.769V56.7412H225.247V65.4003Z" fill="white"/>
<path d="M130.329 89.7638H129.071L125.926 85.7751V89.7638H124.822V85.7751L121.677 89.7638H120.432L123.754 85.5144L120.55 81.4567H121.799L124.822 85.2644V81.4567H125.926V85.2644L128.953 81.4567H130.21L126.991 85.5144L130.326 89.7638H130.329Z" fill="white"/>
<path d="M136.579 89.7638V83.569L132.307 89.7638H131.416V81.4567H132.52V87.6628L136.792 81.4567H137.683V89.7638H136.579Z" fill="white"/>
<path d="M138.729 88.7713C138.998 88.811 139.237 88.7965 139.442 88.724C139.649 88.6518 139.82 88.5175 139.959 88.3148C140.098 88.1118 140.202 87.8366 140.267 87.4851C140.338 87.1336 140.371 86.6954 140.371 86.1735V81.464H145.85V89.7711H144.747V82.5073H141.471V86.1735C141.471 86.9345 141.397 87.5541 141.258 88.0429C141.116 88.5284 140.921 88.9053 140.678 89.1696C140.433 89.4341 140.146 89.6116 139.811 89.6986C139.48 89.7856 139.119 89.8107 138.731 89.7711V88.7749L138.729 88.7713Z" fill="white"/>
<path d="M147.197 85.6098C147.197 84.4071 147.614 83.3928 148.443 82.5596C149.271 81.7226 150.289 81.3024 151.493 81.3024C152.695 81.3024 153.71 81.7226 154.544 82.5596C155.381 83.3893 155.801 84.4071 155.801 85.6098C155.801 86.8126 155.381 87.8197 154.544 88.6603C153.713 89.4971 152.695 89.9175 151.493 89.9175C150.289 89.9175 149.271 89.4971 148.443 88.6603C147.614 87.8233 147.197 86.8055 147.197 85.6098ZM154.695 85.6172C154.695 84.6971 154.387 83.9289 153.772 83.3094C153.171 82.6827 152.414 82.3712 151.496 82.3712C150.579 82.3712 149.828 82.6827 149.212 83.3094C148.603 83.936 148.298 84.7042 148.298 85.6172C148.298 86.53 148.603 87.2907 149.212 87.9248C149.828 88.5443 150.588 88.8524 151.496 88.8524C152.405 88.8524 153.162 88.5443 153.772 87.9248C154.387 87.2981 154.695 86.53 154.695 85.6172Z" fill="white"/>
<path d="M162.288 89.7653V83.5702L158.019 89.7653H157.125V81.4582H158.232V87.664L162.501 81.4582H163.395V89.7653H162.288ZM158.658 80.5706V79.6685H161.862V80.5706H158.658Z" fill="white"/>
<path d="M174.176 89.7638H172.823L169.24 85.7751V89.7638H168.137V81.4567H169.24V85.2064L172.705 81.4567H174.054L170.388 85.4925L174.176 89.7638Z" fill="white"/>
<path d="M174.008 85.6098C174.008 84.4071 174.425 83.3928 175.253 82.5596C176.085 81.7226 177.103 81.3024 178.304 81.3024C179.508 81.3024 180.523 81.7226 181.354 82.5596C182.192 83.3893 182.612 84.4071 182.612 85.6098C182.612 86.8126 182.192 87.8197 181.354 88.6603C180.526 89.4971 179.508 89.9175 178.304 89.9175C177.103 89.9175 176.085 89.4971 175.253 88.6603C174.425 87.8233 174.008 86.8055 174.008 85.6098ZM181.508 85.6172C181.508 84.6971 181.201 83.9289 180.582 83.3094C179.982 82.6827 179.224 82.3712 178.307 82.3712C177.393 82.3712 176.638 82.6827 176.023 83.3094C175.413 83.936 175.109 84.7042 175.109 85.6172C175.109 86.53 175.413 87.2907 176.023 87.9248C176.638 88.5443 177.399 88.8524 178.307 88.8524C179.218 88.8524 179.976 88.5443 180.582 87.9248C181.201 87.2981 181.508 86.53 181.508 85.6172Z" fill="white"/>
<path d="M191.724 81.4589V89.766H190.62V83.2738L187.901 87.7951H187.759L185.043 83.2847V89.7621H183.939V81.455H185.185L187.836 85.8459L190.475 81.455H191.721L191.724 81.4589Z" fill="white"/>
<path d="M199.527 81.4567V89.7638H198.423V82.5003H194.601V89.7638H193.494V81.4567H199.527Z" fill="white"/>
<path d="M200.57 88.7713C200.84 88.811 201.076 88.7965 201.28 88.724C201.485 88.6518 201.656 88.5175 201.795 88.3148C201.931 88.1118 202.038 87.8366 202.103 87.4851C202.168 87.1336 202.204 86.6954 202.204 86.1735V81.464H207.686V89.7711H206.58V82.5073H203.304V86.1735C203.304 86.9345 203.233 87.5541 203.091 88.0429C202.949 88.5284 202.754 88.9053 202.508 89.1696C202.263 89.4341 201.976 89.6116 201.641 89.6986C201.31 89.7856 200.952 89.8107 200.564 89.7711V88.7749L200.57 88.7713Z" fill="white"/>
<path d="M210.575 88.7205H214.434V89.7638H209.475V81.4567H214.374V82.5003H210.578V85.0508H214.078V86.0831H210.578V88.717L210.575 88.7205Z" fill="white"/>
<path d="M221.808 89.7638H220.456L216.873 85.7751V89.7638H215.77V81.4567H216.873V85.2064L220.338 81.4567H221.687L218.021 85.4925L221.808 89.7638Z" fill="white"/>
<path d="M225.991 89.9175C224.728 89.9175 223.683 89.5006 222.872 88.6713C222.05 87.8487 221.639 86.8271 221.639 85.6098C221.639 84.3926 222.047 83.3709 222.872 82.5487C223.689 81.719 224.728 81.3024 225.991 81.3024C226.373 81.3024 226.74 81.3495 227.089 81.4436C227.441 81.538 227.772 81.672 228.083 81.8457C228.391 82.0197 228.672 82.2297 228.926 82.4797C229.181 82.7298 229.397 83.0088 229.58 83.3168L228.618 83.8745C228.379 83.4144 228.027 83.0487 227.556 82.7768C227.086 82.5052 226.568 82.3676 225.997 82.3676C225.032 82.3676 224.245 82.6753 223.645 83.2949C223.044 83.9071 222.742 84.6787 222.742 85.6134C222.742 86.5481 223.044 87.3091 223.645 87.9212C224.245 88.5408 225.029 88.8488 225.997 88.8488C226.565 88.8488 227.086 88.7109 227.556 88.4393C228.027 88.1677 228.382 87.8053 228.618 87.3526L229.58 87.8996C229.231 88.5154 228.734 89.008 228.098 89.3775C227.462 89.7362 226.763 89.9175 225.997 89.9175H225.991Z" fill="white"/>
<path d="M6.98708 81.4567V82.5003H4.53072V89.7638H3.42591V82.5003H0.980469V81.4567H6.98708Z" fill="white"/>
<path d="M14.2528 81.4567L11.3112 86.4056V86.6917H12.9234V87.6879H11.3112V89.7638H10.2064V87.6879H8.59411V86.6917H10.2064V86.3947L7.27539 81.4567H8.51068L10.7641 85.3478L13.0175 81.4567H14.2528Z" fill="white"/>
<path d="M18.2598 81.4567C19.0205 81.4567 19.6581 81.7142 20.1762 82.2284C20.6904 82.7429 20.9478 83.377 20.9478 84.1267C20.9478 84.8768 20.6904 85.5106 20.1762 86.0251C19.6617 86.5396 19.0205 86.7968 18.2598 86.7968H16.3431V89.7638H15.2383V81.4567H18.2598ZM18.2524 85.7644C18.7125 85.7644 19.0891 85.6085 19.39 85.3005C19.6907 84.9783 19.8427 84.5833 19.8427 84.1267C19.8427 83.8912 19.8031 83.6705 19.7232 83.4675C19.6436 83.2646 19.5347 83.0944 19.39 82.953C19.2486 82.8119 19.0785 82.6994 18.8865 82.616C18.6909 82.5329 18.4805 82.4929 18.2524 82.4929H16.3431V85.768H18.2524V85.7644Z" fill="white"/>
<path d="M22.4282 85.1339V81.4567H27.0906V82.5003H23.5294V85.1339H25.8914V86.1301H23.5294V89.7603H22.4246V86.1301H21.5586V85.1339H22.4282Z" fill="white"/>
<path d="M28.1934 89.7638V81.4567H29.2982V84.4238H31.2146C31.9753 84.4238 32.6129 84.6812 33.131 85.1955C33.6455 85.71 33.9026 86.3441 33.9026 87.0938C33.9026 87.8439 33.6455 88.4886 33.131 89.0031C32.6238 89.5102 31.9862 89.7638 31.2146 89.7638H28.1934ZM29.2982 88.7315H31.2075C31.4356 88.7315 31.6495 88.6915 31.8412 88.6081C32.0333 88.525 32.2037 88.4125 32.3448 88.2711C32.4863 88.13 32.5984 87.956 32.6783 87.7569C32.7579 87.5539 32.7978 87.3364 32.7978 87.0974C32.7978 86.8583 32.7579 86.6411 32.6783 86.4381C32.5984 86.2352 32.4898 86.065 32.3448 85.9236C32.2037 85.7825 32.0333 85.67 31.8412 85.5869C31.6457 85.5035 31.4356 85.4635 31.2075 85.4635H29.2982V88.7386V88.7315ZM34.7323 89.7638V81.4567H35.8374V89.7638H34.7323Z" fill="white"/>
<path d="M42.7558 81.4567H43.8609V89.7638H42.7558V86.0251H38.72V89.7638H37.6152V81.4567H38.72V84.9818H42.7558V81.4567Z" fill="white"/>
<path d="M54.7706 81.4567L51.8287 86.4056V89.7638H50.7239V86.3947L47.793 81.4567H49.0285L51.282 85.3478L53.5351 81.4567H54.7706Z" fill="white"/>
<path d="M60.9222 89.7653V83.5702L56.651 89.7653H55.7598V81.4582H56.8646V87.664L61.1359 81.4582H62.0271V89.7653H60.9222ZM57.2921 80.5706V79.6685H60.4947V80.5706H57.2921Z" fill="white"/>
<path d="M72.8107 89.7638H71.4594L67.8766 85.7751V89.7638H66.7715V81.4567H67.8766V85.2064L71.3398 81.4567H72.6911L69.0249 85.4925L72.8107 89.7638Z" fill="white"/>
<path d="M74.8903 88.7205H78.7486V89.7638H73.7891V81.4567H78.6906V82.5003H74.8939V85.0508H78.3935V86.0831H74.8939V88.717L74.8903 88.7205Z" fill="white"/>
<path d="M88.4432 81.4567H89.5483V89.7638H80.0781V81.4567H81.1832V88.7205H84.2698V81.4567H85.3746V88.7205H88.4467V81.4567H88.4432Z" fill="white"/>
<path d="M92.4352 88.7205H96.2935V89.7638H91.334V81.4567H96.2355V82.5003H92.4391V85.0508H95.9384V86.0831H92.4391V88.717L92.4352 88.7205Z" fill="white"/>
<path d="M102.75 81.4567H103.855V89.7638H102.75V86.0251H98.7145V89.7638H97.6094V81.4567H98.7145V84.9818H102.75V81.4567Z" fill="white"/>
<path d="M105.621 81.4567H106.726V89.7638H105.621V81.4567Z" fill="white"/>
<path d="M114.152 79.8424H113.047V91.3775H114.152V79.8424Z" fill="white"/>
<path d="M28.4902 0.331558H36.9683V9.03008H28.4902V0.331558Z" fill="white"/>
<path d="M39.5137 0.331558H47.9918V9.03008H39.5137V0.331558Z" fill="white"/>
</svg>
