<svg width="222" height="96" viewBox="0 0 222 96" fill="none" xmlns="http://www.w3.org/2000/svg">
<path d="M23.742 34.5854C23.742 41.3879 37.4208 39.4655 37.4208 32.4412V60.0947C37.4208 69.6328 28.0305 71.2594 26.256 71.2594C24.4813 71.2594 14.3516 70.2244 14.3516 60.0947V52.7745L21.262 46.2643V57.4293C21.262 60.0947 22.7242 61.9431 24.7943 61.9431C27.3279 61.9431 28.0305 59.2813 28.0305 57.8025V45.8243C28.0305 39.0218 14.3516 40.9443 14.3516 47.9686V20.3151C14.3516 10.777 23.742 9.15015 25.5165 9.15015C27.291 9.15015 37.4208 10.1854 37.4208 20.3151V27.635L30.5105 34.1454V22.9805C30.5105 20.3151 29.0484 18.4666 26.9781 18.4666C24.4444 18.4666 23.742 21.1285 23.742 22.6073V34.5854Z" fill="#AC714E"/>
<path fill-rule="evenodd" clip-rule="evenodd" d="M23.4939 0.919189C10.5942 0.919189 0.136719 11.3764 0.136719 24.2764V56.3278C0.136719 69.2277 10.5942 79.685 23.4939 79.685H25.649C25.4546 79.7979 25.2748 79.8638 25.0968 79.8638C37.654 79.8638 41.5464 90.1781 41.9227 95.3339H51.6343C51.1091 90.5386 47.5043 80.1131 38.3607 77.3517C46.1557 73.5671 51.5292 65.5748 51.5292 56.3278V24.2764C51.5292 11.3764 41.0718 0.919189 28.172 0.919189H23.4939ZM25.833 6.12231C16.8303 6.12231 9.53208 13.4203 9.53208 22.423V58.1812C9.53208 67.1839 16.8303 74.4819 25.833 74.4819C34.8357 74.4819 42.1339 67.1839 42.1339 58.1812V22.423C42.1339 13.4203 34.8357 6.12231 25.833 6.12231Z" fill="#AC714E"/>
<path d="M69.1065 32.2584C69.1065 33.7083 69.3417 34.9816 69.8118 36.0787C70.2821 37.1367 70.8698 38.0966 71.575 38.9585C72.3194 39.8205 73.1031 40.6433 73.926 41.427C74.7488 42.2106 75.5129 43.053 76.2181 43.9541C76.9625 44.8161 77.5699 45.8153 78.04 46.9515C78.5101 48.0487 78.7452 49.3809 78.7452 50.9482V56.2963C78.7452 57.5895 78.5298 58.6864 78.0988 59.5877C77.6678 60.4888 77.0801 61.2137 76.3355 61.7622C75.5911 62.3108 74.7095 62.7027 73.6908 62.9376C72.7113 63.2119 71.6338 63.3295 70.4583 63.2903C68.1075 63.2512 66.2658 62.7221 64.9338 61.7035C63.6015 60.6848 62.9355 58.8824 62.9355 56.2963V50.1841H68.5189V54.2981C68.5189 54.8075 68.5385 55.2973 68.5776 55.7674C68.6168 56.1984 68.6952 56.5903 68.8128 56.9428C68.9695 57.2955 69.185 57.5698 69.4593 57.7656C69.7335 57.9617 70.0861 58.0596 70.5171 58.0596C70.948 58.0596 71.3008 57.9617 71.575 57.7656C71.8493 57.5307 72.0452 57.2367 72.1627 56.8842C72.3194 56.5315 72.4174 56.1396 72.4567 55.7086C72.4958 55.2385 72.5155 54.7682 72.5155 54.2981V52.5351C72.5155 51.0461 72.2803 49.8119 71.8102 48.8324C71.379 47.8135 70.8307 46.9124 70.1645 46.1287C69.4984 45.3059 68.7735 44.5418 67.99 43.8366C67.2454 43.0922 66.5401 42.2499 65.8742 41.3095C65.208 40.3299 64.6398 39.1937 64.1697 37.9007C63.7387 36.6076 63.5232 35.0012 63.5232 33.0813V28.0857C63.5232 25.4998 64.2088 23.6777 65.5802 22.6199C66.9516 21.5228 68.8128 21.0134 71.1635 21.0918C73.5145 21.131 75.356 21.6599 76.6882 22.6785C78.0596 23.6974 78.7452 25.4998 78.7452 28.0857V35.0209H73.1032V30.0839C73.1032 29.0652 72.9856 28.2032 72.7504 27.498C72.5546 26.7536 72.006 26.3812 71.1049 26.3812C70.2037 26.3812 69.6356 26.7536 69.4005 27.498C69.2044 28.2424 69.1065 29.1043 69.1065 30.0839V32.2584Z" fill="white"/>
<path d="M96.1306 62.7027H90.2534L88.784 28.2033H88.3139L86.6683 62.7027H80.791L83.6708 21.562H93.5445L96.1306 62.7027ZM93.1332 57.2956H84.4937V51.3008H93.1332V57.2956Z" fill="white"/>
<path d="M99.0586 62.7027V21.562H104.995L108.639 50.8307H109.05L108.521 21.562H114.398V62.7027H108.521V62.6439L104.759 33.3165H104.348L104.936 62.7027H99.0586Z" fill="white"/>
<path d="M128.225 21.562C128.695 21.562 129.224 21.6208 129.812 21.7384C130.399 21.856 130.948 22.0909 131.457 22.4436C131.966 22.7962 132.397 23.3056 132.75 23.9717C133.103 24.5985 133.279 25.4214 133.279 26.4401L133.22 57.0017C133.22 58.7649 132.652 60.1558 131.516 61.1746C130.38 62.1933 128.636 62.7027 126.285 62.7027H117.939V21.562H128.225ZM123.817 57.2368C125.227 57.7069 126.187 57.6874 126.697 57.178C127.245 56.6688 127.519 55.7478 127.519 54.4158V28.9674C127.519 28.6931 127.48 28.3991 127.402 28.0857C127.324 27.7332 127.147 27.4393 126.873 27.2041C126.638 26.9298 126.266 26.7731 125.756 26.734C125.286 26.6555 124.64 26.7537 123.817 27.0277V57.2368Z" fill="white"/>
<path d="M136.822 21.562H142.7V62.7615H136.822V21.562ZM136.822 21.562H142.112V62.7615H136.822V21.562Z" fill="white"/>
<path d="M169.495 53.0641C169.495 54.357 169.396 55.4345 169.2 56.2964C169.044 57.1193 168.788 57.7854 168.436 58.2948C168.083 58.8041 167.653 59.1959 167.143 59.4702C166.672 59.7054 166.125 59.9012 165.498 60.0579L163.911 58.7649L163.558 58.8825C163.558 60.3713 163.206 61.3902 162.499 61.9387C161.795 62.448 160.678 62.7028 159.15 62.7028C158.679 62.7028 158.151 62.6243 157.563 62.4676C157.014 62.3109 156.485 61.9582 155.977 61.4096C155.467 60.8611 155.035 60.0776 154.683 59.0589C154.33 58.0009 154.154 56.5904 154.154 54.8271V28.027C154.154 25.4411 154.841 23.619 156.211 22.5613C157.583 21.5033 159.443 20.9744 161.795 20.9744C164.146 20.9744 166.006 21.5033 167.379 22.5613C168.788 23.619 169.495 25.4411 169.495 28.027V53.0641ZM161.795 26.2639C160.932 26.2639 160.383 26.6556 160.15 27.4393C159.953 28.1837 159.855 29.0456 159.855 30.0252V53.8281C159.855 55.0819 159.953 56.0615 160.15 56.7667C160.345 57.4329 160.894 57.7854 161.795 57.8245C162.696 57.7854 163.245 57.4329 163.44 56.7667C163.675 56.0615 163.794 55.0819 163.794 53.8281V30.0252C163.794 29.516 163.774 29.0456 163.735 28.6147C163.696 28.1446 163.597 27.7332 163.44 27.3805C163.323 27.0278 163.126 26.7537 162.854 26.5577C162.579 26.3618 162.225 26.2639 161.795 26.2639ZM163.911 58.7649L168.083 58.7062L170.552 62.2913L165.498 64.5834L163.911 58.7649Z" fill="white"/>
<path d="M188.249 62.7027H182.372L180.903 28.2033H180.432L178.787 62.7027H172.91L175.79 21.562H185.663L188.249 62.7027ZM185.252 57.2956H176.612V51.3008H185.252V57.2956Z" fill="white"/>
<path d="M197.055 21.562V62.7027H191.178V21.562H197.055ZM191.178 62.7027V58.8237L202.815 56.7079L204.695 62.7027H191.178Z" fill="white"/>
<path d="M221.196 62.7027H215.317L213.848 28.2033H213.377L211.732 62.7027H205.855L208.736 21.562H218.609L221.196 62.7027ZM218.197 57.2956H209.559V51.3008H218.197V57.2956Z" fill="white"/>
<path d="M152.485 74.1624H151.614L149.437 71.401V74.1624H148.673V71.401L146.495 74.1624H145.633L147.933 71.2205L145.715 68.4114H146.579L148.673 71.0475V68.4114H149.437V71.0475L151.532 68.4114H152.403L150.174 71.2205L152.483 74.1624H152.485Z" fill="white"/>
<path d="M156.811 74.1624V69.8737L153.853 74.1624H153.236V68.4114H154V72.7079L156.958 68.4114H157.575V74.1624H156.811Z" fill="white"/>
<path d="M158.299 73.4754C158.485 73.5029 158.651 73.4928 158.792 73.4427C158.936 73.3927 159.055 73.2997 159.151 73.1594C159.247 73.0188 159.319 72.8283 159.364 72.585C159.413 72.3416 159.436 72.0383 159.436 71.6769V68.4165H163.229V74.1676H162.465V69.1388H160.198V71.6769C160.198 72.2038 160.146 72.6327 160.05 72.9711C159.952 73.3073 159.817 73.5682 159.649 73.7511C159.479 73.9343 159.28 74.0572 159.049 74.1174C158.819 74.1776 158.569 74.195 158.301 74.1676V73.4779L158.299 73.4754Z" fill="white"/>
<path d="M164.162 71.2867C164.162 70.4541 164.451 69.7519 165.024 69.175C165.598 68.5956 166.303 68.3047 167.136 68.3047C167.968 68.3047 168.671 68.5956 169.248 69.175C169.828 69.7494 170.119 70.4541 170.119 71.2867C170.119 72.1194 169.828 72.8167 169.248 73.3986C168.673 73.9779 167.968 74.269 167.136 74.269C166.303 74.269 165.598 73.9779 165.024 73.3986C164.451 72.8191 164.162 72.1145 164.162 71.2867ZM169.353 71.2919C169.353 70.6548 169.14 70.123 168.714 69.6941C168.298 69.2603 167.773 69.0446 167.138 69.0446C166.503 69.0446 165.983 69.2603 165.557 69.6941C165.135 70.128 164.924 70.6597 164.924 71.2919C164.924 71.9238 165.135 72.4504 165.557 72.8894C165.983 73.3183 166.51 73.5316 167.138 73.5316C167.767 73.5316 168.292 73.3183 168.714 72.8894C169.14 72.4555 169.353 71.9238 169.353 71.2919Z" fill="white"/>
<path d="M174.61 74.1635V69.8746L171.654 74.1635H171.035V68.4124H171.801V72.7087L174.757 68.4124H175.376V74.1635H174.61ZM172.096 67.7979V67.1733H174.315V67.7979H172.096Z" fill="white"/>
<path d="M182.839 74.1624H181.903L179.422 71.401V74.1624H178.658V68.4114H179.422V71.0073L181.821 68.4114H182.755L180.217 71.2054L182.839 74.1624Z" fill="white"/>
<path d="M182.723 71.2867C182.723 70.4541 183.011 69.7519 183.585 69.175C184.161 68.5956 184.865 68.3047 185.697 68.3047C186.531 68.3047 187.233 68.5956 187.809 69.175C188.389 69.7494 188.679 70.4541 188.679 71.2867C188.679 72.1194 188.389 72.8167 187.809 73.3986C187.235 73.9779 186.531 74.269 185.697 74.269C184.865 74.269 184.161 73.9779 183.585 73.3986C183.011 72.8191 182.723 72.1145 182.723 71.2867ZM187.915 71.2919C187.915 70.6548 187.702 70.123 187.274 69.6941C186.858 69.2603 186.334 69.0446 185.699 69.0446C185.066 69.0446 184.544 69.2603 184.118 69.6941C183.696 70.128 183.485 70.6597 183.485 71.2919C183.485 71.9238 183.696 72.4504 184.118 72.8894C184.544 73.3183 185.07 73.5316 185.699 73.5316C186.33 73.5316 186.854 73.3183 187.274 72.8894C187.702 72.4555 187.915 71.9238 187.915 71.2919Z" fill="white"/>
<path d="M194.989 68.4128V74.1639H194.225V69.6693L192.342 72.7994H192.244L190.364 69.6769V74.1612H189.6V68.4102H190.462L192.297 71.45L194.124 68.4102H194.987L194.989 68.4128Z" fill="white"/>
<path d="M200.391 68.4114V74.1624H199.627V69.1339H196.981V74.1624H196.215V68.4114H200.391Z" fill="white"/>
<path d="M201.113 73.4754C201.3 73.5029 201.464 73.4928 201.605 73.4427C201.746 73.3927 201.865 73.2997 201.962 73.1594C202.056 73.0188 202.129 72.8283 202.175 72.585C202.22 72.3416 202.244 72.0383 202.244 71.6769V68.4165H206.04V74.1676H205.274V69.1388H203.006V71.6769C203.006 72.2038 202.957 72.6327 202.859 72.9711C202.76 73.3073 202.625 73.5682 202.455 73.7511C202.285 73.9343 202.086 74.0572 201.855 74.1174C201.626 74.1776 201.378 74.195 201.109 74.1676V73.4779L201.113 73.4754Z" fill="white"/>
<path d="M208.039 73.4402H210.71V74.1624H207.277V68.4114H210.669V69.1339H208.041V70.8996H210.465V71.6142H208.041V73.4377L208.039 73.4402Z" fill="white"/>
<path d="M215.817 74.1624H214.881L212.401 71.401V74.1624H211.637V68.4114H212.401V71.0073L214.799 68.4114H215.734L213.196 71.2054L215.817 74.1624Z" fill="white"/>
<path d="M218.71 74.269C217.836 74.269 217.113 73.9804 216.551 73.4062C215.982 72.8367 215.697 72.1294 215.697 71.2867C215.697 70.444 215.98 69.7367 216.551 69.1675C217.117 68.5931 217.836 68.3047 218.71 68.3047C218.975 68.3047 219.229 68.3373 219.47 68.4024C219.714 68.4677 219.944 68.5605 220.159 68.6808C220.372 68.8012 220.566 68.9467 220.742 69.1197C220.919 69.2928 221.068 69.486 221.195 69.6992L220.529 70.0854C220.363 69.7668 220.12 69.5136 219.794 69.3254C219.468 69.1374 219.11 69.0421 218.715 69.0421C218.047 69.0421 217.502 69.2551 217.086 69.6841C216.67 70.1079 216.461 70.6421 216.461 71.2892C216.461 71.9363 216.67 72.4631 217.086 72.8869C217.502 73.3159 218.045 73.5291 218.715 73.5291C219.108 73.5291 219.468 73.4336 219.794 73.2456C220.12 73.0576 220.366 72.8066 220.529 72.4932L221.195 72.872C220.953 73.2983 220.609 73.6393 220.169 73.8952C219.728 74.1434 219.245 74.269 218.715 74.269H218.71Z" fill="white"/>
<path d="M67.094 68.4114V69.1339H65.3934V74.1624H64.6285V69.1339H62.9355V68.4114H67.094Z" fill="white"/>
<path d="M72.1235 68.4114L70.087 71.8375V72.0356H71.2031V72.7253H70.087V74.1624H69.3221V72.7253H68.2059V72.0356H69.3221V71.8299L67.293 68.4114H68.1482L69.7082 71.1052L71.2683 68.4114H72.1235Z" fill="white"/>
<path d="M74.8965 68.4114C75.4231 68.4114 75.8646 68.5896 76.2233 68.9456C76.5793 69.3018 76.7575 69.7408 76.7575 70.2598C76.7575 70.7791 76.5793 71.2179 76.2233 71.5741C75.867 71.9303 75.4231 72.1083 74.8965 72.1083H73.5696V74.1624H72.8047V68.4114H74.8965ZM74.8914 71.3936C75.2099 71.3936 75.4707 71.2857 75.679 71.0724C75.8871 70.8494 75.9924 70.5759 75.9924 70.2598C75.9924 70.0968 75.965 69.944 75.9096 69.8035C75.8545 69.6629 75.7792 69.5452 75.679 69.4473C75.5811 69.3495 75.4633 69.2717 75.3304 69.2139C75.195 69.1564 75.0493 69.1287 74.8914 69.1287H73.5696V71.3961H74.8914V71.3936Z" fill="white"/>
<path d="M77.7837 70.9571V68.4114H81.0115V69.1339H78.5461V70.9571H80.1813V71.6468H78.5461V74.16H77.7812V71.6468H77.1816V70.9571H77.7837Z" fill="white"/>
<path d="M81.7754 74.1624V68.4114H82.5403V70.4655H83.867C84.3936 70.4655 84.8351 70.6437 85.1937 70.9997C85.55 71.3559 85.728 71.7949 85.728 72.314C85.728 72.8332 85.55 73.2796 85.1937 73.6358C84.8426 73.9869 84.4012 74.1624 83.867 74.1624H81.7754ZM82.5403 73.4478H83.8621C84.02 73.4478 84.1681 73.4201 84.3008 73.3623C84.4338 73.3048 84.5518 73.2269 84.6495 73.129C84.7474 73.0313 84.825 72.9109 84.8803 72.773C84.9354 72.6325 84.9631 72.4819 84.9631 72.3164C84.9631 72.1509 84.9354 72.0006 84.8803 71.86C84.825 71.7195 84.7499 71.6017 84.6495 71.5038C84.5518 71.4061 84.4338 71.3283 84.3008 71.2707C84.1654 71.213 84.02 71.1853 83.8621 71.1853H82.5403V73.4527V73.4478ZM86.3023 74.1624V68.4114H87.0674V74.1624H86.3023Z" fill="white"/>
<path d="M91.8577 68.4114H92.6228V74.1624H91.8577V71.5741H89.0637V74.1624H88.2988V68.4114H89.0637V70.8518H91.8577V68.4114Z" fill="white"/>
<path d="M100.173 68.4114L98.1358 71.8375V74.1624H97.3709V71.8299L95.3418 68.4114H96.1972L97.7573 71.1052L99.3171 68.4114H100.173Z" fill="white"/>
<path d="M104.433 74.1635V69.8746L101.476 74.1635H100.859V68.4124H101.624V72.7087L104.581 68.4124H105.198V74.1635H104.433ZM101.92 67.7979V67.1733H104.137V67.7979H101.92Z" fill="white"/>
<path d="M112.663 74.1624H111.728L109.247 71.401V74.1624H108.482V68.4114H109.247V71.0073L111.645 68.4114H112.581L110.042 71.2054L112.663 74.1624Z" fill="white"/>
<path d="M114.104 73.4402H116.775V74.1624H113.342V68.4114H116.735V69.1339H114.107V70.8996H116.53V71.6142H114.107V73.4377L114.104 73.4402Z" fill="white"/>
<path d="M123.487 68.4114H124.252V74.1624H117.695V68.4114H118.46V73.4402H120.597V68.4114H121.362V73.4402H123.489V68.4114H123.487Z" fill="white"/>
<path d="M126.251 73.4402H128.922V74.1624H125.488V68.4114H128.882V69.1339H126.253V70.8996H128.676V71.6142H126.253V73.4377L126.251 73.4402Z" fill="white"/>
<path d="M133.393 68.4114H134.158V74.1624H133.393V71.5741H130.599V74.1624H129.834V68.4114H130.599V70.8518H133.393V68.4114Z" fill="white"/>
<path d="M135.377 68.4114H136.142V74.1624H135.377V68.4114Z" fill="white"/>
<path d="M141.285 67.2939H140.52V75.2798H141.285V67.2939Z" fill="white"/>
<path d="M81.9805 12.2478H87.8499V18.2699H81.9805V12.2478Z" fill="white"/>
<path d="M89.6133 12.2478H95.4827V18.2699H89.6133V12.2478Z" fill="white"/>
</svg>
