<svg width="171" height="41" viewBox="0 0 171 41" fill="none" xmlns="http://www.w3.org/2000/svg">
<path d="M49.0373 26.6415L49.9109 24.634C50.3352 24.6836 50.3852 24.6836 50.9842 24.8075C48.4882 23.717 46.7409 20.5695 46.7409 17.1741C46.7409 12.0934 50.6597 8.00407 55.527 8.00407C60.3943 8.00407 64.3131 12.0934 64.3131 17.1989C64.3131 22.0565 60.569 26.2202 56.2009 26.2202C55.9014 26.2202 55.7017 26.2202 55.3772 26.1706V26.2945C58.3475 27.4594 60.1696 27.9798 62.3661 28.3268L61.5674 30.9786C59.2211 30.6565 57.7485 30.136 54.9529 28.6738C52.3071 27.3354 50.7596 26.815 49.0373 26.6415ZM55.527 10.9038C52.357 10.9038 49.9359 13.5804 49.9359 17.0997C49.9359 20.8173 52.2821 23.4939 55.527 23.4939C58.7219 23.4939 61.168 20.7429 61.168 17.1989C61.168 13.63 58.7219 10.9038 55.527 10.9038Z" fill="white"/>
<path d="M67.9629 25.9723H64.8179L73.7038 7.80581L82.1405 25.9723H78.8706L77.4479 22.8496H69.4106L67.9629 25.9723ZM70.5588 20.3464H76.3496L73.4792 13.8035L70.5588 20.3464Z" fill="white"/>
<path d="M95.271 25.9723V17.9919L88.5816 8.4254H92.2258L96.9184 15.3649L101.711 8.4254H105.355L98.391 17.9424V25.9723H95.271Z" fill="white"/>
<path d="M106.977 25.9723V7.80581L118.633 19.5038V8.4254H121.704V26.6415L110.047 14.9188V25.9723H106.977Z" fill="white"/>
<path d="M126.087 25.9723V8.4254H130.355C136.92 8.4254 140.939 11.7464 140.939 17.1741C140.939 20.4455 139.416 23.0726 136.571 24.6588C134.873 25.6006 133.126 25.9723 130.355 25.9723H126.087ZM129.157 23.1718H130.755C135.148 23.1718 137.769 20.9412 137.769 17.1989C137.769 13.4565 135.148 11.226 130.755 11.226H129.157V23.1718Z" fill="white"/>
<path d="M146.825 25.9723V17.9919L140.136 8.4254H143.78L148.472 15.3649L153.265 8.4254H156.909L149.945 17.9424V25.9723H146.825Z" fill="white"/>
<path fill-rule="evenodd" clip-rule="evenodd" d="M83.8933 13.6314V25.9723H86.9635V13.6314H83.8933ZM86.9635 11.5601V8.4254H83.8933V11.5601H86.9635Z" fill="white"/>
<path d="M159.01 23.2697L160.996 21.1896C162.036 22.6787 163.052 23.2933 164.565 23.2933C166.291 23.2933 167.402 22.2769 167.402 20.7405C167.402 19.1095 166.149 18.3295 163.501 18.3295H162.863V15.6821H163.667C165.794 15.6821 167.047 14.8076 167.047 13.3421C167.047 12.042 166.007 11.0965 164.612 11.0965C163.36 11.0965 162.509 11.6165 161.303 13.1057L159.412 11.3092C161.209 9.25281 162.745 8.42552 164.825 8.42552C167.709 8.42552 169.954 10.4583 169.954 13.082C169.954 14.713 169.222 15.8476 167.614 16.6985C169.505 17.5731 170.38 18.8732 170.38 20.7641C170.38 23.7661 167.898 25.9643 164.494 25.9643C162.178 25.9643 160.618 25.1843 159.01 23.2697Z" fill="white"/>
<path d="M122.85 30.333H122.197V31.7741H121.872V30.333H121.219L120.258 31.7741H119.872L120.946 30.1561L119.956 28.6314H120.313L121.213 30.0403H121.872V28.6314H122.197V30.0403H122.85L123.753 28.6314H124.113L123.117 30.1561L124.194 31.7741H123.808L122.85 30.333Z" fill="white"/>
<path d="M124.949 28.6314H125.277V31.2369L127.287 28.6314H127.586V31.7741H127.261V29.175L125.248 31.7741H124.949V28.6314Z" fill="white"/>
<path d="M131.284 28.6314V31.7741H130.956V28.9177H129.441L129.406 29.9695C129.39 30.4038 129.358 30.7512 129.3 31.0182C129.245 31.2851 129.158 31.4814 129.046 31.61C128.933 31.7419 128.779 31.8062 128.592 31.8062C128.512 31.8062 128.428 31.7966 128.342 31.7741L128.371 31.4782C128.422 31.491 128.47 31.4975 128.518 31.4975C128.65 31.4975 128.756 31.446 128.84 31.3431C128.924 31.2401 128.985 31.0761 129.027 30.8573C129.068 30.6386 129.097 30.3459 129.113 29.9824L129.158 28.6346H131.29L131.284 28.6314Z" fill="white"/>
<path d="M133.1 31.5907C132.846 31.4492 132.65 31.2594 132.509 31.0182C132.364 30.7769 132.293 30.5035 132.293 30.2011C132.293 29.8988 132.364 29.6254 132.509 29.3841C132.653 29.1429 132.85 28.9499 133.1 28.8116C133.354 28.6732 133.634 28.6025 133.946 28.6025C134.258 28.6025 134.535 28.6732 134.785 28.8116C135.036 28.9499 135.232 29.1397 135.374 29.3841C135.518 29.6286 135.589 29.902 135.589 30.2044C135.589 30.5067 135.515 30.7801 135.374 31.0246C135.229 31.2691 135.033 31.4588 134.785 31.5972C134.535 31.7355 134.255 31.8062 133.946 31.8062C133.637 31.8062 133.354 31.7355 133.1 31.5972M134.618 31.3398C134.821 31.2272 134.975 31.0696 135.088 30.8734C135.2 30.674 135.258 30.452 135.258 30.2076C135.258 29.9631 135.2 29.7412 135.088 29.5417C134.975 29.3423 134.814 29.1879 134.618 29.0753C134.416 28.9627 134.194 28.9081 133.946 28.9081C133.699 28.9081 133.473 28.9627 133.271 29.0753C133.068 29.1879 132.911 29.3455 132.795 29.5417C132.679 29.7412 132.625 29.9631 132.625 30.2076C132.625 30.452 132.682 30.674 132.795 30.8734C132.911 31.0728 133.071 31.2272 133.271 31.3398C133.473 31.4524 133.699 31.5071 133.946 31.5071C134.194 31.5071 134.419 31.4524 134.618 31.3398Z" fill="white"/>
<path d="M136.612 28.6314H136.94V31.2369L138.949 28.6314H139.248V31.7741H138.92V29.175L136.911 31.7741H136.612V28.6314ZM137.39 28.2486C137.258 28.1489 137.194 28.0042 137.19 27.824H137.438C137.438 27.9431 137.486 28.0396 137.573 28.1071C137.66 28.1779 137.779 28.2101 137.92 28.2101C138.062 28.2101 138.181 28.1779 138.268 28.1071C138.358 28.0396 138.403 27.9463 138.406 27.824H138.653C138.653 28.0074 138.583 28.1489 138.451 28.2486C138.319 28.3484 138.142 28.4031 137.924 28.4031C137.705 28.4031 137.522 28.3516 137.393 28.2486" fill="white"/>
<path d="M142.978 30.333H142.258V31.7741H141.933V28.6314H142.258V30.0403H142.978L144.039 28.6314H144.399L143.229 30.1593L144.464 31.7741H144.084L142.978 30.333Z" fill="white"/>
<path d="M145.731 31.5907C145.477 31.4492 145.28 31.2594 145.139 31.0182C144.994 30.7769 144.923 30.5035 144.923 30.2011C144.923 29.8988 144.994 29.6254 145.139 29.3841C145.284 29.1429 145.48 28.9499 145.731 28.8116C145.985 28.6732 146.264 28.6025 146.576 28.6025C146.888 28.6025 147.165 28.6732 147.415 28.8116C147.666 28.9499 147.862 29.1397 148.004 29.3841C148.149 29.6286 148.219 29.902 148.219 30.2044C148.219 30.5067 148.145 30.7801 148.004 31.0246C147.859 31.2691 147.663 31.4588 147.415 31.5972C147.165 31.7355 146.885 31.8062 146.576 31.8062C146.268 31.8062 145.985 31.7355 145.731 31.5972M147.248 31.3398C147.451 31.2272 147.605 31.0696 147.718 30.8734C147.83 30.674 147.888 30.452 147.888 30.2076C147.888 29.9631 147.83 29.7412 147.718 29.5417C147.605 29.3423 147.444 29.1879 147.248 29.0753C147.046 28.9627 146.824 28.9081 146.576 28.9081C146.329 28.9081 146.104 28.9627 145.901 29.0753C145.698 29.1879 145.541 29.3455 145.425 29.5417C145.309 29.7412 145.255 29.9631 145.255 30.2076C145.255 30.452 145.313 30.674 145.425 30.8734C145.541 31.0728 145.702 31.2272 145.901 31.3398C146.104 31.4524 146.329 31.5071 146.576 31.5071C146.824 31.5071 147.049 31.4524 147.248 31.3398Z" fill="white"/>
<path d="M152.502 28.6314V31.7741H152.184V29.2619L150.949 31.3752H150.792L149.56 29.2748V31.7741H149.239V28.6314H149.515L150.878 30.9635L152.229 28.6314H152.502Z" fill="white"/>
<path d="M156.431 28.6314V31.7741H156.103V28.9209H154.113V31.7741H153.788V28.6314H156.431Z" fill="white"/>
<path d="M160.126 28.6314V31.7741H159.798V28.9177H158.284L158.248 29.9695C158.232 30.4038 158.2 30.7512 158.142 31.0182C158.087 31.2851 158.001 31.4814 157.888 31.61C157.775 31.7419 157.621 31.8062 157.435 31.8062C157.354 31.8062 157.271 31.7966 157.184 31.7741L157.213 31.4782C157.264 31.491 157.312 31.4975 157.361 31.4975C157.493 31.4975 157.599 31.446 157.682 31.3431C157.766 31.2401 157.827 31.0761 157.869 30.8573C157.911 30.6386 157.939 30.3459 157.956 29.9824L158.001 28.6346H160.132L160.126 28.6314Z" fill="white"/>
<path d="M163.634 31.4878V31.7741H161.409V28.6314H163.566V28.9209H161.743V30.0403H163.37V30.3202H161.743V31.4878H163.634Z" fill="white"/>
<path d="M165.634 30.333H164.917V31.7741H164.592V28.6314H164.917V30.0403H165.634L166.698 28.6314H167.055L165.891 30.1593L167.126 31.7741H166.743L165.634 30.333Z" fill="white"/>
<path d="M168.39 31.5939C168.139 31.4556 167.943 31.2658 167.801 31.0214C167.656 30.7769 167.586 30.5035 167.586 30.2011C167.586 29.8988 167.656 29.6254 167.801 29.3809C167.943 29.1364 168.142 28.9466 168.39 28.8083C168.64 28.67 168.92 28.5993 169.232 28.5993C169.464 28.5993 169.682 28.6378 169.878 28.715C170.078 28.7922 170.242 28.9081 170.38 29.056L170.168 29.2683C169.923 29.0206 169.611 28.8952 169.238 28.8952C168.991 28.8952 168.766 28.9531 168.56 29.0657C168.354 29.1783 168.197 29.3359 168.084 29.5321C167.968 29.7315 167.91 29.9502 167.91 30.1947C167.91 30.4392 167.968 30.6611 168.084 30.8573C168.2 31.0568 168.361 31.208 168.56 31.3238C168.766 31.4363 168.988 31.4942 169.238 31.4942C169.615 31.4942 169.927 31.3688 170.168 31.1179L170.38 31.3302C170.242 31.4814 170.074 31.594 169.875 31.6712C169.676 31.7516 169.46 31.7902 169.226 31.7902C168.914 31.7902 168.634 31.7226 168.386 31.5811L168.39 31.5939Z" fill="white"/>
<path d="M118.101 28.4416H117.805V32.6426H118.101V28.4416Z" fill="white"/>
<path d="M67.5897 28.9177H66.4868V31.7708H66.1556V28.9177H65.0527V28.6282H67.5897V28.9177Z" fill="white"/>
<path d="M69.4321 30.6836V31.7676H69.1041V30.6836L67.8469 28.6282H68.2006L69.2778 30.3909L70.3549 28.6282H70.6893L69.4321 30.6836ZM68.2521 30.5357H70.2681V30.7866H68.2521V30.5357Z" fill="white"/>
<path d="M73.5028 28.9177C73.7279 29.1107 73.8437 29.3745 73.8437 29.7058C73.8437 30.0371 73.7311 30.3041 73.5028 30.4938C73.2777 30.6836 72.9626 30.7769 72.5607 30.7769H71.7183V31.7676H71.3839V28.625H72.5607C72.9626 28.625 73.2745 28.7183 73.5028 28.9113M73.2649 30.2783C73.4289 30.1432 73.5125 29.9502 73.5125 29.6994C73.5125 29.4485 73.4289 29.249 73.2649 29.1107C73.1009 28.9756 72.8629 28.9048 72.5511 28.9048H71.715V30.4778H72.5511C72.8629 30.4778 73.1009 30.4102 73.2649 30.2719" fill="white"/>
<path d="M75.2231 28.9177V30.1851H76.58V30.4392H75.2295V31.7708H74.9015V30.4392H74.4192V30.1851H74.9015V28.6282H76.8983V28.9177H75.2231Z" fill="white"/>
<path d="M79.9111 30.0017C80.1073 30.169 80.2037 30.4134 80.2037 30.7383C80.2037 31.0632 80.1008 31.3334 79.8918 31.5103C79.6828 31.684 79.3838 31.7741 78.9915 31.7741H77.744V28.6314H78.0719V29.754H79.059C79.4288 29.754 79.7118 29.8409 79.9079 30.0049M79.641 31.3173C79.7922 31.1887 79.8661 30.9989 79.8661 30.748C79.8661 30.2655 79.5703 30.0274 78.9755 30.0274H78.0655V31.5135H78.9755C79.2648 31.5135 79.4867 31.4492 79.6378 31.3205M80.7407 28.6346H81.0687V31.7773H80.7407V28.6346Z" fill="white"/>
<path d="M84.985 28.6282V31.7708H84.6571V30.3234H82.6925V31.7708H82.3613V28.6282H82.6925V30.0307H84.6571V28.6282H84.985Z" fill="white"/>
<path d="M88.7632 30.6836V31.7708H88.4352V30.6836L87.1812 28.6282H87.5349L88.6088 30.3941L89.6892 28.6282H90.0204L88.7632 30.6836Z" fill="white"/>
<path d="M90.7535 28.6282H91.0815V31.2337L93.0911 28.6282H93.3901V31.7708H93.0622V29.1718L91.0525 31.7708H90.7535V28.6282ZM91.5316 28.2454C91.3998 28.1457 91.3355 28.001 91.3323 27.8208H91.5799C91.5799 27.9398 91.6281 28.0364 91.7149 28.1039C91.8017 28.1747 91.9175 28.2068 92.0622 28.2068C92.2069 28.2068 92.3226 28.1747 92.4094 28.1039C92.4995 28.0364 92.5445 27.9431 92.5477 27.8208H92.7953C92.7953 28.0042 92.7245 28.1457 92.5927 28.2454C92.4609 28.3451 92.284 28.3998 92.0654 28.3998C91.8467 28.3998 91.6634 28.3484 91.5348 28.2454" fill="white"/>
<path d="M97.1168 30.3298H96.3965V31.7708H96.075V28.6282H96.3965V30.0403H97.1168L98.1811 28.6282H98.538L97.3708 30.1561L98.6055 31.7708H98.2229L97.1168 30.3298Z" fill="white"/>
<path d="M101.564 31.4846V31.7708H99.3418V28.6282H101.496V28.9177H99.6698V30.0371H101.297V30.3169H99.6698V31.4846H101.564Z" fill="white"/>
<path d="M106.374 28.6282V31.7708H102.522V28.6282H102.85V31.4846H104.287V28.6282H104.615V31.4846H106.049V28.6282H106.374Z" fill="white"/>
<path d="M109.879 31.4846V31.7708H107.657V28.6282H109.811V28.9177H107.988V30.0371H109.615V30.3169H107.988V31.4846H109.879Z" fill="white"/>
<path d="M113.467 28.6282V31.7708H113.136V30.3234H111.171V31.7708H110.84V28.6282H111.171V30.0307H113.136V28.6282H113.467Z" fill="white"/>
<path d="M115.075 28.6282H114.747V31.7708H115.075V28.6282Z" fill="white"/>
<path d="M7.67055 0.210938C3.87055 0.210938 0.790039 3.29144 0.790039 7.09144V33.3548C0.790039 36.3767 2.46821 39.2322 5.44697 39.8681C6.33721 40.0581 7.23991 39.6153 8.17063 39.1586C9.03822 38.733 9.93015 38.2954 10.8591 38.3474C11.6624 38.3923 12.4157 38.8358 13.1735 39.282C14.0211 39.7809 14.8743 40.2832 15.8097 40.2353C18.285 40.1085 19.274 37.2663 19.4597 34.6353V30.6278C16.6488 34.4037 13.0826 34.9491 11.6982 34.9071C11.6562 33.8163 11.6142 32.4178 11.6142 31.8445C17.1103 31.8445 19.5436 26.6421 19.5436 25.3415V23.7053C18.6905 24.894 16.1705 27.2714 12.9148 27.2714C12.9148 26.5526 12.9008 25.7053 12.8889 24.9917C12.8803 24.4725 12.8729 24.0241 12.8729 23.7473C17.1942 23.7473 19.6275 20.0553 19.6275 18.0835V17.1605C18.9563 18.0555 16.9257 19.8455 14.1735 19.8455C14.1574 19.3648 14.1414 18.933 14.1277 18.5642C14.1056 17.9675 14.0895 17.5357 14.0895 17.3283C18.2011 17.3283 19.7534 13.2168 19.7534 12.2518V11.203C19.1101 11.9022 17.3368 13.3007 15.3901 13.3007C15.3901 12.0588 15.3342 10.6855 15.3062 10.1541C19.208 10.1541 19.7953 6.50408 19.7953 5.7489H21.6833C21.6833 6.50408 22.2706 10.1541 26.1724 10.1541C26.1444 10.6855 26.0885 12.0588 26.0885 13.3007C24.1418 13.3007 22.3685 11.9022 21.7252 11.203V12.2518C21.7252 13.2168 23.2775 17.3283 27.3891 17.3283C27.3891 17.5357 27.373 17.9675 27.3509 18.5642C27.3372 18.933 27.3212 19.3648 27.3051 19.8455C24.5529 19.8455 22.5224 18.0555 21.8511 17.1605V18.0835C21.8511 20.0553 24.2844 23.7473 28.6057 23.7473C28.6057 24.0241 28.5983 24.4725 28.5897 24.9917C28.5778 25.7053 28.5638 26.5526 28.5638 27.2714C25.3081 27.2714 22.7881 24.894 21.935 23.7053V25.3415C21.935 26.6421 24.3684 31.8445 29.8644 31.8445C29.8644 32.4178 29.8224 33.8163 29.7804 34.9071C28.396 34.9491 24.8298 34.4037 22.0189 30.6278C22.0189 31.9703 22.0609 33.2071 22.0609 34.6554C22.5251 40.1059 24.5681 40.2353 25.8787 40.2353C26.7597 40.2353 27.4966 39.7721 28.3497 39.2994C29.256 38.7973 30.1814 38.2846 31.081 38.3054C31.8444 38.323 32.5887 38.7203 33.3346 39.1186C34.233 39.5982 35.1338 40.0791 36.0736 39.8997C39.4719 39.251 40.8144 36.4848 40.8144 33.3548V7.09144C40.8144 3.29144 37.7339 0.210938 33.9339 0.210938H7.67055Z" fill="white"/>
</svg>
