<svg width="147" height="113" viewBox="0 0 147 113" fill="none" xmlns="http://www.w3.org/2000/svg">
<path d="M82.9884 111.328H82.1888L80.1888 108.792V111.328H79.486V108.792L77.486 111.328H76.6934L78.8063 108.626L76.7694 106.045H77.562L79.486 108.467V106.045H80.1888V108.467L82.1128 106.045H82.9124L80.8662 108.626L82.9861 111.328H82.9884Z" fill="#1A1A1A"/>
<path d="M86.9573 111.328V107.388L84.2406 111.328H83.6738V106.045H84.3766V109.992L87.0932 106.045H87.6601V111.328H86.9573Z" fill="#1A1A1A"/>
<path d="M88.3301 110.696C88.5006 110.721 88.6527 110.712 88.784 110.666C88.9153 110.619 89.0236 110.534 89.1135 110.405C89.2011 110.276 89.2679 110.101 89.3094 109.878C89.3531 109.654 89.3739 109.375 89.3739 109.043V106.048H92.8601V111.331H92.1573V106.712H90.0744V109.043C90.0744 109.527 90.0283 109.921 89.9384 110.232C89.8485 110.541 89.7241 110.781 89.5697 110.949C89.413 111.117 89.231 111.23 89.019 111.285C88.8071 111.341 88.5789 111.357 88.3324 111.331V110.698L88.3301 110.696Z" fill="#1A1A1A"/>
<path d="M93.7109 108.686C93.7109 107.921 93.9759 107.276 94.5036 106.746C95.0312 106.214 95.6787 105.947 96.4437 105.947C97.2087 105.947 97.8539 106.214 98.3838 106.746C98.9161 107.274 99.1834 107.921 99.1834 108.686C99.1834 109.451 98.9161 110.092 98.3838 110.626C97.8562 111.159 97.2087 111.426 96.4437 111.426C95.6787 111.426 95.0312 111.159 94.5036 110.626C93.9759 110.094 93.7109 109.447 93.7109 108.686ZM98.4806 108.691C98.4806 108.106 98.2847 107.617 97.893 107.223C97.5105 106.824 97.029 106.626 96.446 106.626C95.863 106.626 95.3838 106.824 94.9921 107.223C94.605 107.622 94.4114 108.11 94.4114 108.691C94.4114 109.271 94.605 109.755 94.9921 110.159C95.3838 110.553 95.8677 110.748 96.446 110.748C97.0244 110.748 97.5059 110.553 97.893 110.159C98.2847 109.76 98.4806 109.271 98.4806 108.691Z" fill="#1A1A1A"/>
<path d="M103.313 111.329V107.389L100.596 111.329H100.029V106.046H100.732V109.993L103.449 106.046H104.016V111.329H103.313ZM101.004 105.481V104.907H103.041V105.481H101.004Z" fill="#1A1A1A"/>
<path d="M110.872 111.328H110.013L107.734 108.792V111.328H107.031V106.045H107.734V108.43L109.937 106.045H110.796L108.464 108.612L110.872 111.328Z" fill="#1A1A1A"/>
<path d="M110.77 108.686C110.77 107.921 111.035 107.276 111.562 106.746C112.09 106.214 112.737 105.947 113.502 105.947C114.267 105.947 114.912 106.214 115.442 106.746C115.975 107.274 116.242 107.921 116.242 108.686C116.242 109.451 115.975 110.092 115.442 110.626C114.915 111.159 114.267 111.426 113.502 111.426C112.737 111.426 112.09 111.159 111.562 110.626C111.035 110.094 110.77 109.447 110.77 108.686ZM115.539 108.691C115.539 108.106 115.343 107.617 114.952 107.223C114.569 106.824 114.088 106.626 113.505 106.626C112.922 106.626 112.442 106.824 112.051 107.223C111.664 107.622 111.47 108.11 111.47 108.691C111.47 109.271 111.664 109.755 112.051 110.159C112.442 110.553 112.926 110.748 113.505 110.748C114.083 110.748 114.565 110.553 114.952 110.159C115.343 109.76 115.539 109.271 115.539 108.691Z" fill="#1A1A1A"/>
<path d="M122.038 106.046V111.329H121.335V107.2L119.607 110.076H119.517L117.789 107.207V111.327H117.086V106.044H117.879L119.565 108.836L121.243 106.044H122.035L122.038 106.046Z" fill="#1A1A1A"/>
<path d="M126.995 106.045V111.328H126.292V106.709H123.861V111.328H123.158V106.045H126.992H126.995Z" fill="#1A1A1A"/>
<path d="M127.667 110.696C127.837 110.721 127.989 110.712 128.118 110.666C128.247 110.619 128.358 110.534 128.446 110.405C128.533 110.276 128.6 110.101 128.641 109.878C128.683 109.654 128.706 109.375 128.706 109.043V106.048H132.192V111.331H131.489V106.712H129.406V109.043C129.406 109.527 129.36 109.921 129.27 110.232C129.181 110.541 129.056 110.781 128.899 110.949C128.743 111.117 128.561 111.23 128.349 111.285C128.137 111.341 127.909 111.357 127.662 111.331V110.698L127.667 110.696Z" fill="#1A1A1A"/>
<path d="M134.029 110.665H136.483V111.328H133.328V106.045H136.446V106.709H134.031V108.331H136.257V108.987H134.031V110.663L134.029 110.665Z" fill="#1A1A1A"/>
<path d="M141.169 111.328H140.31L138.031 108.792V111.328H137.328V106.045H138.031V108.43L140.234 106.045H141.093L138.761 108.612L141.169 111.328Z" fill="#1A1A1A"/>
<path d="M143.832 111.426C143.028 111.426 142.364 111.161 141.848 110.633C141.325 110.11 141.062 109.46 141.062 108.686C141.062 107.912 141.323 107.262 141.848 106.739C142.367 106.212 143.028 105.947 143.832 105.947C144.074 105.947 144.307 105.976 144.53 106.036C144.754 106.096 144.963 106.182 145.162 106.292C145.358 106.403 145.537 106.536 145.699 106.695C145.86 106.854 145.998 107.032 146.113 107.228L145.503 107.583C145.351 107.29 145.127 107.057 144.828 106.884C144.528 106.712 144.198 106.624 143.834 106.624C143.222 106.624 142.722 106.82 142.339 107.214C141.957 107.603 141.765 108.094 141.765 108.689C141.765 109.283 141.957 109.767 142.339 110.156C142.722 110.55 143.219 110.746 143.834 110.746C144.196 110.746 144.528 110.659 144.828 110.486C145.127 110.313 145.353 110.083 145.503 109.795L146.113 110.142C145.892 110.534 145.576 110.848 145.171 111.083C144.768 111.311 144.323 111.426 143.834 111.426H143.832Z" fill="#1A1A1A"/>
<path d="M4.5391 106.045V106.709H2.97686V111.328H2.27408V106.709H0.71875V106.045H4.53679H4.5391Z" fill="#1A1A1A"/>
<path d="M9.16053 106.045L7.28953 109.192V109.374H8.31489V110.008H7.28953V111.328H6.58675V110.008H5.56138V109.374H6.58675V109.186L4.72266 106.045H5.50839L6.94159 108.52L8.3748 106.045H9.16053Z" fill="#1A1A1A"/>
<path d="M11.7049 106.045C12.1888 106.045 12.5943 106.209 12.9238 106.536C13.251 106.863 13.4146 107.266 13.4146 107.743C13.4146 108.22 13.251 108.623 12.9238 108.951C12.5966 109.278 12.1888 109.441 11.7049 109.441H10.486V111.328H9.7832V106.045H11.7049ZM11.7003 108.785C11.9929 108.785 12.2326 108.686 12.4238 108.49C12.6151 108.285 12.7118 108.033 12.7118 107.743C12.7118 107.593 12.6865 107.453 12.6358 107.324C12.5851 107.195 12.516 107.086 12.4238 106.997C12.3339 106.907 12.2256 106.835 12.1035 106.782C11.9791 106.729 11.8455 106.704 11.7003 106.704H10.486V108.787H11.7003V108.785Z" fill="#1A1A1A"/>
<path d="M13.8129 108.384H14.3636V106.045H17.329V106.709H15.064V108.384H16.5664V109.017H15.064V111.326H14.3613V109.017H13.8105V108.384H13.8129Z" fill="#1A1A1A"/>
<path d="M18.0254 111.328V106.045H18.7282V107.932H19.9471C20.431 107.932 20.8365 108.096 21.166 108.423C21.4932 108.75 21.6568 109.153 21.6568 109.63C21.6568 110.107 21.4932 110.517 21.166 110.845C20.8434 111.167 20.4379 111.328 19.9471 111.328H18.0254ZM18.7282 110.672H19.9425C20.0876 110.672 20.2236 110.646 20.3457 110.593C20.4678 110.54 20.5761 110.469 20.666 110.379C20.7559 110.289 20.8273 110.179 20.878 110.052C20.9287 109.923 20.954 109.785 20.954 109.633C20.954 109.48 20.9287 109.342 20.878 109.213C20.8273 109.084 20.7582 108.976 20.666 108.886C20.5761 108.796 20.4678 108.725 20.3457 108.672C20.2213 108.619 20.0876 108.593 19.9425 108.593H18.7282V110.676V110.672ZM22.1845 111.328V106.045H22.8872V111.328H22.1845Z" fill="#1A1A1A"/>
<path d="M27.2872 106.045H27.99V111.328H27.2872V108.951H24.7204V111.328H24.0176V106.045H24.7204V108.287H27.2872V106.045Z" fill="#1A1A1A"/>
<path d="M34.932 106.045L33.061 109.192V111.328H32.3582V109.186L30.4941 106.045H31.2799L32.7131 108.52L34.1463 106.045H34.932Z" fill="#1A1A1A"/>
<path d="M38.8401 111.329V107.389L36.1235 111.329H35.5566V106.046H36.2594V109.993L38.9761 106.046H39.5429V111.329H38.8401ZM36.5313 105.481V104.907H38.5682V105.481H36.5313Z" fill="#1A1A1A"/>
<path d="M46.4016 111.328H45.5422L43.2633 108.792V111.328H42.5605V106.045H43.2633V108.43L45.4661 106.045H46.3256L43.9937 108.612L46.4016 111.328Z" fill="#1A1A1A"/>
<path d="M47.7317 110.665H50.1857V111.328H47.0312V106.045H50.1488V106.709H47.734V108.331H49.9599V108.987H47.734V110.663L47.7317 110.665Z" fill="#1A1A1A"/>
<path d="M56.3497 106.045H57.0524V111.328H51.0293V106.045H51.7321V110.665H53.6952V106.045H54.398V110.665H56.352V106.045H56.3497Z" fill="#1A1A1A"/>
<path d="M58.886 110.665H61.34V111.328H58.1855V106.045H61.3031V106.709H58.8883V108.331H61.1142V108.987H58.8883V110.663L58.886 110.665Z" fill="#1A1A1A"/>
<path d="M65.4513 106.045H66.1541V111.328H65.4513V108.951H62.8844V111.328H62.1816V106.045H62.8844V108.287H65.4513V106.045Z" fill="#1A1A1A"/>
<path d="M67.2773 106.045H67.9801V111.328H67.2773V106.045Z" fill="#1A1A1A"/>
<path d="M72.695 105.017H71.9922V112.354H72.695V105.017Z" fill="#1A1A1A"/>
<path fill-rule="evenodd" clip-rule="evenodd" d="M40.5273 58.8691L57.3118 58.8668C58.3 58.8667 59.2847 58.7502 60.2456 58.5199C62.0154 58.0954 63.3433 57.5212 64.7264 56.582C65.4254 56.1073 66.0693 55.556 66.646 54.9385L67.3424 54.1928C67.9637 53.5274 68.4923 52.7812 68.9138 51.9742C69.263 51.3054 69.724 50.1966 69.9381 49.5103C70.1966 48.6816 70.3512 47.8241 70.3985 46.9573L70.4388 46.2187C70.4946 45.1988 70.4205 44.1759 70.2182 43.1747C70.0159 42.1731 69.6934 41.1996 69.2575 40.2754L69.1779 40.1067C68.7729 39.2476 68.2796 38.433 67.7059 37.676C67.133 36.9198 66.4673 36.2387 65.7246 35.6485L65.4223 35.4083C64.6293 34.7781 63.7669 34.2407 62.8518 33.8065C61.9371 33.3724 60.9737 33.0491 59.9822 32.8437L59.3994 32.723C58.5283 32.5426 57.6361 32.4864 56.7492 32.5563C55.8659 32.6259 55.0038 32.8623 54.2086 33.2531L53.9908 33.3601C53.2592 33.7196 52.5989 34.2088 52.042 34.804C51.4841 35.4006 51.0187 36.0916 50.6724 36.8314L50.6309 36.9202C50.3095 37.6073 50.1091 38.3447 50.0385 39.1C49.968 39.8551 50.0282 40.6168 50.2164 41.3515L50.2805 41.6014C50.4318 42.1923 50.6651 42.7591 50.9735 43.2854C51.2291 43.7218 51.7825 44.4329 52.2032 44.8657L52.2747 44.9393C52.7337 45.4115 53.2677 45.8044 53.8551 46.1021C54.4435 46.4003 55.0717 46.6124 55.7205 46.7319L55.924 46.7693C56.6104 46.8959 57.1108 47.4909 57.1179 48.1887L57.1325 49.6303C57.1473 51.084 57.1672 52.3737 57.177 52.4962C57.1864 52.6137 57.0894 52.7122 56.9718 52.7045L56.3036 52.6611C53.1923 52.4593 50.1941 51.081 47.9789 48.8345C47.3024 48.1484 46.7038 47.3896 46.1941 46.5719L46.0694 46.3718C45.5594 45.5534 45.1501 44.6763 44.8506 43.7597C44.5513 42.8441 44.3794 41.8917 44.3398 40.9293L44.2806 39.494C44.2446 38.619 44.328 37.7431 44.5286 36.8906C44.7294 36.0368 45.0253 35.2082 45.4106 34.4203L45.6372 33.9569C46.171 32.8656 46.8651 31.8568 47.6942 30.9689L47.8032 30.8522C48.4451 30.1649 48.4424 29.0972 47.7971 28.4131L47.4971 28.0952C46.9335 27.4977 46.4344 26.8426 46.008 26.1407C45.5816 25.4388 45.2293 24.6945 44.9567 23.9197L44.8655 23.6605C44.5339 22.7178 44.3644 21.7256 44.3644 20.7263V18.3424C44.3644 17.38 44.5279 16.4246 44.8479 15.5169C45.1693 14.605 45.5814 13.7277 46.0782 12.8981L46.0913 12.8763C46.5963 12.0332 47.2001 11.2533 47.8899 10.5532L48.1223 10.3174C48.7819 9.648 49.5249 9.06613 50.3328 8.5861C52.3308 7.39923 54.6247 6.65873 56.3481 6.64447C56.7655 6.64103 57.1057 6.97845 57.1057 7.39587V11.6498C57.1057 12.0393 56.8221 12.3707 56.4373 12.4309C53.1872 12.9386 50.9004 15.0392 50.1551 18.2016L50.1465 18.2382C50.0029 18.8473 49.9624 19.4761 50.0268 20.0986C50.0911 20.7224 50.2429 21.334 50.4778 21.9155L50.6411 22.3197C50.8817 22.9153 51.2019 23.4754 51.593 23.9849C51.9172 24.4074 52.5249 25.0158 52.9437 25.337C53.4478 25.7241 54.0105 26.0281 54.6106 26.2374L55.0042 26.3747C55.8619 26.6738 56.7705 26.7994 57.6771 26.7443L58.3875 26.7011C59.2531 26.6484 60.1094 26.4931 60.9384 26.2383C61.6247 26.0275 62.8279 25.5249 63.6123 25.1217C64.5572 24.6358 65.4199 24.0046 66.1691 23.2511L67.2341 22.18C67.7884 21.6225 68.2704 20.9975 68.6687 20.3197C68.9987 19.7582 69.5096 18.6 69.8039 17.7459C70.159 16.7158 70.3674 15.6409 70.4229 14.5527L70.4594 13.8384C70.5019 13.0059 70.4513 12.1713 70.3086 11.3501C70.1659 10.5285 69.9378 9.72405 69.6282 8.94981L69.5645 8.79057C69.2125 7.9104 68.7705 7.06894 68.2457 6.27955L68.2332 6.26085C67.7006 5.4596 67.0747 4.72441 66.3687 4.07073L66.1919 3.90707C65.3697 3.14595 64.4435 2.50547 63.4411 2.00482L63.302 1.93531C62.3941 1.48199 61.1701 0.975372 60.5818 0.809588C59.872 0.609531 59.1385 0.505557 58.4011 0.500447L40.5273 0.376587V58.8691ZM87.4995 0.577669C85.9748 0.806914 85.0601 1.11709 83.3994 1.96793C82.3365 2.51263 81.366 3.22138 80.5236 4.06811L79.7098 4.88612C79.0823 5.51679 78.5384 6.22547 78.0915 6.99475C77.644 7.76525 77.2756 8.57903 76.9919 9.42367L76.9395 9.57956C76.6223 10.524 76.4606 11.5137 76.4606 12.51V14.6709C76.4606 15.6672 76.6223 16.6569 76.9395 17.6014L76.9975 17.774C77.2774 18.6073 77.6441 19.409 78.0915 20.1657C78.539 20.9223 79.0654 21.6294 79.6621 22.275L80.0427 22.6869C80.6877 23.385 81.4142 24.0032 82.2067 24.5281C83.6599 25.4909 85.3051 26.1972 86.8643 26.5277C87.6422 26.6925 88.435 26.7766 89.2302 26.7786L89.4928 26.7792C90.246 26.781 90.9944 26.6592 91.7082 26.4187C92.3011 26.2189 93.0807 25.8693 93.4408 25.6415C94.3495 25.0666 95.5047 23.7698 96.0282 22.7366C96.3204 22.1601 96.5319 21.5461 96.6567 20.912L96.6841 20.7728C96.8264 20.0489 96.8345 19.3051 96.7079 18.5783L96.6539 18.2678C96.5403 17.6159 96.3306 16.9846 96.0314 16.3943C95.7323 15.8037 95.3509 15.2585 94.8985 14.7751L94.7909 14.66C94.2682 14.1012 93.6546 13.6318 92.9787 13.273L92.9059 13.2343C92.2764 12.9002 91.5993 12.6648 90.8982 12.5364C90.3165 12.4298 89.8151 12.3426 89.7841 12.3426C89.753 12.3426 89.7277 11.0475 89.7277 9.46475V7.88001C89.7277 7.18616 90.3243 6.64249 91.0151 6.70668C91.8703 6.78614 92.7129 6.96774 93.5249 7.24761L93.7802 7.33559C94.5929 7.61581 95.7182 8.11496 96.2808 8.44492C96.9601 8.84321 97.5861 9.3261 98.1438 9.88202L99.1889 10.9238C99.9543 11.6868 100.597 12.5637 101.094 13.5234L101.138 13.6082C101.607 14.5138 101.964 15.473 102.202 16.4648C102.44 17.4567 102.561 18.4732 102.561 19.4933L102.562 19.7824C102.562 20.6557 102.468 21.5264 102.28 22.3793C102.093 23.2317 101.806 24.0595 101.428 24.8459L101.225 25.2666C100.713 26.3303 100.045 27.3116 99.244 28.1783L99.0264 28.4136C98.3884 29.1037 98.3882 30.1684 99.0261 30.8587L99.2587 31.1104C99.8553 31.7561 100.382 32.4631 100.829 33.2198C101.276 33.9763 101.64 34.7796 101.912 35.6152L101.967 35.7841C102.275 36.7305 102.454 37.7143 102.497 38.7086L102.545 39.7888C102.585 40.7165 102.504 41.6455 102.302 42.5518C102.101 43.4587 101.788 44.3374 101.372 45.1682L101.188 45.5367C100.65 46.6103 99.9554 47.5976 99.1261 48.4657L98.7203 48.8904C98.0378 49.6048 97.2678 50.2301 96.4286 50.7515L96.3619 50.793C95.5665 51.2872 94.716 51.6865 93.8278 51.9828C93.0924 52.2283 92.0496 52.4791 91.5104 52.5402C90.9711 52.6014 90.3493 52.6882 90.1288 52.7331C89.9216 52.7754 89.7277 52.6171 89.7277 52.4056V47.8151C89.7277 47.3271 90.0848 46.9124 90.5675 46.8401C91.7647 46.6604 93.0741 46.1246 94.0242 45.4251C94.567 45.0255 95.036 44.5345 95.4103 43.974L95.5726 43.731C96.0537 43.0106 96.397 42.2072 96.5851 41.3615L96.635 41.1371C96.8138 40.3338 96.8313 39.503 96.6866 38.6928L96.6721 38.6119C96.5362 37.8514 96.2918 37.1144 95.9464 36.4234C95.602 35.7341 95.1376 35.1118 94.5749 34.5854L94.5629 34.5742C93.5276 33.6057 92.6008 33.1104 91.1091 32.7282C90.3717 32.5391 89.6078 32.4749 88.8491 32.5381L88.6452 32.5551C85.1172 32.849 82.0382 34.3532 79.7303 36.9104C79.1992 37.4988 78.4947 38.4277 78.1648 38.9748C77.7658 39.6361 77.4365 40.3369 77.1822 41.0661L77.02 41.5311C76.6588 42.5665 76.4538 43.6499 76.4116 44.7457L76.376 45.6697C76.3364 46.6965 76.4428 47.7237 76.6919 48.7206C76.9416 49.7196 77.2975 50.6889 77.7536 51.6121L77.8303 51.7675C78.2595 52.6362 78.7943 53.4486 79.4228 54.1861C81.0535 56.1003 83.2124 57.5319 85.7168 58.3603C86.5436 58.6337 87.4082 58.7756 88.279 58.7807L106.306 58.8862V0.399049L89.2921 0.441372C88.692 0.442865 88.0929 0.48842 87.4995 0.577669ZM72.5541 24.8793C72.008 25.6446 71.3843 26.3515 70.6931 26.9889L70.3463 27.3086C69.5839 28.0115 68.6193 28.8025 68.2029 29.0659C67.7863 29.3294 67.4457 29.585 67.4457 29.6341C67.4457 29.6831 67.8057 29.9507 68.2459 30.2287C68.6858 30.5068 69.6533 31.3013 70.3954 31.9944L70.7289 32.3059C71.4044 32.9366 72.015 33.6334 72.5518 34.3856C72.9957 35.0078 73.3809 35.5167 73.4078 35.5167C73.4347 35.5167 73.8644 34.9687 74.3624 34.2988C75.3364 32.9891 77.0551 31.2997 78.3853 30.3444C78.8389 30.0186 79.2103 29.6959 79.2103 29.6275C79.2103 29.5592 78.8862 29.2888 78.4903 29.0267C77.4505 28.3386 75.2657 26.2186 74.3777 25.0361C73.9576 24.4766 73.5602 23.9534 73.4946 23.8735C73.4346 23.8002 73.3214 23.804 73.2664 23.8811L72.5541 24.8793Z" fill="#471224"/>
<path d="M14.311 89.4707C16.2818 90.606 17.2672 92.3198 17.2672 94.6119C17.2672 96.5185 16.5924 98.0823 15.2428 99.3033C13.8932 100.524 12.233 101.135 10.2622 101.135H0.71875V78.6419H9.58743C11.494 78.6419 13.1113 79.2417 14.4395 80.4413C15.7677 81.641 16.4317 83.1512 16.4317 84.9721C16.4317 86.8572 15.7248 88.3567 14.311 89.4707ZM5.15309 82.787V87.7355H9.58743C10.2729 87.7355 10.8406 87.4999 11.2905 87.0286C11.7618 86.5573 11.9974 85.9682 11.9974 85.2613C11.9974 84.5543 11.7725 83.9652 11.3226 83.494C10.8727 83.0227 10.2944 82.787 9.58743 82.787H5.15309ZM10.2622 96.9898C11.012 96.9898 11.6332 96.7434 12.1259 96.2507C12.6186 95.7366 12.865 95.0939 12.865 94.3227C12.865 93.573 12.6186 92.9517 12.1259 92.459C11.6332 91.9449 11.012 91.6878 10.2622 91.6878H5.15309V96.9898H10.2622Z" fill="#1A1A1A"/>
<path d="M33.9914 101.135L32.6418 97.0862H23.6767L22.3271 101.135H17.5393L25.4119 78.6419H30.9066L38.8113 101.135H33.9914ZM25.0906 92.941H31.2601L28.1753 83.751L25.0906 92.941Z" fill="#1A1A1A"/>
<path d="M40.3527 78.6419H44.787V101.135H40.3527V78.6419Z" fill="#1A1A1A"/>
<path d="M69.3551 78.6419V101.135H64.9529V86.5466L58.6228 96.9898H58.1086L51.7784 86.5787V101.135H47.3441V78.6419H51.907L58.3657 89.2779L64.7923 78.6419H69.3551Z" fill="#1A1A1A"/>
<path d="M75.667 76.5854V73.2114H84.9855V76.5854H75.667ZM80.3263 101.585C77.8199 101.585 75.7634 100.878 74.1568 99.464C72.5501 98.0502 71.7468 96.1543 71.7468 93.7765V78.6419H76.149V93.423C76.149 94.6012 76.481 95.5331 77.1451 96.2186C77.8306 96.9041 78.891 97.2468 80.3263 97.2468C81.7615 97.2468 82.8112 96.9041 83.4753 96.2186C84.1608 95.5331 84.5035 94.6012 84.5035 93.423V78.6419H88.9379V93.7765C88.9379 96.1543 88.1346 98.0502 86.5279 99.464C84.9213 100.878 82.8541 101.585 80.3263 101.585Z" fill="#1A1A1A"/>
<path d="M103.665 101.135L99.1343 93.3266H95.7604V101.135H91.326V78.6419H100.323C102.401 78.6419 104.168 79.3702 105.625 80.8269C107.082 82.2836 107.81 84.0402 107.81 86.0967C107.81 87.5106 107.414 88.8066 106.621 89.9848C105.829 91.163 104.779 92.052 103.472 92.6518L108.453 101.135H103.665ZM95.7604 82.787V89.4385H100.323C100.73 89.4385 101.116 89.3529 101.48 89.1815C101.866 89.0101 102.198 88.7745 102.476 88.4746C102.755 88.1532 102.969 87.7891 103.119 87.382C103.29 86.975 103.376 86.5466 103.376 86.0967C103.376 85.6469 103.29 85.2184 103.119 84.8114C102.969 84.4044 102.755 84.0509 102.476 83.751C102.198 83.4511 101.866 83.2155 101.48 83.0441C101.116 82.8727 100.73 82.787 100.323 82.787H95.7604Z" fill="#1A1A1A"/>
<path d="M123.917 101.135L122.567 97.0862H113.602L112.253 101.135H107.465L115.338 78.6419H120.832L128.737 101.135H123.917ZM115.016 92.941H121.186L118.101 83.751L115.016 92.941Z" fill="#1A1A1A"/>
<path d="M129.926 85.7434C129.926 81.477 133.302 78.5151 138.106 78.5151C142.848 78.5151 145.978 81.2775 145.978 84.9607C145.978 87.6771 144.643 89.3499 140.899 92.9257L136.249 97.3762V97.4683H146.285V101.152H130.187V97.9747L138.029 90.5469C140.837 87.8459 141.466 86.787 141.466 85.2523C141.466 83.4721 140.101 82.1216 138.106 82.1216C135.896 82.1216 134.223 83.6102 134.223 85.7434H129.926Z" fill="#1A1A1A"/>
</svg>
