<svg width="230" height="80" viewBox="0 0 230 80" fill="none" xmlns="http://www.w3.org/2000/svg">
<path d="M9.87806 16.9298C9.87806 19.0241 10.2178 20.8636 10.8969 22.4486C11.5764 23.9771 12.4254 25.3638 13.4443 26.6091C14.5197 27.8546 15.6519 29.0431 16.8407 30.1753C18.0294 31.3075 19.133 32.5244 20.1521 33.8265C21.2276 35.0718 22.105 36.515 22.7841 38.1565C23.4633 39.7415 23.803 41.6663 23.803 43.9304V51.6571C23.803 53.525 23.4917 55.11 22.8691 56.4118C22.2464 57.7139 21.3974 58.7609 20.3217 59.5534C19.2463 60.3459 17.9726 60.912 16.501 61.2518C15.0858 61.6477 13.5292 61.8176 11.8309 61.7611C8.43481 61.7045 5.77412 60.9402 3.84969 59.4685C1.92496 57.9968 0.962891 55.393 0.962891 51.6571V42.8266H9.02903V48.7701C9.02903 49.506 9.05745 50.2136 9.11398 50.8927C9.1705 51.5154 9.28383 52.0815 9.45369 52.5911C9.68007 53.1004 9.99139 53.4966 10.3876 53.7799C10.7839 54.0628 11.2932 54.2042 11.9158 54.2042C12.5385 54.2042 13.0481 54.0628 13.4443 53.7799C13.8406 53.4401 14.1235 53.0155 14.2933 52.5062C14.5197 51.9966 14.6612 51.4308 14.718 50.8078C14.7745 50.1287 14.8029 49.4495 14.8029 48.7701V46.223C14.8029 44.0719 14.4632 42.2889 13.784 40.8738C13.1611 39.4021 12.3689 38.1 11.4065 36.9681C10.4442 35.7793 9.39688 34.6755 8.26495 33.6566C7.18925 32.5809 6.17037 31.3641 5.2083 30.0055C4.24594 28.5903 3.42501 26.9488 2.74586 25.0809C2.12322 23.213 1.8119 20.892 1.8119 18.1183V10.9011C1.8119 7.16531 2.80239 4.53302 4.78364 3.00484C6.76489 1.41984 9.45369 0.683861 12.8498 0.797202C16.2462 0.853725 18.9066 1.61782 20.8313 3.08977C22.8125 4.56143 23.803 7.16531 23.803 10.9011V20.9204H15.6519V13.7882C15.6519 12.3163 15.4821 11.071 15.1424 10.0521C14.8594 8.97669 14.0669 8.43899 12.7651 8.43899C11.4631 8.43899 10.6424 8.97669 10.3027 10.0521C10.0195 11.1275 9.87806 12.3731 9.87806 13.7882V16.9298Z" fill="white"/>
<path d="M48.9207 60.9116H40.4299L38.3072 11.0705H37.6281L35.2506 60.9116H26.7598L30.9202 1.47592H45.1846L48.9207 60.9116ZM44.5904 53.1H32.109V44.4393H44.5904V53.1Z" fill="white"/>
<path d="M53.1484 60.9116V1.47592H61.7242L66.9885 43.7601H67.5827L66.8186 1.47592H75.3094V60.9116H66.8186V60.8267L61.3845 18.4576H60.7902L61.6393 60.9116H53.1484Z" fill="white"/>
<path d="M95.2867 1.47592C95.9658 1.47592 96.7302 1.56086 97.5792 1.73072C98.4282 1.90059 99.2207 2.24002 99.9567 2.74961C100.692 3.2592 101.315 3.99489 101.825 4.95725C102.334 5.86279 102.589 7.05153 102.589 8.52349L102.504 52.6756C102.504 55.2227 101.683 57.2323 100.042 58.704C98.3998 60.1756 95.8812 60.9116 92.4848 60.9116H80.4277V1.47592H95.2867ZM88.9186 53.015C90.9563 53.6945 92.3433 53.6661 93.079 52.9301C93.8715 52.1944 94.2678 50.8642 94.2678 48.9395V12.1744C94.2678 11.7781 94.2113 11.3538 94.0979 10.9007C93.9849 10.3914 93.7301 9.96673 93.3338 9.62701C92.9941 9.23105 92.4564 9.00438 91.7204 8.94785C91.0413 8.83481 90.1073 8.97626 88.9186 9.37251V53.015Z" fill="white"/>
<path d="M107.707 1.47592H116.198V60.9966H107.707V1.47592ZM107.707 1.47592H115.349V60.9966H107.707V1.47592Z" fill="white"/>
<path d="M154.912 46.9872C154.912 48.8551 154.77 50.4117 154.486 51.6573C154.261 52.8457 153.891 53.8081 153.382 54.544C152.873 55.28 152.249 55.8459 151.515 56.2421C150.834 56.5818 150.044 56.8647 149.136 57.0911L146.845 55.2232L146.336 55.3931C146.336 57.5442 145.824 59.0158 144.806 59.8083C143.788 60.5443 142.175 60.9122 139.968 60.9122C139.287 60.9122 138.524 60.7988 137.674 60.5724C136.881 60.3461 136.118 59.8368 135.381 59.0443C134.647 58.2518 134.022 57.1195 133.513 55.6479C133.004 54.1194 132.75 52.0816 132.75 49.5346V10.8163C132.75 7.0805 133.741 4.44819 135.721 2.92001C137.704 1.39153 140.391 0.627457 143.788 0.627457C147.185 0.627457 149.872 1.39153 151.855 2.92001C153.891 4.44819 154.912 7.0805 154.912 10.8163V46.9872ZM143.788 8.26925C142.542 8.26925 141.749 8.83535 141.409 9.96728C141.128 11.0427 140.986 12.2883 140.986 13.7034V48.091C140.986 49.9024 141.128 51.3175 141.409 52.3364C141.693 53.2988 142.486 53.8081 143.788 53.8649C145.09 53.8081 145.883 53.2988 146.164 52.3364C146.505 51.3175 146.674 49.9024 146.674 48.091V13.7034C146.674 12.9674 146.647 12.2883 146.591 11.6656C146.534 10.9862 146.392 10.3919 146.164 9.88236C145.996 9.37306 145.712 8.9768 145.315 8.6936C144.919 8.41069 144.41 8.26925 143.788 8.26925ZM146.845 55.2232L152.873 55.1383L156.439 60.3176L149.136 63.6291L146.845 55.2232Z" fill="white"/>
<path d="M182.005 60.9116H173.515L171.393 11.0705H170.712L168.336 60.9116H159.846L164.004 1.47592H178.27L182.005 60.9116ZM177.675 53.1H165.193V44.4393H177.675V53.1Z" fill="white"/>
<path d="M194.724 1.47592V60.9116H186.23V1.47592H194.724ZM186.23 60.9116V55.3076L203.042 52.2509L205.762 60.9116H186.23Z" fill="white"/>
<path d="M229.599 60.9116H221.108L218.987 11.0705H218.306L215.93 60.9116H207.439L211.6 1.47592H225.864L229.599 60.9116ZM225.269 53.1H212.787V44.4393H225.269V53.1Z" fill="white"/>
<path d="M130.334 77.4679H129.077L125.931 73.4788V77.4679H124.827V73.4788L121.681 77.4679H120.436L123.759 73.2178L120.554 69.1594H121.8L124.827 72.9677V69.1594H125.931V72.9677L128.958 69.1594H130.216L126.996 73.2178L130.331 77.4679H130.334Z" fill="white"/>
<path d="M136.581 77.4679V71.272L132.311 77.4679H131.42V69.1594H132.524V75.3665L136.797 69.1594H137.688V77.4679H136.581Z" fill="white"/>
<path d="M138.736 76.4749C139.003 76.5146 139.242 76.5004 139.45 76.4279C139.657 76.3554 139.825 76.2213 139.967 76.0183C140.106 75.8153 140.21 75.5401 140.275 75.1885C140.346 74.8369 140.379 74.3987 140.379 73.8769V69.1664H145.859V77.4749H144.756V70.2101H141.48V73.8769C141.48 74.6378 141.406 75.2575 141.267 75.7466C141.124 76.232 140.929 76.609 140.686 76.8735C140.438 77.1378 140.154 77.3154 139.819 77.4024C139.485 77.4894 139.127 77.5148 138.739 77.4749V76.4785L138.736 76.4749Z" fill="white"/>
<path d="M147.205 73.3127C147.205 72.1097 147.619 71.0953 148.451 70.2619C149.28 69.4248 150.298 69.0045 151.502 69.0045C152.703 69.0045 153.718 69.4248 154.553 70.2619C155.39 71.0917 155.811 72.1097 155.811 73.3127C155.811 74.5156 155.39 75.523 154.553 76.3637C153.721 77.2006 152.703 77.6211 151.502 77.6211C150.298 77.6211 149.28 77.2006 148.451 76.3637C147.619 75.5268 147.205 74.5085 147.205 73.3127ZM154.704 73.3201C154.704 72.3997 154.396 71.6315 153.781 71.0118C153.18 70.385 152.422 70.0734 151.505 70.0734C150.588 70.0734 149.833 70.385 149.217 71.0118C148.611 71.6389 148.306 72.4068 148.306 73.3201C148.306 74.233 148.611 74.9942 149.217 75.628C149.833 76.2477 150.596 76.5558 151.505 76.5558C152.413 76.5558 153.171 76.2477 153.781 75.628C154.396 75.0013 154.704 74.233 154.704 73.3201Z" fill="white"/>
<path d="M162.299 77.4695V71.2736L158.026 77.4695H157.135V69.1609H158.242V75.3681L162.512 69.1609H163.403V77.4695H162.299ZM158.668 68.2735V67.3712H161.87V68.2735H158.668Z" fill="white"/>
<path d="M174.188 77.4679H172.836L169.252 73.4788V77.4679H168.148V69.1594H169.252V72.9097L172.718 69.1594H174.067L170.4 73.1962L174.188 77.4679Z" fill="white"/>
<path d="M174.023 73.3127C174.023 72.1097 174.441 71.0953 175.269 70.2619C176.098 69.4248 177.119 69.0045 178.32 69.0045C179.525 69.0045 180.537 69.4248 181.371 70.2619C182.209 71.0917 182.629 72.1097 182.629 73.3127C182.629 74.5156 182.209 75.523 181.371 76.3637C180.543 77.2006 179.525 77.6211 178.32 77.6211C177.119 77.6211 176.098 77.2006 175.269 76.3637C174.441 75.5268 174.023 74.5085 174.023 73.3127ZM181.522 73.3201C181.522 72.3997 181.215 71.6315 180.599 71.0118C179.998 70.385 179.241 70.0734 178.323 70.0734C177.406 70.0734 176.654 70.385 176.039 71.0118C175.429 71.6389 175.124 72.4068 175.124 73.3201C175.124 74.233 175.429 74.9942 176.039 75.628C176.654 76.2477 177.415 76.5558 178.323 76.5558C179.235 76.5558 179.989 76.2477 180.599 75.628C181.215 75.0013 181.522 74.233 181.522 73.3201Z" fill="white"/>
<path d="M191.74 69.1618V77.4704H190.633V70.9771L187.917 75.4992H187.775L185.058 70.988V77.4668H183.951V69.1583H185.2L187.852 73.5496L190.488 69.1583H191.737L191.74 69.1618Z" fill="white"/>
<path d="M199.544 69.1594V77.4679H198.437V70.2031H194.617V77.4679H193.51V69.1594H199.544Z" fill="white"/>
<path d="M200.589 76.4749C200.855 76.5146 201.095 76.5004 201.299 76.4279C201.5 76.3554 201.675 76.2213 201.814 76.0183C201.95 75.8153 202.057 75.5401 202.122 75.1885C202.187 74.8369 202.223 74.3987 202.223 73.8769V69.1664H207.706V77.4749H206.599V70.2101H203.323V73.8769C203.323 74.6378 203.252 75.2575 203.11 75.7466C202.968 76.232 202.773 76.609 202.527 76.8735C202.282 77.1378 201.995 77.3154 201.66 77.4024C201.329 77.4894 200.968 77.5148 200.58 77.4749V76.4785L200.589 76.4749Z" fill="white"/>
<path d="M210.593 76.4245H214.452V77.4679H209.492V69.1594H214.393V70.2031H210.596V72.7541H214.097V73.7866H210.596V76.4209L210.593 76.4245Z" fill="white"/>
<path d="M221.83 77.4679H220.478L216.894 73.4788V77.4679H215.787V69.1594H216.894V72.9097L220.356 69.1594H221.709L218.042 73.1962L221.83 77.4679Z" fill="white"/>
<path d="M226.012 77.6211C224.749 77.6211 223.704 77.2045 222.893 76.3747C222.071 75.552 221.656 74.5301 221.656 73.3127C221.656 72.0952 222.068 71.0737 222.893 70.251C223.707 69.4212 224.749 69.0045 226.012 69.0045C226.394 69.0045 226.758 69.0516 227.11 69.146C227.462 69.2401 227.791 69.3741 228.105 69.5481C228.412 69.7219 228.693 69.9323 228.948 70.182C229.202 70.4321 229.419 70.7112 229.599 71.0192L228.64 71.5774C228.401 71.1172 228.048 70.7511 227.578 70.4794C227.107 70.2075 226.589 70.0699 226.015 70.0699C225.054 70.0699 224.266 70.3779 223.666 70.9973C223.062 71.6099 222.763 72.3817 222.763 73.3165C222.763 74.2514 223.062 75.0122 223.666 75.6245C224.266 76.2442 225.048 76.5522 226.015 76.5522C226.586 76.5522 227.107 76.4143 227.578 76.1427C228.048 75.871 228.403 75.5085 228.64 75.0557L229.599 75.6029C229.253 76.2187 228.756 76.7114 228.119 77.081C227.483 77.44 226.785 77.6211 226.015 77.6211H226.012Z" fill="white"/>
<path d="M6.97055 69.1594V70.2031H4.51374V77.4679H3.40873V70.2031H0.962891V69.1594H6.97055Z" fill="white"/>
<path d="M14.2384 69.1594L11.2962 74.1091V74.3953H12.9088V75.3917H11.2962V77.4679H10.1912V75.3917H8.57873V74.3953H10.1912V74.0982L7.25977 69.1594H8.49529L10.7491 73.0512L13.0029 69.1594H14.2384Z" fill="white"/>
<path d="M18.2447 69.1594C19.0055 69.1594 19.6432 69.4169 20.1614 69.9315C20.6757 70.4458 20.9332 71.08 20.9332 71.8299C20.9332 72.5801 20.6757 73.2142 20.1614 73.7285C19.6468 74.2432 19.0055 74.5003 18.2447 74.5003H16.3277V77.4679H15.2227V69.1594H18.2447ZM18.2373 73.4678C18.6975 73.4678 19.0742 73.3119 19.3751 73.0041C19.6758 72.6815 19.8279 72.2865 19.8279 71.8299C19.8279 71.5946 19.7882 71.3735 19.7083 71.1705C19.6287 70.9675 19.5198 70.7974 19.3751 70.6559C19.2337 70.5148 19.0635 70.4023 18.8715 70.3191C18.6758 70.2357 18.4655 70.1957 18.2373 70.1957H16.3277V73.4714H18.2373V73.4678Z" fill="white"/>
<path d="M22.4166 72.8372V69.1594H27.0799V70.2031H23.5181V72.8372H25.8805V73.8339H23.5181V77.4644H22.4131V73.8339H21.5469V72.8372H22.4166Z" fill="white"/>
<path d="M28.1816 77.4679V69.1594H29.2866V72.127H31.2034C31.9642 72.127 32.6019 72.3844 33.1201 72.8988C33.6347 73.4134 33.8919 74.0476 33.8919 74.7974C33.8919 75.5476 33.6347 76.1925 33.1201 76.7071C32.6129 77.2143 31.9752 77.4679 31.2034 77.4679H28.1816ZM29.2866 76.4354H31.1963C31.4244 76.4354 31.6384 76.3955 31.8302 76.312C32.0222 76.2289 32.1927 76.1164 32.3338 75.9753C32.4753 75.8338 32.5877 75.6601 32.6673 75.4606C32.747 75.2576 32.7869 75.0404 32.7869 74.8013C32.7869 74.5622 32.747 74.3447 32.6673 74.1417C32.5877 73.939 32.4788 73.7685 32.3338 73.6273C32.1927 73.4859 32.0222 73.3737 31.8302 73.2903C31.6345 73.2068 31.4244 73.1669 31.1963 73.1669H29.2866V76.4425V76.4354ZM34.7217 77.4679V69.1594H35.827V77.4679H34.7217Z" fill="white"/>
<path d="M42.7469 69.1594H43.8522V77.4679H42.7469V73.7285H38.7105V77.4679H37.6055V69.1594H38.7105V72.6851H42.7469V69.1594Z" fill="white"/>
<path d="M54.7621 69.1594L51.8197 74.1091V77.4679H50.7147V74.0982L47.7832 69.1594H49.019L51.2728 73.0512L53.5263 69.1594H54.7621Z" fill="white"/>
<path d="M60.9153 77.4695V71.2736L56.6433 77.4695H55.752V69.1609H56.857V75.3681L61.129 69.1609H62.0203V77.4695H60.9153ZM57.2846 68.2735V67.3712H60.4877V68.2735H57.2846Z" fill="white"/>
<path d="M72.8039 77.4679H71.4524L67.869 73.4788V77.4679H66.7637V69.1594H67.869V72.9097L71.3328 69.1594H72.6843L69.0175 73.1962L72.8039 77.4679Z" fill="white"/>
<path d="M74.8866 76.4245H78.7455V77.4679H73.7852V69.1594H78.6875V70.2031H74.8902V72.7541H78.3904V73.7866H74.8902V76.4209L74.8866 76.4245Z" fill="white"/>
<path d="M88.4407 69.1594H89.546V77.4679H80.0742V69.1594H81.1795V76.4245H84.2667V69.1594H85.3717V76.4245H88.4443V69.1594H88.4407Z" fill="white"/>
<path d="M92.4354 76.4245H96.2943V77.4679H91.334V69.1594H96.2363V70.2031H92.4393V72.7541H95.9392V73.7866H92.4393V76.4209L92.4354 76.4245Z" fill="white"/>
<path d="M102.751 69.1594H103.856V77.4679H102.751V73.7285H98.7147V77.4679H97.6094V69.1594H98.7147V72.6851H102.751V69.1594Z" fill="white"/>
<path d="M105.621 69.1594H106.726V77.4679H105.621V69.1594Z" fill="white"/>
<path d="M114.154 67.5446H113.049V79.0817H114.154V67.5446Z" fill="white"/>
</svg>
