<svg width="24" height="24" viewBox="0 0 24 24" fill="none" xmlns="http://www.w3.org/2000/svg">
<circle opacity="0.2" cx="11.9434" cy="11.6835" r="11.5273" fill="#F6F4F2"/>
<path d="M11.9427 11.3275C11.4707 11.3275 11.0179 11.14 10.6841 10.8062C10.3503 10.4724 10.1628 10.0196 10.1628 9.54758C10.1628 9.07552 10.3503 8.6228 10.6841 8.289C11.0179 7.9552 11.4707 7.76768 11.9427 7.76768C12.4148 7.76768 12.8675 7.9552 13.2013 8.289C13.5351 8.6228 13.7226 9.07552 13.7226 9.54758C13.7226 9.78132 13.6766 10.0128 13.5871 10.2287C13.4977 10.4447 13.3666 10.6409 13.2013 10.8062C13.036 10.9714 12.8398 11.1026 12.6239 11.192C12.4079 11.2815 12.1765 11.3275 11.9427 11.3275ZM11.9427 4.56384C10.621 4.56384 9.35332 5.08891 8.41869 6.02355C7.48406 6.95818 6.95898 8.22581 6.95898 9.54758C6.95898 13.2854 11.9427 18.8031 11.9427 18.8031C11.9427 18.8031 16.9265 13.2854 16.9265 9.54758C16.9265 8.22581 16.4014 6.95818 15.4668 6.02355C14.5321 5.08891 13.2645 4.56384 11.9427 4.56384Z" fill="#AC714E"/>
</svg>
