<svg width="13" height="18" viewBox="0 0 13 18" fill="none" xmlns="http://www.w3.org/2000/svg">
<path fill-rule="evenodd" clip-rule="evenodd" d="M8.41399 16.959C8.54685 17.1737 8.7593 17.3272 9.00492 17.3858C9.25055 17.4444 9.50938 17.4034 9.72488 17.2718C9.94037 17.1401 10.095 16.9286 10.155 16.6833C10.215 16.438 10.1755 16.1789 10.0451 15.9627L7.8561 12.4111L7.39667 10.5523C7.37466 10.578 7.35307 10.6039 7.33166 10.6301L5.84703 12.2269L6.02891 12.9619C6.04984 13.0785 6.09232 13.1902 6.15419 13.2913L8.41399 16.959ZM1.11208 16.111L2.53461 12.3431C2.58456 12.21 2.66341 12.0895 2.76549 11.9905L4.98838 9.52969V5.49226C4.98897 5.18605 5.11088 4.89256 5.3274 4.67603C5.54392 4.45951 5.83742 4.33761 6.14362 4.33701C6.45494 4.33701 6.58695 4.42313 6.83994 4.54982L11.6444 7.32367C11.7411 7.3797 11.8259 7.45423 11.8938 7.54302C11.9617 7.6318 12.0115 7.73309 12.0403 7.84111C12.0691 7.94913 12.0763 8.06176 12.0616 8.17257C12.0468 8.28339 12.0104 8.39021 11.9544 8.48695C11.8983 8.58368 11.8238 8.66843 11.735 8.73636C11.6462 8.80429 11.5449 8.85407 11.4369 8.88286C11.3289 8.91164 11.2163 8.91887 11.1055 8.90412C10.9946 8.88938 10.8878 8.85295 10.7911 8.79692L7.2988 6.78064V9.48965C7.2988 9.98785 7.23491 9.96893 6.95976 10.3058L4.27836 13.1898L2.91884 16.7912C2.82862 17.0308 2.64693 17.2247 2.41374 17.3303C2.18055 17.4359 1.91496 17.4445 1.6754 17.3543C1.43584 17.2641 1.24192 17.0824 1.13632 16.8492C1.03072 16.616 1.02186 16.3506 1.11208 16.111ZM5.69632 0.51062C5.41742 0.51062 5.14478 0.593323 4.91289 0.748271C4.68099 0.903219 4.50025 1.12345 4.39352 1.38112C4.28679 1.63879 4.25887 1.92232 4.31328 2.19586C4.36769 2.4694 4.50199 2.72066 4.6992 2.91788C4.89641 3.11509 5.14767 3.24939 5.42121 3.3038C5.69475 3.35821 5.97829 3.33028 6.23595 3.22355C6.49362 3.11682 6.71386 2.93608 6.8688 2.70419C7.02375 2.47229 7.10646 2.19966 7.10646 1.92076C7.10646 1.54677 6.95789 1.18809 6.69344 0.92364C6.42898 0.659188 6.07031 0.51062 5.69632 0.51062ZM4.49529 8.00072V5.53019L3.3771 6.67779L1.03973 7.33681C0.823033 7.39693 0.638924 7.54035 0.527612 7.73575C0.416301 7.93116 0.386832 8.16267 0.445641 8.37973C0.50445 8.59679 0.646759 8.78176 0.841489 8.89425C1.03622 9.00674 1.26755 9.03761 1.48496 8.98011L4.13487 8.26273C4.22478 8.23951 4.30655 8.19199 4.37124 8.12537L4.49529 8.00072Z" fill="#AC714E"/>
</svg>
