<svg width="18" height="19" viewBox="0 0 18 19" fill="none" xmlns="http://www.w3.org/2000/svg">
<path d="M17.4962 1.05184C17.5463 1.1018 17.5861 1.16115 17.6132 1.22649C17.6403 1.29184 17.6543 1.36189 17.6543 1.43263C17.6543 1.50337 17.6403 1.57342 17.6132 1.63877C17.5861 1.70411 17.5463 1.76346 17.4962 1.81342L13.0354 6.27319H16.0398C16.1824 6.27319 16.3192 6.32985 16.4201 6.43072C16.521 6.53158 16.5776 6.66838 16.5776 6.81102C16.5776 6.95367 16.521 7.09047 16.4201 7.19133C16.3192 7.2922 16.1824 7.34886 16.0398 7.34886H11.7371C11.5944 7.34886 11.4576 7.2922 11.3568 7.19133C11.2559 7.09047 11.1992 6.95367 11.1992 6.81102V2.50831C11.1992 2.36567 11.2559 2.22886 11.3568 2.128C11.4576 2.02713 11.5944 1.97047 11.7371 1.97047C11.8797 1.97047 12.0165 2.02713 12.1174 2.128C12.2182 2.22886 12.2749 2.36567 12.2749 2.50831V5.51268L16.7347 1.05184C16.7846 1.00175 16.844 0.962014 16.9093 0.9349C16.9747 0.907786 17.0447 0.893829 17.1155 0.893829C17.1862 0.893829 17.2562 0.907786 17.3216 0.9349C17.3869 0.962014 17.4463 1.00175 17.4962 1.05184ZM4.37296 2.32329C4.30946 2.24161 4.22931 2.17437 4.13782 2.12604C4.04634 2.07771 3.94562 2.0494 3.84235 2.04299C3.73908 2.03658 3.63564 2.05222 3.53888 2.08886C3.44212 2.12551 3.35426 2.18232 3.28115 2.25552L2.1689 3.36885C1.64934 3.88948 1.45787 4.62632 1.68484 5.2728C2.62792 7.94813 4.16014 10.3773 6.16827 12.3809C8.17182 14.389 10.601 15.9212 13.2764 16.8643C13.9228 17.0913 14.6597 16.8998 15.1803 16.3803L16.2926 15.268C16.3658 15.1949 16.4226 15.107 16.4592 15.0103C16.4959 14.9135 16.5115 14.8101 16.5051 14.7068C16.4987 14.6035 16.4704 14.5028 16.422 14.4113C16.3737 14.3199 16.3065 14.2397 16.2248 14.1762L13.7432 12.2464C13.6559 12.1789 13.5544 12.132 13.4463 12.1093C13.3383 12.0865 13.2265 12.0886 13.1193 12.1152L10.7636 12.7036C10.4491 12.7817 10.1198 12.7772 9.80755 12.6907C9.4953 12.6042 9.21066 12.4386 8.98117 12.2099L6.3393 9.56691C6.11038 9.33754 5.94455 9.05295 5.85786 8.74069C5.77117 8.42843 5.76657 8.09908 5.84449 7.78451L6.43396 5.42878C6.4606 5.32162 6.46262 5.20983 6.4399 5.10178C6.41717 4.99373 6.37028 4.89223 6.30273 4.80488L4.37296 2.32329ZM2.46901 1.44446C2.65725 1.25616 2.88339 1.11007 3.13242 1.01587C3.38146 0.921674 3.64768 0.881535 3.91341 0.898118C4.17915 0.914701 4.43831 0.987627 4.6737 1.11205C4.90909 1.23648 5.11532 1.40956 5.27868 1.6198L7.20845 4.10031C7.56235 4.55533 7.68713 5.14803 7.54729 5.70738L6.95889 8.06312C6.92869 8.18514 6.93043 8.31289 6.96397 8.43404C6.99751 8.55519 7.06171 8.66566 7.15037 8.75478L9.79331 11.3977C9.88253 11.4866 9.99318 11.5509 10.1145 11.5844C10.2359 11.6179 10.3639 11.6196 10.486 11.5892L12.8407 11.0008C13.1168 10.9322 13.4048 10.927 13.6831 10.9857C13.9615 11.0444 14.2229 11.1654 14.4478 11.3396L16.9283 13.2694C17.82 13.9632 17.9018 15.2809 17.1036 16.078L15.9914 17.1903C15.1954 17.9863 14.0057 18.3358 12.8966 17.9454C10.0576 16.9478 7.4801 15.3226 5.35613 13.1909C3.22454 11.0672 1.59938 8.49013 0.601632 5.65144C0.212236 4.54349 0.561832 3.35272 1.35783 2.55671L2.46901 1.44446Z" fill="#162A2B"/>
</svg>
