<svg width="34" height="35" viewBox="0 0 34 35" fill="none" xmlns="http://www.w3.org/2000/svg">
<circle cx="17.3562" cy="17.4996" r="16.6478" fill="#162A2B"/>
<path d="M23.4493 17.4996C23.4496 17.6604 23.4084 17.8185 23.3296 17.9586C23.2508 18.0987 23.137 18.216 22.9994 18.2992L14.472 23.5158C14.3282 23.6038 14.1636 23.6519 13.995 23.655C13.8264 23.6581 13.6601 23.6162 13.5132 23.5336C13.3676 23.4522 13.2464 23.3335 13.162 23.1898C13.0775 23.046 13.0328 22.8823 13.0326 22.7156V12.2836C13.0328 12.1168 13.0775 11.9532 13.162 11.8094C13.2464 11.6657 13.3676 11.547 13.5132 11.4656C13.6601 11.383 13.8264 11.341 13.995 11.3442C14.1636 11.3473 14.3282 11.3953 14.472 11.4834L22.9994 16.7C23.137 16.7831 23.2508 16.9005 23.3296 17.0406C23.4084 17.1807 23.4496 17.3388 23.4493 17.4996Z" fill="white"/>
</svg>
