<svg width="207" height="49" viewBox="0 0 207 49" fill="none" xmlns="http://www.w3.org/2000/svg">
<path d="M58.7616 32.3152L59.8256 29.8702C60.3424 29.9305 60.4032 29.9305 61.1328 30.0815C58.0928 28.7533 55.9648 24.9199 55.9648 20.7845C55.9648 14.5966 60.7376 9.61613 66.6656 9.61613C72.5936 9.61613 77.3664 14.5966 77.3664 20.8147C77.3664 26.7309 72.8064 31.802 67.4864 31.802C67.1216 31.802 66.8784 31.802 66.4832 31.7416V31.8926C70.1008 33.3112 72.32 33.9451 74.9952 34.3677L74.0224 37.5975C71.1648 37.2051 69.3712 36.5712 65.9664 34.7903C62.744 33.1603 60.8592 32.5264 58.7616 32.3152ZM66.6656 13.1478C62.8048 13.1478 59.856 16.4077 59.856 20.694C59.856 25.2217 62.7136 28.4817 66.6656 28.4817C70.5568 28.4817 73.536 25.1312 73.536 20.8147C73.536 16.4681 70.5568 13.1478 66.6656 13.1478Z" fill="white"/>
<path d="M81.8117 31.5002H77.9813L88.8037 9.37466L99.0789 31.5002H95.0965L93.3637 27.6969H83.5749L81.8117 31.5002ZM84.9733 24.6482H92.0261L88.5301 16.6794L84.9733 24.6482Z" fill="white"/>
<path d="M115.071 31.5002V21.7806L106.924 10.1293H111.362L117.077 18.581L122.914 10.1293H127.353L118.871 21.7203V31.5002H115.071Z" fill="white"/>
<path d="M129.328 31.5002V9.37466L143.525 23.6219V10.1293H147.264V32.3152L133.067 18.0377V31.5002H129.328Z" fill="white"/>
<path d="M152.603 31.5002V10.1293H157.801C165.796 10.1293 170.691 14.1741 170.691 20.7845C170.691 24.7689 168.836 27.9685 165.371 29.9004C163.304 31.0474 161.176 31.5002 157.801 31.5002H152.603ZM156.342 28.0893H158.288C163.638 28.0893 166.83 25.3726 166.83 20.8147C166.83 16.2568 163.638 13.5402 158.288 13.5402H156.342V28.0893Z" fill="white"/>
<path d="M177.86 31.5002V21.7806L169.713 10.1293H174.151L179.866 18.581L185.703 10.1293H190.142L181.66 21.7203V31.5002H177.86Z" fill="white"/>
<path fill-rule="evenodd" clip-rule="evenodd" d="M101.214 16.4698V31.5002H104.953V16.4698H101.214ZM104.953 13.9471V10.1293H101.214V13.9471H104.953Z" fill="white"/>
<path d="M192.701 28.2085L195.119 25.6752C196.386 27.4888 197.624 28.2373 199.466 28.2373C201.568 28.2373 202.921 26.9994 202.921 25.1282C202.921 23.1418 201.395 22.1918 198.171 22.1918H197.393V18.9675H198.372C200.963 18.9675 202.489 17.9023 202.489 16.1174C202.489 14.534 201.222 13.3825 199.524 13.3825C197.998 13.3825 196.962 14.0159 195.493 15.8295L193.19 13.6416C195.378 11.137 197.249 10.1294 199.783 10.1294C203.295 10.1294 206.03 12.6052 206.03 15.8007C206.03 17.7871 205.137 19.169 203.18 20.2054C205.483 21.2705 206.548 22.8539 206.548 25.157C206.548 28.8131 203.525 31.4904 199.38 31.4904C196.559 31.4904 194.658 30.5404 192.701 28.2085Z" fill="white"/>
<path d="M148.66 36.8112H147.865V38.5663H147.469V36.8112H146.674L145.503 38.5663H145.033L146.341 36.5957L145.135 34.7388H145.57L146.666 36.4547H147.469V34.7388H147.865V36.4547H148.66L149.76 34.7388H150.199L148.985 36.5957L150.297 38.5663H149.827L148.66 36.8112Z" fill="white"/>
<path d="M151.217 34.7388H151.616V37.912L154.064 34.7388H154.428V38.5663H154.033V35.4008L151.581 38.5663H151.217V34.7388Z" fill="white"/>
<path d="M158.932 34.7388V38.5663H158.532V35.0874H156.688L156.645 36.3685C156.625 36.8974 156.586 37.3204 156.516 37.6456C156.449 37.9708 156.343 38.2098 156.206 38.3665C156.069 38.5271 155.881 38.6054 155.654 38.6054C155.556 38.6054 155.454 38.5937 155.349 38.5663L155.384 38.2059C155.446 38.2215 155.505 38.2294 155.564 38.2294C155.725 38.2294 155.854 38.1667 155.956 38.0413C156.057 37.916 156.132 37.7161 156.183 37.4497C156.234 37.1833 156.269 36.8268 156.288 36.3842L156.343 34.7427H158.94L158.932 34.7388Z" fill="white"/>
<path d="M161.144 38.343C160.835 38.1706 160.596 37.9394 160.424 37.6456C160.248 37.3518 160.161 37.0188 160.161 36.6506C160.161 36.2823 160.248 35.9493 160.424 35.6555C160.6 35.3617 160.839 35.1266 161.144 34.9581C161.454 34.7897 161.795 34.7035 162.174 34.7035C162.554 34.7035 162.891 34.7897 163.197 34.9581C163.502 35.1266 163.741 35.3577 163.913 35.6555C164.089 35.9532 164.176 36.2862 164.176 36.6545C164.176 37.0227 164.085 37.3557 163.913 37.6535C163.737 37.9512 163.498 38.1823 163.197 38.3508C162.891 38.5193 162.55 38.6054 162.174 38.6054C161.798 38.6054 161.454 38.5193 161.144 38.3508M162.993 38.0374C163.24 37.9003 163.428 37.7083 163.565 37.4693C163.702 37.2264 163.772 36.9561 163.772 36.6584C163.772 36.3607 163.702 36.0903 163.565 35.8474C163.428 35.6045 163.232 35.4165 162.993 35.2794C162.746 35.1423 162.476 35.0757 162.174 35.0757C161.873 35.0757 161.599 35.1423 161.352 35.2794C161.105 35.4165 160.913 35.6085 160.772 35.8474C160.631 36.0903 160.565 36.3607 160.565 36.6584C160.565 36.9561 160.635 37.2264 160.772 37.4693C160.913 37.7122 161.109 37.9003 161.352 38.0374C161.599 38.1745 161.873 38.2411 162.174 38.2411C162.476 38.2411 162.75 38.1745 162.993 38.0374Z" fill="white"/>
<path d="M165.421 34.7388H165.82V37.912L168.268 34.7388H168.632V38.5663H168.233V35.4008L165.785 38.5663H165.421V34.7388ZM166.369 34.2725C166.208 34.1511 166.13 33.9748 166.126 33.7554H166.427C166.427 33.9004 166.486 34.0179 166.592 34.1002C166.698 34.1864 166.842 34.2255 167.015 34.2255C167.187 34.2255 167.332 34.1864 167.438 34.1002C167.547 34.0179 167.602 33.9043 167.606 33.7554H167.908C167.908 33.9787 167.821 34.1511 167.661 34.2725C167.5 34.394 167.285 34.4606 167.019 34.4606C166.752 34.4606 166.529 34.3979 166.372 34.2725" fill="white"/>
<path d="M173.175 36.8112H172.298V38.5663H171.902V34.7388H172.298V36.4547H173.175L174.467 34.7388H174.906L173.48 36.5996L174.984 38.5663H174.522L173.175 36.8112Z" fill="white"/>
<path d="M176.527 38.343C176.218 38.1706 175.979 37.9394 175.806 37.6456C175.63 37.3518 175.544 37.0188 175.544 36.6506C175.544 36.2823 175.63 35.9493 175.806 35.6555C175.983 35.3617 176.222 35.1266 176.527 34.9581C176.836 34.7897 177.177 34.7035 177.557 34.7035C177.937 34.7035 178.274 34.7897 178.579 34.9581C178.885 35.1266 179.123 35.3577 179.296 35.6555C179.472 35.9532 179.558 36.2862 179.558 36.6545C179.558 37.0227 179.468 37.3557 179.296 37.6535C179.119 37.9512 178.881 38.1823 178.579 38.3508C178.274 38.5193 177.933 38.6054 177.557 38.6054C177.181 38.6054 176.836 38.5193 176.527 38.3508M178.375 38.0374C178.622 37.9003 178.81 37.7083 178.947 37.4693C179.084 37.2264 179.155 36.9561 179.155 36.6584C179.155 36.3607 179.084 36.0903 178.947 35.8474C178.81 35.6045 178.614 35.4165 178.375 35.2794C178.129 35.1423 177.858 35.0757 177.557 35.0757C177.255 35.0757 176.981 35.1423 176.735 35.2794C176.488 35.4165 176.296 35.6085 176.155 35.8474C176.014 36.0903 175.947 36.3607 175.947 36.6584C175.947 36.9561 176.018 37.2264 176.155 37.4693C176.296 37.7122 176.492 37.9003 176.735 38.0374C176.981 38.1745 177.255 38.2411 177.557 38.2411C177.858 38.2411 178.133 38.1745 178.375 38.0374Z" fill="white"/>
<path d="M184.774 34.7388V38.5663H184.387V35.5066L182.883 38.0805H182.691L181.191 35.5223V38.5663H180.8V34.7388H181.136L182.797 37.579L184.442 34.7388H184.774Z" fill="white"/>
<path d="M189.56 34.7388V38.5663H189.16V35.0913H186.736V38.5663H186.341V34.7388H189.56Z" fill="white"/>
<path d="M194.06 34.7388V38.5663H193.66V35.0874H191.816L191.773 36.3685C191.753 36.8974 191.714 37.3204 191.643 37.6456C191.577 37.9708 191.471 38.2098 191.334 38.3665C191.197 38.5271 191.009 38.6054 190.782 38.6054C190.684 38.6054 190.582 38.5937 190.476 38.5663L190.512 38.2059C190.574 38.2215 190.633 38.2294 190.692 38.2294C190.852 38.2294 190.981 38.1667 191.083 38.0413C191.185 37.916 191.26 37.7161 191.31 37.4497C191.361 37.1833 191.397 36.8268 191.416 36.3842L191.471 34.7427H194.067L194.06 34.7388Z" fill="white"/>
<path d="M198.332 38.2176V38.5663H195.622V34.7388H198.25V35.0913H196.029V36.4547H198.011V36.7955H196.029V38.2176H198.332Z" fill="white"/>
<path d="M200.768 36.8112H199.895V38.5663H199.499V34.7388H199.895V36.4547H200.768L202.064 34.7388H202.499L201.081 36.5996L202.585 38.5663H202.119L200.768 36.8112Z" fill="white"/>
<path d="M204.124 38.3469C203.819 38.1784 203.58 37.9473 203.407 37.6495C203.231 37.3518 203.145 37.0188 203.145 36.6506C203.145 36.2823 203.231 35.9493 203.407 35.6516C203.58 35.3538 203.823 35.1227 204.124 34.9542C204.43 34.7858 204.77 34.6996 205.15 34.6996C205.432 34.6996 205.698 34.7466 205.937 34.8406C206.18 34.9346 206.38 35.0757 206.548 35.2559L206.29 35.5144C205.992 35.2128 205.612 35.06 205.158 35.06C204.856 35.06 204.582 35.1305 204.332 35.2677C204.081 35.4048 203.889 35.5967 203.752 35.8357C203.611 36.0786 203.541 36.345 203.541 36.6427C203.541 36.9405 203.611 37.2108 203.752 37.4497C203.893 37.6926 204.089 37.8768 204.332 38.0178C204.582 38.1549 204.852 38.2254 205.158 38.2254C205.616 38.2254 205.996 38.0726 206.29 37.7671L206.548 38.0256C206.38 38.2098 206.176 38.3469 205.933 38.4409C205.69 38.5389 205.428 38.5859 205.142 38.5859C204.762 38.5859 204.422 38.5036 204.12 38.3312L204.124 38.3469Z" fill="white"/>
<path d="M142.876 34.5076H142.515V39.6241H142.876V34.5076Z" fill="white"/>
<path d="M81.3571 35.0874H80.0139V38.5623H79.6105V35.0874H78.2673V34.7348H81.3571V35.0874Z" fill="white"/>
<path d="M83.6011 37.2382V38.5584H83.2016V37.2382L81.6704 34.7348H82.1012L83.4131 36.8817L84.725 34.7348H85.1323L83.6011 37.2382ZM82.1638 37.058H84.6192V37.3636H82.1638V37.058Z" fill="white"/>
<path d="M88.5589 35.0874C88.833 35.3225 88.974 35.6437 88.974 36.0472C88.974 36.4507 88.8369 36.7759 88.5589 37.007C88.2848 37.2382 87.901 37.3518 87.4115 37.3518H86.3854V38.5584H85.9781V34.7309H87.4115C87.901 34.7309 88.2808 34.8445 88.5589 35.0796M88.2691 36.7446C88.4688 36.58 88.5706 36.345 88.5706 36.0394C88.5706 35.7338 88.4688 35.4909 88.2691 35.3225C88.0694 35.1579 87.7796 35.0718 87.3997 35.0718H86.3815V36.9874H87.3997C87.7796 36.9874 88.0694 36.9052 88.2691 36.7367" fill="white"/>
<path d="M90.654 35.0874V36.631H92.3066V36.9405H90.6618V38.5623H90.2624V36.9405H89.675V36.631H90.2624V34.7348H92.6943V35.0874H90.654Z" fill="white"/>
<path d="M96.3637 36.4077C96.6026 36.6114 96.7201 36.9091 96.7201 37.3048C96.7201 37.7005 96.5948 38.0296 96.3402 38.245C96.0857 38.4566 95.7215 38.5663 95.2437 38.5663H93.7243V34.7388H94.1237V36.106H95.326C95.7763 36.106 96.1209 36.2118 96.3598 36.4116M96.0348 38.01C96.2188 37.8533 96.3089 37.6221 96.3089 37.3165C96.3089 36.7289 95.9486 36.439 95.2242 36.439H94.1159V38.2489H95.2242C95.5766 38.2489 95.8468 38.1706 96.0309 38.0139M97.3741 34.7427H97.7735V38.5702H97.3741V34.7427Z" fill="white"/>
<path d="M102.543 34.7348V38.5623H102.144V36.7994H99.7512V38.5623H99.3478V34.7348H99.7512V36.4429H102.144V34.7348H102.543Z" fill="white"/>
<path d="M107.145 37.2382V38.5623H106.745V37.2382L105.218 34.7348H105.649L106.957 36.8856L108.273 34.7348H108.676L107.145 37.2382Z" fill="white"/>
<path d="M109.569 34.7348H109.968V37.9081L112.416 34.7348H112.78V38.5623H112.381V35.3969L109.933 38.5623H109.569V34.7348ZM110.517 34.2686C110.356 34.1472 110.278 33.9709 110.274 33.7515H110.575C110.575 33.8964 110.634 34.014 110.74 34.0963C110.846 34.1825 110.987 34.2216 111.163 34.2216C111.339 34.2216 111.48 34.1825 111.586 34.0963C111.695 34.014 111.75 33.9004 111.754 33.7515H112.056C112.056 33.9748 111.97 34.1472 111.809 34.2686C111.648 34.3901 111.433 34.4567 111.167 34.4567C110.9 34.4567 110.677 34.394 110.521 34.2686" fill="white"/>
<path d="M117.319 36.8073H116.442V38.5623H116.05V34.7348H116.442V36.4547H117.319L118.615 34.7348H119.05L117.628 36.5957L119.132 38.5623H118.666L117.319 36.8073Z" fill="white"/>
<path d="M122.735 38.2137V38.5623H120.029V34.7348H122.653V35.0874H120.428V36.4508H122.41V36.7916H120.428V38.2137H122.735Z" fill="white"/>
<path d="M128.594 34.7348V38.5623H123.902V34.7348H124.301V38.2137H126.052V34.7348H126.451V38.2137H128.198V34.7348H128.594Z" fill="white"/>
<path d="M132.862 38.2137V38.5623H130.156V34.7348H132.78V35.0874H130.559V36.4508H132.541V36.7916H130.559V38.2137H132.862Z" fill="white"/>
<path d="M137.233 34.7348V38.5623H136.829V36.7994H134.436V38.5623H134.033V34.7348H134.436V36.4429H136.829V34.7348H137.233Z" fill="white"/>
<path d="M139.191 34.7348H138.791V38.5623H139.191V34.7348Z" fill="white"/>
<path d="M8.37996 0.124664C3.75184 0.124664 0 3.8765 0 8.50461V40.4915C0 44.1719 2.04389 47.6497 5.6718 48.4242C6.75606 48.6557 7.85547 48.1163 8.98902 47.5601C10.0457 47.0417 11.132 46.5087 12.2633 46.5721C13.2417 46.6268 14.1592 47.167 15.0822 47.7103C16.1145 48.318 17.1536 48.9298 18.2928 48.8714C21.3076 48.717 22.5121 45.2554 22.7383 42.051V37.1702C19.3148 41.7689 14.9715 42.4332 13.2853 42.3821C13.2342 41.0536 13.1831 39.3503 13.1831 38.652C19.8768 38.652 22.8405 32.3159 22.8405 30.7319V28.7391C21.8015 30.1869 18.7323 33.0824 14.7671 33.0824C14.7671 32.2069 14.75 31.175 14.7356 30.3058C14.7251 29.6735 14.716 29.1273 14.716 28.7902C19.979 28.7902 22.9427 24.2937 22.9427 21.8921V20.768C22.1251 21.858 19.652 24.0382 16.3 24.0382C16.2805 23.4527 16.261 22.9268 16.2443 22.4776C16.2173 21.7509 16.1978 21.225 16.1978 20.9723C21.2054 20.9723 23.096 15.9648 23.096 14.7896V13.5121C22.3125 14.3638 20.1528 16.067 17.7818 16.067C17.7818 14.5545 17.7137 12.8819 17.6797 12.2347C22.4317 12.2347 23.1471 7.78925 23.1471 6.8695H25.4464C25.4464 7.78925 26.1618 12.2347 30.9138 12.2347C30.8798 12.8819 30.8117 14.5545 30.8117 16.067C28.4408 16.067 26.281 14.3638 25.4975 13.5121V14.7896C25.4975 15.9648 27.3881 20.9723 32.3957 20.9723C32.3957 21.225 32.3762 21.7509 32.3492 22.4776C32.3325 22.9268 32.313 23.4527 32.2935 24.0382C28.9415 24.0382 26.4684 21.858 25.6508 20.768V21.8921C25.6508 24.2937 28.6145 28.7902 33.8775 28.7902C33.8775 29.1273 33.8684 29.6735 33.8579 30.3058C33.8435 31.175 33.8264 32.2069 33.8264 33.0824C29.8612 33.0824 26.792 30.1869 25.753 28.7391V30.7319C25.753 32.3159 28.7167 38.652 35.4104 38.652C35.4104 39.3503 35.3593 41.0536 35.3082 42.3821C33.622 42.4332 29.2787 41.7689 25.8552 37.1702C25.8552 38.8053 25.9063 40.3116 25.9063 42.0755C26.4717 48.7138 28.9599 48.8714 30.5562 48.8714C31.6292 48.8714 32.5266 48.3072 33.5657 47.7316C34.6695 47.1201 35.7966 46.4957 36.8922 46.521C37.822 46.5424 38.7284 47.0263 39.6369 47.5113C40.731 48.0954 41.8282 48.6811 42.9728 48.4627C47.1117 47.6726 48.7468 44.3036 48.7468 40.4915V8.50461C48.7468 3.87649 44.995 0.124664 40.3669 0.124664H8.37996Z" fill="white"/>
</svg>
