<svg width="151" height="110" viewBox="0 0 151 110" fill="none" xmlns="http://www.w3.org/2000/svg">
<path d="M3.09569 102.658L4.15969 100.213C4.67649 100.273 4.73729 100.273 5.46689 100.424C2.42689 99.0961 0.298889 95.2626 0.298889 91.1273C0.298889 84.9394 5.07169 79.9589 10.9997 79.9589C16.9277 79.9589 21.7005 84.9394 21.7005 91.1575C21.7005 97.0737 17.1405 102.145 11.8205 102.145C11.4557 102.145 11.2125 102.145 10.8173 102.084V102.235C14.4349 103.654 16.6541 104.288 19.3293 104.71L18.3565 107.94C15.4989 107.548 13.7053 106.914 10.3005 105.133C7.07808 103.503 5.19329 102.869 3.09569 102.658ZM10.9997 83.4905C7.13888 83.4905 4.19009 86.7505 4.19009 91.0367C4.19009 95.5645 7.04768 98.8244 10.9997 98.8244C14.8909 98.8244 17.8701 95.4739 17.8701 91.1575C17.8701 86.8108 14.8909 83.4905 10.9997 83.4905Z" fill="white"/>
<path d="M26.1458 101.843H22.3154L33.1377 79.7174L43.4129 101.843H39.4305L37.6977 98.0396H27.909L26.1458 101.843ZM29.3074 94.9909H36.3601L32.8642 87.0221L29.3074 94.9909Z" fill="white"/>
<path d="M59.405 101.843V92.1234L51.2578 80.472H55.6962L61.4114 88.9238L67.2482 80.472H71.6866L63.205 92.063V101.843H59.405Z" fill="white"/>
<path d="M73.6619 101.843V79.7174L87.8587 93.9647V80.472H91.5979V102.658L77.4011 88.3805V101.843H73.6619Z" fill="white"/>
<path d="M96.9368 101.843V80.472H102.135C110.13 80.472 115.025 84.5168 115.025 91.1273C115.025 95.1117 113.17 98.3113 109.705 100.243C107.638 101.39 105.51 101.843 102.135 101.843H96.9368ZM100.676 98.432H102.622C107.972 98.432 111.164 95.7154 111.164 91.1575C111.164 86.5995 107.972 83.8829 102.622 83.8829H100.676V98.432Z" fill="white"/>
<path d="M122.194 101.843V92.1234L114.047 80.472H118.485L124.2 88.9238L130.037 80.472H134.476L125.994 92.063V101.843H122.194Z" fill="white"/>
<path fill-rule="evenodd" clip-rule="evenodd" d="M45.5478 86.8125V101.843H49.287V86.8125H45.5478ZM49.287 84.2898V80.472H45.5478V84.2898H49.287Z" fill="white"/>
<path d="M137.035 98.5513L139.453 96.0179C140.72 97.8316 141.958 98.5801 143.8 98.5801C145.902 98.5801 147.255 97.3422 147.255 95.4709C147.255 93.4845 145.729 92.5345 142.505 92.5345H141.727V89.3102H142.706C145.297 89.3102 146.823 88.245 146.823 86.4602C146.823 84.8768 145.556 83.7253 143.858 83.7253C142.332 83.7253 141.296 84.3586 139.827 86.1723L137.524 83.9843C139.712 81.4798 141.583 80.4722 144.117 80.4722C147.629 80.4722 150.364 82.948 150.364 86.1435C150.364 88.1299 149.471 89.5117 147.514 90.5481C149.817 91.6133 150.882 93.1966 150.882 95.4997C150.882 99.1558 147.859 101.833 143.714 101.833C140.893 101.833 138.993 100.883 137.035 98.5513Z" fill="white"/>
<path d="M92.9938 107.154H92.1989V108.909H91.8034V107.154H91.0084L89.8374 108.909H89.3675L90.6755 106.938L89.4693 105.082H89.904L91.0005 106.797H91.8034V105.082H92.1989V106.797H92.9938L94.0943 105.082H94.5329L93.3189 106.938L94.6308 108.909H94.1608L92.9938 107.154Z" fill="white"/>
<path d="M95.5511 105.082H95.9505V108.255L98.3981 105.082H98.7623V108.909H98.3668V105.744L95.9153 108.909H95.5511V105.082Z" fill="white"/>
<path d="M103.266 105.082V108.909H102.866V105.43H101.022L100.979 106.711C100.959 107.24 100.92 107.663 100.85 107.988C100.783 108.314 100.677 108.553 100.54 108.709C100.403 108.87 100.215 108.948 99.9881 108.948C99.8902 108.948 99.7883 108.936 99.6826 108.909L99.7179 108.549C99.7805 108.564 99.8393 108.572 99.898 108.572C100.059 108.572 100.188 108.509 100.29 108.384C100.391 108.259 100.466 108.059 100.517 107.792C100.568 107.526 100.603 107.17 100.622 106.727L100.677 105.085H103.274L103.266 105.082Z" fill="white"/>
<path d="M105.478 108.686C105.169 108.513 104.93 108.282 104.758 107.988C104.582 107.695 104.496 107.362 104.496 106.993C104.496 106.625 104.582 106.292 104.758 105.998C104.934 105.704 105.173 105.469 105.478 105.301C105.788 105.132 106.129 105.046 106.508 105.046C106.888 105.046 107.225 105.132 107.531 105.301C107.836 105.469 108.075 105.7 108.247 105.998C108.423 106.296 108.51 106.629 108.51 106.997C108.51 107.365 108.419 107.698 108.247 107.996C108.071 108.294 107.832 108.525 107.531 108.694C107.225 108.862 106.884 108.948 106.508 108.948C106.132 108.948 105.788 108.862 105.478 108.694M107.327 108.38C107.574 108.243 107.762 108.051 107.899 107.812C108.036 107.569 108.106 107.299 108.106 107.001C108.106 106.703 108.036 106.433 107.899 106.19C107.762 105.947 107.566 105.759 107.327 105.622C107.08 105.485 106.81 105.418 106.508 105.418C106.207 105.418 105.933 105.485 105.686 105.622C105.439 105.759 105.247 105.951 105.106 106.19C104.965 106.433 104.899 106.703 104.899 107.001C104.899 107.299 104.969 107.569 105.106 107.812C105.247 108.055 105.443 108.243 105.686 108.38C105.933 108.517 106.207 108.584 106.508 108.584C106.81 108.584 107.084 108.517 107.327 108.38Z" fill="white"/>
<path d="M109.755 105.082H110.154V108.255L112.602 105.082H112.966V108.909H112.567V105.744L110.119 108.909H109.755V105.082ZM110.703 104.615C110.542 104.494 110.464 104.318 110.46 104.098H110.761C110.761 104.243 110.82 104.361 110.926 104.443C111.032 104.529 111.176 104.568 111.349 104.568C111.521 104.568 111.666 104.529 111.772 104.443C111.881 104.361 111.936 104.247 111.94 104.098H112.242C112.242 104.321 112.155 104.494 111.995 104.615C111.834 104.737 111.619 104.803 111.353 104.803C111.086 104.803 110.863 104.741 110.707 104.615" fill="white"/>
<path d="M117.509 107.154H116.632V108.909H116.236V105.082H116.632V106.797H117.509L118.801 105.082H119.24L117.814 106.942L119.318 108.909H118.856L117.509 107.154Z" fill="white"/>
<path d="M120.861 108.686C120.552 108.513 120.313 108.282 120.14 107.988C119.964 107.695 119.878 107.362 119.878 106.993C119.878 106.625 119.964 106.292 120.14 105.998C120.317 105.704 120.556 105.469 120.861 105.301C121.17 105.132 121.511 105.046 121.891 105.046C122.271 105.046 122.608 105.132 122.913 105.301C123.219 105.469 123.457 105.7 123.63 105.998C123.806 106.296 123.892 106.629 123.892 106.997C123.892 107.365 123.802 107.698 123.63 107.996C123.454 108.294 123.215 108.525 122.913 108.694C122.608 108.862 122.267 108.948 121.891 108.948C121.515 108.948 121.17 108.862 120.861 108.694M122.709 108.38C122.956 108.243 123.144 108.051 123.281 107.812C123.418 107.569 123.489 107.299 123.489 107.001C123.489 106.703 123.418 106.433 123.281 106.19C123.144 105.947 122.948 105.759 122.709 105.622C122.463 105.485 122.193 105.418 121.891 105.418C121.589 105.418 121.315 105.485 121.069 105.622C120.822 105.759 120.63 105.951 120.489 106.19C120.348 106.433 120.281 106.703 120.281 107.001C120.281 107.299 120.352 107.569 120.489 107.812C120.63 108.055 120.826 108.243 121.069 108.38C121.315 108.517 121.589 108.584 121.891 108.584C122.193 108.584 122.467 108.517 122.709 108.38Z" fill="white"/>
<path d="M129.108 105.082V108.909H128.721V105.849L127.217 108.423H127.025L125.525 105.865V108.909H125.134V105.082H125.47L127.131 107.922L128.776 105.082H129.108Z" fill="white"/>
<path d="M133.894 105.082V108.909H133.495V105.434H131.07V108.909H130.675V105.082H133.894Z" fill="white"/>
<path d="M138.394 105.082V108.909H137.994V105.43H136.15L136.107 106.711C136.087 107.24 136.048 107.663 135.977 107.988C135.911 108.314 135.805 108.553 135.668 108.709C135.531 108.87 135.343 108.948 135.116 108.948C135.018 108.948 134.916 108.936 134.81 108.909L134.846 108.549C134.908 108.564 134.967 108.572 135.026 108.572C135.186 108.572 135.316 108.509 135.417 108.384C135.519 108.259 135.594 108.059 135.644 107.792C135.695 107.526 135.731 107.17 135.75 106.727L135.805 105.085H138.401L138.394 105.082Z" fill="white"/>
<path d="M142.666 108.56V108.909H139.956V105.082H142.584V105.434H140.363V106.797H142.345V107.138H140.363V108.56H142.666Z" fill="white"/>
<path d="M145.102 107.154H144.229V108.909H143.833V105.082H144.229V106.797H145.102L146.398 105.082H146.833L145.415 106.942L146.919 108.909H146.453L145.102 107.154Z" fill="white"/>
<path d="M148.458 108.69C148.153 108.521 147.914 108.29 147.741 107.992C147.565 107.695 147.479 107.362 147.479 106.993C147.479 106.625 147.565 106.292 147.741 105.994C147.914 105.697 148.157 105.465 148.458 105.297C148.764 105.128 149.104 105.042 149.484 105.042C149.766 105.042 150.032 105.089 150.271 105.183C150.514 105.277 150.714 105.418 150.882 105.599L150.624 105.857C150.326 105.556 149.946 105.403 149.492 105.403C149.19 105.403 148.916 105.473 148.666 105.61C148.415 105.748 148.223 105.939 148.086 106.178C147.945 106.421 147.875 106.688 147.875 106.985C147.875 107.283 147.945 107.553 148.086 107.792C148.227 108.035 148.423 108.22 148.666 108.361C148.916 108.498 149.186 108.568 149.492 108.568C149.95 108.568 150.33 108.415 150.624 108.11L150.882 108.368C150.714 108.552 150.51 108.69 150.267 108.784C150.025 108.882 149.762 108.929 149.476 108.929C149.096 108.929 148.756 108.846 148.454 108.674L148.458 108.69Z" fill="white"/>
<path d="M87.2097 104.85H86.8494V109.967H87.2097V104.85Z" fill="white"/>
<path d="M25.6912 105.43H24.3479V108.905H23.9446V105.43H22.6013V105.078H25.6912V105.43Z" fill="white"/>
<path d="M27.9351 107.581V108.901H27.5356V107.581L26.0044 105.078H26.4352L27.7471 107.224L29.059 105.078H29.4663L27.9351 107.581ZM26.4979 107.401H28.9533V107.706H26.4979V107.401Z" fill="white"/>
<path d="M32.8929 105.43C33.1671 105.665 33.308 105.986 33.308 106.39C33.308 106.793 33.171 107.119 32.8929 107.35C32.6188 107.581 32.235 107.695 31.7455 107.695H30.7195V108.901H30.3122V105.074H31.7455C32.235 105.074 32.6149 105.187 32.8929 105.422M32.6031 107.087C32.8028 106.923 32.9047 106.688 32.9047 106.382C32.9047 106.077 32.8028 105.834 32.6031 105.665C32.4034 105.501 32.1136 105.414 31.7337 105.414H30.7156V107.33H31.7337C32.1136 107.33 32.4034 107.248 32.6031 107.079" fill="white"/>
<path d="M34.988 105.43V106.974H36.6407V107.283H34.9959V108.905H34.5965V107.283H34.009V106.974H34.5965V105.078H37.0284V105.43H34.988Z" fill="white"/>
<path d="M40.6978 106.75C40.9367 106.954 41.0541 107.252 41.0541 107.648C41.0541 108.043 40.9288 108.372 40.6743 108.588C40.4197 108.799 40.0555 108.909 39.5778 108.909H38.0583V105.082H38.4577V106.449H39.66C40.1104 106.449 40.455 106.555 40.6939 106.754M40.3688 108.353C40.5529 108.196 40.643 107.965 40.643 107.659C40.643 107.072 40.2827 106.782 39.5582 106.782H38.4499V108.592H39.5582C39.9106 108.592 40.1808 108.513 40.3649 108.357M41.7081 105.085H42.1076V108.913H41.7081V105.085Z" fill="white"/>
<path d="M46.8774 105.078V108.905H46.478V107.142H44.0852V108.905H43.6819V105.078H44.0852V106.786H46.478V105.078H46.8774Z" fill="white"/>
<path d="M51.4789 107.581V108.905H51.0795V107.581L49.5522 105.078H49.9829L51.2909 107.228L52.6068 105.078H53.0101L51.4789 107.581Z" fill="white"/>
<path d="M53.903 105.078H54.3024V108.251L56.75 105.078H57.1142V108.905H56.7148V105.74L54.2672 108.905H53.903V105.078ZM54.8507 104.611C54.6901 104.49 54.6118 104.314 54.6079 104.094H54.9094C54.9094 104.239 54.9682 104.357 55.0739 104.439C55.1796 104.525 55.3206 104.564 55.4969 104.564C55.6731 104.564 55.8141 104.525 55.9198 104.439C56.0294 104.357 56.0843 104.243 56.0882 104.094H56.3897C56.3897 104.318 56.3036 104.49 56.143 104.611C55.9824 104.733 55.7671 104.799 55.5008 104.799C55.2345 104.799 55.0112 104.737 54.8546 104.611" fill="white"/>
<path d="M61.653 107.15H60.7758V108.905H60.3842V105.078H60.7758V106.797H61.653L62.9493 105.078H63.3839L61.9624 106.938L63.4662 108.905H63.0002L61.653 107.15Z" fill="white"/>
<path d="M67.069 108.556V108.905H64.363V105.078H66.9868V105.43H64.7624V106.794H66.744V107.134H64.7624V108.556H67.069Z" fill="white"/>
<path d="M72.9276 105.078V108.905H68.236V105.078H68.6355V108.556H70.386V105.078H70.7854V108.556H72.532V105.078H72.9276Z" fill="white"/>
<path d="M77.1962 108.556V108.905H74.4901V105.078H77.1139V105.43H74.8934V106.794H76.875V107.134H74.8934V108.556H77.1962Z" fill="white"/>
<path d="M81.5666 105.078V108.905H81.1632V107.142H78.7704V108.905H78.3671V105.078H78.7704V106.786H81.1632V105.078H81.5666Z" fill="white"/>
<path d="M83.5246 105.078H83.1252V108.905H83.5246V105.078Z" fill="white"/>
<path d="M54.6495 0.0332031C48.5896 0.0332031 43.6771 4.94568 43.6771 11.0055V52.8877C43.6771 57.7067 46.3533 62.2603 51.1035 63.2745C52.5232 63.5775 53.9627 62.8713 55.4469 62.1431C56.8305 61.4643 58.2528 60.7664 59.7342 60.8494C61.0153 60.9211 62.2165 61.6283 63.4251 62.3398C64.7767 63.1354 66.1373 63.9365 67.6289 63.8601C71.5763 63.6579 73.1535 59.1253 73.4496 54.9297V48.5389C68.967 54.5603 63.2801 55.4301 61.0723 55.3632C61.0054 53.6237 60.9385 51.3935 60.9385 50.4792C69.703 50.4792 73.5834 42.183 73.5834 40.109V37.4997C72.223 39.3953 68.2043 43.1866 63.0125 43.1866C63.0125 42.0402 62.9901 40.6891 62.9712 39.5511C62.9575 38.7231 62.9456 38.008 62.9456 37.5666C69.8368 37.5666 73.7172 31.679 73.7172 28.5345V27.0626C72.6468 28.4899 69.4086 31.3445 65.0196 31.3445C64.9941 30.5778 64.9685 29.8893 64.9467 29.3012C64.9114 28.3496 64.8858 27.661 64.8858 27.3302C71.4425 27.3302 73.9179 20.7736 73.9179 19.2348V17.5622C72.8921 18.6772 70.0642 20.9074 66.9599 20.9074C66.9599 18.927 66.8707 16.737 66.8261 15.8896C73.0482 15.8896 73.9848 10.0689 73.9848 8.86459H76.9955C76.9955 10.0689 77.9322 15.8896 84.1543 15.8896C84.1097 16.737 84.0205 18.927 84.0205 20.9074C80.9162 20.9074 78.0883 18.6772 77.0624 17.5622V19.2348C77.0624 20.7736 79.5379 27.3302 86.0946 27.3302C86.0946 27.661 86.069 28.3496 86.0337 29.3012C86.0119 29.8893 85.9863 30.5778 85.9607 31.3445C81.5718 31.3445 78.3336 28.4899 77.2632 27.0626V28.5345C77.2632 31.679 81.1436 37.5666 88.0348 37.5666C88.0348 38.008 88.0229 38.7231 88.0092 39.5511C87.9903 40.6891 87.9679 42.0402 87.9679 43.1866C82.7761 43.1866 78.7574 39.3953 77.397 37.4997V40.109C77.397 42.183 81.2774 50.4792 90.0419 50.4792C90.0419 51.3935 89.975 53.6237 89.9081 55.3632C87.7002 55.4301 82.0134 54.5603 77.5308 48.5389C77.5308 50.6799 77.5977 52.6522 77.5977 54.9618C78.338 63.6537 81.5959 63.8601 83.686 63.8601C85.091 63.8601 86.266 63.1213 87.6265 62.3676C89.0718 61.5669 90.5475 60.7493 91.9821 60.7825C93.1995 60.8106 94.3864 61.4441 95.5759 62.0792C97.0085 62.844 98.4451 63.6109 99.9438 63.3248C105.363 62.2904 107.504 57.8792 107.504 52.8877V11.0055C107.504 4.94568 102.592 0.0332031 96.5317 0.0332031H54.6495Z" fill="white"/>
</svg>
