<svg width="13" height="23" viewBox="0 0 13 23" fill="none" xmlns="http://www.w3.org/2000/svg">
<path fill-rule="evenodd" clip-rule="evenodd" d="M12.0894 10.3322C12.3867 10.6296 12.5537 11.0329 12.5537 11.4533C12.5537 11.8738 12.3867 12.2771 12.0894 12.5745L3.11891 21.5449C2.97263 21.6964 2.79765 21.8172 2.60419 21.9003C2.41072 21.9834 2.20264 22.0272 1.99209 22.029C1.78154 22.0308 1.57273 21.9907 1.37785 21.911C1.18297 21.8312 1.00592 21.7135 0.857027 21.5646C0.708139 21.4157 0.590394 21.2387 0.510662 21.0438C0.43093 20.8489 0.390808 20.6401 0.392638 20.4295C0.394468 20.219 0.438212 20.0109 0.521319 19.8174C0.604425 19.624 0.725229 19.449 0.876682 19.3027L8.72605 11.4533L0.876682 3.60398C0.587829 3.30491 0.427996 2.90435 0.431609 2.48858C0.435222 2.0728 0.601991 1.67508 0.895999 1.38108C1.19001 1.08707 1.58773 0.920299 2.0035 0.916686C2.41927 0.913073 2.81983 1.07291 3.11891 1.36176L12.0894 10.3322Z" fill="white"/>
</svg>
