<svg width="29" height="162" viewBox="0 0 29 162" fill="none" xmlns="http://www.w3.org/2000/svg">
<path d="M0.571864 161.91L0.571863 142.035L27.9592 142.035L27.9592 145.674L4.01484 145.674L4.01484 158.272L27.9592 158.272L27.9592 161.91L0.571864 161.91ZM15.8305 132.52L24.5162 132.52L24.5162 119.804L27.9592 119.804L27.9592 136.158L0.571863 136.158L0.571862 120L4.01484 120L4.01484 132.52L12.4267 132.52L12.4267 120.978L15.8305 120.978L15.8305 132.52ZM24.5162 87.8285L0.571861 87.8285L0.57186 84.1899L27.9592 84.1899L27.9592 115.411L0.571862 115.411L0.571862 111.773L24.5162 111.773L24.5162 101.6L0.571861 101.6L0.571861 98.001L24.5162 98.001L24.5162 87.8285ZM13.8743 70.878L27.9592 58.3972L27.9592 62.8574L14.8133 74.6731L27.9592 74.6731L27.9592 78.3117L0.57186 78.3117L0.57186 74.6731L12.9353 74.6731L0.57186 63.2487L0.571859 58.7885L13.8743 70.878ZM14.2655 58.9361C10.3009 58.9361 6.9492 57.5667 4.21046 54.828C1.44565 52.0893 0.0632364 48.7376 0.0632363 44.7729C0.0632361 40.8083 1.44564 37.4566 4.21046 34.7179C6.9492 31.9531 10.3009 30.5707 14.2655 30.5706C18.2041 30.5706 21.5558 31.9531 24.3206 34.7179C27.0854 37.4566 28.4678 40.8083 28.4678 44.7729C28.4678 48.7376 27.0854 52.0893 24.3206 54.828C21.5297 57.5667 18.178 58.9361 14.2655 58.9361ZM14.2655 34.2093C11.2399 34.2093 8.70981 35.2265 6.67532 37.261C4.61475 39.2433 3.58447 41.7473 3.58447 44.7729C3.58447 47.7725 4.61475 50.2895 6.67532 52.324C8.7359 54.3324 11.266 55.3366 14.2655 55.3366C17.239 55.3366 19.7691 54.3324 21.8557 52.324C23.8902 50.2895 24.9075 47.7725 24.9075 44.7729C24.9075 41.7473 23.8902 39.2433 21.8557 37.261C19.7691 35.2265 17.239 34.2093 14.2655 34.2093ZM0.571857 4.67769L0.571857 0.569592L27.9592 0.569591L27.9592 4.16907L6.55795 4.16907L21.4645 13.1286L21.4645 13.5981L6.59707 22.5577L27.9592 22.5577L27.9592 26.1963L0.571858 26.1963L0.571858 22.0882L15.048 13.3634L0.571857 4.67769Z" fill="white"/>
</svg>
