<svg width="29" height="157" viewBox="0 0 29 157" fill="none" xmlns="http://www.w3.org/2000/svg">
<path d="M12.2111 139.97L0.591051 139.97L0.591051 136.371L27.9784 136.371L27.9784 139.97L15.6541 139.97L15.6541 153.273L27.9784 153.273L27.9784 156.911L0.591052 156.911L0.591052 153.273L12.2111 153.273L12.2111 139.97ZM27.9784 108.6L27.9784 112.473L21.8358 114.703L21.8358 127.028L27.9784 129.258L27.9784 133.131L0.59105 122.92L0.59105 118.811L27.9784 108.6ZM4.9339 120.885L18.4319 125.776L18.4319 115.955L4.9339 120.885ZM27.9784 73.678L27.9784 77.5513L21.8358 79.7814L21.8358 92.1057L27.9784 94.3359L27.9784 98.2092L0.591049 87.9976L0.591049 83.8895L27.9784 73.678ZM4.9339 85.9632L18.4319 90.8538L18.4319 81.0334L4.9339 85.9632ZM13.7761 54.7972C14.4021 53.5191 15.2759 52.5149 16.3975 51.7846C17.519 51.0543 18.7971 50.6891 20.2317 50.6891C22.4227 50.6891 24.2615 51.4586 25.7483 52.9975C27.235 54.5364 27.9784 56.4144 27.9784 58.6314L27.9784 70.4471L0.591048 70.4471L0.591048 59.4922C0.591047 57.3273 1.30833 55.5145 2.74291 54.0538C4.17749 52.5671 5.95114 51.8237 8.06388 51.8237C10.5157 51.8237 12.4198 52.8149 13.7761 54.7972ZM3.9949 59.4922L3.9949 66.8085L12.3676 66.8085L12.3676 59.4922C12.3676 58.3445 11.9633 57.3795 11.1547 56.597C10.3462 55.8145 9.355 55.4232 8.18125 55.4232C7.03359 55.4232 6.05547 55.8275 5.2469 56.6361C4.41223 57.4186 3.9949 58.3706 3.9949 59.4922ZM24.5745 66.8085L24.5745 58.6314C24.5745 57.4055 24.1442 56.3752 23.2834 55.5406C22.4227 54.7059 21.3663 54.2886 20.1143 54.2886C18.8884 54.2886 17.8451 54.719 16.9843 55.5797C16.1236 56.3883 15.6932 57.4055 15.6932 58.6314L15.6932 66.8085L24.5745 66.8085ZM0.591047 49.3705L0.591046 29.6125L4.03403 29.6125L4.03403 37.7113L27.9784 37.7113L27.9784 41.3108L4.03403 41.3108L4.03403 49.3705L0.591047 49.3705ZM14.2847 29.0256C10.3201 29.0256 6.96838 27.6563 4.22965 24.9175C1.46483 22.1788 0.0824233 18.8271 0.0824231 14.8625C0.0824229 10.8978 1.46483 7.54612 4.22965 4.80738C6.96838 2.04257 10.3201 0.660158 14.2847 0.660158C18.2233 0.660158 21.575 2.04257 24.3398 4.80738C27.1046 7.54612 28.487 10.8978 28.487 14.8624C28.487 18.8271 27.1046 22.1788 24.3398 24.9175C21.5489 27.6563 18.1972 29.0256 14.2847 29.0256ZM14.2847 4.29876C11.2591 4.29876 8.729 5.31601 6.69451 7.35049C4.63394 9.33282 3.60365 11.8368 3.60365 14.8625C3.60365 17.862 4.63394 20.379 6.69451 22.4135C8.75508 24.4219 11.2852 25.4261 14.2847 25.4261C17.2582 25.4261 19.7883 24.4219 21.8749 22.4135C23.9094 20.379 24.9267 17.862 24.9267 14.8624C24.9267 11.8368 23.9094 9.33281 21.8749 7.35049C19.7883 5.31601 17.2582 4.29876 14.2847 4.29876Z" fill="white"/>
</svg>
